<svg id="Warstwa_1" data-name="Warstwa 1" xmlns="http://www.w3.org/2000/svg" xmlns:xlink="http://www.w3.org/1999/xlink" viewBox="0 0 1920 2495"><defs><style>.cls-1{fill:none;}.cls-2{clip-path:url(#clip-path);}.cls-3{fill:#86077f;}.cls-4{fill:#f11a89;}.cls-5{fill:#f33598;}.cls-6{fill:#1f1f45;}</style><clipPath id="clip-path"><rect class="cls-1" width="1920" height="2496"/></clipPath></defs><title>Obszar roboczy 2</title><g class="cls-2"><path class="cls-3" d="M4308.55-1343.85C3995.13-1123.24,3368.29-589.38,3229-403.59s-336.75,754.48-499.21,963.42-510.7,1033.25-534,1358.16c-23.16,325.09-383.07,1137.72-580.35,1346.67s-243.77,626.84-301.76,905.44c-58.16,278.6,266.93,661.67,499,1056.23l847.46,278.6,818.38,615.35L2394.24,6206c-180.57-40.57-379.24-97.16-477.1-149.57-162.46-87.06-458.47-151-609.43-151-139,0-272.21-121.89-342.38-162.46,66.86,54,166.52,325.09,249.58,423.64,33.43,39.87,85.15,118.23,120.49,159.32L762.18,6335-4014.54,5214.85c197.28-592,441.05-1044.74,905.44-1277,464.21-232.11,1114.39-348.25,1451-1311.67s743-2019.83,1079.56-2275.27C-242,95.62,617.14-659,663.45-1216.22c46.49-557.19,34.82-708-11.49-940.27-46.49-232.11-441.23-1044.74,185.62-1926.85"/><path class="cls-4" d="M1297.61,1289.76c-17.41,30.47-13.06,161.06,156.71-8.71,0,13.06-217.65,278.6-239.42,283s-47.88,91.41-47.88,91.41,143.65,43.53,300.36-230.71c-17.41,4.35-8.71,121.89-182.83,265.54,0,0,222-169.77,283-252.48l-309.07,374.37s82.71,60.94,217.65-126.24c0,0,78.36,130.59-30.47,217.65s-235.07,139.3-235.07,139.3-60.94-82.71-60.94-100.12-43.53-178.48-34.82-200.24,82.71-304.72,82.71-304.72Z"/><path class="cls-4" d="M2246.58,1254.94s-374.37,374.37-391.78,396.13S1750.33,1773,1672,1873.07s-56.59,91.41-213.3,243.77-261.19,222-352.6,317.78-191.54,248.13-191.54,248.13L801.36,3218.18l91.41-178.48,60.94-108.83,78.36-52.24-47.88,422.25s208.95-574.61,222-600.73,252.48-404.84,252.48-404.84l269.89-365.66,139.3-182.83,348.25-361.31,13.06-134.95"/><path class="cls-5" d="M656,1903.23c.14-161.36,4-319.21,34.08-480.35,6.6-40.26,17.78-80.25,28.62-120.32,4.81-20.18,13.08-39.6,19.74-59.41,7.42-19.58,13.48-39.75,22.39-58.8L787.44,1127c4.64-9.45,8.68-19.27,13.9-28.41l15.74-27.39L849,1016.6c11.09-17.91,23.72-34.7,35.63-52.06,12.12-17.19,24-33.91,35.92-50l38-44.76L996,827c12.33-14.1,26-26.55,39-39.69,26.46-25.68,52.09-51.91,79.9-76.83l86.45-76.22c121.18-103.36,264.56-222.42,473.95-403.59l2.22,2.57C1628,297.32,1576.27,358,1523.84,417.54q-38.69,45.22-78.59,88.86l-40.19,43.34-39.46,43.82q-39.66,43.58-80.47,86.08-39,43.91-79.09,87c-27.48,28.24-51.72,58.7-78,87.92-12.78,14.83-26.37,29.2-38.76,44.33l-36.75,45.78-36.4,44.52-32.79,43.95c-10.77,14.41-22.09,28.27-32.41,42.51l-29.38,43.33c-9.55,14.53-20.56,28.41-29.21,43.55l-26.9,45.63-13.79,23.3c-4.51,7.89-8.17,16.24-12.35,24.47l-24.91,50.91c-30.83,70.81-60.43,151.27-83.69,249.32-24.41,97.74-46,211.66-71.36,347.74Z"/><path class="cls-5" d="M612.51,1615.93c-2.94-146.16,8.37-290.92,46.1-434.81,11.09-35.55,21.1-71.58,34.85-106.68l21.93-52.36c3.84-8.66,7.22-17.53,11.53-26l13.43-25.27,27.43-50.39c9.73-16.48,21-32.07,31.58-48.09,11.09-15.65,20.94-32.33,33.32-47l36.67-44.47c50-58.34,101.35-104,154.6-144.86,25.91-21.44,53.77-39.75,81.85-58.82l42.59-28.9c14.48-9.61,29.82-18.43,45.09-28,122.35-76.5,268.13-160.52,482-289.75l1.76,2.91c-105.94,101.26-217.44,190-326.84,279.4C1240.79,601.74,1130.28,688,1031,786.41c-24,25.17-49.16,47.38-69.68,71.88-21.46,23.83-43.74,46.15-62.41,71l-29.78,36.41c-10,12.25-18.21,25.7-27.64,38.75l-28,40.36L787.91,1089c-35.34,60.2-65.76,131.23-95.18,217.05-28.25,86.25-53.4,187.87-76.88,310.52Z"/><path class="cls-4" d="M164.36,995.2c-34.82,139.3-179.93,632.65-330.83,841.6s-145.1,313.42-156.71,365.66-52.24,534-162.52,777.75-179.93,255.38-179.93,255.38,162.52-296,179.93-493.35-23.22-371.46,0-452.72-121.89,406.29-226.36,557.19-156.71,208.95-156.71,208.95S-654,2840.91-659.83,2556.51s52.24-475.94,104.47-609.43,110.28-145.1,203.14-290.21,499.15-655.86,505-731.32C170.16,919.75,164.36,995.2,164.36,995.2Z"/><path class="cls-4" d="M701.24,2199.56c26.12,156.71,95.77,522.37,52.24,687.79s-78.36,470.13-78.36,470.13,17.41-461.43-17.41-600.73-148-426.6-148-426.6v-565.9s52.24,565.9,121.89,687.79S701.24,2199.56,701.24,2199.56Z"/><path class="cls-4" d="M-1118.35,1778.76c11.61-255.38,174.12-528.17,243.77-626.84s162.52-203.14,162.52-203.14L-479.9,792.06s290.21-127.69,336.64-168.32S117.93,432.2-73.61,600.52s-127.69,81.26-325,197.34-267,121.89-354.05,261.19-116.08,191.54-116.08,191.54l-5.8,185.73Z"/><g id="Tree"><path class="cls-6" d="M1065-5832c4.81,17.11,9.11,34.36,13.64,51.57s9.87,34.17,14.13,51.45,9.17,34.37,13.21,51.7,5.57,35.2,9.42,52.57,9.46,34.33,13.14,51.74c3,14.57,6.46,29.08,9.27,43.71s2.93,29.75,5.66,44.39,6.13,29.14,8.88,43.77c2.18,14.8,5.87,29.35,8.15,44.11s4.1,29.61,6.23,44.42,2.41,29.78,4.14,44.65c1.44,15,3.13,29.88,4.8,44.79s4.19,29.72,5.56,44.68,2.09,29.87,2.63,44.93c1.8,33.81,4,33.69,6,67.49,1.39,22.51,1.13,45.37,1.72,68,.09,22.69-1.91,45.26-2.43,68-1.27,34.13-.17,34.17-1.45,68.31-.25,15.16-1.52,30.34-2.76,45.55s-3.64,30.2-5.24,45.34-2.28,30.4-3.65,45.5c-1.9,16.65-3.48,33.37-5.87,50s-6.9,32.85-9.77,49.4-5,33.16-8.37,49.61-6.82,32.83-10.65,49.18-8.62,32.4-12.92,48.63-8.09,32.55-12.87,48.64-10.54,31.83-15.8,47.77-9,32.38-14.75,48.15-11.86,31.4-18.06,47-14,30.51-20.66,45.91-12.44,31.18-19.59,46.37c-2.43,5.26-5.05,10.43-7.63,15.63-4.16,7.7-3.81,7.89-8.07,15.53-8.5,15.27-8.74,15.14-17.15,30.46s-8.76,15.1-17,30.46c-5.42,10.29-10.88,20.56-17.65,30.11-8.17,12.31-16.81,24.74-25.13,37.28-8.43,12.7-16.71,25.39-24.89,37.44-8.92,13.13-17.84,25.41-26,36.68-9.63,13.5-17.74,28-26.87,41.84s-19.38,26.94-28.08,41-16.19,28.94-24.51,43.26-18.06,27.87-26.08,42.36-15.28,29.44-23.07,44.05c-7.6,14.66-15.77,29.07-22.93,43.93s-12.86,30.45-19.59,45.52-14.57,29.69-20.88,44.94-12,30.8-17.86,46.22-10.28,31.4-15.74,47S647-3529.76,642.15-3514s-9.53,31.53-13.91,47.41S619.06-3435,615.16-3419s-8.59,31.86-12,48-5.48,32.53-8.51,48.72-6.51,32.41-9,48.72-3.45,32.86-5.42,49.26-2.83,32.87-4.28,49.32-4.23,32.78-5.18,49.27-2.82,33-3.27,49.46,1.93,33,2,49.56-1.28,33-.8,49.54.75,33,1.68,49.52,3.86,32.83,5.21,49.29,2.31,32.93,4.09,49.35c1.76,16.67,4.47,33.2,6.69,49.8s3.68,33.31,6.33,49.86,6.49,32.86,9.54,49.34,5.46,33,8.88,49.46,7.25,32.68,11,49,6.67,32.83,10.75,49.11,8.21,32.47,12.57,48.68,10.48,31.82,15.1,48,9.53,32.07,14.37,48.15,9.77,32,14.82,48c4.32,14.08,7.3,28.56,11.72,42.74,4.33,13.91,9.17,27.82,13.46,42.2,4.13,13.84,6.78,28.38,10.77,43,3.16,10.9,8,23.2,10.85,35.4,3.46,16.4,2.65,16.57,6,33,4.35,21.66,6.72,44,10.55,66.14,3.13,17.78,8.19,35.32,10.75,53.31s5.51,35.84,7.51,53.87,1.83,36.26,3.3,54.3,2.57,36.18,3.53,54.22,3.11,36.24,3.57,54.26c.28,16-1.08,32-1,47.94s.4,32,.21,47.92.56,32,.17,47.94-1.49,32-2.05,47.89-1.58,31.94-2.3,47.87-.72,32-1.58,47.91-3.44,31.82-4.41,47.75-.5,32-1.56,47.92-1.32,31.95-2.44,47.87-3.62,31.78-4.78,47.7-2,31.89-3.17,47.82c-2.52,32.48-2.23,32.5-5,65-2.27,22.59-5.22,48.65-8.95,72.38-3,15.74-8.25,31-11.86,46.43-3.64,15.63-5.15,31.74-9.53,47-4.43,15.44-11.14,30.08-16.43,45-5,14.62-8.45,29.72-14,44s-11.21,28.74-17.29,42.8-14.26,27.36-20.83,41.2-13.47,27.66-20.49,41.29-14.71,27-22.12,40.43-13.54,27.7-21.29,40.93q-12.38,21-25.17,41.66c-8.56,13.81-16.89,27.76-25.71,41.33s-18.81,26.5-27.9,39.9-17.35,27.48-26.7,40.71-19.11,26.26-28.7,39.32S436.31-526,426.5-513.15s-19.43,26-29.45,38.73-20.83,24.88-31,37.47-19.25,26.18-29.63,38.63-21.09,24.67-31.62,37-20.53,25.16-31.2,37.36c-10.56,12-22.9,22.42-33.57,34.3s-21.65,23.5-32.44,35.27-21,24.11-31.91,35.77-21.86,23.31-32.89,34.87-21.76,23.41-32.9,34.86S86.91-126.65,75.67-115.3,54.34-91.43,43-80.18,20.11-57.87,8.67-46.72-13.93-24.1-25.46-13-50.22,7.29-61.84,18.25-84.21,41.12-95.91,52s-24.23,20.76-36,31.51-23.9,21.1-35.76,31.75-22.71,22.43-34.66,33-24.76,20.11-36.8,30.57S-262,201-274.17,211.4s-23.94,21.07-36.16,31.32-25.58,19.11-37.88,29.26-24.75,20.09-37.14,30.13S-409.45,323-421.92,333s-24.5,20.42-37.06,30.26-26,18.47-38.66,28.2c-13.18,10-13.4,9.74-26.63,19.71-4.75,3.5-7.76,7-11.18,9.82-5.28,4.32-6.16,3.24-11.45,7.54s-4.77,5-9.91,9.49c-5.35,4.7-4.45,5.65-9.59,10.57-6.85,6.65-13.59,13-20.31,20-13.31,14.41-28.72,26.6-41.42,42.33-9.59,11.58-9.83,11.4-19.28,23.09-9.59,11.87-8.15,13-17.48,25.07-10.08,13.13-21.66,25.27-31.4,38.85s-18.72,27.46-28.07,41.31-18.2,27.81-27.21,41.86-17.25,28.42-26,42.64-16.52,28.86-25,43.21c-8.59,14.67-16.76,29.59-25.17,44.42s-16.94,29.5-25.16,44.42-17.28,29.33-25.32,44.36-16.48,29.79-24.35,44.9-13.86,31.14-21.57,46.33S-941.44,1020.73-949,1036s-13.21,31.43-20.63,46.76-15.73,30.2-23,45.59-13.68,31.18-20.86,46.62-15.15,30.5-22.22,46-14.06,31.32-21.12,47-14,31.36-20.93,47.06-15,30.92-21.85,46.66-13.16,31.72-20,47.48-13.59,31.53-20.32,47.32-13.6,31.53-20.26,47.35-11.75,32.3-18.34,48.15-14.79,31-21.31,46.92-12,32.17-18.52,48.07-14.07,31.34-20.49,47.27-11.22,32.6-17.61,48.59-14.13,31.44-20.47,47.45-12.24,32.19-18.54,48.22-13.83,31.57-20.09,47.61-10.8,32.75-17,48.81-12.87,31.95-19,48-11.46,32.48-17.55,48.59-12.24,32.19-18.28,48.31-13.42,31.75-19.41,47.89-12.53,32.09-18.45,48.26-11.16,32.68-17.08,48.88-12,32.36-17.91,48.58-10.78,32.81-16.64,49-11.35,32.6-17.18,48.84-11.62,32.49-17.43,48.75-12.18,32.29-18,48.56-12.46,32.2-18.24,48.47-10.6,32.85-16.37,49.13-10.53,32.88-16.29,49.16-13.07,32-18.84,48.26c-5.88,16.77-10.5,34-16.77,50.66s-15.06,32.28-21.68,48.79-12.11,33.44-19.07,49.81-13.32,33-20.6,49.21-14.5,32.48-22.08,48.58q-11.67,24.17-23.92,48.12c-8.18,15.91-17.62,31.18-26.22,46.91s-18.08,30.89-27.07,46.38-18.56,30.57-28,45.82-18.47,30.64-28.28,45.63c-9,13.73-16.79,28.26-26.16,41.74s-20.36,25.79-30.11,39-18.89,26.85-29,39.79-20.82,25.36-31.28,38-20.6,25.56-31.38,37.94-22.75,23.66-33.85,35.76-20.77,25.52-32.18,37.32-22.62,23.84-34.32,35.35-24.43,22-36.41,33.2-24.93,21.36-37.18,32.29-24.35,22-36.86,32.62-23.63,22.82-36.35,33.12-26.28,19.6-39.25,29.58-25.84,20.15-39,29.83-27.56,17.76-41,27.14-26.33,19.5-39.93,28.6-26.71,19-40.49,27.85-28.25,16.64-42.18,25.2-27.68,17.56-41.77,25.87-29.13,15.09-43.35,23.15-27.91,17.24-42.26,25.06-28.66,15.93-43.12,23.54c-15.47,8.19-31.46,15.28-47,23.21s-31.64,14.89-47.22,22.63-30.28,17.67-45.93,25.27-32.08,14-47.77,21.5-32,14.17-47.7,21.61c-19,9.07-19,9.21-38,18.3s-18.24,10.73-37.27,19.82-19.22,8.68-38.26,17.75c-18.86,8.94-37.28,18-55.54,27.23s-34.23,19.77-51.71,29.13c-15.48,8.31-31,16.55-46,25.51s-30.9,16.82-45.62,26.4-29.31,19.41-43.64,29.58-27.17,22.3-41.1,33-27.19,22.11-40.71,33.36-28.41,20.76-41.52,32.49-26,23.6-38.71,35.77-24.69,24.94-37,37.53-24.13,25.47-36,38.43c-11,12.27-21.13,25.3-31.84,37.9s-22.76,24-33.17,36.81-19.17,26.87-29.28,40-20.42,25.88-30.24,39.18-19.68,26.45-29.23,40-18.3,27.42-27.58,41.12-19.74,26.47-28.75,40.34-15.8,29-24.57,43-17.35,28-25.86,42.19-17.84,27.74-26.12,42.05c-8.66,14.8-16.11,30.32-24.62,45.27s-18.59,28.91-26.95,44-14.83,31-23.06,46.12-18.41,29.06-26.53,44.22-14.18,31.33-22.21,46.54-17.28,29.69-25.25,44.93-16,30.36-23.94,45.62-16.19,30.26-24.12,45.53-14.88,30.95-22.81,46.21-16,31.23-24,46.48c-18.29,1.56-20-1.67-34-13.57,2.65-15.8,3.38-30.73,6.29-46.49s5.71-31.55,8.89-47.26,6.44-31.41,9.88-47.06,9.26-30.75,13-46.34,7.36-31.17,11.35-46.69,6.79-31.34,11.05-46.8,8.15-31,12.69-46.38,11.1-30.11,15.93-45.4,9.47-30.59,14.57-45.8,10.42-30.28,15.79-45.39,11.07-30,16.73-45.05c5.74-15.41,11.26-30.94,17.39-46.26s13.18-30.16,19.68-45.33,10.85-31.21,17.73-46.22,14.65-29.53,21.91-44.35,14.33-29.67,22-44.3,17.59-27.92,25.62-42.34,15.79-28.87,24.2-43.07,15.08-29.38,23.87-43.35,19.38-26.68,28.56-40.4,16.9-28.35,26.46-41.81,19.27-26.74,29.21-39.92c13.9-18.46,29.66-35.69,44.47-53.56,11.17-13.39,11.26-13.31,22.51-26.63,7.62-8.79,15.59-17.39,23.54-25.94,24.16-25.44,23.53-26.1,48.67-50.57s27.4-22.25,53.59-45.81c8.82-7.76,16.36-17,25.49-24.42,13.85-11,14.82-9.73,28.75-20.59,18.65-14.39,35.36-31.54,54.82-44.86,13.17-8.56,26.27-17.31,39.4-26s26.76-16.61,40.19-24.77,26.85-16.5,40.93-23.54c20.66-10.93,42-22.29,62.57-31.91s40.87-19.84,61.31-28.84c13.53-6.1,26.78-12.64,40.3-18.35s27.79-10.17,41.4-15.7,27.13-11.73,40.78-17.22c16-6.3,32.46-11.33,48.4-17.45s32.19-12,48.16-18,31.92-12.71,47.9-18.75,31.78-13,47.75-19.13,32.54-11,48.48-17.21c15.56-6.14,31-12.47,46.45-18.75s30.5-13.71,45.84-20.21,30.91-12.72,46.14-19.48,30.95-12.69,46-19.78,29.38-16,44.3-23.43c14.72-7.49,29.44-14.93,44-22.75s28.88-16,43.19-24.2,28.52-16.6,42.57-25.26,27.81-17.75,41.54-26.9,28.28-17.14,41.65-26.83,25.14-21.39,38.12-31.55,26-20.17,38.61-30.81,25.56-20.82,37.73-31.93,24.6-22,36.34-33.55,22.37-24.22,33.63-36.26,23.56-23.31,34.42-35.79,21.59-25.11,32-38,18.76-27.31,28.71-40.54,21.12-25.52,30.67-39,19.16-27,28.35-40.76,18-28,26.85-42.15,17.82-28.15,26.28-42.51,16.63-28.87,24.71-43.45,13.78-30.38,21.49-45.16,15.78-29.29,23.12-44.25c7.22-15.13,15-30,21.94-45.29s13.56-30.68,20.22-46.09,12.63-31.07,19-46.61,13.93-30.56,19.93-46.24,12.58-31.14,18.22-47c5.74-16.3,11.35-32.67,17.1-49s9.09-33.47,14.84-49.8,12.09-32.42,17.86-48.74,12.49-32.28,18.27-48.59,12-32.46,17.78-48.76,11.18-32.75,17-49,11.8-32.53,17.65-48.81,10.16-33.12,16-49.4,12.69-32.21,18.61-48.47,12.55-32.26,18.5-48.5c5.67-15.54,10-31.55,15.72-47.09s12.95-30.48,18.65-46,11-31.19,16.75-46.71,11.35-31.07,17.11-46.58,10-31.56,15.82-47.06,12.42-30.67,18.24-46.16,13.09-30.42,18.95-45.88,10.39-31.44,16.29-46.89,11.47-31,17.41-46.47,11.2-31.14,17.19-46.56,13-30.45,19-45.85,11.32-31.1,17.41-46.47,12.71-30.54,18.87-45.9,12.15-30.77,18.36-46.1,11.92-30.87,18.19-46.17,13-30.41,19.37-45.69,12.6-30.59,19-45.84,14.73-29.68,21.21-44.91,13.38-30.25,19.93-45.44,12.62-30.57,19.25-45.73,11.4-31.12,18.12-46.24c7.08-16,15.37-31.41,22.56-47.34s15.05-31.53,22.37-47.41,14.69-31.69,22.14-47.51,14.84-31.62,22.42-47.38S-1068.73,937.7-1061,922s15.59-31.55,23.49-47.29,15-31.84,23.09-47.5,17-30.82,25.27-46.37,17.93-30.29,26.4-45.74,16.15-31.26,24.85-46.58C-929,673-919,658.11-909.85,642.66s16.78-31.69,26.25-47,20.12-29.62,30-44.66,18.49-30.69,28.77-45.46,22.5-27.85,33.24-42.31c10.28-13.72,7.79-15.63,18.37-29.12,10.71-13.66,13.38-11.54,24.26-25.07,14.24-18.08,30.13-35.75,46-53.21,8.06-8.68,16.7-17.37,25.26-25.85,6.5-6.34,7.16-5.6,13.89-11.69,6.95-6.28,5.23-8.24,12.4-14.27s8.78-4.14,16-10.16c4.88-4.08,10-7.68,13.9-10.64,12.5-9.72,11.71-10.74,24.17-20.52,13.34-10.56,25.76-22.27,39-33s26.57-21.26,39.71-32.1,27.21-20.52,40.24-31.48,25.82-22.19,38.75-33.27,25.17-22.93,38-34.12,26.83-21,39.57-32.34S-337,43.54-324.33,32.14-298.9,9.49-286.34-2s25.19-22.93,37.67-34.5,24.87-23.27,37.27-34.93,23.38-24.71,35.62-36.48,25.85-22.15,38-34,22.87-25.2,34.9-37.18,23.45-24.58,35.37-36.67,24.8-23.26,36.59-35.48,23-25,34.64-37.37S27.88-312.54,39.42-325s22.39-25.57,33.79-38.15,24-24.12,35.25-36.84,21.18-26.62,32.28-39.47c10.91-12.67,21.61-25.51,32.35-38.32s21.15-25.9,31.72-38.84S226.67-541.95,237-555s19.92-26.89,30.06-40.15,19.94-26.85,29.84-40.29,20.7-26.32,30.34-39.94,19.32-27.33,28.67-41.15,19.1-27.51,28.15-41.53,17.48-28.56,26.19-42.79,16.21-29.29,24.55-43.74c8-14,16.77-27.58,24.34-41.75s14.33-28.92,21.44-43.31,13.91-29.12,20.49-43.74,13.34-29.41,19.32-44.27c6-15,10.7-30.46,16-45.58,6.61-18.34,12.5-36.54,17.35-54.95,5-18.79,11.51-37,15.22-55.75,1.87-9.27,1.59-18.64,2.95-27.85,1.08-9.63,2.88-17.43,3.66-28.57,2.59-32.12,1.26-32.23,3.88-64.35,1.35-16.93,4.28-33.74,5.59-50.68s2-33.93,3.27-50.86,3.49-33.83,4.66-50.76,2.08-33.94,3.13-50.87,2-34,2.89-50.89.16-34,.92-51,2.79-33.93,3.36-50.87,1.35-34,1.7-50.95.47-34,.56-51-1.83-34-2-51c-.23-16.52.5-33-.15-49.33s-2-32.86-3.12-49.23-1-32.93-2.61-49.29-3.43-32.71-5.55-49-7.17-32.11-9.82-48.41c-3.28-20.49-6.35-41-10.24-61.76-2.9-15.37-2.13-15.51-5.18-30.84-2-8.85-1.79-17.67-4.53-27.55-3.4-13.18-8.27-26.47-12.22-40.32-3.8-13.27-8.19-26.67-12.23-40.3-4-13.39-7.11-27.15-11.08-40.64-4.62-15.46-11.12-30.43-15.61-46s-6.42-31.78-10.73-47.43-9.89-30.82-14-46.52-8.74-31.17-12.6-46.91-6.4-31.74-10-47.54S455.31-2556,452-2571.83s-4.25-32.15-7.28-48.07-8.06-31.43-10.76-47.41-2.69-32.34-5-48.36-7.16-31.69-9.13-47.77-2.37-32.32-3.93-48.43c-1.8-17.92-3.64-35.85-5-53.84s-1-36-1.88-54-2.93-35.94-3.3-54,.84-36,1-54.06-.71-36-.08-54.06,2.85-36,4-54.06,1.13-36.15,2.86-54.15,4.47-35.87,6.71-53.8,3.55-36,6.27-53.87,7.59-35.37,10.77-53.16,4.35-36,8.08-53.69,10.08-34.8,14.3-52.38,8.85-35,13.59-52.47,9.33-34.91,14.62-52.2,10.86-34.46,16.73-51.56,10.08-34.74,16.38-51.65,15-32.9,21.7-49.66,12.72-33.79,19.85-50.37,13-33.74,20.62-50.11,16-32.41,24.11-48.52,17.84-31.27,26.34-47.12,16.8-31.81,25.64-47.47,17.31-31.56,26.55-47,18.13-31.12,27.82-46.26,20.23-29.78,30.43-44.59c12.58-18.78,24.59-35.12,34.78-51.59,11.09-17.93,20.73-35.56,31.9-53.37a201.51,201.51,0,0,0,14.74-26c6.58-13.43,6.35-13.54,12.88-27s5.58-13.9,12-27.38c3.22-6.73,4.14-6.29,7.27-13.06,1.92-4.61,3.06-9.58,4.85-14.26q10.17-28.34,20.49-56.46a504.42,504.42,0,0,0,17.21-57.4c5-19.47,11.47-38.39,15.88-58,5.94-29.67,5.87-29.67,11.58-59.38,2.85-14.81,3.23-14.72,5.51-29.63s1.79-15.08,3.56-30.2c3.51-30.13,3.82-30.09,7.19-60.24,1.93-20.16,2.85-40.59,4.17-60.82.74-20.36,4.31-40.37,3.69-60.94-.24-20.5-.89-40.86-.87-61.26s-.55-40.72-1.86-61.24c-1.45-30.67-1.94-30.65-3.35-61.32-1.19-20.46-2.71-41-4.22-61.52-1.74-20.51-3.71-40.8-6.2-61.33-3.61-30.76-1.52-31-5-61.77-2.08-20.5-4.46-41.12-7.43-61.66s-8.77-40.6-11.43-61.07q-4.33-30.79-9.55-61.55c-3.45-20.49-6.45-41.07-9.64-61.57-2.6-13.67-5-27.36-7.55-41s-5.63-27.24-8.28-40.9-4.95-27.36-7.76-41q-5.32-24.59-10.85-49.14c-3.66-16.37-5.67-33.11-9.46-49.47s-9.9-32.13-13.83-48.45-7.78-32.62-11.88-48.9-6.65-32.92-10.94-49.15c-3.53-13.58-7.87-27-11.51-40.52s-7.24-27.12-11-40.64-7.95-26.92-11.95-40.39"/><path class="cls-6" d="M-1301.54,2136.66c3.12-16.18,5.32-31.86,9.75-47.7s9.49-31.55,14.9-47.09,12.76-30.4,18.81-45.66c8.95-23,18.09-45.66,27.81-68.32,15.85-33.23,16-33.18,32.4-66.12,7.59-14.48,15.78-28.66,23.71-43s15.19-29,23.5-43.07,16.87-28,25.59-41.87,17.69-27.53,26.87-41.06,19.25-26.45,28.91-39.65,19.43-26.3,29.59-39.12c23-28.77,23.39-28.44,46.77-56.89s22.38-29.3,46.24-57.37c10.86-12.35,22-24.45,32.76-36.88s21.58-24.77,32.7-36.93,23.13-23.24,35-34.76c6.61-6.56,5.32-7.88,12.1-14.26s7.17-6.18,14.34-12.3c9.8-8,19.23-15.81,30.08-23,10.67-7.15,21.54-14.9,32.17-21.26,15.81-9.09,15.16-10.22,31-19.23,21.1-12,20.92-12.28,42-24.26s21.88-10.6,43-22.59,21.38-11.49,42.45-23.52c13.94-8.1,27-17.67,41-25.81s27.23-17.33,41.12-25.52,27.87-16.22,41.73-24.48,28.14-15.79,41.95-24.13,27.64-16.63,41.39-25.06,27.72-16.52,41.4-25,27.22-17.32,40.83-26,26.76-18,40.29-26.8,27.16-17.4,40.6-26.31,27.18-17.4,40.51-26.46,26.47-18.45,39.69-27.67,26.13-18.92,39.23-28.32c19.55-14.06,39.85-27.1,58.52-42.07,9.38-7.43,19.1-14.58,28.26-22.2,13.58-11.56,13.51-11.64,27-23.26,6.76-5.81,5.67-7,12.23-13.06s8-4.39,14.17-10.59c8.13-8.29,16-17.3,23.42-25.91,10.83-13,10.81-13,21-26.42,10.89-14.37,11.67-13.8,21.93-28.62,9.07-13.3,16.95-27.43,25.87-40.86S141,659.47,149.77,646s18.07-26.68,26.74-40.27,15.94-28,24.53-41.67,18.83-26.22,27.37-39.88,16.75-27.53,25.27-41.2,16.74-27.55,25.1-41.33,15.37-28.37,23.6-42.22,18.46-26.55,26.55-40.48c7.9-13.76,14.07-28.64,21.94-42.53s15.52-27.94,23-41.9c7.59-14.25,15-28.38,21.62-42.57,4.16-8.72,6.27-7.72,10.39-16.46,2.8-6.31,6.95-11.78,10.51-17.71,7.8-11.44,15.32-23.14,25.09-32.35a309.75,309.75,0,0,1,29.17-24.86c10.53-7.81,21.79-14,32-21,13.21-8.74,24.87-18.78,36.79-28,12.33-9.58,25.56-17.77,36.42-28.62s20.31-23,29.57-35.71c9.47-12.7,18-26.15,27.11-39.33s18.28-26,26.86-39.49,16.2-27.42,24.32-41.11c12.46-20.48,24.36-41.32,36.11-62.23,10.78-21.46,22.3-42.46,31.92-64.48,6.77-14.43,13.72-28.75,20-43.38s12.09-29.46,17.88-44.28,12.14-29.47,17.54-44.43,11-29.9,16.13-45,8.5-30.75,13.33-45.9,10.89-30,15.54-45.19c4.62-15,8.31-30.35,12.5-45.5s7.18-30.62,10.89-45.89,9.9-30,13.09-45.41,4.49-31.2,7.12-46.69,6.57-30.86,8.58-46.44,1.08-31.53,2.42-47.19,3.52-31.49,4.28-47.35.82-31.66,1-47.54,2.24-31.71,2-47.58-3.41-31.6-4.19-47.45-.76-31.7-2-47.51-4.08-31.44-5.82-47.2-3.3-31.8-5.44-47.67-3-31.9-5.52-47.71-4.69-31.68-7.64-47.43-8.23-31-11.54-46.66-7.08-31.18-10.73-46.77-4.9-31.75-8.87-47.26-9.78-30.67-14.09-46.16-8.21-31.08-12.88-46.47-8.94-30.9-14-46.17-10.92-30.26-16.18-45.48-9.74-30.71-15.44-45.74-11.85-29.6-18-44.4c2.55-7.22,6.17-9.74,13.36-7.08,7.42,14.54,15.46,29,22.42,43.68s12.83,30,19.37,45,12.78,30,18.92,45.12,11.36,30.56,17.11,45.83,12.56,30.13,17.93,45.54,8.67,31.48,13.69,47,11.79,30.61,16.43,46.32,9.9,31.25,14.16,47.07,7.56,31.89,11.43,47.8,7.54,31.88,11,47.89S944-1121.09,947-1105s6.23,32.16,8.85,48.34,3.29,32.89,5.42,49.28,3.86,32.77,5.5,49.22,3.06,32.85,4.17,49.35,2.8,32.9,3.34,49.43,1.71,33,1.64,49.55,0,33.06-.71,49.6-4.13,33.1-5.81,49.63-2.09,33.3-4.56,49.74-7.09,32.56-10.3,48.87-5.53,32.86-9.42,49-7.69,32.43-12.21,48.42-11.62,31.26-16.72,47.08-8.75,31.84-14.59,47.21-12.7,30.41-19.17,45.54-14.05,29.78-21,44.68-14.24,29.68-21.61,44.39-14.68,29.49-22.34,44-15.82,28.91-23.65,43.36-15.9,28.71-23.88,43S755.27-125.79,747-111.58s-15.61,28.91-24.15,42.93-18.23,27.31-27.17,41.09S676.66-.89,667.23,12.59s-18.93,26.69-28.9,39.8c-7.72,9.94-16.25,19.53-25,29.15S596.61,101,587,109.43s-19.88,15.54-29.84,23c-10.23,7.66-19.5,16.36-29.66,23.35-20.11,13.82-40,26-55.53,41.12-7.85,7.5-13.83,16.23-19.66,24.87-2.57,4.53-6,8.52-8,13.39-3.56,7.77-3.45,7.81-7.07,15.55-7,15.15-15,29.49-22.47,43.88-7.65,14.68-13.85,30-21.81,44.26s-17.85,27.61-25.93,42c-8.06,14.12-15.62,28.52-23.82,42.54s-16.95,27.74-25.27,41.7S302,493.41,293.54,507.3s-17.45,27.44-26,41.28-17.8,27.21-26.5,40.95-16,28.33-24.91,42-17,27.72-26,41.27-20.34,25.5-29.5,38.95-18.39,26.78-27.69,40.13c-10.63,15-8.05,16.92-19.34,31.44-12,15.41-13.52,14.2-26.19,29.05C78.82,822,69.47,830.13,60.51,839c-6.76,6.58-7,6.36-14,12.67s-7.18,5.89-14.3,11.87c-14.22,12-14.48,11.64-28.76,23.54-9.58,7.8-18.19,16.64-27.92,24.18C-43.83,926.49-63.71,940.91-83.73,955c-13.3,9.34-27.63,17.18-41,26.33s-25.76,19.93-39.28,28.91-28.43,15.89-42.06,24.72-26,19.57-39.77,28.25-28.68,15.42-42.48,24-27.38,17.48-41.25,25.92-27.83,16.76-41.76,25.1-27.6,17.14-41.58,25.4-27.86,16.71-41.88,24.91-28.88,15-42.93,23.09-27,18.23-41.06,26.33-28.5,15.61-42.58,23.69c-21.09,12.05-21.32,11.65-42.42,23.69s-21.13,12-42.23,24-21,12.25-42.09,24.29c-15.79,9-16.18,8.33-31.92,17.43-10.17,6.14-18.85,12.8-28.39,19.09s-17.81,15-26.76,22.37c-6.67,5.7-6.44,6-12.82,12s-6,6.54-12.26,12.9c-12.46,12.72-13.05,12.16-25.12,25.25s-12.3,13.06-24.15,26.52c-16,17.75-29.79,37.66-44.29,56.74-9.5,12.91-19.14,25.78-28.15,39.06s-16.23,27.72-24.92,41.21-18.79,26.08-27.36,39.63c-8.34,13.73-15.86,28-24.3,41.61s-16.44,27.6-25,41.2-17.92,26.67-26.49,40.24-17.5,26.93-26.08,40.5-15.8,28-24.37,41.58-17.6,26.86-26.12,40.47-17.66,26.83-26.1,40.49-17.48,26.95-25.82,40.68-15.59,28.09-23.79,41.91-16,27.81-24.06,41.73-15.11,28.31-22.95,42.35-16.16,28-23.77,42.11C-1296.24,2144.17-1300.08,2141.28-1301.54,2136.66Z"/><path class="cls-6" d="M-1162.51,1416.11c6.79-14.57,13.13-29.09,20.36-43.35s14.06-28.89,21.73-42.94,17.16-27.16,25.21-41,16.66-27.38,25-41.05,16.64-27.39,25.27-40.9,16.47-27.63,25.49-41,17.35-27.12,26.76-40.18,20.79-24.59,30.69-37.29,20.33-24.82,30.8-37.05,21.18-24,32.3-35.71c14.14-14.56,27.48-29.72,41.86-44,14.67-14,28.38-28.88,43.25-42.67,14.68-13.91,29.28-27.89,44.14-41.59s30-27.06,45.42-40.16C-712,836.73-699.12,827-686.52,817s25.09-20.2,38-29.77,25.83-19.28,39.06-28.45,26.4-18.52,39.86-27.33,26.8-18,40.46-26.45c13.38-8.51,26.81-16.92,40.09-25.58s27.73-15.56,40.91-24.38,25.56-18.83,38.65-27.79,26-18.21,39-27.31,26.8-17,39.7-26.27,25.76-18.53,38.56-27.89,25-19.52,37.73-29,25.07-19.43,37.68-29S-191.47,468.71-179,459s24.26-20.46,36.68-30.31,24.72-19.79,37-29.75,24.58-20,36.78-30.06,25.92-18.38,38-28.59S-6.23,319.81,5.78,309.5s23.13-21.69,35.07-32.09c11.75-10.54,23.08-21.53,34.7-32.2S98.73,223.79,110.22,213s23.73-20.86,35.06-31.83,21.1-23.56,32.24-34.72,23.47-21.18,34.41-32.54c10.64-11.39,20.86-23.18,31.28-34.78S264,55.82,274,44,293.1,19.25,302.71,7s20.19-23.86,29.2-36.53,16.62-26.41,24.88-39.58c10.11-16.07,20.06-33.47,30-51.29,9.63-17.34,20.37-34.34,30.39-51.13,15.19-25.75,14.36-26.24,29.51-52s16.93-24.73,32-50.55c7.87-13.78,15.31-27.81,23.2-41.57s16.39-27.19,24.21-41,15.25-27.85,22.88-41.75S562.67-427,570-441.06s13.88-28.5,20.81-42.77,14.51-28,21-42.43,12.93-28.8,19.08-43.32,11.53-29.39,17.52-44,12.37-29.05,18.32-43.64,10.92-29.67,17-44.21,12.72-28.6,18.53-43.11,11.48-29.11,17-43.72,12.7-28.68,18-43.39,8.38-30.22,13.37-45,11.17-29.27,15.84-44.19,9.1-29.81,13.37-44.78S787.21-995.92,791-1011s7-30.34,10.27-45.56,5.67-30.59,8.35-45.93,5.62-30.6,7.64-46c2.37-17.17,6.23-34.21,7.68-51.51s1.17-34.7,1.68-52.05,1.72-34.71,1.25-52.06-1.41-34.73-2.9-52-5.42-34.29-8-51.46-4.13-34.48-7.76-51.46-9.4-33.37-14.14-50.09-8.16-33.76-14-50.14-13.2-32.2-20.19-48.15c2.16-7.34,9.29-12.9,14.32-7.13,19.89,22.78,13.27,27.32,26.43,54.55,7.65,18.65,17.81,36.46,24.94,55.44,6,19.31,12.42,38.72,17.5,58.38,4.5,19.76,8.91,39.66,12.08,59.75,3.06,16,7.11,31.88,9.21,48s2,32.53,3.23,48.79,4.42,32.41,4.79,48.71-.87,32.62-1.27,48.92-.58,32.63-1.7,48.88-1.74,32.59-3.57,48.76-4.2,32.35-6.65,48.44-6.11,32-9.15,48-5.36,32.18-9,48.06-9.42,31.24-13.57,47-9.32,31-14,46.52-8.48,31.3-13.67,46.64S790.21-779.13,784.54-764s-11.31,30.39-17.41,45.39-12.22,30-18.73,44.87S734.84-644.45,727.69-630,711.9-602,704.27-587.78s-13.24,29.5-21.16,43.51S666-516.93,657.94-503s-15.15,28.47-23.16,42.41c-14.82,26.1-15.38,25.78-30.17,51.9s-16.3,25.26-31.11,51.37c-9.92,17.33-19.34,34.93-29.38,52.17s-20.14,34.49-30.3,51.65c-15,25.76-13.23,26.8-28.18,52.6s-16.53,24.89-31.5,50.67c-10.23,17.51-18.39,35.51-27.91,53.09C417-80.05,407.12-62.94,396.41-45.09c-8.43,14-16.72,28-25.89,41.35s-20.87,25-30.71,37.93S321.3,61,310.91,73.46s-21.27,24.61-32.06,36.73S256.68,134,245.62,145.84c-11.08,11.61-22.55,22.82-33.86,34.17s-22.37,23-33.9,34.14S155.35,237,143.6,248s-23.25,22.15-35.18,32.86-25.76,19.3-37.87,29.81S47.31,332.8,35,343.14s-24.27,21-36.67,31.17S-27,394-39.48,404s-25.06,20-37.68,29.93-26,18.79-38.73,28.56-24.25,21-37,30.54-26.77,17.6-39.64,27.08-25.64,19.1-38.61,28.47-25.9,18.76-38.94,28-26.32,18.16-39.45,27.29-26,18.69-39.17,27.69-26.26,18.25-39.56,27.13-26,18.6-39.43,27.35-27.23,16.8-40.7,25.43-27.61,16.17-41.16,24.66c-13.35,8.36-25.87,18-39,26.65S-575,780-587.88,789s-25.66,18.24-38.28,27.62-25.1,19-37.38,28.82-23.7,20.67-35.6,31c-14.76,12.9-31.14,24-44.79,38.12-14.25,13.46-26.28,29.05-39.16,43.86s-26.33,29.11-38.31,44.68-23.22,31.69-34.88,47.45c-9,12.94-19.2,25.08-28.43,37.9s-17.56,26.27-27,39-20,24.44-29.56,37-17.75,26.15-27.41,38.67-20.74,23.84-30.5,36.29-19.37,25.45-29.42,37.91-20.14,24.83-30.41,37.12-20,25-30.55,37-21.6,23.57-32.5,35.32-21.71,23.42-33,34.81C-1159.43,1424.16-1162.24,1420.94-1162.51,1416.11Z"/><path class="cls-6" d="M354.15,329c-2.67,16.34-4.32,32.52-7.26,48.83s-6.87,32.41-10.13,48.66-6,32.59-9.61,48.76-9.12,31.87-13.1,48-5.4,32.82-9.8,48.8-10.62,31.61-15.35,47.59-8,32.4-13.22,48.23-13.28,30.64-19,46.28-11.41,31.24-17.77,46.65-11.15,31.46-18.15,46.59-16.14,29.32-23.57,44.3-13.42,30.67-21.32,45.4-16.5,29.08-24.89,43.54-16.27,29.24-25.13,43.41-19.54,27.17-28.88,41-17.67,28.43-27.47,42-20.63,26.31-30.91,39.5-19.36,27.36-30.1,40.17-23,24.34-34.19,36.74-21.43,25.74-33.09,37.71C-68.24,1231.43-80.07,1239.3-90,1249s-19,20.32-29.17,29.85-19.37,20.08-29.43,29.7c-23.4,20.47-23.84,20-47.44,40.21s-23.89,19.9-47.55,40.06c-12.57,10.44-25.24,20.77-37.51,31.55s-24.71,21.4-36.71,32.49-23.79,22.42-35.54,33.76-24.11,22.11-35.66,33.66-21.21,25-32.58,36.71-23.79,22.44-34.81,34.49-21,25-31.73,37.34-22.59,23.66-33.06,36.18-20.62,25.34-30.88,38-20.33,25.58-30.4,38.43c-9.84,13-18.22,27.13-27.82,40.33s-19.2,26.38-28.56,39.75-20,25.83-29.15,39.38-17.8,27.38-26.66,41.09-18.24,27.1-26.84,41c-10.81,17.3-18.65,36.41-29,54s-21.29,34.8-30.71,52.91c-9.6,18-18.8,36.2-28.11,54.36-13.62,27.42-13.84,27.31-27.24,54.84-6.92,14.79-13.39,29.77-20.1,44.67s-14.94,29.12-21.36,44.14-13.08,30-19.16,45.13-10.11,31.12-15.77,46.45-13,30-18.19,45.54c-6.94,19.22-11.37,39.26-17.18,58.85-8.86,29.41-8.37,29.55-17.18,59-8.93,29.82-10.22,29.43-19.07,59.27s-8.48,30-17.3,59.8c-4.69,16-9.81,31.88-14.5,47.93s-10.37,31.72-15.24,47.7-7.35,32.69-12.6,48.54-11.09,31.52-16.91,47.17-12.91,30.79-19.49,46.15-13.41,30.68-20.37,45.92-13.88,30.48-21.21,45.54-16.06,29.39-23.82,44.23-14,30.51-22.22,45.09-16.1,29.43-24.85,43.71-18.47,27.9-27.47,42-18.94,27.56-28.23,41.45-17.24,28.73-26.85,42.4-19.51,27.19-29.46,40.61-20.48,26.46-30.79,39.6-20,26.55-30.42,39.46-22.46,24.54-33.13,37.24-20.59,26.09-31.5,38.6-22.61,24.34-33.75,36.64-21.37,25.48-32.73,37.58-24.47,22.55-36,34.45-23.49,23.45-35.25,35.16-22.83,24.12-34.78,35.65-23.57,23.4-35.68,34.75-24.49,22.85-36.76,34c-7.65.11-11.18-3.59-11.14-11.24,10.95-12.23,22.58-24.11,33.45-36.4s20.93-25.3,31.7-37.67,22.92-23.59,33.57-36.06,20.08-26,30.6-38.6,21.61-24.73,32-37.45,19.53-26.41,29.71-39.27,20-26,30-39,21.7-24.75,31.44-37.95,18.66-27,28.15-40.41,18.7-27,27.91-40.55c9.34-13.35,17.94-27.19,26.86-40.8s17.92-27.2,26.49-41,16.37-28.16,24.64-42.18,16.84-27.88,24.88-42,15.28-28.78,23.15-43,16-28.26,23.56-42.63,16.19-28.2,23.45-42.73,14.77-28.95,21.79-43.6,13.53-29.55,20.34-44.29,13.78-29.42,20.44-44.24c12.59-27.84,10.69-28.7,23.29-56.53s14-27.19,26.57-55c8.26-18.67,15.32-37.89,23.31-56.72,8.17-18.77,14.86-38.1,21.72-57.39,7.11-19.21,14.15-38.39,20.41-57.91,9.12-29.36,9.71-29.18,18.82-58.54,9.23-29.74,8.77-29.89,18-59.61,6.1-19.89,13.83-39.25,21.08-58.77,5.39-15.76,10.51-31.61,16.21-47.27s11.09-31.41,17.11-46.95,13-30.67,19.33-46.08,11.15-31.46,17.81-46.73,14-30.26,21-45.38,13.62-30.43,20.93-45.4,15.25-29.64,22.9-44.44,16.93-28.72,24.9-43.35,15.92-29.24,24.23-43.68S-770,1933-761.3,1918.74s19.43-27.15,28.44-41.17,17.7-28.22,27-42,17.6-28.35,27.25-41.94,20.32-26.44,30.23-39.84,19.31-27.19,29.45-40.41c10.37-13,20.22-26.51,30.78-39.39s23.19-24,34-36.74,20.87-26,31.91-38.45,22.12-24.91,33.45-37.12,22-25,33.7-36.93,24.23-22.87,36.08-34.56,23.61-23.48,35.67-35,23.36-23.8,35.67-35,26.39-20.42,39-31.31,24.42-22.66,37.34-33.17c23.61-19.72,23.52-19.83,47.07-39.63s24.22-19,47.49-39.13c14.84-13.93,30.11-27.45,45-41.36s29.14-28.48,43-43.37c11.37-11.63,23.62-22.47,34.64-34.44s21.25-24.69,31.87-37,20.74-25.1,30.9-37.8,19.36-26.15,29-39.25,20.21-25.56,29.31-39,16.42-28.14,25-41.93,19.28-26.38,27.38-40.5,15.94-28.42,23.53-42.82,13.17-29.82,20.3-44.45,15.09-28.87,21.78-43.7,12-30.52,18.41-45.63,14.44-29.53,20.44-44.79,11.48-30.73,17.16-46.12,11.28-30.79,16.69-46.29,10.79-31,16-46.54,8.09-31.84,13.08-47.47,12.06-30.57,16.91-46.25,8.23-31.77,13-47.47,9-31.52,13.73-47.24,11.32-30.45,16-46.16C349.21,323.18,352.49,324.5,354.15,329Z"/><path class="cls-6" d="M-861.05,5597.78c-4.94-12.12-11.42-22.72-16.1-34.84s-7.08-25.26-11.44-37.51c-6.88-18.15-8.58-17.5-15.58-35.61s-6-18.5-13.1-36.56c-5-11.91-9.28-24-14-36s-9.59-23.9-14.89-35.63c-4.73-11.92-9.91-23.67-15-35.47s-9.73-23.76-14.94-35.49c-6.84-16-14.15-31.8-21.27-47.83-7-15.84-15.58-31.13-22.38-47.34-6.68-15.93-11.67-32.68-17.66-49.28-6-16.88-13.51-33.51-18.13-51s-7-35.45-10.12-53.2-4.1-35.88-5.53-53.76c-1.38-13.36-4.09-26.53-4.63-39.82s.5-26.77.22-40.1c-.51-13.3-1.82-26.46-1.73-39.68s2-26.36,2.68-39.48c.6-17.48.61-35.08,1.29-52.69s.81-35.13,2-52.67,2.91-35,5-52.47,4.22-34.7,6.68-52,4.11-34.74,7-51.94,7-34.26,10.28-51.39,6.09-34.42,9.74-51.49,9.49-33.68,13.41-50.68,6.52-34.35,10.65-51.31c3.77-15.6,6.7-31.42,10.64-47s8.08-31.08,12.17-46.6,8.23-31,12.47-46.52,8.79-30.89,13.18-46.32,8.9-30.85,13.42-46.25,8.8-30.88,13.45-46.24,9.64-30.63,14.41-46,11.61-30,16.5-45.28,9.31-30.72,14.31-46,10.17-30.44,15.28-45.66,9.54-30.66,14.74-45.84,9.86-30.56,15.15-45.71,11.8-29.88,17.18-45c5.84-16.37,12.56-32.42,18.52-48.75s12-32.62,18.05-48.91,9.94-33.4,16.13-49.65,14.54-31.65,20.84-47.85,11.17-33,17.59-49.11,12.43-32.48,19-48.59,14.6-31.62,21.3-47.69,13.24-32.18,20.08-48.18,14.06-31.82,21.08-47.75,14.5-31.69,21.85-47.51,13.53-32.17,21.11-47.88,15.79-31.11,23.62-46.68c7.6-15.28,15.5-30.47,22.46-46.1s11.8-32.08,18.16-48,12.41-31.78,18.22-47.87,11.9-32,17.26-48.25,10.66-32.45,15.61-48.81,9.92-32.7,14.55-49.15,8.15-33.47,12.48-50.15,10.73-32.82,14.79-49.57,8.07-33.51,11.87-50.32,7.46-33.65,11-50.52,6.91-33.77,10.19-50.68,4-34.3,7-51.26,6.09-34,9.06-51.07,7-33.88,9.86-50.94,6.09-34,8.73-51.14,3.24-34.47,5.64-51.6,4.89-34.21,7-51.38,5.15-34.2,6.93-51.41,5.11-34.46,7-51.78,2.9-34.69,5-52,3.79-34.57,6.08-51.9c2-13.14,5.31-26.06,7.52-39.28,2.18-13,3.78-26.19,6.79-39.36a307.63,307.63,0,0,1,12.49-40.72c5.21-13.57,12.24-25.84,18.24-38.5,7.74-15.85,13.2-32.69,21.38-48,8.28-15.54,18.32-30,26.94-45.13s16-31.26,25-46.23,18.68-29.68,27.82-44.57,18.68-29.64,27.87-44.51,19.3-29.22,28.42-44.17c9.1-14.63,18.09-29.32,27.09-44s17.23-29.85,26.11-44.59,17.83-29.48,26.55-44.32,18-29.39,26.53-44.34,16.18-30.43,24.48-45.51,17.3-29.81,25.34-45,16.44-30.08,24.13-45.37S48,1376.2,55.29,1360.73s14.58-31,21.46-46.63,14.54-31,20.94-46.9,11.56-32.23,17.42-48.31,13.38-31.61,18.65-47.9,8.26-33.12,12.72-49.6,10-32.68,13.55-49.36,6.29-33.57,8.83-50.43,5.08-33.8,6.43-50.8.41-34.11.38-51.18.49-33.75-1.06-50.8c4.46-6.22,8.62-6.91,14.44-1.93,2.87,17.42,4.49,34.61,5.75,52.16s3.13,35.15,2.92,52.77-2.21,35.16-3.71,52.73-4.18,34.93-6.82,52.36-4.11,35.07-7.72,52.29-7.09,34.63-11.52,51.63-11.87,33.12-17,49.88-10.36,33.49-16.11,50.06-10,33.71-16.28,50.08S104.5,1363,97.75,1379.2s-14.11,32.12-21.24,48.14S63.58,1460,56.14,1475.9s-16.83,30.62-24.56,46.25-14.09,32-22.06,47.48-16.92,30.53-25.1,45.93-15.25,31.43-23.59,46.74S-57.57,1692-66,1707.24s-15,31.59-23.59,46.78c-12.88,22.55-15,21.33-27.93,43.85s-12.31,22.88-25.24,45.4-13.56,22.16-26.47,44.7c-8.41,14.79-15.11,30.56-23.44,45.32s-17,29.53-25,44.43c-8.06,15.13-16,30.18-23.17,45.38-10.42,22.39-20.11,45.1-25.45,65.74-2.9,12.14-5.75,24.52-8.51,37.05-2.71,12.31-6.84,24.42-9.36,36.88-3.66,16.82-5.25,34.14-8.71,51.11s-7.32,33.73-10.68,50.7-7.49,33.73-10.86,50.67-5.36,34.35-8.54,51.43-7.35,34-10.36,51.09-6.07,34.21-9,51.34-6.59,34.11-9.55,51.24-5,34.38-8.12,51.48-6.7,34.08-10,51.14-6.12,34.32-9.53,51.42-6.33,34.28-9.87,51.36-8.75,33.77-12.47,50.8-7.1,34.11-11.07,51.09-7.12,34.13-11.37,51-9,33.67-13.58,50.5-8.08,34.23-13.06,51.1-10.65,33.5-16,50.24-10.9,33.41-16.78,50-13.52,32.44-19.95,48.81-13,32.57-20.09,48.7-14.17,32.09-21.9,47.91c-7.49,15.54-13.65,31.72-21,47.34s-14.21,31.44-21.42,47.12-14.25,31.41-21.32,47.16-14.17,31.45-21.11,47.26-15.31,31-22.12,46.83-13.3,31.85-20,47.77-12.07,32.35-18.61,48.32-13.08,31.93-19.5,47.95-15.09,31.15-21.39,47.21-12.37,32.23-18.56,48.34-10.15,33.06-16.23,49.22-12.84,32-18.8,48.24-11,32.73-16.89,49-13.28,31.93-19,48.22-10.81,32.81-16.44,49.14-11,32.73-16.55,49.09-10.35,33-15.73,49.36-12.58,32.23-17.82,48.69-10,33.08-15,49.59-10,33.06-15,49.61-8.26,33.57-13,50.17-10.05,33-14.63,49.7-9.33,33.26-13.72,50-8.41,33.5-12.61,50.25c-4,16.71-9.59,33.07-13.42,49.84s-5.22,34.07-8.78,50.89-7.48,33.57-10.72,50.44-6.51,33.77-9.36,50.71-5.22,34-7.61,51-4.2,34.12-6.08,51.2c-1.93,16.87-5.61,33.66-6.69,50.72s-1.53,34.07-1.76,51.13,1.41,34.08,2,51.1,1.06,34.1,2.49,51,2.16,34.14,4.44,51c2.29,17,5.16,33.85,8.3,50.49,3.24,16.43,7.67,32.5,11.75,48.53s9.19,32,14.19,47.83,10.54,31.42,16.44,47.08c9.15,24.15,9.58,24,18.75,48.13s8.46,24.42,17.62,48.56,9.94,23.86,19,48.05c5.88,16.54,11.46,33.23,16.73,50s8.15,34.19,12.78,51.12,10.4,33.57,14.35,50.66,8.27,34.17,11.5,51.42,6.62,34.55,9.08,51.92,2.42,34.94,4.09,52.41C-853.73,5601.26-857.06,5600.53-861.05,5597.78Z"/><path class="cls-6" d="M-548.58,5842.93c-6.37-14.54-12-29.44-17.94-44.07s-13.23-28.86-18.78-43.65S-594.77,5725-600,5710s-9.85-30.08-14.85-45.09-10.39-29.9-15.21-45-9-30.19-13.6-45.27-8.6-30.3-12.88-45.47-9.76-30-13.69-45.26-6.34-30.87-9.82-46.25-8.65-30.36-11.6-45.86c-4-19.34-7.38-38.84-11.22-58.24s-7.21-38.88-11.4-58.19-8.43-38.61-13.07-57.81-9.26-38.4-13.9-57.61c-3.73-15.4-7.81-30.71-11.4-46.16s-7.3-30.84-10.72-46.32-5.26-31.27-8.46-46.8-6.67-31-9.6-46.55-7.26-30.89-9.88-46.53-3.43-31.71-5.8-47.48-6.06-31.32-8.07-47.14-2.31-31.8-3.9-47.66-5.43-31.52-6.53-47.43-1.67-31.86-2.21-47.8-.78-32.11-.72-48.17,2.85-32,3.49-48.07-1-32.21.31-48.21,4.28-31.84,6.33-47.77,5.36-31.61,8.23-47.41,6.07-31.58,9.6-47.29,7.68-31.22,11.93-46.75,6.89-31.54,11.86-46.85,11.48-30.11,17.18-45.16,11.05-30.27,17.49-45,13.14-29.16,19.89-43.58,15.24-28.11,22.36-42.38,13.86-28.76,21.37-42.84,14-28.74,21.89-42.63,17.81-26.52,26.14-40.18,16-27.65,24.69-41.08,16.36-27.52,25.45-40.67,19.37-25.46,28.87-38.31,18.11-26.41,28-39,21.69-23.58,32-35.81,20-24.54,30.44-36.43,21.37-23.38,32-35.08,20.54-24.16,31.28-35.75,20.94-23.81,31.68-35.39,22.82-22.09,33.45-33.77c10.37-11.59,20.39-23.49,30.57-35.19s20.84-23.12,30.72-35.07,18.12-25.32,27.55-37.63,20.28-23.69,29.09-36.47,16.05-26.63,24.08-39.95c10-16.52,19-33.58,27.89-50.72s16.52-34.89,24.77-52.32,17.63-34.53,25.31-52.41c7.6-17.69,15.11-35.52,23.28-53.31,7.12-16,14.38-31.87,21.51-47.84s13.08-32.44,20.21-48.42,15.1-31.54,22.25-47.51S0,3068.34,7.16,3052.38s13.05-32.45,20.25-48.4,13.59-32.22,20.83-48.15,14.57-31.78,21.85-47.68,15.51-31.34,22.85-47.22,14.77-31.68,22.17-47.54c8.44-17.92,16.72-35.95,25.43-53.79s18-35.3,27.05-53,18.95-35.1,29-52.55,19-35.57,29.81-52.13c10.59-16.52,21.41-32.72,31.66-49.07,10.44-16.66,21.6-32.74,30.4-49.91a330.37,330.37,0,0,0,21.86-52.73c5.33-18.15,7.25-37.54,8.49-56.63,5-5.78,10.65-5.33,15.38.69.66,20.34,0,40.66-3.85,60.84-4.13,20.12-11.88,39.19-19.37,58.11-7.75,18.62-15.81,36.81-24.93,54.37q-13.92,26.81-27.86,53c-9.28,17.34-17.15,35-25.63,52.23s-16.84,34.65-24.4,52.76c-7.74,18-17.44,35.14-24.86,53.29s-12.43,37.19-19.66,55.41c-8.61,22-10.7,21.18-19.27,43.2s-6.73,22.73-15.3,44.75-8.62,22-17.19,44-8.52,22-17.09,44.06-9.07,21.83-17.67,43.83c-5.84,14.7-11.51,29.49-17.51,44.15s-13.15,28.81-19.32,43.4S28.14,3171,21.81,3185.49s-11.46,29.55-18,44S-9.85,3258-16.54,3272.39c-6.71,14.5-15,28.32-22.52,42.64s-13.27,29.34-21.34,43.3-17.72,26.85-26.29,40.47S-105,3425.19-114,3438.48s-17.67,26.9-27.06,39.87c-11.72,16.31-23.32,32.66-35.36,48.67s-24,32.17-36.63,47.73-25.63,30.56-38.72,45.51-26.44,29.88-39.88,44.5c-10.62,11.6-20.28,24-30.88,35.54s-22.71,21.79-33.25,33.36-20.92,23.43-31.33,35.12-19.42,24.71-29.6,36.61-22.13,22.41-32,34.59S-467.58,3864.7-477,3877s-19.14,24.51-28.21,37.12-17,26-25.75,38.87-17.33,25.78-25.69,38.88-16.18,26.51-24.18,39.83-16.46,26.36-24.15,39.91-14.28,27.62-21.66,41.32-14.21,27.65-21.27,41.49-14.95,27.32-21.68,41.3-14.63,27.56-21,41.69-11.08,28.84-16.68,43.19-11.06,28.8-16,43.41-8.86,29.53-13.1,44.35-8.55,29.62-12.16,44.61-6.5,30.13-9.53,45.25-6.17,30.32-8.41,45.63-4.07,30.66-5.6,46.07-3.19,30.78-4.07,46.24,0,30.94-.25,46.42-2.48,30.94-2.23,46.41,1,31.18,1.86,46.75,4.62,30.9,6,46.43,2.71,31,4.5,46.49,2.41,31.08,4.6,46.52,4,30.92,6.55,46.3,5.1,30.94,8,46.34,7,30.56,10.23,45.91,7.83,30.35,11.25,45.66S-719,5090-715.4,5105.3s6.39,30.69,10.12,45.91c4.64,19.08,8.67,38.34,13.79,57.33s10.66,37.83,16.58,56.59,12.06,37.52,18.42,56.19,14,36.86,20.3,55.53c5.29,14.88,9.82,30,14.6,45s9.37,30.14,13.72,45.31,7.76,30.59,11.71,45.87,7.22,30.7,10.84,46.07,7,30.74,10.34,46.17,8.6,30.65,11.62,46.25,3.76,31.58,6.4,47.25,6.63,31.09,8.81,46.84,3.69,31.53,5.32,47.35,2.09,31.45,3.1,47.34C-540.88,5845.55-544.75,5845.91-548.58,5842.93Z"/><path class="cls-6" d="M37.69,5074.66c1.94-17.85,4.4-35.65,6.33-53.5s4.14-35.67,6.09-53.51,3.19-35.77,5.18-53.61,4.71-35.6,6.78-53.43,3.55-35.73,5.73-53.55,4.51-35.61,6.81-53.42,5.64-35.59,8.2-53.44,5-35.67,7.74-53.5,4.3-35.8,7.33-53.58c3.19-17.83,6.9-35.59,10.41-53.41s6.21-35.75,10.1-53.48,7.76-35.44,12.09-53.08c3.82-15.2,9.34-30,13.59-45.13s7.39-30.55,12.09-45.54,9.43-30,14.61-44.81,12.14-29,17.82-43.64,10.65-29.56,16.85-44,14.35-28,21.09-42.13,12.72-28.7,20-42.6c8.72-16.15,16.61-32.81,26-48.61s21.29-30,31.35-45.34,18.48-31.86,29.35-46.63c7.83-10.94,17.28-21.06,25.64-31.82,8.52-11,17.57-21.38,25.56-31.83s16.32-20.68,24.06-31.35,15.17-21.54,22.55-32.45c9.24-13.53,18.37-27.18,27.13-41s15.41-29,23.69-43.13,16.32-28.37,24.14-42.79,17.12-28,24.48-42.67,12.61-30.29,19.52-45.16,14.62-29.34,21.1-44.4,12.91-30.12,19-45.35,12.59-30.28,18.25-45.67,9-31.58,14.22-47.11,11.91-30.58,16.79-46.22,8.08-31.79,12.59-47.54,9.06-31.48,13.21-47.33,10.28-31.23,14.07-47.16c4.2-17.24,6.31-35,10.14-52.29s9.62-34.26,13-51.66,5.82-35,8.83-52.52,5.54-35.07,8.1-52.62,5.94-35,8-52.65,1.33-35.55,2.9-53.22,4.61-34.9,5.68-52.42.92-35.17,1.34-52.7,2.21-35.2,1.83-52.72c-.19-13-2.76-25.91-3.64-38.79s-.19-26.09-1.45-38.94c-2.3-19.93-4.57-19.66-7-39.57s-.74-20.12-3.19-40c-2.14-16.58-3.63-33.25-5.67-49.88s-6-33-7.94-49.6-3.6-33.26-5.4-49.91-2.34-33.39-4-50.05-4.46-33.18-6-49.86-1-33.49-2.38-50.17-3.64-33.27-4.79-50-2.25-33.38-3.21-50.09-1.7-33.41-2.45-50.14-.07-33.47-.6-50.2-2.21-33.4-2.51-50.14.37-33.45.32-50.19-1.35-33.46-1.14-50.2c.27-17-.29-34,.25-51s2.64-33.93,3.45-50.93,1.71-34,2.82-50.94,3.36-33.83,4.79-50.79,2.6-33.89,4.36-50.82,4-33.75,6.08-50.64,3.3-33.86,5.78-50.69,5.58-33.54,8.44-50.31,4.24-33.8,7.49-50.5,6.67-33.37,10.33-50,8.48-33,12.56-49.48,7.71-33.14,12.23-49.55,9.61-32.63,14.58-48.92c5.48-17.84,12.47-35.22,18.48-52.92s12.37-35.21,18.93-52.73,13.87-34.64,21-51.93,12.1-35.71,19.89-52.85,16.47-33.84,25-50.59,17.16-33.51,26.67-49.75c8.07-14,17.32-27.34,26.1-40.91s19.11-26.07,28.55-39.19,18.54-26.46,28.59-39.12,20.46-25,31.08-37.18,20.81-24.78,32-36.47,22.4-23.38,34-34.57,24.68-21,36.78-31.63c10.15-9.18,19.65-19.73,30.38-28.56,11-9.07,23.57-16,33.84-24.42,15.51-12.79,14.66-13.82,30.16-26.63s15.9-12.32,31.42-25.1c13.87-11.31,26.17-24.38,39.51-36.23s28.27-22,41.29-34.25,25.63-24.9,38.52-37.28,25.21-25.29,37.57-38.15,25-25.47,37.15-38.54,22.61-27.66,34.82-40.68c11.68-13.45,24.49-25.91,36.31-39.27s22.73-27.48,34.36-41,24.85-25.71,36-39.64c11.34-13.73,21.9-28.11,33-42s22.72-27.48,33.54-41.62,19.71-29.75,30.23-44.11,21.73-28.25,31.91-42.85,19-30.12,28.85-45S1757.56,72.13,1767,57s18.29-30.48,27.28-45.8,18.28-30.49,26.82-46.08,16.14-31.67,24.23-47.49,17.56-31,25.19-47,14.1-32.65,21.29-48.91,13.38-32.92,20.11-49.37,14.46-32.59,20.88-49.33,12.08-33.6,18.24-50.36,11-34.05,16.9-50.82,13.37-33,18.76-50,9.36-34.34,14.34-51.43,9.22-34.35,13.85-51.53,8.71-34.41,13-51.66,9.71-34.2,13.71-51.51,7-34.84,10.66-52.22,7.61-34.73,10.78-52.18,5.35-35.14,8-52.68,6.38-35,8.43-52.63c1.28-12.76,2.39-25.65,3.08-38.27.73-13.17,1.67-26.17.29-38.43-1.23-12.91-4.11-26-6-39.23-1.86-13-3.63-26.19-5.68-39.25-4.34-26.53-4.74-26.46-9.12-53s-4.31-26.53-8.69-53.06-3.87-26.61-8.23-53.13c-2.87-17.77-6.19-35.48-9-53.28s-5.78-35.55-8.48-53.37-4.47-35.74-7-53.58-6-35.53-8.36-53.39-4.52-35.73-6.65-53.63-3.73-35.82-5.59-53.75c-1.49-15.56-1.62-31.25-3-46.85s-5-31-6.17-46.58-.9-31.28-1.78-46.92-1.06-31.23-1.51-46.89-1.6-31.22-1.5-46.9,2-31.16,2.74-46.84.67-31.2,2.15-46.85c1.11-13.8,1.76-28.06,4.08-42.07s6.51-27.68,9.35-41.23c2.57-12.92,6-25.62,8.51-38.53s4.9-25.75,6.93-38.86c2.36-13,2.08-26.53,4.18-39.67s5.49-26,7.28-39.17c2-13.16,2.46-26.55,4.21-39.79s4.62-26.27,6.21-39.52c2.05-16.35,3.64-32.77,5.59-49.15s5.68-32.53,7.54-48.92,1.4-33,3.17-49.42,5-32.63,6.68-49,3.93-32.75,5.53-49.16,2.32-32.91,3.85-49.32,3.75-32.77,5.21-49.2,1.77-32.95,3.17-49.38,3.85-32.77,5.19-49.2,2.44-32.89,3.73-49.33.53-33,1.77-49.47,2.78-32.86,4-49.3,2.26-32.9,3.42-49.34c1.21-17.81,4.54-35.49,5.72-53.31s1.86-35.67,3-53.5,2.63-35.63,3.67-53.45,1.87-35.68,2.79-53.51,1.15-35.72,1.92-53.55.07-35.74.66-53.58c.51-19.91,1.21-19.89,1.87-39.8.68-20.79,1.77-20.74,2.71-41.52.73-13.82,2.18-27.35,3.43-40.87s.46-27.44,1.77-41.08c2-17.95,4.24-35.86,6.45-53.73s5-35.75,7.35-53.6,4.75-35.77,7.28-53.61c2.37-16.4,5.2-32.73,7.65-49.11s4.34-32.86,6.85-49.23,4.59-32.82,7.16-49.18,5.86-32.62,8.48-49,4.69-32.81,7.34-49.15,7.15-32.4,9.84-48.74,5-32.76,7.68-49.1,6.15-32.56,8.88-48.9,3.85-32.95,6.59-49.28,7.23-32.38,10-48.71,4.93-32.77,7.66-49.1,5.13-32.73,7.84-49.07,5.87-32.61,8.55-49c2.83-17.62,5.3-35.32,8.18-53s4.4-35.48,7.24-53.11,7.4-35,10.1-52.66,5.88-35.28,8.35-53,4.58-35.49,6.72-53.19,2.88-35.68,4.6-53.41c1.49-17.93,2.71-35.89,4.43-53.79s3.52-35.82,5.48-53.69,5.67-35.56,7.89-53.41,4.42-35.69,6.91-53.51,4.64-35.66,7.42-53.44,6-34.55,9.11-52.28c5.87-4.91,10.42-5.19,14.48,1.3-2.43,17.7-6.41,35.42-8.54,53.18s-3.45,35.6-5.29,53.39-3.75,35.57-5.33,53.37-2,35.71-3.32,53.54-3.44,35.61-4.52,53.45-1.22,35.75-2.07,53.6c-1.27,18-3.3,35.89-5,53.76s-3.56,35.84-5.57,53.7-3.45,35.86-5.7,53.7-5.87,35.54-8.26,53.37-4.19,35.76-6.62,53.59-3.29,35.87-5.67,53.72c-2.26,16.38-4.58,32.76-6.86,49.14s-6.39,32.51-8.68,48.89-3.86,32.86-6.16,49.24-4.39,32.79-6.69,49.16-6.14,32.54-8.44,48.92-3.9,32.86-6.18,49.24-2.4,33.06-4.66,49.44-4.65,32.75-6.87,49.14-7,32.43-9.21,48.82-3.19,32.95-5.33,49.34-2.91,33-5,49.38-6.44,32.53-8.47,48.94-1.68,33.12-3.64,49.54c-2.12,17.71-4.86,35.34-6.84,53s-3.77,35.47-5.56,53.19-4.25,35.43-5.83,53.17c-1,13.14-1.29,26.4-2.21,39.56s-2.32,26.46-2.72,39.51c-.46,19.54.47,19.55.26,39.1-.22,20.43-1.66,20.41-1.74,40.84-.23,18-.71,36-1.09,54s.25,36-.26,54-.07,36-.72,54-2.09,36-2.85,53.94-1.05,36-1.92,54-3,35.9-4,53.88c-.92,16.59-1.72,33.18-2.7,49.76s-.94,33.23-2,49.81-3.93,33-5,49.62-1.09,33.23-2.28,49.8-2.82,33.11-4.11,49.67-1.28,33.23-2.66,49.79-3.58,33-5.06,49.59-4.2,33-5.78,49.52-3.6,33-5.3,49.55-3,33.09-4.79,49.6-2.76,33.12-4.7,49.62-5.15,32.84-7.23,49.32-4.77,32.87-7,49.34c-1.84,13.43-2.33,27-4.35,40.48s-5.38,26.59-7.65,40c-2.05,13.43-3.26,27-5.64,40.48s-4.27,26.88-6.93,40.27c-2.32,13.44-6.07,26.74-9.27,40.2s-6.18,26.83-9.33,40.18c-3.13,12.66-7.2,24.78-9.77,37.22s-2.5,25.3-4.07,38.28c-2.41,17.22-5.35,34.47-6.7,52-1.34,17.36-.94,34.88-1.49,52.42s-2.57,34.91-2.55,52.42c0,17.7,2.07,35.4,2.6,53.16s-.54,35.5.49,53.22,4.05,35.25,5.57,52.94.55,35.78,2.29,53.56,5.33,35.33,7.33,53.08,4.95,35.34,7.17,53.06,4.29,35.42,6.71,53.11,2.62,35.68,5.19,53.35,6.19,35.17,8.89,52.82c4.07,26.6,4.31,26.56,8.38,53.16s4.89,26.48,9,53.08,2.92,26.78,6.95,53.38c2,13.53,3.58,27,5.36,40.66,1.75,13.38,4.68,26.75,5.84,40.62,1.34,14.54.8,28.61-.06,42.32-.89,14.25-3.69,28.06-5.21,42-2,15.42-4.73,30.64-7.15,45.93s-4.37,30.71-7.19,45.94-3.79,30.89-7,46-6.44,30.38-9.93,45.48-7.3,30.17-11.05,45.21-9.81,29.5-13.78,44.49-7.73,30-11.87,45c-4.92,17.38-8.72,35.09-14,52.37s-10.56,34.56-16.24,51.72-12,34.1-18.1,51.1c-6.33,16.94-13.12,33.61-19.37,50.45s-12.63,33.71-19,50.56-12.64,33.62-19.37,50.43c-5.83,14.36-12.33,28.43-18.5,42.66s-13.28,28-19.79,42.06-12.93,28.14-19.79,42-14,27.61-21.22,41.34-13.46,27.95-21,41.5-15.11,27.07-23,40.43-14.88,27.26-23.08,40.41C1785.85,92.61,1784.88,92,1774,109.15s-10.91,17.14-22,34.14-11.65,16.64-23,33.46-10.49,17.44-22,34.15c-10.57,14.62-21.55,29-32.2,43.52s-21.63,28.88-32.49,43.28-22.07,28.54-33.28,42.68c-10.83,14.44-21.06,29.34-32.39,43.36s-22.07,28.57-33.6,42.44-23.65,27.25-35.05,41.24c-13.19,15.4-12.9,15.67-26.26,30.92s-14.48,14.28-27.82,29.55c-8.87,10.2-18.08,20.12-26.95,30.34S1410.57,580,1401.48,590c-12.09,13.4-23.95,27-35.74,40.7s-25.22,26-36.95,39.71-22.87,28-34.83,41.52c-11.5,13.53-23.92,26.46-35.48,40s-22.36,28.07-33.57,41.64c-11.59,14-23.43,27.5-34,41.29-10.42,13.62-19.66,28.05-29.47,42s-20,27.77-29.36,42.06-17.14,29.63-26,44.21-17.6,29.3-26.1,44.12-18.72,28.72-26.91,43.71-16.35,30.07-24.29,45.2c-7.78,15.17-13.76,31.27-21.32,46.58s-15.17,30.53-22.39,46-15.88,30.26-22.62,46-12.22,32.13-18.48,48.15-11.17,32.47-16.93,48.67-12.11,32.14-17.39,48.5c-5,15.31-10.06,30.59-14.65,46s-7.73,31.26-12,46.81-9.8,30.7-13.71,46.34-8.22,31.15-11.8,46.86-6.68,31.51-9.94,47.29-5.29,31.77-8.25,47.61-6.58,31.53-9.25,47.42-5.52,31.73-7.91,47.67-2.56,32.15-4.68,48.12-6,31.69-7.83,47.7-3.76,32-5.39,48-2.39,32.12-3.78,48.17-2.52,32.1-3.69,48.16c-1.25,16.33-2.87,32.65-3.88,49s-2,32.72-2.76,49.09-2.19,32.72-2.74,49.1.13,32.79-.21,49.18-.53,32.76-.67,49.16,1.19,32.76,1.23,49.16-2.36,32.78-2.14,49.18,3,32.71,3.38,49.11-.9,32.8-.38,49.19,2.21,32.7,2.88,49.09.51,32.77,1.3,49.15,1.67,32.72,2.58,49.09,3.53,32.62,4.54,49c1.13,20.27-1.61,20.42-.52,40.7s3.52,20.15,4.5,40.43c.44,14-1.47,28-1.46,41.86s-.26,27.89-1,41.74q-1,27.52-3,54.77c-1.4,18.29-1.48,36.64-3.52,54.79s-4.2,36.4-6.81,54.49-6.5,35.75-9.56,53.62-5.16,36-8.65,53.78-8.36,35.36-12.17,53.1-7.53,35.4-11.65,53-8.6,35.15-13.1,52.67-7.81,35.38-12.68,52.8c-4.22,14.91-8.41,29.84-12.86,44.67s-9.6,29.47-14.28,44.23-8.69,29.76-13.59,44.46-10.81,29.05-15.93,43.67-11.28,28.86-16.6,43.41-10.75,29-16.27,43.51-11.55,28.73-17.25,43.13-9.64,29.67-15.65,44-12,28.72-18.26,43-14.86,27.43-21.39,41.56-12,28.74-18.82,42.72-14.47,27.53-21.68,41.33-13.25,28.2-20.85,41.79-16.46,26.41-24.49,39.76c-7.07,11.76-14.95,23-22.42,34.56s-13.08,24.29-21,35.55-17.71,20.44-25.12,31.13c-7.57,10.93-14.23,22.31-21.47,33.67-9.47,14.75-18.86,29.54-28,44.48s-17.08,30.59-25.66,45.85-18.36,29.91-26.23,45.55c-8,15.6-15.13,31.69-22.61,47.58S265,4233.88,258.07,4250s-14.12,32.17-20.49,48.54-11.43,33.21-17.25,49.78-10.46,33.48-15.74,50.24-10.09,33.57-14.83,50.49c-5,17-10.3,33.91-14.85,51.08s-7.67,34.6-11.85,51.86-8.23,34.46-12.11,51.78c-4.05,17.37-8.06,34.75-11.86,52.22s-9.39,34.49-13,52-8,34.81-11.52,52.31-4.7,35.68-8.32,53.27-9.41,34.71-13.08,52.29-6.29,35.36-10,52.92-9.12,34.75-13,52.29-6.24,35.39-10.29,52.89S51,5058.59,46.74,5076C44,5080.63,39.44,5079.18,37.69,5074.66Z"/><path class="cls-6" d="M390.87,3949.83c-1.08-16-.9-32.53-1.87-48.5s-1-32-1.91-48-3.35-31.9-4.15-47.89-1.24-32-2-48-1.3-32-2-48-1.73-32-2.38-48-2.14-32-2.76-48,1-32.09.35-48.09-3.2-31.84-3.79-47.8-.18-32-.75-47.91-.53-31.94-1.05-47.9-3-31.86-3.48-47.82-.48-31.94-.86-47.91-.21-31.94-.48-47.91.91-31.95.75-47.92.32-31.93.32-47.9-1.54-32-1.72-48,.38-32,.11-48-1.83-32-2.25-47.94.6-32,0-48-2.21-31.92-3.06-47.88-.69-32-1.78-48-3.3-31.83-4.55-47.76-2-31.92-3.36-47.85-4.42-31.69-5.87-47.6-3.54-31.76-5.06-47.67-2-31.92-3.61-47.81-4.08-31.7-5.87-47.57-3.16-31.9-5-47.93-4.46-31.8-6.21-47.8-2.5-32.05-4-48-3.11-32-4.25-48c-1.33-17.07-1.93-34.2-3.17-51.27s-1.59-34.21-2.73-51.3-4-34.06-5.06-51.15-.85-34.25-1.8-51.35-3.49-34.11-4.35-51.21-.6-34.26-1.37-51.36-.15-34.27-.83-51.37-2.83-34.16-3.41-51.27.13-34.26-.37-51.38-2.82-34.18-3.23-51.3-.61-34.24-.94-51.36.65-34.26.4-51.38.34-34.24.18-51.37-2.42-34.23-2.49-51.35-.66-34.25-.66-51.37c0-16.07,1.58-32.15,1.71-48.22s-.37-32.16-.14-48.23,1.71-32.12,2-48.2,1.44-32.11,1.9-48.19-1.1-32.2-.52-48.27,2.36-32.08,3.08-48.14,1.59-32.1,2.47-48.16,2.07-32.07,3.11-48.12,2.66-32.16,3.95-48.26,1.16-32.3,2.68-48.38,3.25-32.12,5-48.18,3.12-32.14,5.24-48.17c2.15-16.2,5.84-32.21,8.47-48.39s5.94-32.12,9.22-48.21,5.45-32.26,9.52-48.19c4-15.77,10-31.07,15-46.77,5.48-16,11.35-31.15,17.64-46,6.5-15.29,13.55-30,20.37-44.88,6.7-14.66,12.46-29.73,19.34-44.26s15.15-28.45,22.14-42.94,14.16-28.82,21.26-43.22,13.11-29.35,20.3-43.71,13.57-29.13,20.83-43.45,15.16-28.33,22.49-42.62S530,497,537.35,482.72s14.09-28.84,21.53-43.06,17.29-27.16,24.78-41.35,13.47-29.17,21-43.33,16.3-27.67,23.88-41.81,15-28.36,22.63-42.48,13.79-29,21.45-43.12,14.89-28.43,22.57-42.51,15.3-28.22,23-42.3,15.55-28.09,23.33-42.13S758,73.08,765.87,59.07s15.84-27.92,23.72-41.9,16.17-27.73,24.08-41.7,15.27-28.24,23.19-42.2,16.4-27.6,24.32-41.56,15-28.37,22.94-42.34,17.2-27.25,25.09-41.29,14.25-28.91,22.16-42.93,15.42-28.26,23.45-42.22,17.62-27,25.86-40.81,16.7-27.79,25.13-41.66,15.95-28.25,24.66-42,17.38-27.37,26.49-40.83,19.85-25.61,29.44-38.75c10-13.4,18.79-27.61,29.35-40.76,10.28-12.8,21-25.58,32.9-38,5.87-6.33,12.95-12.56,19.42-18.78,6.53-6.06,16.42-13,23.48-18.17,10.72-7.09,23.2-15,34.55-25,11.59-10.24,22.8-21.24,34.21-32.18,11.21-10.75,21.4-22.72,32.42-34s21.73-22.45,32.47-33.88,21.46-22.81,32-34.34c10.73-11.74,22.64-22.44,33.25-34.31s20.89-24,31.38-36,21.35-23.63,31.71-35.71,19.28-25.39,29.53-37.57,21.57-23.46,31.71-35.73,20.53-24.34,30.55-36.71,19.09-25.5,29-38,19.51-25.16,29.33-37.69,19.83-25,29.59-37.58,20.34-24.59,30-37.28,18.31-26.14,27.84-38.92,20.31-24.65,29.72-37.52,16.78-27.22,26.05-40.19,19.07-25.57,28.19-38.64,17.61-26.59,26.58-39.76,19-25.62,27.86-38.91,18.33-26.06,26.9-39.47,16.45-27.28,24.76-40.84,16.41-27.29,24.41-41,14.8-28.2,22.43-42.16c7.56-13.8,14.41-28,21.63-42.08s14.27-28.12,20.72-42.48,12.45-29,17.7-43.78,11.51-28.77,15.09-44.11c6.33-4.31,11.37-5.36,15.57,1a467.79,467.79,0,0,1-11.47,48.39c-4.48,15.68-11.47,30.47-17.2,45.66s-9.84,31.14-16.39,46-14.37,29.26-21.3,43.93c-7.11,14.49-14,29.09-21.47,43.37s-16,28-23.84,42.11-16.09,27.95-24.16,41.9-15.64,28.22-23.91,42.06-17.79,26.85-26.25,40.54-16.75,27.48-25.37,41.07-15.62,28.23-24.39,41.72-17.43,27.08-26.34,40.48-17.87,26.79-26.92,40.1-17.91,26.77-27.09,40-19.17,25.88-28.48,39-19,26-28.44,39-18.63,26.32-28.21,39.29-19.37,25.78-29,38.67-19.6,25.6-29.39,38.41-20.69,24.74-30.6,37.46S1509.7-836,1499.65-823.4s-20.58,24.81-30.78,37.31-21,24.42-31.39,36.79-20.69,24.69-31.22,36.91S1386-687,1375.14-674.9s-21.35,24.45-32.54,36.28c-11.29,12-23.23,23.44-35.07,35.11-11.63,11.46-24.4,21.91-37.1,32.91a379.91,379.91,0,0,1-42.36,32.39c-5.65,4.51-8.85,7.14-14.1,11.92-5,5-10,9.37-15,14.8-10.25,10.74-20.37,22.36-30.2,34.52-9.54,11.81-19.71,23.43-29.16,35.45-9.45,12.72-19,25.43-28.42,38.3s-18.62,25.72-27.88,38.68-17.79,26.32-26.92,39.35-16.89,26.93-25.89,40-19,25.48-27.88,38.69-16.28,27.32-25,40.61-19.58,25.18-28.16,38.55-16.57,27.14-25,40.6-16.09,27.63-24.36,41.31S882.49-58.7,874.39-44.93,858.72-17.06,850.74-3.21s-15.28,28.08-23.18,42-15.92,27.73-23.78,41.65S789,108.79,781.19,122.75s-16.13,27.62-23.88,41.6-16.26,27.55-24,41.55-16,27.71-23.6,41.77-14,28.81-21.5,42.91-15.28,28.1-22.76,42.23-13.78,28.89-21.21,43-16,27.71-23.4,41.9S605.5,445.81,598.18,460s-13.6,29-20.87,43.21-14,28.73-21.27,43-15.75,27.84-22.89,42.13S518.3,616.67,511.23,631s-13.72,28.86-20.71,43.23-12,29.66-18.93,44.07-15.08,28.13-21.82,42.56-12.14,29.51-18.67,44c-6.47,14.27-13.5,28.29-19.47,42.52-6.17,14.7-12.74,29-17.57,43.38-4.68,14.86-7,30.47-10.77,45.76-3.72,15.13-8.76,30.06-11.8,45.49s-3.94,31.07-6.48,46.56-6.68,30.66-9,46.15c-2.21,15.72-4.73,31.43-6.63,47.22s-2.1,31.73-3.72,47.54-3.26,31.59-4.65,47.43-3.61,31.58-4.82,47.43-.34,32-1.34,47.89-2.38,31.82-3.23,47.76-2.85,31.81-3.56,47.75-2.29,31.85-2.88,47.8-1.11,31.9-1.58,47.86,1,32,.65,47.91-.07,31.91-.33,47.87-1.56,31.89-1.73,47.85c-.14,17,.93,34.09.87,51.14s-2.36,34.09-2.34,51.14,2.44,34.08,2.54,51.13.1,34.09.29,51.13-1.72,34.12-1.45,51.16.75,34.09,1.1,51.13,3,34,3.44,51.07-1.06,34.14-.52,51.17.46,34.1,1.1,51.14,1.42,34.07,2.15,51.1,3.74,34,4.57,51,1.15,34.08,2.08,51.1.09,34.15,1.12,51.16,2,34,3.11,51.05,5.15,33.82,6.4,50.82c1.16,16,1.33,31.95,2.85,47.82s2.37,31.86,4.14,47.74,3.81,31.67,5.68,47.57,3.15,31.7,5,47.65,5.35,31.72,7,47.68,3.54,31.92,5.1,47.9.75,32.18,2.24,48.17,2.79,32,4.23,48,4.23,31.85,5.57,47.84,1.77,32.06,3.13,48.06,3.21,31.94,4.64,47.93,4.3,31.83,5.83,47.81,1.1,32.17,2.68,48.16,4.91,31.8,6.48,47.79,2.84,32,4.34,48,2.6,32,3.93,48c1.52,16,3.44,32,4.67,48s1.77,32.11,2.73,48.15,2.54,32.07,3.24,48.12-.52,32.18-.06,48.25,1.57,32.11,1.81,48.18,1.19,32.14,1.23,48.21,0,32.15-.19,48.22-1.79,32.12-2.12,48.19-1,32.16-1.56,48.24-.09,32.2-.83,48.27-1.56,32.15-2.51,48.21-2.69,32.07-3.89,48.12-3.36,32-4.82,48-2.82,32-4.57,48-1.15,32.27-3.2,48.24-5.87,31.63-8.26,47.55C398.63,3954.71,393.52,3953.88,390.87,3949.83Z"/><path class="cls-6" d="M288.16,1870.26c.29-18.35-.68-36.28.45-54.48s2.6-36.55,4.5-54.71,4-36.4,6.62-54.49,7.83-35.78,11-53.8,6-36,9.76-53.85,8.33-35.5,12.81-53.2,8.83-35.38,14.15-52.85,8.94-35.52,15.19-52.69c5.94-15.15,12-30.24,17.71-45.47s13.15-29.82,18.73-45.1,9.62-31.12,15.18-46.4,11-30.64,16.59-45.89,11.4-30.48,17.24-45.66,11.38-30.5,17.52-45.57,13-29.83,19.56-44.73,14.8-29,21.85-43.65,12.35-30.16,20-44.56c8.45-16.34,17.54-32.42,26.64-48.44s19.34-31.36,29.11-47,19-31.58,29.47-46.76,22.53-29.14,33.69-43.81q17-21.87,34.85-43.23c9-10.6,9.88-9.8,19.37-20s9.78-9.84,19.78-19.54c13.46-12.8,24.83-27.92,39.06-39.9,21.65-17.68,22.38-16.78,44.26-34.18,12.77-9.56,24.66-20.22,37.09-30.21S864.9,639.85,877,629.48s25.56-19.23,37.41-29.91,22.34-22.82,33.94-33.78,23.77-21.28,35.16-32.46,22.7-22.4,33.92-33.76,22.6-22.51,33.68-34,21-24,32-35.62,22.74-22.41,33.66-34c11.44-12.55,22.1-25.83,33.49-38.45s22.81-25.18,34.12-37.87,22.7-25.28,33.92-38,22.28-25.65,33.4-38.5,22.56-25.42,33.56-38.37,22.44-25.53,33.32-38.59,21.31-26.48,32-39.65,21.46-26.36,32-39.65,19.81-27.65,30.23-41.06,21.19-26.56,31.44-40.11,21-26.71,31.07-40.41,19.76-27.65,29.6-41.5,19.67-27.71,29.3-41.71,19.38-27.92,28.76-42.08,17.8-29,26.93-43.28,19.73-27.74,28.6-42.24,17.74-29,26.32-43.65c9.72-15.17,19.75-30.06,29.76-45s20-29.94,30-45,20.09-29.91,30.26-44.77c14.86-22.55,14.55-22.76,29.24-45.41,9.73-15.14,19.53-30.26,29.59-45.21s19.32-30.44,28.94-45.66c14.35-22.9,15.66-22.08,30-45s12.06-24.32,26.3-47.28c8.3-13.71,18.69-26.15,26.86-39.94s14.87-28.44,22.9-42.31,16.93-27.24,24.8-41.21,15.22-28.22,22.92-42.28,14.94-28.36,22.46-42.52,15.69-28,23-42.23,13-29.32,20.13-43.69,15.12-28.28,22-42.76,13.5-29.08,20.13-43.68c7-3.07,12.25-2,15.4,5-4.95,15.45-12.21,30.92-17.57,46.22s-8.59,31.38-14.33,46.54-13.18,29.67-19.26,44.7-12.84,29.76-19.23,44.66-13.3,29.55-20,44.33-13.08,29.65-20,44.32-14.24,29.11-21.34,43.69-14.45,29-21.71,43.5-13.19,29.66-20.58,44.09-14.26,29.14-21.91,43.43-15.79,28.33-23.62,42.52-15,28.76-23.05,42.84-17.64,27.26-25.86,41.22-16.17,28.1-24.59,42-17.79,27.11-26.4,40.84-16.07,28.2-24.88,41.8-17.17,27.53-26.18,41-18.75,26.47-28,39.81c-10.6,14.83-23.13,28.22-34.3,42.64s-21.19,29.72-32.53,44c-11.08,14.46-23.79,27.62-35.4,41.67s-22.95,28.35-34.25,42.61c-11.47,14.13-22.34,28.73-33.3,43.24S1510.19-7,1499,7.36c-16.81,21.47-16.15,22-33,43.46s-18.21,20.38-35,41.82c-10.06,12.66-20.78,24.79-30.87,37.43s-18.93,26.27-29.06,38.88-19.48,25.84-29.68,38.39-20.28,25.2-30.57,37.68-21.74,24-32.12,36.39-20.69,24.86-31.2,37.15-20.2,25.3-30.84,37.48-22,23.71-32.82,35.75-22.78,23-33.75,34.87q-18.6,20-37.47,39.82c-12.57,13.2-23.83,27.67-36.5,40.77s-26.79,24.83-40,37.49-26.6,25.09-39.61,37.87-26.58,25-40.46,37c-20.7,18.12-20.32,18.56-41.05,36.65-13.79,11.78-27.54,24.24-42.2,35.41C858,703,842,712.62,827.93,723.74c-20.81,16.26-20.37,16.82-41.14,33.13-13.7,11.06-25.28,24.63-38.31,36.52-9.69,9-9.61,9.06-18.83,18.58S718.81,820,710.06,830c-11.57,13.41-22.74,27.2-33.83,41-10.53,14.33-22.24,27.8-32.75,42.16s-20.25,29.26-29.38,44.6c-10,14.8-18.48,30.53-27.35,46s-18.13,30.79-26.6,46.51c-8.08,16-16.36,31.93-24,48.15s-13.49,33.25-20.66,49.68-13.42,33.2-20.05,49.86-13.46,33.19-19.5,50.09c-6.44,16.78-13.54,33.35-19.06,50.47s-10.88,34.29-15.52,51.67c-5.22,17.19-9.08,34.92-13,52.51-5.81,26.38-5.37,26.48-10.92,52.91-3.27,17.74-5.88,35.6-9.81,53.15s-7.86,35.18-12.29,52.64-11.11,34.3-15.83,51.7-8.8,34.9-13.63,52.28c-5.08,17.46-10.39,34.86-15.68,52.31s-11.27,34.56-17,51.89-10.64,34.76-16.91,51.91-13.22,33.57-20.25,50.46C293.18,1876,290.16,1874.67,288.16,1870.26Z"/><path class="cls-6" d="M669.79,825.11c1.47-17.24,6-34,9.75-50.19,3.82-16.68,7.18-33.27,12.92-49C698.26,710,706.27,695,713.58,679.8s14.8-30.35,23.15-45.07,17.55-28.86,26.43-43.27,17.43-29,26.39-43.31,16.71-29.43,25.3-44,17.21-29.1,25-44.09,15.41-30.07,21.85-45.72c6.77-13.45,13.9-26.72,20.57-40.21s13.35-27,19.93-40.52,13.78-26.78,20.29-40.36,11.9-27.68,18.32-41.29,12.73-27.28,19.1-40.92c12-25.56,13.45-24.89,25.52-50.45s9.83-26.61,21.92-52.14c8.18-17.08,17.92-33.41,26.3-50.39s16-34.36,24.93-51c6.94-13.42,14.89-26.3,22.05-39.59s13.7-26.94,21-40.15,16-25.66,23.38-38.84,12.7-27.51,20-40.71,16.72-25.31,23.91-38.58c8.75-16.65,15.89-34.16,24.54-50.84s18-33.09,25.57-50.29c7.39-17.25,12.47-35.47,19-53.07s13-35.48,20.74-52.47,17.78-32.64,25.8-49.32,15.93-33.49,24-50.16,16.32-33.32,24.11-50.13,14.12-34.29,21.28-51.4,13.5-34.63,19.94-52.08,14-34.48,19.7-52.22,11-35.51,15.93-53.51,8.84-35.7,13-53.9c5.83-5,9.17-4,14.27,1.7,0,15.37-1.49,30.15-2.54,45.5s-2.33,30.57-4.3,45.83-4.49,30.33-7.25,45.47-5.08,30.3-8.52,45.29-6.93,30-10.93,44.79-9.35,29.23-13.88,43.89-7,30-12,44.51-11,28.73-16.68,43-11.15,28.69-17.52,42.64-14.39,27.19-21.5,40.78c-8.67,17-17.72,33.93-28.53,49.72-10.47,16-22.77,30.79-32.81,46.87s-19.26,32.64-28.47,49.11c-13.68,24.79-13.67,24.79-27.27,49.62-7.17,13.24-13.89,26.72-20.91,40s-13.9,26.7-20.83,40-14,26.64-20.91,40-12.61,27.37-19.49,40.74-15.22,26-22.14,39.37c-10.25,20.1-9.39,20.53-19.6,40.65s-11.74,19.34-21.94,39.46-10,20.2-20.25,40.32-9,20.76-19.16,40.88-10.72,19.86-21,39.94-10.91,19.85-21.33,40-9.11,20.79-19.54,40.89-11.62,19.48-22,39.59S926,371,915.54,391.08s-10.93,19.85-21.3,40c-12.94,25.14-13.48,24.86-26.37,50S857,507.31,843.93,532.38c-9.12,16.54-18.7,32.92-25.71,50.52S807,619,801.13,637s-15.39,34.51-23.7,51.34a554.83,554.83,0,0,1-27.65,49.14c-10.24,16.22-18.79,33.75-30.69,49.19-11.57,15-25.81,27.9-40.07,41.63C674.33,831.3,671.34,829.7,669.79,825.11Z"/><path class="cls-6" d="M114.63,4631.79c4.83-15,10.13-29.24,15.82-43.8s10.28-29.74,16.76-44,13.21-28.52,20.36-42.46,16.39-26.82,24.09-40.46S205.9,4433.27,214,4420s17.56-25.78,26.29-38.69,18-25.37,27.47-37.79,19.24-24.42,29.51-36.2c15.14-17.84,13.71-19.05,28.84-36.91,10.21-11.8,21.05-23.08,30.8-35.21,9.92-12,19.77-24,29.37-36.2s19-24.63,28.46-36.92,18.27-25.17,27.92-37.35,21-23,30.76-35.08,18.15-25.3,28.08-37.25S522,4029,532,4017.15c11.44-13.64,22.56-27.56,34.19-41.05s24.1-26.23,35.93-39.55S625,3909.14,637,3896s26.14-24.3,38.44-37.18,23.78-26.51,36.35-39.14,26.11-24.19,39-36.54,23.88-26.56,37-38.59c11.37-10.77,24.43-19.72,36.39-29.9s24.05-20.12,36.11-30.15,24.53-19.77,37-29.36c12.84-9.52,25.87-18,37.44-27.15,11.77-9.32,24.1-17.89,35.61-27.61,17-15.06,15.81-16.38,32.72-31.53,11.34-10,23.26-19.6,34.08-30.37s19.84-23.22,30.79-33.73q18.16-19,36-38.38c11.87-12.91,23.78-25.78,35.45-38.91s25-24.79,36.42-38.11,22.14-27.26,33.39-40.75,22.21-27.18,33.26-40.83,21.16-28,32-41.81,22.45-27,33.15-40.93c13.93-18.47,14.25-18.23,28.12-36.75s13.28-19,27.14-37.49c9.22-12.38,18-25.05,27.08-37.58s18-25.05,26.54-37.94,17.89-25.31,26.18-38.4,15.74-26.69,24-39.82,16.45-26.26,24.93-39.22,18.2-25.06,27.21-37.66,17.89-25.36,27.11-37.87,17.1-26,26.5-38.36,18.7-24.8,28.28-37,20.84-23.09,30.6-35.18,20.06-23.88,30.22-35.82,19.65-24.3,30-36,21.62-22.63,32.14-34.13,19.49-24.68,30.22-35.92,21.54-22.46,32.33-33.68,23.27-20.78,34.17-31.88,20.21-23.79,31.26-34.74,23.74-20.21,35-31c11.41-10.76,22.6-21.68,34.1-32.28s21.77-22.61,33.59-32.9,24.72-19.19,37-29,24.79-20.56,37.72-29.62c7.57,1.18,10.06,6.27,9.27,13.89-11.22,9.93-23.14,20.26-33.91,31.35-10.62,10.94-20.8,22.46-31,33.67-10.47,11.25-20.5,22.93-30.69,34.46s-19.91,23.45-30,35.1-20.19,23.26-30.13,35-19.66,23.7-29.5,35.55-20.88,22.71-30.61,34.65-19.61,23.76-29.23,35.78c-9.79,11.9-18.56,24.5-27.95,36.53s-18.62,24.37-27.81,36.61-17.11,25.44-26.18,37.81-20.07,23.22-29.13,35.65-17.37,25.45-26.44,37.92-18.34,24.75-27.47,37.17-16.89,25.82-26.08,38.2-19.15,24.15-28.4,36.49c-11,12.43-23.13,23.85-33.85,36.48s-19.6,26.82-30.11,39.63-22.28,24.6-32.63,37.54-19.45,26.87-29.67,39.92-21.22,25.48-31.36,38.59-18.72,27.4-28.81,40.55-20.15,26.31-30.23,39.46-22.39,24.58-32.5,37.72-19.18,27.05-29.36,40.13-20.28,26.2-30.58,39.19-20,26.46-30.43,39.32-21.63,25.12-32.28,37.83-22.39,24.43-33.26,37-21.8,24.9-32.94,37.2-20.89,25.8-32.32,37.83c-11.12,11.19-23.34,21.31-34.63,32.36s-23,21.59-34.63,32.27-22.7,21.9-34.93,32-24.51,19.79-37.45,29c-12.89,9.83-25.39,18.85-37.5,27.62-12.15,9.08-24.47,17.81-36.31,27.39s-24.17,18.6-36,28.24-22.9,20.07-34.21,30.36q-19.8,17.3-39.18,35.12c-12.9,11.87-25.92,23.62-38.56,35.81s-24.39,25.2-36.74,37.67-26.49,23.17-38.59,35.89-22.5,27-34.34,39.94-24,25.57-35.63,38.73-23.48,26.08-34.88,39.42c-9.91,11.78-19.84,23.55-29.63,35.43s-20.21,23.26-29.87,35.25-19.31,24-28.83,36.1-17.63,25.3-27,37.53c-9.63,12-20.21,23.41-29.2,35.94s-16.92,25.82-25.38,38.72-15.25,26.82-23.26,40-15.78,26.47-23.47,39.83c-7.87,13.24-17.94,25.13-26.06,38.17s-16.26,26.07-24.86,38.81-15.55,26.62-24.49,39.12-19.55,23.76-28.59,36.2c-9.45,12.18-19.28,24-28.43,36.43-9.57,12.13-17.17,25.77-27,37.78s-20.76,23.35-30.9,35.35-19.74,24.09-30.75,35.44C118,4639.44,115.49,4636.56,114.63,4631.79Z"/><path class="cls-6" d="M1033.53,3568.73c-9.2-15.62-18.13-32.3-24.62-49A377.79,377.79,0,0,1,993.13,3468c-4.12-17.23-6-34.84-8.24-52.23-2.29-17.54-4.64-35.06-5.23-52.59-.5-17.3.22-34.58,1-51.75s3.19-34.36,5.24-51.44,3.4-34.41,6.71-51.29,8.71-33.4,13.25-50c4.62-16.25,8.39-32.71,13.22-48.84s10.17-32.19,15.27-48.24,10.51-32.07,15.92-48,11.54-31.7,17.29-47.54,9.59-32.45,15.71-48.15,12.38-31.42,18.91-47,14.21-30.62,21.18-46,14.9-30.25,22.32-45.41c7.25-15.12,13.34-30.82,20.9-45.79s17.05-28.94,24.9-43.75,15.7-29.62,23.83-44.28,14.28-30.46,22.69-45,18.68-27.93,27.34-42.28,16.15-29.45,25.06-43.65,18.87-27.75,28-41.8,17.31-28.78,26.68-42.68,19.14-27.39,28.68-41.06,21.11-26,30.77-39.57,17.62-28.45,27.39-42,21-26,30.9-39.44,18.25-28,28.2-41.41,21.41-25.67,31.44-39,20.26-26.52,30.34-39.82,19.64-27,29.77-40.26,20.83-26,31-39.18,20-26.63,30.29-39.75,20.92-25.93,31.25-39,20.39-26.35,30.76-39.39,19.18-27.32,29.56-40.34,22.11-25,32.5-38,20-26.7,30.34-39.73,22.44-24.74,32.79-37.79c10.17-13.19,20.19-26.48,30.47-39.57s19.29-27.19,29.57-40.28,21.07-25.79,31.25-39,20.9-25.95,30.86-39.29,18.92-27.45,28.44-41.14,19.8-26.83,29.23-40.57,18.09-28,27.68-41.62,19.15-27.28,29.15-40.59,19-27.32,29.24-40.42,21-25.76,31.35-38.79,22.22-24.79,32.63-37.75,19.38-27.08,29.85-40c15.76-19.3,15.22-19.75,31-39s17.24-18.09,33-37.38,14.66-20.2,30.44-39.49,17.38-18,33.14-37.29c10.46-12.91,20.18-26.41,30.56-39.37s20-26.54,30.31-39.56,22-24.92,32.28-38,19.13-27.2,29.28-40.35,21-25.74,31.08-39,20-26.54,29.94-39.83,19.77-26.69,29.64-40.05,19.13-28.35,28.9-41.79c7.46-1.74,12.87,1.85,14.49,9.33-8,14.67-16.15,30.22-24.47,44.71s-17.75,28.37-26.33,42.71-17.66,28.39-26.47,42.59-18.14,28.08-27.15,42.16-17.42,28.55-26.6,42.52-19.81,27-29.11,40.86-17.95,28.22-27.36,42-18.35,28-27.83,41.72-18.38,27.89-28,41.56-20.93,26.1-30.55,39.74-18.26,28-28,41.54-18.87,27.57-28.76,41-20.75,26.14-30.74,39.49-21,25.9-31.34,39-19.73,26.89-30,40-20.54,26.24-31.22,39-21.21,25.73-32.25,38.24-22.34,24.77-33.55,37.12-22.8,24.37-33.94,36.77-22,25.12-32.84,37.77-19.88,26.75-30.39,39.65-21.59,25.34-32,38.33-21,25.83-31.37,38.84-20.21,26.46-30.66,39.41c-10.3,13.06-22.28,24.79-32.52,37.89s-20.13,26.48-30.32,39.62-19.65,26.85-29.8,40-20.47,26.21-30.6,39.4-21.14,25.71-31.24,38.91-19.35,27.08-29.44,40.29-19.11,27.26-29.2,40.47-21.48,25.44-31.59,38.64-20.94,25.77-31,39-19.55,26.83-29.61,40-20.61,26-30.63,39.26-19.83,26.63-29.8,39.89-20.23,26.34-30.14,39.64-19,27.27-28.82,40.63-18.84,27.36-28.58,40.78-19.32,27-28.95,40.5-20.67,25.88-30,39.54-18.35,27.5-27.39,41.32-18.08,27.68-26.86,41.67-15.81,29.07-24.31,43.23-16.39,28.67-24.61,43-16.56,28.57-24.46,43.07-16.89,28.44-24.46,43.11-15.47,29.23-22.69,44.08-12.49,30.55-19.26,45.57-14.28,29.73-20.64,44.92-11.39,30.94-17.33,46.3-12.67,30.44-18.17,46-10.41,31.18-15.11,46.92-7.8,31.89-11.6,47.87c-3.54,16-7.66,31.82-10.54,47.89s-5.23,32.31-7.29,48.5c-1.88,16-5.44,31.78-7,47.72s-2.79,32.1-3.83,48.07-.31,32.22-.65,48.22-.1,32.15.48,48.16c.62,15.51.58,31.07,2.23,46.41s5.78,30.52,8.69,45.63c2.95,15.31,5.68,30.51,10.13,45.23a379.7,379.7,0,0,0,16.64,44C1072.55,3568.28,1061.15,3563.73,1033.53,3568.73Z"/><path class="cls-6" d="M4384.58-1313.22c-18.43,13.13-18.81,12.58-37.24,25.7s-17.61,14.27-36,27.44c-12.11,8.8-25.27,16.22-37.33,25.17s-23.63,18.46-35.6,27.53-22.94,19.61-34.87,28.85-24,18.17-35.91,27.48-24.55,17.56-36.35,26.94-23.53,18.85-35.29,28.29c-12.55,10.11-24.46,21-37,31.18s-24.55,20.89-37,31.11-25.15,20.15-37.58,30.42-25,20.34-37.38,30.66-24.15,21.36-36.48,31.74-25.23,20.07-37.52,30.5-25.44,19.84-37.69,30.32-23.1,22.58-35.3,33.11-25.88,19.36-38,29.95-24.23,21.27-36.33,31.92-22.78,22.9-34.83,33.6-24.78,20.65-36.77,31.41-23.42,22.16-35.36,33-23.67,21.88-35.55,32.76-25.28,20.15-37.1,31.09q-16.48,15.32-32.83,30.76c-10.92,10.29-21.69,20.75-32.5,31.1s-21.43,21-32.14,31.48-20.7,21.76-31.28,32.33c-13.64,13.63-26.94,27.74-40.26,41.63-13.52,14.09-28.07,27.06-40.74,41.22-13.21,14.76-24.75,30.44-36.44,45.06a504.09,504.09,0,0,0-32.11,45.63c-9.62,15.37-19.1,31.51-28.23,48.18-8.85,16.16-17.4,32.8-26,49.43-6.72,13.26-12.47,27.07-19.05,40.53s-13.73,26.46-20.15,40-14,26.36-20.33,39.94-10.4,28-16.59,41.66c-7.2,15.84-16.13,30.92-23.28,46.84s-13.84,32-20.95,47.89S3079,62.39,3071.88,78.33s-13.37,32.17-20.48,48.1-14.24,31.78-21.4,47.69-13.59,32.08-20.83,48-16.38,30.79-23.73,46.62c-6.54,14.09-12.08,28.67-18.75,42.75s-13.89,27.8-20.72,41.82-12.19,28.64-19.22,42.57-14.27,27.61-21.53,41.44c-7.6,14.38-16.88,27.88-24.81,42.22-7.83,14.16-16,28.2-24.47,42.34-8.26,13.82-15.79,28.3-24.93,42.11-8.84,13.36-17.67,27.09-27.59,40.45-6.51,8.83-7.09,8.4-13.59,17.23-3.82,5.13-9,9.49-12.8,15.35-7.66,11.12-14.66,23.43-22.12,35.49-7.49,12.21-13.94,25.25-21.21,37.92-7.16,12.47-15.11,24.65-22.07,37.43-7.06,13-12.9,26.67-19.79,39.85s-14.25,26-20.95,39.24-13,26.61-19.56,39.95-14,26.17-20.35,39.57c-7.36,15.44-14.88,30.84-22.08,46.38s-13.51,31.47-20.54,47.09-13,31.69-19.85,47.38-14.38,31.07-21.11,46.82-12.75,31.78-19.34,47.58-14.61,31-21.07,46.86-11.12,32.44-17.46,48.33-13.67,31.35-19.84,47.28-12.71,31.74-18.74,47.73-10.58,32.54-16.46,48.57-11.74,32.1-17.46,48.19-11.84,32.08-17.38,48.23-12.51,31.88-17.86,48.08-9.5,32.88-14.66,49.15c-4.46,14.08-7.57,28.55-11.82,42.65s-8.73,28.2-12.78,42.35-9.77,27.94-13.63,42.13-5.37,29.14-9,43.37c-4.62,18.25-9,36.56-13,54.79-4.14,18.59-9.9,36.66-13.06,54.84-3.3,19-6.47,37.68-8.26,55.8-2.35,23.65-.08,23.89-2.66,47.52-2.27,16.83-5.59,33.52-8.53,49.76s-6.41,32-9.76,47.72c-3.41,16-6.49,32-10.44,47.58-3.8,15.4-8.69,30.42-12.81,45.6s-7,30.87-11.47,46-9.15,30.27-13.84,45.31-8.84,30.36-13.76,45.34c-5.57,16.89-12.06,33.45-17.85,50.21s-11.63,33.58-17.65,50.27-12.58,33.23-18.82,49.84-13.08,33-19.54,49.56-12.84,33.12-19.5,49.57-12.5,33.27-19.36,49.64-14.92,32.25-22,48.55-13.56,32.75-20.75,48.95-15.29,32-22.66,48.1-13.12,33-20.65,49-16,31.65-23.7,47.61-16,31.64-23.86,47.51-14.55,32.35-22.63,48.14-16.43,31.4-24.69,47.1c-7.31,13.84-16.64,26.6-24.15,40.37s-14,28-21.68,41.7-16.24,26.75-24.18,40.3-13.87,28.17-22,41.58c-8.48,13.83-18.17,26.94-27,40.68s-17.24,27.45-26.53,41q-13.67,19.89-28.48,39.65c-9.58,12.84-20,25.36-30.45,38.15-5.11,6.59-11.69,13.05-17.51,19.66-7.72,8.64-7.41,8.92-15.23,17.48-8.66,9.17-16,19.81-24.14,29.87-8,10.43-15.8,21.13-23.17,32.39-7.21,11-15.56,21.54-22.26,33.16-9.16,16-17.1,33-25.27,50-8,16.66-14.84,34-22,51.44-7,17.13-13.1,34.76-19.42,52.43-5.61,15.78-12.47,31.2-17.62,47.28s-10.79,31.82-15.48,48-8.17,32.59-12.46,48.91-7.14,32.82-11.08,49.22-7.65,32.68-11.29,49.14-8.95,32.44-12.33,48.95-4.64,33.33-7.81,49.87c-4.21,22.36-5.19,22.18-9.37,44.55s-5,22.22-9.16,44.59-3.77,22.45-8,44.82-4.41,22.33-8.67,44.68c-4.31,22.61-3.2,22.82-7.59,45.41s-4,22.66-8.52,45.23a263.11,263.11,0,0,0-4.61,69.21c.74,12.38,3.37,24.82,5.52,37.64,2.06,12.28,3.55,24.92,6.79,37.44,3.18,13,7.82,25.71,12,38.79,4.11,12.74,7.1,26.07,12,38.85,6.69,17.6,14.08,35.22,22,52.79,7.73,17.22,15.41,34.73,24,51.89,8.5,16.91,18.83,33,28,49.87,7.1,12.92,13.74,26.17,21.18,39s15.5,25.16,23.17,37.86,15.61,25.08,23.46,37.67,14.28,25.95,22.26,38.46c8.28,12.56,16.95,24.93,25.3,37.52s17.45,24.58,25.88,37.12,16.61,25.14,25.15,37.6,16.45,25.26,25.16,37.61c10,14.46,21.29,28.11,31.43,42.57s20,29,30.19,43.43,20.92,28.34,31.15,42.76,20.55,28.61,30.79,43,20.17,28.87,30.4,43.29,20.64,28.54,30.84,43,19.6,29.2,29.77,43.67c-19.86-17.31-19.29-18-37.7-36.82l.55-.53c7.07,7.37,18,16.24,27.53,24.23,10,8,20.42,15.75,30.8,23.54s22.1,13.83,32.9,21.14,21.33,14.89,32.23,22.08c14.74,9.24,29.47,18.5,44.52,27.3s29.86,18,45.2,26.19,31.1,15.71,46.78,23.25,30.88,15.61,46.74,22.46,31.74,13.84,47.86,20,33.09,10.22,49.46,15.65,33,10.41,49.57,15,33.41,8.82,50.24,12.58S2408,5395.16,2425,5398c12.64,1.73,25.53,2.17,38.2,3.31,9.51.93,9.3,3.06,18.8,4.06,6.93.77,15.72-.19,23.24.89,15.22,2.17,30.12,5.09,44.58,8.6,14.88,3.61,28.91,9.49,43.11,14.12,18.35,6,36.83,11.09,54.28,18.35,17.77,7.39,35.3,15.08,52.35,23.4,17.25,8.42,33.32,18.95,50,28,14,7.5,28.26,14.42,41.93,22.31s27.81,15.29,41.26,23.56,26.08,18.07,39.33,26.67,26.33,17.6,39.42,26.47,26.41,17.49,39.35,26.58,25.88,18.25,38.72,27.49,25.15,19.26,37.91,28.6c12.56,9.34,24.91,18.91,37.35,28.38s26.09,17.41,38.43,27,24.17,19.89,36.42,29.62,25.13,18.69,37.29,28.52,24.26,19.78,36.33,29.72,24,20.06,36,30.09,24.11,20,36,30.07c13.82,11.78,27.27,24,41,35.89s27.39,23.89,41,35.84,26,25.47,39.59,37.48c15,13.25,16.44,11.67,31.52,24.87,3.57,3.12,3.31,3.41,6.95,6.46,2.57,2.16,2.35,2.42,5,4.55,0,0-.78,1.07-.77,1.08a27.25,27.25,0,0,0-3-2.08c-4.33-2.28-1.1-1.79-1.41-2,.94.31.6,1.2,1.52,1.55,4,1.49,4.52,0,8.52,1.45,11.8,4.15,23.93,9,36.57,12.94,12.29,3.81,24.8,7.52,37.18,11.09,16.77,4.71,33.8,8.63,50.7,13s34.05,7.6,51,11.55,33.69,9.37,50.74,12.87,34.33,6.56,51.46,9.55,34.63,4.77,51.84,7.19c17.36,2.43,34.57,5.38,51.84,7.15,17,1.59,34.65,2.36,52.56,3.19,17.31.81,34.92,1.67,52.61,2.18,17.53.5,35.15.86,52.64,1.45,26.94.62,27-.8,53.91-.27s26.94.69,53.89,1.21,26.94.73,53.89,1.25c16.68.3,33.35.46,50,.74s33.34,1.1,50,1.37,33.35.38,50,.65,33.32,2.11,50,2.38,33.37-.66,50-.37,33.34.89,50,1.19,33.37-.5,50.05-.18,33.33,1.45,50,1.8,33.32,1.71,50,2.1,33.32,1.63,50,2,33.41-1.76,50.09-1.3,33.28,3,50,3.47,33.31,1.51,50,2.08c13.7.52,27.51-1.24,41.28-.59s27.31,2.44,41.11,3.29,27.87,1.47,42.23,2.78c14.68,1.81,28.42,3.26,50.54,9.66,25.71,7.72,26,6.62,51.71,14.45s25.7,7.74,51.38,15.57,25.78,7.44,51.55,15,25.91,7,51.76,14.29,25.17,9.72,51,17,26.1,6.42,52,13.51q26,6.58,52.07,13.3c17.34,4.48,35,7.55,52.41,12s34.47,9.79,51.89,14c16.09,3.88,31.86,9.12,48,12.88s32.34,7.09,48.49,10.71,32.52,6.25,48.7,9.76,32,8.69,48.2,12.07,32.94,4.14,49.17,7.41,32,8.69,48.28,11.84,32.56,6,48.83,9.07,32.52,6.23,48.81,9.17,33,3.5,49.31,6.33,32.42,6.77,48.75,9.5,32.71,5.07,49.06,7.69,32.77,4.71,49.12,7.23,32.76,4.68,49.14,7.11,32.75,5,49.17,7.25,32.81,4.6,49.24,6.76,32.59,6.42,49,8.47,33,3.49,49.42,5.42,32.89,4.1,49.36,5.91,33.12,1.9,49.61,3.59,32.84,4.67,49.33,6.24,33.15,1.38,49.65,2.82,33,2.78,49.53,4.1,32.93,4,49.45,5.18,33.1,1.71,49.63,2.77,33,2.46,49.59,3.39,34.06,1.43,50.61,2.23c7.1,28.14,4.82,30.19-4,57.83-16.75-.22-32.15-1.05-48.9-1.41s-33.5-.36-50.25-.87-33.46-1.83-50.2-2.48-33.54.16-50.27-.62-33.54-.41-50.26-1.33-33.31-4.28-50-5.34-33.53-.76-50.24-2-33.48-1.73-50.18-3.06-33.22-4.89-49.91-6.35-33.42-2.43-50.1-4-33.41-2.65-50.07-4.38-33.34-3.4-50-5.26-33.24-4.27-49.87-6.26-33.16-4.83-49.78-6.95-33.33-3.52-49.93-5.77-33.36-3.36-50-5.73-33.13-5-49.7-7.52-32.78-7.26-49.33-9.88-33.38-3.43-49.91-6.16-33.16-4.88-49.67-7.74-32.65-7.8-49.14-10.78-33.26-4.41-49.72-7.5-32.54-8.19-49-11.4-33-6-49.38-9.36-32.84-6.61-49.24-10-32.91-6.31-49.28-9.86c-17.76-3.87-35.58-7.47-53.29-11.57s-35.49-7.87-53.18-12-35.13-9.35-52.85-13.43c-26.45-6.64-26.57-6.16-53-13s-26-8.57-52.37-15.39-27-4.74-53.26-12-25.73-9.26-51.93-16.88-27-4.79-53.23-12.41-26.19-7.66-52.39-15.3a161.14,161.14,0,0,0-28.92-5.24c-12.61-.9-25.66-.89-38.86-1.42s-26.58-.15-40-.53-26.56-3.23-39.91-3.49c-16.62-.29-33.28,1.35-49.92,1.13s-33.26,0-49.9-.16-33.25-1.33-49.89-1.43-33.26.47-49.9.42-33.26-2.17-49.9-2.19-33.26.65-49.9.65-33.26.28-49.9.29-33.26-.41-49.89-.4-33.26-.13-49.9-.13-33.26.69-49.9.67-33.27.45-49.9.4-33.27-.06-49.9-.15-33.27.25-49.91.11c-27.18-.36-27.17-.44-54.35-.84s-27.19.26-54.37-.14-27.14-2.56-54.32-3c-18.57-.43-37-.49-55.57-1.12-18.36-.62-36.84-.69-55.57-1.81-18.15-1.09-36.42-3.93-55.28-5.79-16-1.73-31.91-2.66-47.66-4.92s-31.9-3.35-47.58-6.12-31.12-7.66-46.73-10.91-31.57-5.37-47.1-9-31.18-7.19-46.63-11.25-30.53-9.57-45.89-14-30.67-9-46-13.62c-13.53-4.24-27.27-7.35-40.75-11.87-13.13-4.4-25.63-11.09-39.24-16.21-5.51-2.12-6.24-.29-11.69-2.56-3.77-1.57-2.86-3.62-6.57-5.33-1.83-1-1,.58-6.69-2.72-1.76-1-5.25-2.66-5.63-3-1-.77-.42-1.5-1.41-2.27-5.09-4-7.13-6.2-10.2-8.85-4-3.59-4.82-2.71-8.81-6.36-15.17-13.86-14.29-14.82-29.41-28.73-13.2-12.2-27.65-23-40.84-35.06s-25.82-24.93-39.12-36.93-27.49-23-40.92-34.92-26.08-24.38-39.54-36.07-26.63-23.78-40.22-35.31-27.32-23-41.06-34.33-28.68-21.3-42.59-32.45-28.09-22-42.17-32.92-28-22.12-42.26-32.81c-14.05-10.64-27-22.71-41.32-33s-30.2-18.34-44.71-28.31-27.81-21.85-42.56-31.43-30.36-18-45.36-27.19-30.36-18-45.62-26.68-30.5-17.76-46-26c-15.18-7.79-31-14.13-46.4-21.13-15.59-7.1-31.28-13.54-47-19.57-16.05-6.16-32-12-48.06-16.75-23.66-7-46.94-14.07-69.75-16.65-19.38-1.76-19.48-.65-38.88-2.1-14.32-1-28.42-2.88-42.66-4.2-16.09-1.88-32-4.91-47.9-7.31s-32.08-4.09-48-7-31.83-5.71-47.63-9-31.55-7.06-47.26-10.79-31.74-6.39-47.36-10.48-31.13-8.78-46.68-13.19-30.69-10.22-46.16-14.89q-27-8.13-54-16.73c-17.94-5.7-36.31-10.13-54.18-16.16s-35.53-12.47-53.29-18.85c-13.49-4.59-26.32-11-39.71-15.92s-26.77-9.57-40.24-14.46c-20.26-7.63-20.88-6-41.11-13.71-14-5.32-26.07-11.15-42.08-17.91,0,0,.24-.39.24-.39-14-9.62-16.89-6.22-28.75-18.36-7.16-7.33-4.8-9.34-9.23-18.57-7.43-15.47-14-31.43-21.79-46.79S1680,5205,1671.9,5189.75s-18.45-29.08-26.84-44.14-15-31-23.59-46-18.6-28.95-27.35-43.8-16.09-30.43-24.95-45.22-18.3-29.12-27.22-43.86c-7.85-13.18-16.64-25.83-24.64-39s-15.46-26.54-23.48-39.68-15.74-26.37-23.69-39.55-14.86-26.89-22.65-40.17c-8.1-13.34-17.69-25.83-25.68-39.33s-15.77-27-23.57-40.59-14.16-27.87-21.77-41.6-16.87-26.38-24.26-40.23c-7.63-14.16-13.27-29.43-20.63-43.89s-14.53-28.72-21.45-43.41c-6.84-14.52-12.87-29.47-19.24-44.42-6.29-14.75-13.68-29.15-19.42-44.38-6-15.62-10.46-31.9-15.62-48.16-5-15.91-10.74-31.8-14.78-48.41-4.28-16.93-8.11-34.27-11-52-2.76-17.24-3.24-35-4.29-53-1.07-18.48-3-37.28-1.94-56.35a382,382,0,0,1,6.81-56.06c4.45-22.2,4.61-22.17,9-44.38s3.52-22.38,7.84-44.61c4.37-22.48,6.12-22.14,10.41-44.63s4.16-22.51,8.45-45,3-22.74,7.3-45.23,5.63-22.24,10-44.72c3.11-15.38,5.93-30.84,9.12-46.28s7.35-30.55,10.67-46,4.5-31.18,8-46.54,7.61-30.49,11.36-45.8,8.73-30.18,12.77-45.42,6.53-30.78,10.92-45.93,10.85-29.52,15.62-44.56,9-30.07,14.19-45c5.4-15.45,12.15-30.47,18.14-45.87,5.93-15.25,10.69-31.06,17.31-46.21,6.55-15,12.63-30.34,20-45.17,7.24-14.64,16.44-28.4,24.55-42.85,8.37-14.8,17.85-29,27.22-43.54,9.22-14.27,16.88-29.83,27.31-43.63,10.8-13.79,23.47-26,35.55-39.17,7.52-8.35,6.48-9.28,13.9-17.73,4.17-4.87,7.48-9.89,11.63-15.39,11.56-14.31,24.78-28.08,36-43.87,10.74-15.18,20-31.8,30.34-47.91,10.14-15.8,20.54-31.65,30.24-47.94,7.54-12.65,16.28-24.67,23.64-37.53s13.5-26.28,20.64-39.25,13.21-26.42,20.16-39.48,15-25.47,21.8-38.61c7.79-15.16,16.29-30,23.92-45.28s14.48-30.91,21.93-46.27,15.14-30.59,22.41-46,14.24-31,21.34-46.54,13.69-31.27,20.62-46.86,12.82-31.64,19.59-47.3,15.3-30.58,21.9-46.32,12.06-31.87,18.5-47.63,13.8-31.16,20.11-47,10.56-32.45,16.7-48.32,12.94-31.52,18.9-47.46,11.35-32.12,17.1-48.13,11.47-32.08,17-48.16,11.47-32.09,16.74-48.26c4.55-13.94,9.17-27.85,13.5-41.82s7.18-28.46,11.26-42.49,9.61-27.77,13.4-41.86,6.09-28.74,9.55-42.91q5.24-20.84,9.55-41.46c3-14,5.73-27.92,8.19-41.75s5.88-26.83,7.7-40.15c2.31-21.76,2.53-21.75,4.65-43.53,1.65-16.57,1.49-33,3.88-48.93q3.71-24.58,8.38-48.37c3.16-16.18,8.12-31.83,11.73-47.65,3.66-16,7.76-31.78,11.69-47.61,3.82-15.27,6.71-30.72,10.86-45.8s9-30.1,13.44-45.11,9.83-29.83,14.49-44.78,9.76-29.83,14.58-44.74c5.51-16.84,11-33.64,16.69-50.38s9.17-34.3,15.05-51,13.61-32.74,19.67-49.35,12.32-33.18,18.55-49.74,12.22-33.22,18.6-49.72,13.81-32.6,20.34-49,13.08-32.88,19.74-49.27,11.77-33.36,18.58-49.66,12.81-33,19.76-49.2,15.46-31.81,22.54-48,13.89-32.49,21.13-48.61,14.82-32.07,22.21-48.12,14.27-32.32,21.84-48.3,16.76-31.13,24.5-47c6.84-14,13.93-27.91,20.93-41.89s13-28.36,20.21-42.26,13.63-28.07,21-41.88,16.54-26.49,24.14-40.18c7.72-13.88,14.82-28.15,22.95-42,8-13.65,15.07-28,23.61-41.68s17-27.9,26.71-41.78c4.56-6.87,11.58-12.53,16.9-19.58,7.11-9.49,5.41-10.77,12.55-20.24,8.1-10.59,18-20.51,25.86-32.27,7.51-11.26,14-23.52,21.26-35.44,7.52-12.21,15.92-24.12,23.2-36.79,7.17-12.48,14.42-25.08,21.37-37.88,7.09-13,12.74-26.88,19.66-40.12s12.8-26.82,19.54-40.14,13.84-26.3,20.43-39.69,13.74-26.38,20.22-39.81c7.54-15.61,14.59-31.49,22-47.2s16.12-30.77,23.49-46.51,13.52-32,20.85-47.75,14.82-31.38,22.13-47.16,13.89-31.81,21.22-47.58,16.5-30.59,23.87-46.34,12.89-32.29,20.32-48c6.62-14,13.54-27.88,20.28-41.88s12.89-28.18,19.77-42.13,13.66-27.81,20.7-41.68,14.83-27.2,22.08-41c7.79-14.41,16-28.67,24.06-43.18,7.93-14.23,16.46-28.28,25.14-42.54,8.42-13.83,15.84-28.65,25.41-42.45,9.17-13.23,20.05-25.68,30.66-38.83,10.36-12.55,21.07-24.33,31.53-36,10.8-12.05,22.09-23.27,33-34.66,11.11-11.62,21.74-23.48,32.94-34.71s21.42-23.71,32.79-34.92c11.07-10.81,23.53-20.16,34.67-30.81s21-22.75,32.29-33.3,24.58-19,35.92-29.41,21.73-22,33.14-32.41c12.13-11,23.47-22.82,35.64-33.72s25.27-20.8,37.5-31.65,24.32-21.87,36.6-32.65,24.82-21.29,37.16-32,24.74-21.38,37.13-32,25.14-20.92,37.57-31.53,24.54-21.61,37-32.16,24.17-22.07,36.71-32.56,25.23-20.81,37.82-31.24,25.3-20.73,37.93-31.11,25-21.05,37.7-31.38,25.71-20.21,38.43-30.48,26.31-19.46,39.07-29.68,24.57-21.64,37.37-31.81,25.6-20.34,38.45-30.46c12.08-9.48,23.92-19.29,36.06-28.72s24.95-18,37.14-27.32,24.33-18.75,36.59-28,24.43-18.62,36.75-27.82,25.58-17.32,38-26.51,24.84-18.28,37.36-27.36c18.75-13.38,17.78-14.74,36.56-28.07s18.59-13.6,37.37-26.94"/><path class="cls-6" d="M2184,571.64c.92-17.66,4-35.79,5.17-53.45s.82-35.41,2.14-53,4.35-35.17,5.63-52.79,2.87-35.31,4-52.93.32-35.15.37-52.26c0-8.53,1.57-17.17.72-25-.39-3.91-2.94-7.27-3.71-10.36-.67-2.68-.42-6.15.36-4.56.36.76,0,1.47.81,1.91.76.81,1.5,2.19,2.23,2.44.58.4,3.07-1.26,3.17-1.13s.55,1.34.42,1.49c-1,.92-4.89,0-7.75,3.17-5.35,5.18-10.43,10.46-16.49,17.28-11.79,12.42-23.16,25.8-34.75,39s-22.69,26.89-34.15,40.29S2089.38,398.53,2078,412s-23.54,26.31-34.4,40.29-21.2,28.67-30.79,43.82-19.24,30-30.49,43.63c-11,13.81-22.85,26.77-35.13,39.43s-24.3,25.66-37,38-26,24-38.77,36.15-25,25.17-38.09,37.11-26.64,23.37-39.77,35.28-26.16,23.9-39.15,35.94-26,24.06-38.7,36.4-25.69,24.27-38,36.9-24,25.91-36,38.88c-12.23,13.23-22.74,25.82-35.19,40-18,19.61-18.35,19.25-36.48,38.7-12,12.74-23.65,25.71-35.27,38.76s-23.46,25.9-34.7,39.28-22.82,26.5-33.66,40.2-20.14,28.6-30.56,42.61-22.73,26.72-32.71,41-17.46,30.39-27,45-21.19,28-30.2,42.94-16.43,30.91-24.91,46.18c-8.36,15-15.79,30.41-23.59,45.66s-16.9,29.91-24.08,45.45-12.24,32.08-18.75,47.9-14.7,31.1-20.48,47.19-10.14,32.81-15.11,49.17-10.14,32.81-14.24,49.4-6.75,33.64-9.9,50.44-5.18,33.85-7.3,50.83c-2.22,16.58-5.81,33-6.87,49.59s.31,33.41.38,50.05.66,33.32,1.82,49.93.71,33.49,2.92,50c2.16,16.09,6.23,31.94,9.67,47.42a374,374,0,0,0,13.76,46.25c5.19,13.94,11.2,26.59,17.68,35,3.13,4.63,6.16,6.78,8.59,8.93,2.5,1.71,3.43,3.88,5.63,4.4,4,.94,13.63-2,25.16-7.45s25-12.38,37.13-22.08c12.51-10,24.71-21.39,36.95-33.17,11.74-11.3,22-24.49,33.29-36.77,11.67-12.8,24.24-24.93,35.59-38.27s21.18-27.59,32.2-41.18,23.82-25.5,34.63-39.23,20-28.57,30.72-42.33c11.13-14.08,23.32-27.3,34.25-41.54s21-29,32.09-43.2c11-14,21.57-28.5,33.12-42.42,11.33-13.65,23.9-26.45,36.17-39.86,12.22-13.58,29.14-27.8,41.37-37.63,13.33-10.51,26.87-21.7,39.84-33.15,12.8-11.86,25.37-24.11,38-36.32s23.85-25.63,36.21-38,24.32-25.42,36.58-38.06,25.35-24.44,37.47-37.21,25.08-24.73,37.06-37.64,22.87-26.79,34.71-39.81,24.26-25.53,36-38.66,23.5-26.22,35.09-39.46,22.73-26.89,34.21-40.23,22.64-27,34-40.39,22.38-27.1,33.53-40.65,22.66-26.89,33.48-40.69c10.46-13.66,20.71-27.52,30.64-41.26,10.25-14.17,18.75-29.08,26.8-43.72,8.28-14.89,16.47-29.93,22.38-46.25,5.77-15.92,9.44-32.75,13.79-49.58,4.25-16.46,8.61-33.08,12.29-50,3.63-16.72,7.58-33.47,11.4-50.21,3.69-17.32,8.32-34.45,12.13-51.77s6.91-34.76,10.85-52.05,8.61-34.38,12.7-51.63,6-35,10.27-52.23,11.43-33.68,15.86-50.84,8.2-34.5,12.7-51.65,9.44-34.18,14-51.31,8.6-34.4,13.18-51.53c4-15.23,6.7-30.81,10.78-46s8.07-30.45,12.22-45.64,9.7-30,13.94-45.16,8.35-30.37,12.69-45.51,9.36-30.08,13.79-45.19,8-30.49,12.51-45.57,9.1-30.16,13.73-45.21S2467.12,8,2471.86-7s11.22-29.49,16.07-44.47c5.41-16.66,11-33.27,16.37-49.92s9.21-33.85,14.54-50.51,11.7-33.05,16.93-49.75,10.22-33.52,15.29-50.27,11-33.3,15.87-50.1,9.11-33.86,13.72-50.73,9.66-33.71,14-50.67,8.13-34.11,12.06-51.16c3.68-16.79,5.1-34.06,8.39-50.9s8.21-33.48,10.87-50.41,5.38-34,7.17-51.08,2.53-34.36,3.19-51.48c.74-16.67-.6-33.33-1.17-49.91s-1.17-33.34-3.35-49.75c-2.21-16.61-6.22-32.71-10.35-48.73-4.18-16.18-6.79-32.91-13.22-48.23-3.5-7.34-8.49-14-12.75-20.92-3-5.29-2.46-5.64-5.39-11-1.77-3.18-3.94-8.32-4.87-9.46-.35-.65.87-1.49.73-1.72s-.65-.82-.27-.39c.82.57-.51,2.69.36,3.19a10.12,10.12,0,0,0,2.17.35,14.61,14.61,0,0,0,3.36,1.41,19.72,19.72,0,0,0,7.56-1c1.74-.31,3.27-2.69,4-3.21,1.62-1.18.84-1.88.56-1.57-2,2.36-5.84,10.2-8.44,17.43-5.56,15.57-10.13,32.45-14.65,49.6-4.35,16.52-8.77,33.37-12.95,50-4.19,17.22-8,34.58-12.3,51.85s-7.56,34.71-12.05,51.91-9.6,34.19-14.41,51.3-9.37,34.27-14.6,51.25-11.79,33.72-17.54,50.65-12.11,33.57-18.44,50.29S2467-441,2460-424.59s-16.42,31.74-24.22,47.83-16.15,31.9-25,47.51-17.85,31-27.72,46-18.78,30.65-29.83,44.77-23.3,27.63-35.63,40.68c-7.6.9-12.24-3-12.27-10.64,11.28-13.31,22.09-27.58,32.06-41.85s20-28.53,28.77-43.57,15.92-30.94,23.68-46.54,16.43-30.77,23.3-46.76,12.42-32.66,18.63-49,11.66-32.89,17.19-49.47,13.13-32.5,18.08-49.26,7.32-34.24,11.79-51.14,11.2-33.43,15.27-50.54,5.7-34.74,9.46-51.93,7.42-34.32,11-51.57,8.79-34,12.26-51.31c3.74-17.74,5.56-35.7,9.53-53.55,3.83-17.21,7.67-34.86,13.24-52.81a121.11,121.11,0,0,1,15.06-30.52c2.42-3.19,5.69-6.3,10.93-10a37.45,37.45,0,0,1,10.26-4.86c4.5-1,9.35-1.63,13.57-.74a42.85,42.85,0,0,1,6.5,1.14c1.58.65,3.09,1.58,4.62,2.38,3.43,1.76,5.48,2.73,7.49,4.37,2.17,1.75,2.73,4,4,5.39s3.09,2.72,3.92,4c4.45,5.89,4.6,9.62,7.38,14,3.72,6.12,3.64,6.17,7.4,12.26,5.23,8,9.25,16.5,13.59,25,7.85,17.12,15.2,34.33,20.51,52.11,5.37,18,9.11,36.34,12.26,54.68s3.77,37.18,5.08,55.74c1.32,18.75,4.17,37.38,4,55.9-.16,18.23-2.71,36.29-4,54.34s-3.21,36.16-5.4,54.14-3.43,36.2-6.38,54.08-6.41,35.78-9.93,53.55c-3.19,15.54-6.19,31.11-9.72,46.53s-8.76,30.49-12.61,45.84-7,30.91-11.18,46.18-8.37,30.57-12.75,45.78-7.35,30.88-11.93,46-9.7,30.19-14.45,45.29-11.11,29.72-16,44.78-8.41,30.59-13.37,45.62-9.41,30.28-14.43,45.29C2548.44-12.84,2540.22,3,2534.4,19.6s-10.59,33.66-16.53,50.24-11.59,33.31-17.58,49.88-11.55,33.32-17.51,49.9-13.41,32.66-19.28,49.27-12.15,33.12-17.85,49.79-9.72,33.93-15.18,50.69S2420,353,2414.89,369.9s-10.24,33.69-15.2,50.58-9.85,33.81-14.59,50.76-8.79,34.09-13.33,51.11-11.08,33.5-15.44,50.56-8.94,34.07-13.13,51.18-7.48,34.42-11.52,51.56-6.64,34.6-10.55,51.78-10.31,33.77-14.11,51-5.83,35.14-9.85,52.57c-4,17.24-9.65,34.16-14.24,51.53a546.42,546.42,0,0,1-17,52.69c-6.48,17.21-12.38,34.86-21.57,51.05s-18.56,31.85-29.1,46.28c-10.85,14.85-24.19,27.49-35.27,41.77-11.15,13.87-21.53,28.3-32.7,42.09s-22.07,27.87-33.5,41.46-23.23,26.79-34.71,40.29-22.65,27.28-34.25,40.68-23.17,26.84-34.87,40.15-24.51,25.64-36.32,38.86-22.06,27.88-33.93,41.06-24.71,25.49-36.7,38.57-23,27-35.18,40-25.34,24.86-37.65,37.65-25,25.42-37.59,38.07-25.1,25.27-38,37.64c-13.28,12.2-25.4,25.34-39.47,37.17-14.84,12.84-24.27,21.9-35.48,34.89-11.21,12.58-22.11,25.85-32.58,39.87-10.22,13.68-21.54,26.82-31.36,41-10.06,14.39-18.38,30-28.19,44.74s-19.4,29.36-29.12,44.1c-9.88,14.93-22.16,28.29-32.18,43.21s-18.61,30.64-28.9,45.4-21.42,28.67-32.13,43.16-21.36,28.65-32.62,42.75c-11.75,14.46-22.59,29.88-35.42,44-12.38,13.62-27,25.39-41.65,38.07-15,12.82-30.52,26.19-50.56,36.75-10.69,5.43-22.9,11.92-37,15-12,2.59-25.3,1.11-39.67-1-15.19-2.35-30.13-7.64-42.2-16a126,126,0,0,1-28.35-28c-15-19.73-23.79-39.08-30.52-58.31-6.42-18.83-13.4-36.74-17.23-55-4-19.09-5-38.33-7.25-57.22-2.38-18.54-5.09-37-5.87-55.63s.23-37.33.89-55.94,1-37.35,3-55.87,6.28-36.82,9.35-55.15c3-16,6.11-31.78,9.91-47.46s6.08-31.93,10.67-47.41,11.44-30.36,16.77-45.61,9.34-31.09,15.36-46.09,13.62-29.42,20.27-44.15,12-30.17,19.24-44.63,15.4-28.55,23.15-42.73,15.4-28.55,23.62-42.46,18.14-26.9,26.79-40.54c8.55-13.4,15.72-27.71,24.62-40.84s18.63-25.78,27.87-38.67,19.68-25,29.23-37.64,18.16-26.11,28-38.58,20.13-24.59,30.21-36.85,20-24.66,30.35-36.73,21.25-23.63,31.75-35.53,22-22.94,32.65-34.69,19.46-25.28,30.27-36.89c18.09-19.25,19.37-18,37.13-37.59s18.4-18.92,35.71-38.8c11.54-13.45,21.24-28.42,32.5-42.09S1669.38,780,1680.3,766s22.65-27.37,33.37-41.54,19.55-29.71,30.16-44,23.24-27,33.92-41.14,21.21-28.51,32.14-42.49c8.91-13.15,18.33-25.76,28.22-38s19.52-24.85,30.28-36.41,21.55-23.11,32.92-34.1,23.72-20.85,35.49-31.43,23.06-21.59,35-31.93,23.54-21.09,35.53-31.38,25.18-19.21,37-29.64,23-21.71,34.57-32.47,22.37-22.35,33.44-33.61c13.21-12,27.49-22.79,41.49-34.54a281.89,281.89,0,0,1,22.74-18.25c3.6-3,9.48-5.6,16.63-8a32.2,32.2,0,0,1,14.85-.83,28.73,28.73,0,0,1,8.79,3.17c2.58,1.66,5.91,2.34,8,4.49,6.53,8.48,5.63,15.29,7,21.12a109.2,109.2,0,0,1,1.18,15.49,257.61,257.61,0,0,1-1.59,28c-1.75,18.19-2.25,36.09-4.94,53.68s-6.72,34.75-9.5,52.17-6.64,34.76-9.28,52.21-4.5,35.07-6.86,52.58-4.72,34.79-6.67,52.37C2191.59,576.9,2186.11,576,2184,571.64Z"/><path class="cls-6" d="M1144.56,1881.56c9-9.86,17-19.49,25.47-28.43,9-9.49,17.5-18.89,26.64-27.6,9-8.2,18.55-15.89,28-23.53a272.49,272.49,0,0,1,30.12-21.9,323.85,323.85,0,0,0,31.77-21.38c10.3-7.6,18.88-16.87,27.59-26.09,8.53-9.45,16-19.83,24.1-29.66s18.25-18,25.89-28.28c7.9-10.3,13.55-22,20.83-32.59,7.17-10.45,14.34-21,21.89-31.79s14.52-22.07,22.24-32.72,16.82-20.37,24.86-30.79c10.69-13.81,20.87-28,31.92-41.49s22.8-26.46,34.23-39.61,22.92-26.35,34.74-39.15,23.87-25.18,35.9-37.64,23.84-25.2,36-37.59,25.55-23.57,37.45-36.16c8.77-9.56,16-20.53,24.72-30.12s17.46-19.07,25.41-29.35,16.11-20.53,23.19-31.5,14.23-21.93,22.6-31.76c11-13.07,22.08-26,33.88-38.33s23.95-24.34,36-36.39,23.15-25.12,34.93-37.42c8.79-9.15,18.21-17.64,26.53-27.1s17.15-18.7,25-28.55c15.65-19.62,30.36-39.4,40.56-62,6.09-4.64,9.71-3.95,14.43,2.08a189.78,189.78,0,0,1-8.15,40.76c-4.34,13.11-10.84,25.45-16.59,37.75s-11,24.65-17.71,36.24-15,22.42-22.1,33.74c-9.54,14.84-20.12,28.92-30.25,43.24s-19.25,29.66-30.33,43.24-23.4,26.4-35.73,38.91c-9.14,9.39-20.46,16.38-31,24.38s-19.5,17.93-29.35,26.5S1730.1,1306,1721,1315.24s-17,19.73-26,29c-11.85,12.56-24.32,24.49-35.88,37.28s-23,25.73-34.49,38.58-23.94,24.89-35.55,37.61c-13,14.3-11.32,15.82-24.3,30.13s-14.08,13.32-27,27.66c-8.54,9.59-17.18,19.09-25.63,28.75s-15.82,20.28-24.14,30-17.51,18.67-25.54,28.57-15.8,20.12-23.34,30.39-14.23,21.77-22.16,32.41-17.41,19.75-25.48,29.9c-8,10.44-15.81,21.09-24.16,31.32s-15.72,21.26-24.27,31.32c-9,9.74-17.16,20-25.22,30.69s-17.46,20.79-25.84,31.67a139.54,139.54,0,0,1-27.35,30.42c-10.57,8.65-21.49,17.22-33.85,23.56s-25.71,11.78-39.88,14.92-28.88,4.62-44.62,1.6C1141.71,1889.23,1142.95,1886.12,1144.56,1881.56Z"/><path class="cls-6" d="M1151.48,1585.41c5.62-10.2,11.31-17.53,16.86-24.79s13.2-11.2,19.09-17.34a169.88,169.88,0,0,1,18.88-15.25c6.68-4.73,14-8.06,22.13-11.18a202,202,0,0,0,23.72-11.19c7.69-4,15.42-7.8,21.93-13.32,9.69-8.42,8.32-9.95,17.76-18.65s10-8.09,19.17-17.15c12-12.29,22.89-25.57,34.13-38.56s22.36-26,33-39.54,21.28-27,31.47-40.8,20.74-27.46,30.68-41.43,19.27-28.3,28.38-42.74c9.42-14.26,20.73-29.22,31.39-43.35,10.58-14.5,21.52-28.48,33.16-42,11.9-13.32,24-26.39,35.4-40,11.73-13.22,20.48-29,30.8-43.58s22.56-27.62,35.7-39.67c12.92-12.19,26-24.31,40.68-34.63s30.25-19.6,47.71-26.73c7.56,1.19,10.5,3.9,10.93,11.55a345.54,345.54,0,0,1-28.92,45.62c-10.38,14.12-22.81,26.37-34.17,39.36s-24.64,24.08-37.92,35.34-26.23,22.83-37.19,36.23c-11.36,13-19.56,28.51-29.37,42.63-9.63,14.23-21.2,27-30.49,41.35-10,14.11-16.41,29.34-26.36,44.21-9.57,15.15-21.91,28.37-32.13,43-10.39,14.5-19.36,30.06-30.58,43.89s-24.57,25.9-36.48,39.14-23.13,27.12-35.61,39.8-25.18,25.19-38.09,37.46c-19.46,18.38-18.88,19-38.82,36.89-14.22,10.93-26.49,24.63-37.73,40.26s-26,27.27-44.35,33.39c-18.07,6.19-39.43,8.12-60.8,1.15C1150.65,1592.72,1150.85,1590.21,1151.48,1585.41Z"/><path class="cls-6" d="M2204.14,1770.07c-10.49,13.65-20,27.09-30.6,40.65s-20.17,28-30.93,41.42-21.63,26.82-32.54,40.15-23.27,25.46-34.32,38.67-22.81,25.8-34,38.89-22.16,26.36-33.52,39.31-21.28,27.17-32.8,40-23.83,24.43-35.39,36.94-24,24.26-35.64,36.68-22.07,26.08-33.71,38.48-23.15,25.07-34.69,37.55-24.54,23.82-35.88,36.48-21.4,26.65-32.43,39.57-22.52,25.67-33.13,38.94c-11.65,14.55-22.15,30.08-32.84,45.16A535,535,0,0,0,1672,2406c-9.43,16.74-19.34,32.75-25.29,49.74-4,12.39-5,23.39-6.5,36.71-1.67,13.11-4.91,26.9-5.66,41.09-.71,14.37,0,29-.25,43.73-.29,14.46-.62,29.06-.76,43.7-.22,15.08-1.67,30.16-1.71,45.29s1.35,30.12,1.27,45.3c-.08,15,.82,30.1.49,45.32q-.48,22.42-1.64,45.31c-.43,7.84-1.29,16-2.32,24.51-.58,4.34-3.09,8.57-4.28,13.75-.71,2.83.15,6.36-1.26,10-1.06,2.43-3.49,4.29-4.85,6.54-1,1.62-1.9,1.21-2.59,2.14-9.42,11.83-16.81,25.31-26.66,36.84s-21,22-31.34,33.27-20.68,21.72-31.89,32.17c-8.7.16-10.34-1.63-13.22-9.84,5.81-14.13,10.92-27.59,17.68-41s13.8-27,21.15-40.2,16-25.35,23.7-38.21a6.3,6.3,0,0,0,.64-2.31c-.56.55.23,2,0,2.7-.24.13-2.72-1.38-2.66-2.2.2-2.21,1.35-5,1.43-8.14.05-6.47.07-13.37-.32-20.54-.88-14.76-3.19-29.58-4.46-44.65-1.25-14.79.14-29.94-1.23-44.94-1.35-14.83-3.51-29.66-4.73-44.63s-2.56-29.79-3.4-44.74c-.86-15.36-2.9-30.75-3.15-46.32-.24-15.31.9-30.77,1.56-46.4.72-15.8,1.08-31.89,3.62-48.52,2.14-16.55,7.38-35.08,13.18-51.09,6.06-15.32,12.29-30.23,19.77-44.05,7.77-14.36,18.36-26.7,27.25-39.81,9.11-13.43,17.23-27.35,27.07-39.87,10-12.72,21.86-23.74,32.15-35.93,11.37-13.11,22.4-26.37,34.12-39s23.2-25.71,35.26-38,24.62-24.32,36.93-36.39,24.58-24.36,37-36.28,24-25,36.51-36.85,26.44-22.4,38.9-34.33,24.62-24.3,36.94-36.39c12.34-11.87,24.28-24.17,36.52-36.15s25.74-22.68,37.9-34.76,23.13-25.32,35.21-37.46,25.32-23.13,37.35-35.34,23.3-25.12,35.29-37.37,22.72-25.68,34.67-38,25-23.24,36.9-35.53C2200.47,1755.63,2203.22,1761.41,2204.14,1770.07Z"/></g><polygon class="cls-1" points="1920 2295 0 2495 0 0 1920 200 1920 2295"/></g></svg>