<svg id="Warstwa_1" data-name="Warstwa 1" xmlns="http://www.w3.org/2000/svg" viewBox="0 0 217 168"><defs><style>.cls-1{fill:#1f1f45;}.cls-2{fill:none;stroke:#1f1f45;stroke-miterlimit:10;stroke-width:2.36px;}.cls-3{fill:#cae10c;}.cls-4{fill:#015b55;}.cls-5{fill:#85c72f;}.cls-6{fill:#55b182;}.cls-7{fill:#fff;}.cls-8{fill:#86077f;}</style></defs><title>Obszar roboczy 1</title><path class="cls-1" d="M77.87,100.21c-4.39,3.13-11.49,10.88-7.78,22,1.85,5.53,6.63,12.13,15,19.46,5.06,4.43,11.9,9,20.21,14,3.54-3.29,7.28-10,9.72-17.62,2-6.32,3.81-13.4,3.95-19.78.17-8-2.61-14.52-7.18-18-12.64-9.53-9.88-5.25-20.79-1.48C84.54,101.06,84.42,95.54,77.87,100.21Z"/><path class="cls-1" d="M78.07,100.48c-4.39,3.13-10.28,10.14-6.57,21.25,1.85,5.53,5.24,12.58,13.62,19.92A146.39,146.39,0,0,0,105.27,156c3.54-3.29,7.67-10.24,10.11-17.86a72.49,72.49,0,0,0,3.11-19.9c.17-8-2.28-14.29-6.84-17.74C99,91,101.44,93.71,90.61,97.7,84.27,100,84.62,95.81,78.07,100.48Z"/><path class="cls-1" d="M91.74,97.83C91.66,101,94.23,111,97.24,121c3.18,10.58,5.18,21,4.62,23.23"/><path class="cls-1" d="M92.76,108.88c-.78,1.52-5.08,5-5.87,6.78s-2.1,7.19-3,14.68"/><path class="cls-1" d="M55.16,99.56c-4.39,3.13-10.9,9.68-7.19,20.78,1.85,5.53,5.84,12.09,14.22,19.42,5.06,4.43,11.65,8.54,20,13.59,3.54-3.29,6.88-9.24,9.32-16.86,2-6.32,4-13.32,4.12-19.7.17-8-2.36-14.72-6.92-18.16C76,89.1,78.2,92.41,67.53,96.84,61.46,99.36,61.71,94.89,55.16,99.56Z"/><path class="cls-1" d="M54.54,98.7a18.61,18.61,0,0,0-6.84,21.74c1.85,5.53,6.09,12,14.47,19.35,5.06,4.43,11.61,8.88,19.93,13.93,3.54-3.29,7.38-9.46,9.82-17.08,2-6.32,2.09-13.49,2.22-19.87.17-8-.63-15.05-5.2-18.5C76.3,88.74,78.4,92.89,67.47,96.63,61,98.84,61.09,94,54.54,98.7Z"/><path class="cls-1" d="M67,96.33c-.08,3.2,2.95,13.51,6,23.52,3.18,10.58,6.83,20.84,6.27,23.08"/><path class="cls-1" d="M69.8,107.59c-.78,1.52-6.49,4.39-7.27,6.12s-1.08,7.66-2,15.15"/><path class="cls-1" d="M123.09,25.6c4.66-3.37,12.71-3.27,20.59.07,5.81,2.46,11.09,7.09,15.44,13.9A46.94,46.94,0,0,1,166,59.29c-.25-.77-6.34-7.47-15.81-13.35a93.79,93.79,0,0,0-19.07-9.22c-7.39-2.46-15.47-2.66-21.37-.11-1.34-9.11,5.38-9.58,14.63-11.82,4.75-1.15,11-.15,17.94,4.16,4.16,2.6,8.5,6.89,13.38,12.67"/><path class="cls-1" d="M122.74,25.12a15.45,15.45,0,0,1,7.77-2.59,28.12,28.12,0,0,1,8.1.67,33.33,33.33,0,0,1,7.68,2.7A30.06,30.06,0,0,1,153,30.57a40.07,40.07,0,0,1,9.33,13.18,54.17,54.17,0,0,1,4.3,15.46l.2,1.53-1.36-1.27a.2.2,0,0,1-.05-.07l-.13-.18c-.08-.12-.19-.24-.29-.36s-.43-.48-.64-.73c-.44-.48-.9-.94-1.37-1.41-.94-.92-1.92-1.8-2.91-2.67q-3-2.58-6.25-4.85A70,70,0,0,0,147.12,45c-2.3-1.29-4.68-2.45-7.07-3.54a69.38,69.38,0,0,0-14.75-5.1c-5-.91-10.43-1-15.23.86l-.89.35-.08-.89a13.39,13.39,0,0,1,0-3.88,6.89,6.89,0,0,1,1.68-3.6A9.67,9.67,0,0,1,114,27a28.93,28.93,0,0,1,3.58-1.2c2.41-.66,4.77-1.17,7.2-1.75a18.59,18.59,0,0,1,7.58.05,27.21,27.21,0,0,1,7.08,2.52,33.87,33.87,0,0,1,6.25,4.11,69.4,69.4,0,0,1,10,10.87A89.77,89.77,0,0,0,145.11,31.5a32.79,32.79,0,0,0-6.19-3.78,28.49,28.49,0,0,0-6.8-2.32,18.54,18.54,0,0,0-7.07-.1c-2.36.54-4.81,1-7.15,1.64s-4.7,1.42-6.21,3.09a5.24,5.24,0,0,0-1.31,3,12.1,12.1,0,0,0,.1,3.47l-1-.54a29.09,29.09,0,0,1,16.16-1.77,38,38,0,0,1,7.89,2.14,66.66,66.66,0,0,1,7.38,3.3A117.4,117.4,0,0,1,154.67,48q3.26,2.36,6.28,5c1,.9,2,1.81,2.93,2.77.47.48.94,1,1.39,1.47.22.26.45.5.67.78s.22.26.33.42l.16.23a3.42,3.42,0,0,1,.19.36l-1.16.26a44.88,44.88,0,0,0-4.52-14.94,46.32,46.32,0,0,0-4.19-6.56,44.54,44.54,0,0,0-5.15-5.77,33,33,0,0,0-6.18-4.56,31.77,31.77,0,0,0-7.17-2.86,24,24,0,0,0-7.65-.85,13.7,13.7,0,0,0-7.16,2.26Z"/><path class="cls-1" d="M110.62,37.29C100,41,103,41.12,97.89,54.78s5,.95,16.39-4.27c4.33-2,2,7.41,6.94,3s-2.6-16.71,8.06-15.57C138.14,35,124.12,34.11,110.62,37.29Z"/><path class="cls-2" d="M110.62,37.29C100,41,103,41.12,97.89,54.78s5,.95,16.39-4.27c4.33-2,2,7.41,6.94,3s-2.6-16.71,8.06-15.57C138.14,35,124.12,34.11,110.62,37.29Z"/><path class="cls-1" d="M115.65,47.18c1.46,10.55-2.35,7.52-4,21-.72,6-.71,13.13-1.21,21.27-.4,6.47-1.66,13.13-1.74,20.84-1.44,1.86-1.59-.82-2.2-3.09-2.31-8.57-.49-7.76,0-17.6.27-5.64,0-12,.42-17.77A145.22,145.22,0,0,1,109,54.14C111.4,43.52,114.92,41.85,115.65,47.18Z"/><path class="cls-1" d="M108.69,78.15c0-11.74.23-14.38,1.9-23.2.4-1,.38.59.9,1.55"/><path class="cls-2" d="M108.69,78.15c0-11.74.23-14.38,1.9-23.2.4-1,.38.59.9,1.55"/><path class="cls-1" d="M82.83,33.85c4.66-3.37,12-3.86,19.93-.52a34.59,34.59,0,0,1,15.77,13.54,47.49,47.49,0,0,1,7.11,19.83c-.25-.77-7.44-6.33-16.91-12.22-5.72-3.56-12-7.58-18.58-9.77C82.76,42.25,75,41.5,69.07,44c-1.34-9.11,5.39-9.06,14.64-11.3,4.75-1.15,10.57-.08,17.47,4.23,4.16,2.6,8.3,6.79,13.18,12.57"/><path class="cls-1" d="M82.48,33.36a16.46,16.46,0,0,1,7.61-2.83,25,25,0,0,1,8.08.48,33,33,0,0,1,14.35,7.24,28.63,28.63,0,0,1,2.89,2.85,31.72,31.72,0,0,1,2.52,3.17,44.09,44.09,0,0,1,3.94,7,53.62,53.62,0,0,1,4.34,15.34l0,.26h-1.19s0,0,0,0l-.15-.15c-.09-.1-.22-.21-.33-.31s-.48-.42-.72-.63c-.5-.41-1-.82-1.54-1.22-1-.8-2.11-1.57-3.18-2.34q-3.22-2.28-6.55-4.42c-2.21-1.44-4.47-2.79-6.75-4.14s-4.57-2.63-6.89-3.84a76.77,76.77,0,0,0-7.08-3.25,54.56,54.56,0,0,0-7.4-2.25,36.82,36.82,0,0,0-7.63-.92,19.79,19.79,0,0,0-7.48,1.29l-.88.36-.08-.89a13.18,13.18,0,0,1,0-3.82,6.46,6.46,0,0,1,1.71-3.53,9.4,9.4,0,0,1,3.26-2,31.65,31.65,0,0,1,3.55-1.07L84,32a17.32,17.32,0,0,1,7.47.08,26.93,26.93,0,0,1,6.93,2.6,34.81,34.81,0,0,1,6.12,4.07,70,70,0,0,1,9.82,10.75,91.26,91.26,0,0,0-10.42-10,33.72,33.72,0,0,0-6.07-3.75,28.52,28.52,0,0,0-6.66-2.39,17.17,17.17,0,0,0-6.94-.12L77.2,34.81c-2.3.56-4.69,1.24-6.23,2.81-.17.21-.36.41-.51.63l-.4.71a6.33,6.33,0,0,0-.41,1.59,11.9,11.9,0,0,0,.1,3.41l-1-.54a22.72,22.72,0,0,1,8-1.85,33.55,33.55,0,0,1,8.13.58,45.6,45.6,0,0,1,15,5.85c4.61,2.73,9,5.7,13.43,8.59q3.31,2.21,6.53,4.56c1.07.79,2.13,1.59,3.18,2.41.52.42,1,.84,1.55,1.27.25.23.51.44.76.68s.25.23.38.38l.19.21a2.37,2.37,0,0,1,.24.4l-1.16.26A44.36,44.36,0,0,0,120.49,52a42.94,42.94,0,0,0-9.34-12.15A33.31,33.31,0,0,0,97.82,32.5a21.38,21.38,0,0,0-7.58-.67,14.6,14.6,0,0,0-7.06,2.5Z"/><path class="cls-1" d="M69.79,44.73c-10.67,3.76-7.51,3.86-12.66,17.52s5,1,16.34-4.27c4.33-2,2,7.35,6.9,3S77.37,43,88,44.18C96.9,41.21,83.29,41.55,69.79,44.73Z"/><path class="cls-2" d="M69.79,44.73c-10.67,3.76-7.51,3.86-12.66,17.52s5,1,16.34-4.27c4.33-2,2,7.35,6.9,3S77.37,43,88,44.18C96.9,41.21,83.29,41.55,69.79,44.73Z"/><path class="cls-1" d="M74.91,54.61c1.46,10.55-2.3,7.55-3.93,21.06-.72,6-1.49,13.07-2,21.22-.4,6.47-.45,13.62-.52,21.33-1.44,1.86-2.42-1.2-3-3.48-2.31-8.57.08-7.82.55-17.65.27-5.64-.3-12,.11-17.78a149,149,0,0,1,2-17.73C70.5,51,74.18,49.29,74.91,54.61Z"/><path class="cls-1" d="M68.4,85.6c0-11.74-.56-14.48,1.11-23.29.4-1,.6.71,1.11,1.67"/><path class="cls-2" d="M68.4,85.6c0-11.74-.56-14.48,1.11-23.29.4-1,.6.71,1.11,1.67"/><path class="cls-3" d="M51.1,97.16c-4.1,1.7-11.16,5.42-13.52,13.54-1.42,4.88-1.47,11.66,1.14,19.69,1.66,5.11,4.92,10.83,9.06,17.42,3,4.83,7.15,9.76,11.82,15.46,4.44-2.56,10.27-8.31,15-15.87a90.18,90.18,0,0,0,9.23-20.1c2.7-8.49,3.59-16.91.33-21.87-9-13.68-8.8-8.8-20.37-7.45C57.12,98.76,58.8,94,51.1,97.16Z"/><path class="cls-1" d="M52.15,99.71a18.25,18.25,0,0,0-6.47,5.21,20,20,0,0,0-3.58,7.27c-1.39,5.15-.26,11.17,1.54,17a83.26,83.26,0,0,0,8,16.81c1.7,2.94,3.11,5.83,4.65,8.59a58.54,58.54,0,0,0,5.08,7.78L58,161.76a21.9,21.9,0,0,0,4.49-3.64,55.9,55.9,0,0,0,4.12-4.68A103.59,103.59,0,0,0,73.86,143a88,88,0,0,0,5.88-11.26,50.5,50.5,0,0,0,3.59-11.92,27.29,27.29,0,0,0,.33-6,14.81,14.81,0,0,0-1.33-5.53,11.68,11.68,0,0,0-.66-1.19l-.89-1.34c-.59-.9-1.2-1.77-1.8-2.64a20.93,20.93,0,0,0-3.8-4.39,3,3,0,0,0-1.86-.54,15.37,15.37,0,0,0-2.8.46c-2.1.49-4.34.93-6.61,1.24a12.35,12.35,0,0,1-4-.07,10,10,0,0,1-2-.61c-.57-.23-1.06-.46-1.36-.54a2.19,2.19,0,0,0-.83-.08h-.22l-.26.05a3.1,3.1,0,0,0-.55.13A16.72,16.72,0,0,0,52.15,99.71Zm-2.09-5a21.25,21.25,0,0,1,3.64-1,7.2,7.2,0,0,1,1.06-.12l.55,0,.6,0a7.18,7.18,0,0,1,2.35.55c.71.3,1.18.59,1.61.8a5.48,5.48,0,0,0,1.07.44,7.57,7.57,0,0,0,2.5.16,58.42,58.42,0,0,0,6.21-1A18.58,18.58,0,0,1,73.27,94a5,5,0,0,1,1.1.08,4.39,4.39,0,0,1,1.13.26,7.52,7.52,0,0,1,2,1,25.21,25.21,0,0,1,4.77,5.35c.63.91,1.28,1.82,1.88,2.73l.92,1.37a15.86,15.86,0,0,1,.93,1.64,19.2,19.2,0,0,1,1.8,7,31.45,31.45,0,0,1-.29,7,54.77,54.77,0,0,1-3.73,13,104.47,104.47,0,0,1-6,11.92,108.31,108.31,0,0,1-7.31,11.13,60.83,60.83,0,0,1-4.37,5.19,27.43,27.43,0,0,1-5.51,4.64l-1.84,1.13-1.48-1.74c-4.44-5.2-7.59-11.25-11-16.43a80.25,80.25,0,0,1-9.31-17.85,48.23,48.23,0,0,1-2.49-10.11,27.28,27.28,0,0,1,.72-11,25.83,25.83,0,0,1,2.19-5.17,22.18,22.18,0,0,1,3.38-4.49A25,25,0,0,1,50.06,94.66Z"/><path class="cls-1" d="M71.54,100.13c-.24-.09-.57.17-.84.53a7.31,7.31,0,0,0-.8,1.25,23.44,23.44,0,0,0-1.35,3,51.68,51.68,0,0,0-1.91,6.45,62,62,0,0,0-1.18,6.61,58.13,58.13,0,0,0-.32,6.66c0,2.22,0,4.44-.2,6.66s-.46,4.45-.76,6.68-.71,4.45-1.21,6.65c-.26,1.1-.52,2.2-.87,3.29A11.37,11.37,0,0,1,60.75,151a14.85,14.85,0,0,0,.29-3.3c0-1.11,0-2.21,0-3.32l-.19-6.63c-.05-2.21-.2-4.41-.2-6.64s.16-4.44.33-6.65a58.11,58.11,0,0,0,.21-6.66,60.53,60.53,0,0,0-.68-6.71c-.33-2.25-.74-4.52-1.21-6.86l-.75-3.65c-.12-.64-.24-1.3-.34-2.05a13.15,13.15,0,0,1-.11-2.71Z"/><path class="cls-1" d="M66.15,113.45a8.83,8.83,0,0,1-1,.75l-.73.38a11.92,11.92,0,0,1-1.15.42c-.71.22-1.31.34-1.91.48l-3.31.69c-1,.2-2.05.61-2.24.57a3.79,3.79,0,0,0-.85.95c-.3.42-.6.87-.9,1.34-1.14,1.89-2.25,3.88-3.29,5.87s-2,4-3,6a48.79,48.79,0,0,0,1.9-6.41c.52-2.18.88-4.39,1.36-6.65.11-.57.23-1.14.38-1.74a8.25,8.25,0,0,1,.73-2,5.58,5.58,0,0,1,.86-1.16c.3-.33.55-.55.83-.81.51-.45,1-.86,1.5-1.25,1-.78,1.89-1.48,2.71-2.21a8.65,8.65,0,0,0,1.05-1,1.38,1.38,0,0,0,.28-.45l-.06-.11a1,1,0,0,0-.36.18Z"/><path class="cls-1" d="M65.11,119c0,.63.77,1.36,1.82,2a23.14,23.14,0,0,1,3.87,2.78,7.51,7.51,0,0,1,1.64,2.56c.37,1.1.33,1.43.53,2,.33,1.12,1.61,1.94,2.14,3.21a8.29,8.29,0,0,1,.47,2.11,12.58,12.58,0,0,1,.08,2.47,9.65,9.65,0,0,1-.18,1.32l-.22.87L74.83,140a48.16,48.16,0,0,0-1,6.75l-2.46.53a17.7,17.7,0,0,1-2.32-7.65c-.06-.69-.06-1.36-.07-2v-.93c0-.19,0-.31-.07-.49a11.3,11.3,0,0,0-.29-1.13,9.1,9.1,0,0,1-.41-1.41c-.16-1.06.31-2.51-.09-3.7a7.09,7.09,0,0,0-.59-1.42,1.29,1.29,0,0,0-.52-.32,12,12,0,0,0-2.58-.44,19,19,0,0,1-4.75-1Z"/><path class="cls-1" d="M119.11,80.23a23,23,0,0,0-12.83,14.48C104.86,99.6,105.42,106,108,114a76.64,76.64,0,0,0,8,17.77,160.16,160.16,0,0,0,11.62,16.18c4.44-2.56,9.46-9.75,14.22-17.3,3.87-6.14,7.67-12.88,9.8-19.59,2.7-8.49,3.71-16.5.45-21.45-9-13.68-8.28-7.54-19.91-6.82C125.25,83.22,126.82,77,119.11,80.23Z"/><path class="cls-1" d="M119.61,81.43A20.76,20.76,0,0,0,107,94.93a31.53,31.53,0,0,0,.54,19.22c1.66,5.11,5,10.66,9.09,17.25a153.66,153.66,0,0,0,11.46,15.34c4.44-2.56,10-7.94,14.77-15.49a90.5,90.5,0,0,0,9.58-20c2.7-8.49,3.43-17,.17-22-9-13.68-8.89-8.8-20.43-7.18C125.64,83,127.32,78.24,119.61,81.43Z"/><path class="cls-1" d="M131.7,81.42c-.81,2.52-.63,9.77-.9,17.92-.19,5.75-.87,12.05-1.06,17.76-.29,8.69.63,16.31-.31,18"/><path class="cls-1" d="M131.43,94.7c-1.22,1.41-7.25,3.19-8.55,4.83A73.8,73.8,0,0,0,115,114.34"/><path class="cls-1" d="M131.28,106.08c2.73,1.9,6.62,2.36,7.59,5.75s1.65,6.36,1.3,9.08,0,5.07,1,10"/><path class="cls-4" d="M182,5.91c5.38-2.33,12.43-1.79,18.41,3.1A32.06,32.06,0,0,1,211,25.68a55.68,55.68,0,0,1,1.24,19.91c-.07-.8-6.16-9.21-14.72-17.38-5.17-4.93-12.1-8.94-18.33-12.75-7.2-4.39-13.84-7.37-20.28-6.14,3.41-9.71,7.75-6.16,18.9-4.4,5.38.85,11.19,3.34,17.27,9.78A67.93,67.93,0,0,1,207,31.36"/><path class="cls-1" d="M181.3,4.27a20.14,20.14,0,0,1,16.14.24A27.25,27.25,0,0,1,204.34,9a29.62,29.62,0,0,1,5.4,6.1,29.27,29.27,0,0,1,3.52,7.36,33.8,33.8,0,0,1,1.38,7.88A87.75,87.75,0,0,1,214,45.77l-3.6,0a.67.67,0,0,0,.08.36l-.08-.15c0-.09-.13-.23-.21-.36s-.34-.54-.52-.81c-.37-.55-.78-1.09-1.18-1.63C207.7,42.08,206.84,41,206,40c-1.77-2.09-3.6-4.14-5.54-6.08a75.68,75.68,0,0,0-6-5.49A49.06,49.06,0,0,0,187.62,24c-2.38-1.33-4.85-2.54-7.29-3.87-1.21-.65-2.47-1.37-3.63-2s-2.32-1.33-3.47-2-2.29-1.25-3.43-1.83-2.29-1.07-3.44-1.5a16.07,16.07,0,0,0-7-1.15L155,12l1.67-3.42a24.1,24.1,0,0,1,2.17-3.9,11,11,0,0,1,1.66-1.84c.36-.27.71-.54,1.09-.78s.82-.4,1.24-.56a10.35,10.35,0,0,1,4.75-.25c1.42.21,2.75.49,4,.76s2.57.53,3.85.75l3.92.63a26.52,26.52,0,0,1,8,2.78,30.82,30.82,0,0,1,6.7,5,59.23,59.23,0,0,1,5.3,6.16A49.67,49.67,0,0,1,207,31.36a95.78,95.78,0,0,0-9.87-12.17c-1.81-1.84-3.64-3.73-5.55-5.34a36.86,36.86,0,0,0-6.08-4.26A26.17,26.17,0,0,0,178.67,7l-3.86-.77-3.89-.86a31.8,31.8,0,0,0-3.73-.66,6,6,0,0,0-3.06.25,3.91,3.91,0,0,0-1.84,1.95,11.8,11.8,0,0,0-.67,1.52c-.19.55-.33,1.15-.5,1.72L158.46,7A21.08,21.08,0,0,1,168,6.83a33.59,33.59,0,0,1,8.54,3.06c1.32.66,2.57,1.4,3.8,2.15s2.35,1.5,3.52,2.29c2.32,1.57,4.6,3.28,6.85,5.06s4.48,3.62,6.6,5.62c1.09,1,2.09,2.05,3.06,3.06s1.94,2.07,2.88,3.13c1.89,2.11,3.76,4.23,5.52,6.45.89,1.1,1.74,2.23,2.61,3.37.43.57.85,1.16,1.26,1.75.21.31.42.6.63.94.11.17.21.32.33.54l.17.31a3.49,3.49,0,0,1,.26.85l-3.6,0a44.06,44.06,0,0,0-1-14.32,55.83,55.83,0,0,0-2-6.64,40.58,40.58,0,0,0-2.84-6.13,35.05,35.05,0,0,0-3.9-5.55,18.92,18.92,0,0,0-5.1-4.32,15.26,15.26,0,0,0-6.3-1.92,14,14,0,0,0-6.49,1Z"/><path class="cls-1" d="M158.48,9.56c-11.23,1.36-8.65,2.18-16.64,14.41s5.18,2.25,17.38-.39c4.66-1,0,7,5.74,3.81s4.62-10.16,16.5-11C185.65,5,172.34,9.37,158.48,9.56Z"/><path class="cls-2" d="M158.48,9.56c-11.23,1.36-8.65,2.18-16.64,14.41s5.18,2.25,17.38-.39c4.66-1,0,7,5.74,3.81s4.62-10.16,16.5-11C185.65,5,172.34,9.37,158.48,9.56Z"/><path class="cls-1" d="M161.81,20.73c-.86,10.62-4.07,6.92-8.59,19.75-2,5.66-4.51,12.36-6.76,20.21-1.78,6.23-3,13.64-4.75,21.15-1.81,1.51-2.86-2.11-3-4.47-.4-8.86,2.57-7.52,5.15-17,1.48-5.45,2.26-11.77,3.92-17.34a136.74,136.74,0,0,1,6-16.71C158.45,16.45,162.24,15.38,161.81,20.73Z"/><path class="cls-5" d="M58.9,28.08c-2.77-1.47-11.4,1-20.18,7.41a51.11,51.11,0,0,0-14.52,16,.86.86,0,0,0,1.18,1.15c3.42-1.94,11-5,19.48-8.82,6.33-2.81,12.9-6.73,19.5-8.89,8.37-2.75,15.54-3.71,20.41-2.83C79,21,76.87,23.59,61.64,27,55.4,28.43,47.78,31.7,39.37,38.16"/><path class="cls-1" d="M58.06,29.66a5.2,5.2,0,0,0-2.32-.09,17.19,17.19,0,0,0-3,.75,32.6,32.6,0,0,0-5.86,2.75,68.25,68.25,0,0,0-10.23,8.09c-1.59,1.46-3.13,2.94-4.64,4.47a58.73,58.73,0,0,0-4.41,4.79c-.34.43-.68.86-1,1.31l-.48.67-.06.08,0,0,0-.07a1.4,1.4,0,0,0,.09-.33,1.27,1.27,0,0,0-.09-.7,1.13,1.13,0,0,0-.81-.68,1.33,1.33,0,0,0-.63,0,1,1,0,0,0-.26.12l.2-.1c.55-.28,1.09-.52,1.64-.76l6.36-2.8C36.75,45.31,41,43.49,45,41.45c2-1,4-2.13,5.95-3.28s3.94-2.41,6-3.59a40.79,40.79,0,0,1,6.54-3.08,43.94,43.94,0,0,1,6.92-1.86A38.76,38.76,0,0,1,77.68,29a29.84,29.84,0,0,1,7.48.91l-2.31,3.15a22.77,22.77,0,0,0-2.92-5.3A5.6,5.6,0,0,0,78,26.19a5.75,5.75,0,0,0-2.46-.39,36,36,0,0,0-6,1.26c-2.09.57-4.2,1.17-6.35,1.65L60,29.43c-1,.25-2,.56-3,.86-2,.62-4,1.36-6,2.17-3.95,1.63-7.77,3.64-11.68,5.7a47.79,47.79,0,0,1,10.37-8.31,44.82,44.82,0,0,1,6-3c1-.44,2.12-.8,3.21-1.14s2.23-.61,3.25-.85q3.15-.73,6.36-1.43a39.19,39.19,0,0,1,6.81-1l1,0a4.79,4.79,0,0,1,1,.09l1,.19,1,.37a9,9,0,0,1,3.23,2.34l.64.69.56.7a16.1,16.1,0,0,1,1,1.43c.68,1,1.28,1.9,1.9,2.85l2.2,3.39-4.51-.24a24.48,24.48,0,0,0-6.19.56c-2.08.44-4.17,1-6.25,1.58l-6.28,1.81c-2,.59-4.09,1.24-6.2,2s-4.23,1.51-6.35,2.38-4.22,1.84-6.38,2.72c-4.3,1.73-8.49,3.49-12.7,5.27-2.09.9-4.16,1.86-6.09,2.94-.48.27-1,.55-1.4.83l-.17.11a2.94,2.94,0,0,1-.66.28,2.82,2.82,0,0,1-1.48,0,3,3,0,0,1-2-1.78,2.88,2.88,0,0,1,.07-2.29l.17-.33.4-.8c.26-.54.55-1.06.82-1.6a42.16,42.16,0,0,1,3.84-6.15,33.91,33.91,0,0,1,5-5.24,49.13,49.13,0,0,1,12.34-7.37,46.67,46.67,0,0,1,6.8-2.46,23,23,0,0,1,3.69-.7c.31,0,.66,0,1-.06a7,7,0,0,1,1,0,6.13,6.13,0,0,1,2.38.61Z"/><path class="cls-1" d="M85.92,32.33c6.83.48,2.06,1,7.57,11.08C98.75,53,89.93,45.23,80.86,43c-3.48-.84.47,4.57-3.89,2.21s-6.83-12.05-14.43-9.41C74.22,33.85,75.51,32.3,85.92,32.33Z"/><path class="cls-2" d="M85.92,32.33c6.83.48,2.06,1,7.57,11.08C98.75,53,89.93,45.23,80.86,43c-3.48-.84.47,4.57-3.89,2.21s-6.83-12.05-14.43-9.41C74.22,33.85,75.51,32.3,85.92,32.33Z"/><path class="cls-1" d="M80.19,40.75c1.7,11.89,3.18,8.12,7.6,22.65,2,6.5,4,14.12,6.19,23,1.53,1.65,3.2-.91,3.26-3.16.28-10-2.76-9.67-5.61-19.39A157.54,157.54,0,0,0,85,45C81.47,37.63,79.62,36.76,80.19,40.75Z"/><path class="cls-3" d="M84.28,45.72c-.46-.68.33.36.57,1.14,2.38,7.76.45,8.66,4.52,15.68C93.76,70.11,87,51.88,84.28,45.72Z"/><path class="cls-6" d="M39,46.37c-5.3-2.23-13.33-.85-20.25,4.18-5.1,3.71-9.11,9.72-11.81,17.34-2.08,5.87-2.82,12.66-2,20.83.07-.8,5-8,12.94-15.91A91.87,91.87,0,0,1,34.22,59.68c6.64-4.07,13.65-6.87,20-5.72-.76-9.18-7.1-7.89-16.62-8-4.89,0-10.23,2.67-16,8.42A57.9,57.9,0,0,0,11,69.26"/><path class="cls-1" d="M38.31,48a13.32,13.32,0,0,0-6.93-.62,21.06,21.06,0,0,0-6.89,2.37,24.64,24.64,0,0,0-5.76,4.41,38.17,38.17,0,0,0-4.41,5.7c-1.3,2.06-2.49,4.22-3.62,6.46A41.76,41.76,0,0,0,7.8,73.28,39,39,0,0,0,6.72,88.54l-3.58,0a3.53,3.53,0,0,1,.21-.79l.15-.32c.11-.23.19-.36.29-.54.19-.34.37-.61.56-.92.37-.58.76-1.14,1.14-1.7.78-1.1,1.58-2.17,2.4-3.23q2.46-3.16,5.05-6.2c1.74-2,3.53-4,5.35-6S22,65,24,63.11A46.85,46.85,0,0,1,37.59,54a32.45,32.45,0,0,1,8.2-2.37,23.12,23.12,0,0,1,8.78.3l-2.43,2.2c0-.52,0-1.08-.1-1.58a8.33,8.33,0,0,0-.34-1.44,5.8,5.8,0,0,0-.55-1.23c-.14-.16-.27-.31-.4-.48s-.32-.26-.47-.41c-1.36-1-3.7-1.27-6-1.28-1.17,0-2.37,0-3.58.07l-1.83,0c-.59,0-1.28,0-1.76.05A15.85,15.85,0,0,0,31,49.68a44.67,44.67,0,0,0-10.89,8.44A90.07,90.07,0,0,0,11,69.26a46.45,46.45,0,0,1,6.92-13,43.09,43.09,0,0,1,5-5.57,27.79,27.79,0,0,1,6.24-4.51A17.34,17.34,0,0,1,37,44.1l3.68.06c1.21,0,2.44,0,3.69.08a33.8,33.8,0,0,1,3.87.35,10.8,10.8,0,0,1,4.08,1.53,8,8,0,0,1,2.87,3.61,17.41,17.41,0,0,1,1.09,4.05l.47,2.49L53.84,56A16.18,16.18,0,0,0,47,57,42.34,42.34,0,0,0,40.54,60c-4.25,2.42-8.42,5.18-12.63,8-2.09,1.43-4.19,2.91-6.17,4.54a72.57,72.57,0,0,0-5.68,5.2c-1.82,1.82-3.56,3.72-5.2,5.69-.81,1-1.61,2-2.37,3-.38.51-.74,1-1.09,1.53-.16.25-.35.52-.48.75s-.16.25-.19.32l-.07.12a.65.65,0,0,0,.06-.32l-3.58,0a74.57,74.57,0,0,1,.19-16.55A36.62,36.62,0,0,1,9.07,56.42,27.92,27.92,0,0,1,15,50a31.57,31.57,0,0,1,7.57-4.3,28.71,28.71,0,0,1,8.37-2.13,18.56,18.56,0,0,1,8.77,1.16Z"/><path class="cls-1" d="M53.93,54.06c11.24,1.25,8.21,2.7,16.32,14.85s-4.51.93-16.74-1.6c-4.67-1-.5,8.81-6.3,5.66S46.1,55,36,58.56C26.67,56.54,40.07,54,53.93,54.06Z"/><path class="cls-2" d="M53.93,54.06c11.24,1.25,8.21,2.7,16.32,14.85s-4.51.93-16.74-1.6c-4.67-1-.5,8.81-6.3,5.66S46.1,55,36,58.56C26.67,56.54,40.07,54,53.93,54.06Z"/><path class="cls-1" d="M51.16,65.55c1,10.61,4.49,6.62,9.13,19.41,2,5.63,3.18,12.8,5.51,20.62,1.85,6.21,3.75,13.45,5.57,20.94,1.83,1.49,1.95-2.2,2-4.55.31-8.87-1.19-7.62-3.87-17.09-1.54-5.44-3.24-11.49-5-17-2.22-7.2-3.91-13.81-5.42-17C54.46,61.05,50.68,60.19,51.16,65.55Z"/><path class="cls-7" d="M58.53,71.53c-.62-.9-.7,1.09-.38,2.13,3.17,10.34.94,11.48,7.39,20.16C72.57,103.28,62.14,79.74,58.53,71.53Z"/><path class="cls-4" d="M145.48,46c-3.16,2.83-8.26,8.34-7.81,16.42.27,4.85,2.5,10.77,7.4,17.19,3.12,4.08,8.11,7.77,13.93,12.4a140.23,140.23,0,0,0,15,11.08c3.19-3.72,5.89-11.14,7.79-19.46a84.38,84.38,0,0,0,1.7-20.87c-.26-8.52-1.43-16-5.94-19.48-12.45-9.49-10.37-5.41-20.35-.45C151.5,45.64,151.42,40.63,145.48,46Z"/><path class="cls-1" d="M147.17,47.85a20.28,20.28,0,0,0-4.68,6.21,13.25,13.25,0,0,0-1.13,7.82,15.77,15.77,0,0,0,3.34,7.24A52.34,52.34,0,0,0,150.37,75a124.9,124.9,0,0,1,12.1,11.82c1,1.17,1.88,2.26,2.9,3.4s2,2.24,3.15,3.31a51.75,51.75,0,0,0,7.23,5.8l-4.24.67a29,29,0,0,0,5.13-8.19c.67-1.53,1.25-3.11,1.77-4.72s.89-3.27,1.23-4.93a78.74,78.74,0,0,0,1.12-20.46,35.29,35.29,0,0,0-1.88-9.41,15.64,15.64,0,0,0-2-3.83A11.74,11.74,0,0,0,175.62,47l-.35-.3-.17-.16-.26-.2-1-.8c-1.39-1.06-2.75-2.09-4.08-3l-1-.6-.86-.47-.34-.14c-.1,0-.24-.13-.29-.11a.76.76,0,0,1-.2-.06c-.06,0-.09,0-.14,0a2.77,2.77,0,0,0-1.29.42c-.65.32-1.46.77-2.28,1.19A40.43,40.43,0,0,1,158.07,45h0c.56,1.35.15.38.28.68h0l-.06,0-.12,0-.25.09-.49.18a9.32,9.32,0,0,1-1.06.31,7.38,7.38,0,0,1-1.13.23,8,8,0,0,1-1.2.11,16.84,16.84,0,0,1-3.87-.47,1.41,1.41,0,0,0-.48,0,2.57,2.57,0,0,0-.54.22A11.08,11.08,0,0,0,147.17,47.85Zm-4.66-5.2a17.4,17.4,0,0,1,3.36-2.41,9.18,9.18,0,0,1,2.52-.89,8.39,8.39,0,0,1,2.77,0,12.55,12.55,0,0,0,2.59.39,1.9,1.9,0,0,0,.42,0,2,2,0,0,0,.46-.1,3.3,3.3,0,0,0,.51-.15l.27-.1.14,0,.07,0h.05l.28.68h0c1.44-.78,2.89-1.58,4.28-2.52.72-.48,1.43-1,2.34-1.5a9.43,9.43,0,0,1,3.71-1.35,10.65,10.65,0,0,1,1.19-.05c.37,0,.75.08,1.12.14a5.83,5.83,0,0,1,1,.24c.31.09.64.19.92.3.51.23,1.06.45,1.54.7l1.34.75c1.67,1,3.22,2.07,4.68,3.15l1.1.81.28.2.34.27.68.56a16.06,16.06,0,0,1,2.27,2.52,22.81,22.81,0,0,1,2.94,5.62,38,38,0,0,1,2,11.54,93.39,93.39,0,0,1-2.19,22.08c-.4,1.82-.87,3.63-1.44,5.42s-1.15,3.58-1.86,5.33a42.16,42.16,0,0,1-5.67,10.18l-1.66,2.1L172.3,105a90.21,90.21,0,0,0-8.61-4.08c-1.5-.64-3-1.26-4.56-1.94s-3.1-1.46-4.55-2.23a45.73,45.73,0,0,1-8.14-5.36,34.34,34.34,0,0,1-3.75-3.63,26.47,26.47,0,0,1-3.28-4.55A36.69,36.69,0,0,1,135.65,73a42.19,42.19,0,0,1-.82-5.41,37.39,37.39,0,0,1-.14-5.42,36.9,36.9,0,0,1,2.06-10.43A22.59,22.59,0,0,1,142.51,42.65Z"/><path class="cls-1" d="M163.64,42.11s-.09-.11-.12,0l-.06.39c0,.38,0,.75,0,1.23.06.89.23,1.9.38,2.91.33,2,.75,4.13,1.16,6.25.82,4.24,1.72,8.53,2.47,12.86l2.21,12.8c.34,2.14.69,4.28,1,6.42q.22,1.61.37,3.23a12.26,12.26,0,0,1,0,3.24,12,12,0,0,0-.66-3.11c-.32-1-.68-2-1.07-3-.76-2-1.58-4-2.45-5.93-1.7-3.93-3.55-7.81-5.41-11.69s-3.89-7.56-6-11.36c-1-1.91-2.08-3.82-3.1-5.84-.51-1-1-2-1.53-3.21-.26-.55-.5-1.22-.75-1.88l-.35-1.19c-.11-.46-.21-1.09-.29-1.64Z"/><path class="cls-1" d="M164.67,56c-.14.31-.31.65-.46.93l-.39.61a11.08,11.08,0,0,1-.69.88c-.44.52-.83.92-1.24,1.33-.78.79-1.55,1.47-2.22,2.11l-.9.85-.17.16-.11.08c-.07.09,0-.26-.13.06a25.6,25.6,0,0,0-1.17,2.59c-.79,1.84-1.45,3.78-2.22,5.73a54,54,0,0,1-2.69,6,23.9,23.9,0,0,1-1.53-6.53,42.8,42.8,0,0,1-.07-6.64,33.33,33.33,0,0,1,.43-3.48,6.76,6.76,0,0,1,.47-1.38l.29-.6.27-.5c.35-.62.68-1.16,1-1.65.66-1,1.28-1.86,1.86-2.66.27-.39.56-.79.75-1.1s.17-.29.23-.39a.18.18,0,0,1,0-.06.78.78,0,0,0-.12.22Z"/><path class="cls-1" d="M165,61.17c.12.56,1,1,2.14,1.24a23.38,23.38,0,0,1,4.45,1.21,7.08,7.08,0,0,1,2.39,1.82c.7.89.77,1.23,1.15,1.74.65,1,2.11,1.38,2.94,2.44a7.78,7.78,0,0,1,1,1.85,12.62,12.62,0,0,1,.68,2.2c0,.19.08.39.11.59l0,.3,0,.21.07.78c0,.52.1,1,.16,1.51.26,2,.86,4.11,1.38,6.44l-2.14,1.32a18.45,18.45,0,0,1-4.71-6,17.75,17.75,0,0,1-.79-1.82l-.32-.9-.07-.21-.06-.12-.11-.24a10.64,10.64,0,0,0-.58-1,7.76,7.76,0,0,1-.71-1.17c-.39-.9-.28-2.35-1-3.27a5.21,5.21,0,0,0-.92-1,1,1,0,0,0-.48,0,14.34,14.34,0,0,0-2.4.53,16.55,16.55,0,0,1-4.74.69Z"/><path class="cls-5" d="M147.2,62.73C152.58,60.4,160,61.47,166,66.35c4.37,3.56,7.1,9.61,9.12,17.17a52,52,0,0,1,2,19.48c-.07-.8-5.8-8.88-14.36-17.05A108.41,108.41,0,0,0,145.22,72c-7.2-4.39-15.67-6.9-22.1-5.67,3.41-9.71,9-5.92,20.19-4.16a29.81,29.81,0,0,1,17.81,9.45c3.85,4.08,7.37,9.89,11.09,17.32"/><path class="cls-1" d="M146.73,61.65a17.55,17.55,0,0,1,7.85-1.31,22,22,0,0,1,7.67,1.92,23.46,23.46,0,0,1,6.66,4.42,25.39,25.39,0,0,1,4.67,6.48A48.89,48.89,0,0,1,178,87.84a57,57,0,0,1,.31,15.29h-2.4a.19.19,0,0,0,0,.14l-.09-.18c0-.11-.15-.26-.23-.4s-.37-.56-.55-.84c-.39-.57-.79-1.13-1.2-1.69-.83-1.12-1.7-2.22-2.6-3.29-1.81-2.15-3.69-4.23-5.65-6.24a103.64,103.64,0,0,0-12.73-11c-2.27-1.63-4.61-3.14-7-4.56a68.45,68.45,0,0,0-7.17-3.82,47.31,47.31,0,0,0-7.55-2.68,21.7,21.7,0,0,0-7.77-.66l-2.88.33,1.09-2.41A17.82,17.82,0,0,1,123.81,62a7.75,7.75,0,0,1,3.88-2.8,11.77,11.77,0,0,1,4.51-.21c1.43.16,2.76.47,4.1.73,2.67.59,5.23,1.05,7.92,1.46a29.48,29.48,0,0,1,20.53,13.34A72.59,72.59,0,0,1,172.21,89a132.16,132.16,0,0,0-9-13.32,34.9,34.9,0,0,0-12-9.75,29.43,29.43,0,0,0-7.36-2.39c-1.28-.24-2.68-.48-4-.77l-4-.86a32.84,32.84,0,0,0-3.88-.64,8.35,8.35,0,0,0-3.52.26A4.68,4.68,0,0,0,126,63.56a12.7,12.7,0,0,0-1.42,3.33l-1.79-2.08a24.42,24.42,0,0,1,9.14-.27A34.39,34.39,0,0,1,140.6,67a40.87,40.87,0,0,1,7.72,4.38,78.39,78.39,0,0,1,6.77,5.47c4.28,3.87,8.47,7.75,12.35,12,2,2.1,3.85,4.25,5.66,6.48.9,1.12,1.79,2.25,2.66,3.4.43.58.86,1.17,1.27,1.77.2.31.41.6.61.94.1.17.2.31.31.52l.16.29a2.94,2.94,0,0,1,.2.64h-2.4a40.61,40.61,0,0,0-1.41-14.32c-.6-2.33-1.35-4.68-2.06-7a60.4,60.4,0,0,0-2.5-6.66,24.27,24.27,0,0,0-3.56-5.86A18.42,18.42,0,0,0,161,64.85a16.25,16.25,0,0,0-3.21-1.31,16.61,16.61,0,0,0-3.4-.66,13.77,13.77,0,0,0-6.73.94Z"/><path class="cls-8" d="M124,67.27c-11.23,1.36-8.65,2-16.64,14.2s5,1.56,17.21-1.09c4.66-1,.38,8.18,6.15,5s4.11-10.73,16-11.54C151,62.55,137.85,67.09,124,67.27Z"/><path class="cls-2" d="M124,67.27c-11.23,1.36-8.65,2-16.64,14.2s5,1.56,17.21-1.09c4.66-1,.38,8.18,6.15,5s4.11-10.73,16-11.54C151,62.55,137.85,67.09,124,67.27Z"/><path class="cls-1" d="M126.53,78.16c-.86,10.62-3.58,6.89-8.09,19.72-2,5.66-4.46,12.39-6.71,20.24-1.78,6.23-3.4,13-5.13,20.49-1.81,1.51-3-1.36-3.07-3.71-.4-8.86,3.5-7.49,6.08-17,1.48-5.45,1.83-11.89,3.48-17.46a129.36,129.36,0,0,1,6.21-16.66C123.9,73.92,127,72.81,126.53,78.16Z"/><path class="cls-4" d="M113.26,87.32a20.62,20.62,0,0,0-3.62,18,31.21,31.21,0,0,0,10.12,16.42c4.08,3.48,10.18,5.91,17.14,9.35a148.24,148.24,0,0,0,17.61,7.34c2.44-4.49,4.61-12,4.72-20.87.09-7.24-1.71-14.94-3.4-21.76-2.13-8.64-5.46-15.65-10.82-18.17-14.79-7-11.36-3.24-20.32,4.18C119.63,86,118.16,80.59,113.26,87.32Z"/><path class="cls-1" d="M115,88.58a11.06,11.06,0,0,0-1,3.65,18.53,18.53,0,0,0,.08,4,60.73,60.73,0,0,0,1.61,7.43,40,40,0,0,0,2.89,7.35,29,29,0,0,0,4.7,6.58,66.1,66.1,0,0,0,14.63,11c4.87,2.84,11.45,4.24,17.74,6.62l-4,1.55a21.12,21.12,0,0,0,1.88-5.17,49.19,49.19,0,0,0,1-5.93,110.26,110.26,0,0,0,.51-12.49,87,87,0,0,0-.72-12.37A40.37,40.37,0,0,0,151,89.41c-1.63-3.49-4-6.6-6.88-8.25l-.54-.3-.7-.34-1.42-.68c-.94-.44-1.89-.86-2.81-1.26L137.26,78l-1.3-.44a5.14,5.14,0,0,0-1.75-.25.37.37,0,0,1-.2.06,1.41,1.41,0,0,1-.29.17,9.18,9.18,0,0,0-.9.77l-2.3,2.27c-.83.8-1.72,1.56-2.62,2.28l-1.39,1a9.17,9.17,0,0,1-.8.53c-.29.18-.56.37-.87.53a9.89,9.89,0,0,1-4.29,1.18c-1.48.08-2.74-.19-3.26-.09-.12,0-.27,0-.32.08a.48.48,0,0,0-.21.11l-.1.06-.12.11-.12.09-.14.17A11.64,11.64,0,0,0,115,88.58Zm-5.65-4.11a16.21,16.21,0,0,1,3.06-2.81l.49-.33.57-.31.58-.29c.2-.09.43-.15.65-.23a5.7,5.7,0,0,1,1.34-.29,6.87,6.87,0,0,1,1.27,0c1.62.1,2.46.35,3.13.35a3.93,3.93,0,0,0,1.86-.44c.16-.07.33-.2.5-.29a4.72,4.72,0,0,0,.53-.35l1.18-.88c.76-.61,1.51-1.24,2.22-1.93s1.39-1.41,2.23-2.27A14.3,14.3,0,0,1,130.46,73c.35-.23.71-.46,1.08-.67s.87-.35,1.31-.49a9.9,9.9,0,0,1,4.59.15c.61.16,1.18.34,1.77.51l1.63.59c1.06.4,2.08.83,3.09,1.27l1.5.66.76.34.88.45a19.41,19.41,0,0,1,5.76,4.87,30.38,30.38,0,0,1,3.79,6.06,44.72,44.72,0,0,1,3.82,13.17,99.66,99.66,0,0,1,.79,13.23c0,4.31,0,8.69-.42,13.14a55.49,55.49,0,0,1-1,6.74,27.45,27.45,0,0,1-2.38,6.89l-1.26,2.42-2.75-.87c-3-.94-6-1.74-9.22-2.54a59.26,59.26,0,0,1-9.93-3.17,93.86,93.86,0,0,1-17.75-10.42,36.14,36.14,0,0,1-8.07-8,31.26,31.26,0,0,1-4.77-10.47A22.2,22.2,0,0,1,103.78,95a29.29,29.29,0,0,1,5.56-10.52Z"/><path class="cls-1" d="M131,79.16c0-.06-.15-.17-.13,0a.53.53,0,0,0,0,.15l0,.24a9.8,9.8,0,0,0,.33,1.22c.29.91.68,1.89,1.08,2.89l2.57,6.17c.87,2.11,1.73,4.2,2.57,6.43s1.49,4.36,2.18,6.48,1.38,4.2,2.12,6.25,1.65,4.08,2.46,6.17,1.63,4.18,2.37,6.29c.37,1.06.72,2.12,1,3.2a12.61,12.61,0,0,1,.64,3.29,12.33,12.33,0,0,0-1.28-3c-.52-1-1.09-1.91-1.68-2.85-1.17-1.87-2.41-3.7-3.69-5.49l-3.93-5.44c-1.31-1.87-2.54-3.77-3.76-5.63s-2.46-3.67-3.72-5.39-2.62-3.38-4-5.07l-4.27-5.18c-.73-.9-1.45-1.83-2.22-2.86-.38-.52-.76-1.07-1.17-1.73l-.3-.51c-.1-.17-.21-.41-.32-.61a11.79,11.79,0,0,1-.65-1.59Z"/><path class="cls-1" d="M135.05,93.23a9.65,9.65,0,0,1-.33,1.19q-.15.38-.33.76a10.86,10.86,0,0,1-.6,1.07,18.76,18.76,0,0,1-1.12,1.6c-.71.95-1.42,1.76-2,2.52l-.82,1-.14.18-.07.08,0,0,0,0h0v-.05a.47.47,0,0,0,0-.11s0-.07,0,0a2.59,2.59,0,0,0-.21,1c0,.47-.07,1-.09,1.5-.11,2.11-.08,4.35-.22,6.59a35.12,35.12,0,0,1-1,6.86,36.71,36.71,0,0,1-3.16-6.18,66.47,66.47,0,0,1-2.19-6.47c-.15-.57-.29-1.15-.42-1.78a10.43,10.43,0,0,1-.25-2.29,2.49,2.49,0,0,1,0-.45l.08-.51.05-.26,0-.19.1-.37.11-.36.1-.29.21-.57c.28-.68.55-1.3.83-1.85.56-1.1,1.1-2.1,1.59-3,.23-.44.47-.89.61-1.22s.11-.3.16-.39h0a1.28,1.28,0,0,0-.11.39Z"/><path class="cls-1" d="M136.25,98.16c.33.52,1.38.75,2.63.76a27,27,0,0,1,4.7.26,7.32,7.32,0,0,1,2.81,1.2,6.62,6.62,0,0,1,.59.48l.28.25c.1.09.11.12.17.18a7.63,7.63,0,0,0,.62.63c.87.81,2.42.9,3.52,1.73a8.32,8.32,0,0,1,1.47,1.58,13.76,13.76,0,0,1,1.32,2,10.27,10.27,0,0,1,.54,1.21c.13.38.22.67.31,1,.17.63.32,1.2.45,1.75s.27,1.06.43,1.57a13.67,13.67,0,0,0,.52,1.54c.38,1,.9,2.09,1.41,3.22l-1.82,1.74a15,15,0,0,1-3.25-2.44,16.93,16.93,0,0,1-2.58-3.32c-.37-.57-.67-1.13-1-1.63-.14-.24-.29-.51-.42-.69s-.22-.26-.33-.4-.55-.57-.89-.89a10,10,0,0,1-1.1-1c-.68-.85-1-2.34-2-3.15-.23-.21-.49-.4-.75-.6a1.58,1.58,0,0,0-.17-.13l-.08,0c-.05,0-.1-.07-.15-.06a1.42,1.42,0,0,0-.63,0,12.25,12.25,0,0,0-2.57,1,18.7,18.7,0,0,1-4.64,1.65Z"/><path class="cls-1" d="M97.66,52.17c-2.09.32-9.34,10.43-6.62,14.55s24.64-4.17,25.83-6c2.26,4.75,1.92,7.43,6.92,5.71s11-1.83,7.91-5.44c-5.71-6.7-8.61-2.58-17-5.18C107.3,53.48,99.9,51.82,97.66,52.17Z"/><path class="cls-2" d="M97.66,52.17c-2.09.32-9.34,10.43-6.62,14.55s24.64-4.17,25.83-6c2.26,4.75,1.92,7.43,6.92,5.71s11-1.83,7.91-5.44c-5.71-6.7-8.61-2.58-17-5.18C107.3,53.48,99.9,51.82,97.66,52.17Z"/><path class="cls-4" d="M126.1,42.72c8.87-6,6.63-4.55,20.93-.73,6.17,1.65,10.83,7.68,14.55,16.23a64.61,64.61,0,0,1,5.61,21.45C159,85.23,161.33,75,150.7,69.43c-5.08-2.68-11.42-5-18.27-7.7-5.77-2.27-11.83-5.3-18.57-7-5.23-1.35-14.21-2.46-19.84,1.43,2.13-5.08,6.48-7.33,11.17-9.73,5.36-2.75,11-4.86,15.08-4.66A38.29,38.29,0,0,1,141,49.47c3.12,2.31,7.31,4.9,11,9.09"/><path class="cls-1" d="M124.79,40.8c1.17-.79,2.31-1.59,3.58-2.38.31-.2.63-.4,1-.59a11.66,11.66,0,0,1,1.08-.57,8.37,8.37,0,0,1,1.24-.5,7,7,0,0,1,1.41-.34,8.6,8.6,0,0,1,1.46-.09c.46,0,.91.07,1.34.13s.81.15,1.2.24l1.1.29,4.08,1.22c1.33.4,2.65.79,4,1.15a22.4,22.4,0,0,1,4.38,1.54A21.51,21.51,0,0,1,157.77,47a42.28,42.28,0,0,1,4.66,7.57,82,82,0,0,1,3.37,8,64,64,0,0,1,3.71,17l.1,1.37-1.12.74a15,15,0,0,1-2.69,1.47,6.73,6.73,0,0,1-.85.29,5.36,5.36,0,0,1-1,.19,5.06,5.06,0,0,1-2.26-.2,5.35,5.35,0,0,1-1.89-1.08A8.85,8.85,0,0,1,158.64,81c-.64-.81-1.11-1.56-1.58-2.27a19.69,19.69,0,0,0-6.35-6.62,44.19,44.19,0,0,0-4.31-2.21c-1.51-.7-3.06-1.36-4.62-2-3.13-1.28-6.32-2.5-9.51-3.75-6.51-2.54-12.57-5.58-18.91-7.21a36,36,0,0,0-9.52-1.19A15.6,15.6,0,0,0,95.34,58l-6.59,4.58,3.11-7.4A16.34,16.34,0,0,1,94.45,51,19.49,19.49,0,0,1,98,47.77a38.28,38.28,0,0,1,3.87-2.36c1.29-.69,2.53-1.35,3.85-2A49.27,49.27,0,0,1,114,40.08a22.8,22.8,0,0,1,4.67-.85,26.35,26.35,0,0,1,4.72.28,37.49,37.49,0,0,1,16.5,6.76c1.21.87,2.32,1.87,3.36,2.74s2.16,1.86,3.23,2.83A29.3,29.3,0,0,1,152,58.56a67.52,67.52,0,0,0-7.05-4.65l-3.65-2.14c-1.26-.77-2.4-1.49-3.57-2.15a39.88,39.88,0,0,0-15-5.18,22,22,0,0,0-3.74-.2,18.57,18.57,0,0,0-3.66.66,46.72,46.72,0,0,0-7.5,2.86c-1.22.58-2.49,1.21-3.7,1.85a33.74,33.74,0,0,0-3.4,2A12.34,12.34,0,0,0,96.16,57L92.69,54.2a16.53,16.53,0,0,1,5.44-2.39,25.5,25.5,0,0,1,5.6-.7,40.62,40.62,0,0,1,10.79,1.34c7,1.8,13.21,5,19.44,7.38,3.18,1.24,6.38,2.47,9.59,3.78,1.6.66,3.21,1.34,4.8,2.08a47.86,47.86,0,0,1,4.82,2.48,21.51,21.51,0,0,1,4.44,3.63,31.34,31.34,0,0,1,3.35,4.39c.48.72.93,1.41,1.35,1.95s.79.81.87.8.38,0,.93-.18a10.64,10.64,0,0,0,1.79-1l-1,2.11a59.25,59.25,0,0,0-3.45-15.77c-1.89-5.1-4.12-10.17-7.3-14.24a16.92,16.92,0,0,0-5.56-4.78A17.74,17.74,0,0,0,145,43.86c-1.37-.37-2.74-.78-4.09-1.18l-4-1.19a8,8,0,0,0-3.18-.45,8.49,8.49,0,0,0-2.93,1.34c-1.11.69-2.27,1.49-3.42,2.27Z"/><path class="cls-1" d="M117.37,60.7c-1.11,9.14-2.18,8.66-2.68,18.26a47.71,47.71,0,0,0,2.44,18.14c-1.18,1.83-2.2.17-3.18-1.78-3.94-7.85-2-7.85-1.66-17.18A66.08,66.08,0,0,1,115.71,61C118.26,55.26,117.73,57.68,117.37,60.7Z"/><path class="cls-6" d="M44.81,61.79A21.86,21.86,0,0,0,37.2,79.07c.21,5.07,1.84,11.36,6.87,18.12,3.2,4.3,8.21,8.43,14.23,13.35a154.57,154.57,0,0,0,15.76,10.83c3.38-3.83,6.83-10.73,8.93-19.38a89.4,89.4,0,0,0,2.25-21.89c-.15-8.9-2-16.66-6.7-20.31-12.86-10.08-10.48-5.46-21.08-.67C51.26,61.91,51.09,56.32,44.81,61.79Z"/><path class="cls-1" d="M46.62,63.86a21.17,21.17,0,0,0-2.81,3.46A18.29,18.29,0,0,0,42,71.17a21.27,21.27,0,0,0-1,7.92,33.35,33.35,0,0,0,5.85,16.14,50,50,0,0,0,5.89,7.09c2.19,2.24,4.52,4.39,6.91,6.5A111.17,111.17,0,0,0,75.06,120l-2.43.35a25.58,25.58,0,0,0,3.2-5,42.87,42.87,0,0,0,2.36-5.73,73.4,73.4,0,0,0,2.91-12.2A90.36,90.36,0,0,0,82.28,85a55.5,55.5,0,0,0-.89-12.07,29.42,29.42,0,0,0-1.63-5.45,16.41,16.41,0,0,0-1.22-2.35,13.71,13.71,0,0,0-1.5-1.9c-.13-.15-.28-.26-.41-.39a5.59,5.59,0,0,0-.48-.43l-1.21-1c-.8-.7-1.6-1.33-2.38-2S71,58,70.25,57.49a10.12,10.12,0,0,0-2-1.24,4,4,0,0,1-.39-.15,1.72,1.72,0,0,1-.36-.06,2.84,2.84,0,0,0-.95.15,14.35,14.35,0,0,0-2.64,1.25C62,58.5,60,59.59,58,60.53a10.81,10.81,0,0,1-3.66,1,22.65,22.65,0,0,1-3.43-.24,3.67,3.67,0,0,0-2.09.73A15.18,15.18,0,0,0,46.62,63.86Zm-2.63-3a18.48,18.48,0,0,1,3.06-2A6.18,6.18,0,0,1,48,58.5a5.19,5.19,0,0,1,1-.3,6.3,6.3,0,0,1,2.15-.1c.67.1,1.23.22,1.7.32a5.09,5.09,0,0,0,1.27.1,6.19,6.19,0,0,0,2.49-.8,37.27,37.27,0,0,0,5.18-3.5,27.44,27.44,0,0,1,2.89-2.07,7.79,7.79,0,0,1,2.11-.85c.41-.07.83-.12,1.25-.16s.8,0,1.21.07a13.75,13.75,0,0,1,3.9,1.24,34.53,34.53,0,0,1,3.11,1.68c1,.59,1.92,1.19,2.81,1.83l1.35,1c.2.14.49.37.76.6a8.83,8.83,0,0,1,.78.69,19.1,19.1,0,0,1,4.26,6.52,30.47,30.47,0,0,1,1.95,6.93,53.34,53.34,0,0,1,.34,13.67,95.49,95.49,0,0,1-2.27,13.12,93.45,93.45,0,0,1-4,12.66c-1.73,4.1-3.59,8.2-6.73,11.79l-1.07,1.22L73,123.26c-5.47-3.5-11-7-16.21-11A89.33,89.33,0,0,1,42.17,98.72a40.9,40.9,0,0,1-5.64-8.77,27.9,27.9,0,0,1-2.59-10.5,20.18,20.18,0,0,1,.56-5.64,18.38,18.38,0,0,1,2.2-5.2A29.42,29.42,0,0,1,44,60.84Z"/><path class="cls-1" d="M65.17,58.3c-.08,0-.15.34-.17.75s0,.87,0,1.36c0,1,.1,2,.2,3.08.2,2.13.47,4.32.76,6.51l.46,3.3L66.65,75c.09.61.16,1.21.23,1.8.27,2.38.37,4.67.5,6.91s.27,4.42.52,6.57.69,4.3,1.14,6.46,1,4.34,1.54,6.52c.26,1.09.53,2.18.78,3.29a9.51,9.51,0,0,1,.33,3.36,9.25,9.25,0,0,0-1-3.15c-.45-1-.95-2-1.45-3l-3-6c-1-2-1.93-4.09-2.8-6.29S61.88,87.09,61.17,85s-1.45-4.21-2.25-6.15c-.2-.49-.41-1-.62-1.43l-.68-1.47L56.2,72.8c-.94-2.08-1.87-4.19-2.76-6.37-.45-1.1-.87-2.22-1.3-3.42-.21-.61-.42-1.23-.61-1.93a15.07,15.07,0,0,1-.5-2.57Z"/><path class="cls-1" d="M64.17,72.52a10.26,10.26,0,0,1-.54,1l-.45.65a11.45,11.45,0,0,1-.77.91c-.49.54-.93.94-1.38,1.35-.87.8-1.71,1.48-2.45,2.12l-1,.85-.17.15-.11.08c-.09.12,0-.31-.1,0a8.19,8.19,0,0,0-.55,1.2c-.18.46-.36,1-.53,1.46-.74,2-1.35,4.11-2.09,6.22a47.09,47.09,0,0,1-2.71,6.38A29.56,29.56,0,0,1,49.8,88a53.62,53.62,0,0,1-.23-6.94c0-.59.06-1.18.11-1.8a16.19,16.19,0,0,1,.28-2,6.86,6.86,0,0,1,.57-1.54c.23-.47.44-.81.64-1.14.4-.63.78-1.19,1.16-1.68.75-1,1.47-1.88,2.13-2.69.31-.4.63-.8.85-1.11s.19-.29.26-.39a.08.08,0,0,1,0,0,1,1,0,0,0-.15.28Z"/><path class="cls-1" d="M65.47,77.27A8.38,8.38,0,0,0,68.36,79c.63.29,1.31.59,2,.95a12.35,12.35,0,0,1,2.16,1.39,9,9,0,0,1,1.78,1.94l.35.53.22.38c.14.26.29.52.46.76.66,1,2.13,1.49,3,2.61a7.87,7.87,0,0,1,.95,2,13.06,13.06,0,0,1,.63,2.27l.09.6a1.34,1.34,0,0,1,0,.2v.13a4.1,4.1,0,0,0,.06.55,8.06,8.06,0,0,0,.31,1.28c.33.95.81,2,1.25,3.19a25.79,25.79,0,0,1,1.13,3.59l-2.16,1.29c-.95-.79-1.8-1.61-2.68-2.43l-1.29-1.3c-.42-.47-.85-1-1.28-1.52a11,11,0,0,1-1.19-1.94,9.66,9.66,0,0,1-.47-1.16l-.1-.3a2,2,0,0,0-.08-.24l-.11-.27a11,11,0,0,0-.56-1.08,8.94,8.94,0,0,1-.69-1.21c-.37-.92-.25-2.39-.94-3.34-.17-.25-.36-.47-.55-.7l-.29-.35-.19-.18a2.17,2.17,0,0,0-.82-.46c-1.13-.41-3.22,0-6.52.14Z"/><path class="cls-3" d="M106.66,68c2.11.21,10.52,7.3,8.81,11.93s-23.85,1.9-25.44.35c-1.13,5.14-.24,7.68-5.5,7.13s-14.64-1.17-14.73-10c-.1-9.46,9.43-3.19,18.63-6.13C95.28,69,102.28,67.57,106.66,68Z"/><path class="cls-2" d="M106.66,68c2.11.21,10.52,7.3,8.81,11.93s-23.85,1.9-25.44.35c-1.13,5.14-.24,7.68-5.5,7.13s-14.64-1.17-14.73-10c-.1-9.46,9.43-3.19,18.63-6.13C95.28,69,102.28,67.57,106.66,68Z"/><path class="cls-6" d="M76.94,64.87c-10-3.89-7.13-2.27-20.19,4.68-5.07,2.7-10.38,5.84-14,11.05-3.27,4.74-5.33,10.77-7.52,16.5C44.91,99,41.56,91.79,51.59,86A181.32,181.32,0,0,1,69,76.72a135.37,135.37,0,0,1,18.73-6.2,82.08,82.08,0,0,1,19.23-3c-8.27-7.07-17.05-6.74-24.47-4.63-7.24,2.06-11.61,6-17.94,10-3.26,2.1-7.46,4.33-11.4,8.27"/><path class="cls-1" d="M76.09,67c-1.12-.43-2.25-.87-3.33-1.24a10.3,10.3,0,0,0-2.83-.66,2.79,2.79,0,0,0-1,.16,7.93,7.93,0,0,0-1.28.59c-.95.52-2,1.17-3,1.82-2.09,1.29-4.26,2.56-6.44,3.73S54,73.71,52,75a30,30,0,0,0-5.22,4.31,23.19,23.19,0,0,0-2.09,2.56A32.85,32.85,0,0,0,43,84.76a110.14,110.14,0,0,0-5.53,13.17L35.7,94.82a8.25,8.25,0,0,0,3.72.05.69.69,0,0,0,.3-.13l.29-.15a4.86,4.86,0,0,0,.57-.51l.3-.33.32-.42c.21-.26.44-.62.66-.94a30.25,30.25,0,0,1,3.27-4.26,21.71,21.71,0,0,1,4.3-3.52c.38-.24.79-.51,1.15-.72l1.08-.63L53.83,82c1.45-.84,2.92-1.67,4.4-2.48,3-1.63,6-3.19,9.09-4.6a129.64,129.64,0,0,1,19.3-6.51,85,85,0,0,1,20.28-3.17l-1.44,4.1A21.1,21.1,0,0,0,93,64.13a26.34,26.34,0,0,0-6.9.52,34.66,34.66,0,0,0-6.74,2A46.25,46.25,0,0,0,73,70c-2.11,1.29-4.23,2.72-6.48,4-1.13.64-2.3,1.23-3.42,1.8s-2.27,1.1-3.37,1.67a75,75,0,0,0-6.61,3.73,27.26,27.26,0,0,1,5.18-5.84c1-.84,2-1.65,3-2.42s2-1.49,3-2.26c2-1.51,4-3,6.12-4.53a42.16,42.16,0,0,1,6.9-4,35,35,0,0,1,7.77-2.41,29.57,29.57,0,0,1,8.23-.46,26.25,26.25,0,0,1,8.1,2.07,28,28,0,0,1,7,4.46l4.57,3.91-6,.19a80.29,80.29,0,0,0-19.19,3,125.38,125.38,0,0,0-18.62,6.26c-3,1.35-5.88,2.85-8.77,4.44Q58.31,84.8,56.15,86L54,87.3l-1.08.63c-.35.21-.64.41-1,.61a17,17,0,0,0-3.42,2.8A25.77,25.77,0,0,0,45.71,95c-.26.37-.47.71-.78,1.11l-.44.58-.54.6a9.27,9.27,0,0,1-1.31,1.14,7.8,7.8,0,0,1-1.65.82,6.86,6.86,0,0,1-1.7.39l-.83.09c-.26,0-.51,0-.77,0a19.16,19.16,0,0,1-2.88-.33L32,99l1-2.73a113.46,113.46,0,0,1,5.79-13.74,37.45,37.45,0,0,1,2-3.33,27.84,27.84,0,0,1,2.53-3.1,34.59,34.59,0,0,1,6-5c2.13-1.42,4.35-2.64,6.5-3.79s4.15-2.32,6.2-3.59c1-.63,2.05-1.29,3.24-1.95a12.36,12.36,0,0,1,2-.92A7.49,7.49,0,0,1,70,60.48a14.34,14.34,0,0,1,4.27.9c1.22.42,2.37.86,3.52,1.31Z"/><path class="cls-1" d="M89.3,80.47C92.44,89.12,92,88.79,94.67,98c1.77,6.16,3.54,12.95,2.86,18.22,1.57,1.52,3.18-.64,3.69-2.76,2.06-8.54-.06-8.33-2.48-17.35A69.26,69.26,0,0,0,92.11,79.7C88.33,74.68,88.26,77.61,89.3,80.47Z"/><path class="cls-4" d="M81.43,86.14c-4.39,3.13-10.7,10.19-7,21.29C76.28,113,80,120,88.33,127.33a147.35,147.35,0,0,0,20.22,14.41c3.54-3.29,7.17-10.55,9.61-18.18a72.15,72.15,0,0,0,3.61-19.73c.17-8-1.42-15.39-6-18.84-12.64-9.53-10.76-5-21.57-.91C87.91,86.45,88,81.47,81.43,86.14Z"/><path class="cls-1" d="M82.56,87.72A14.06,14.06,0,0,0,80,90.78a18.07,18.07,0,0,0-1.6,3.54,24.19,24.19,0,0,0-1.06,6.92,20.2,20.2,0,0,0,1.28,7,33.06,33.06,0,0,0,3.87,7.27,50.86,50.86,0,0,0,5.73,6.73,68.78,68.78,0,0,0,6.63,6,131.07,131.07,0,0,0,15.19,10l-3,.31a31.46,31.46,0,0,0,6.27-9.32,36.83,36.83,0,0,0,2-5.36,38.18,38.18,0,0,0,1.14-5.52,78.22,78.22,0,0,0,.5-11.63l0-3c0-1-.07-1.92-.13-2.86a40,40,0,0,0-.65-5.41A17.33,17.33,0,0,0,114.65,91a6.75,6.75,0,0,0-1-1.52l-.28-.3c-.1-.08-.21-.16-.3-.25s-.07-.08-.16-.15l-.29-.22-.58-.44c-1.53-1.23-3-2.38-4.35-3.41A20.15,20.15,0,0,0,106,83.58c-.46-.27-.52-.41-1.09-.4a7.93,7.93,0,0,0-2.38.66c-.95.35-2,.76-3,1.12-.51.19-1,.36-1.56.53s-1,.35-1.57.48-1,.3-1.59.44a16.44,16.44,0,0,1-1.8.34,10.42,10.42,0,0,1-3.84-.18,25.4,25.4,0,0,0-2.85-.72,3,3,0,0,0-1.73.45A12.1,12.1,0,0,0,82.56,87.72Zm-3.1-4.34a16.27,16.27,0,0,1,3.34-1.56,8.32,8.32,0,0,1,2.07-.41,6.81,6.81,0,0,1,2.18.2c1.36.35,2.25.83,3,1a4.49,4.49,0,0,0,2.23,0,6.66,6.66,0,0,0,1.17-.36c.41-.16.87-.37,1.29-.57A12.67,12.67,0,0,0,96,81.06c.41-.23.83-.46,1.23-.73.81-.51,1.56-1.07,2.4-1.7a16.2,16.2,0,0,1,3.14-1.95,8.87,8.87,0,0,1,2.4-.67c.43,0,.87,0,1.3,0a7.8,7.8,0,0,1,1.21.11,15.33,15.33,0,0,1,4,1.19,16.69,16.69,0,0,1,1.61.76,17,17,0,0,1,1.49.82c.47.29,1,.56,1.41.86l1.32.9.65.46.33.23.43.34c.29.24.58.49.86.75l.77.81a16.08,16.08,0,0,1,2.38,3.52,22.82,22.82,0,0,1,2.2,7.16,43.28,43.28,0,0,1,.46,6.76c0,1.1-.06,2.18-.12,3.26l-.21,3.11a81.88,81.88,0,0,1-1.93,12.69,45.05,45.05,0,0,1-2,6.28,54.41,54.41,0,0,1-2.81,5.89,40.87,40.87,0,0,1-8,10.39L109,143.58l-1.58-1C102.21,139.3,97,136,91.74,132.45a91.1,91.1,0,0,1-7.5-5.88c-2.39-2.07-4.75-4.22-7.07-6.54a38.19,38.19,0,0,1-6.37-8,24.65,24.65,0,0,1-1.21-2.5c-.38-.86-.6-1.76-.89-2.64s-.44-1.84-.58-2.77a21.51,21.51,0,0,1-.18-2.88,18,18,0,0,1,.9-5.72,19.49,19.49,0,0,1,2.65-5,25.24,25.24,0,0,1,3.72-4l1-.86,1.05-.8A25.71,25.71,0,0,1,79.46,83.38Z"/><path class="cls-1" d="M98.09,83.48a12.2,12.2,0,0,0,0,2.41c.06.93.16,1.9.27,2.86.23,1.94.52,3.91.84,5.87.63,3.94,1.44,7.86,2.29,11.78s1.78,7.85,2.74,11.77c.47,2,.92,3.93,1.33,5.91q.3,1.49.54,3a9.31,9.31,0,0,1,.11,3,9.17,9.17,0,0,0-.44-3c-.26-1-.57-1.92-.9-2.87-.65-1.9-1.35-3.78-2.07-5.66-1.41-3.77-2.93-7.5-4.38-11.28s-2.81-7.61-4.14-11.47C93.63,93.91,93,92,92.41,90c-.29-1-.57-2-.82-3.07A19,19,0,0,1,91,83.31Z"/><path class="cls-1" d="M97.78,95.34A7.87,7.87,0,0,1,96.53,97c-.39.42-.76.78-1.14,1.14l-2.17,2c-.35.33-.68.65-1,1a9,9,0,0,0-.65.75,13.22,13.22,0,0,0-.89,2.46c-.56,1.86-1,3.82-1.54,5.76s-1.1,3.89-1.81,5.83a46.82,46.82,0,0,1-.3-6.12c0-2,.16-4.05.38-6.12.06-.52.14-1,.23-1.58a10.32,10.32,0,0,1,.45-1.76,8.64,8.64,0,0,1,1-1.74c.34-.46.67-.89,1-1.29.68-.81,1.35-1.57,2-2.3.32-.36.64-.73.91-1.07a6.09,6.09,0,0,0,.55-.75Z"/><path class="cls-1" d="M100.43,110.79c5.65,3.24-8.11,12.46-12,12.61C89.77,114,94.71,107.51,100.43,110.79Z"/><path class="cls-5" d="M111.27,116.63c-.38-.05,1.11-11.14-.78-15.15,2.49,3.31,3.67,5.31,3.75,7.74,3.35-4.24,3-6.63,1.78-10.43,2.47-1.48,2,3.06,2.15,4.95.42-.12.51-12.11-8.37-16.82-.57.08,1.2,1.51,1.34,4,.32-.12-3.1-5-7.12-5.47.17.13,4,3.84,3.18,6.2.34-.06-3.78-4.36-9-5C97,94.78,102.8,92,106.49,100.9,108.31,105.31,110.44,110.59,111.27,116.63Z"/><path class="cls-5" d="M148.53,62.66c-.25.08-8.37-7.1-12.59-8.89,4.09,1.25,5.32,2.91,7.31,4.3-2.07-4.48-3.78-4.91-7.47-6.77.29-3,4.56,1,6.13,2.07.13-.19-9.75-6.75-18.32-7-.24.21,1.91.88,4,2.29.07-.16-5.08-1.7-7.63-.83.2,0,4.66.12,6.12,1.72a24.89,24.89,0,0,0-9.14.5c6.35,5.55,7.33.75,16.49,4.91A129.34,129.34,0,0,1,148.53,62.66Z"/><path class="cls-5" d="M153.1,69.38c-.34.09-13.52-8.59-19.95-10.71,6.13,1.5,8.26,3.2,11.42,4.84-4.36-5.64-5.59-5.87-11.28-8.07-.41-4.37,5.4,2.08,7.89,3.33.14-.21-15.19-8.61-27.4-9-.29.24,3.34.12,6.62,1.79.07-.18-8.49-2.32-11.88-1.34.29,0,6.6,1.84,9.07,3.71.16-.15-7.33-2-11.74-.75,11.55,4.86,8.68.87,24.07,6.63C136.4,62.28,144.44,64.78,153.1,69.38Z"/><path class="cls-5" d="M71.39,73.71c.19.09,7.11-5,10.57-6a20.43,20.43,0,0,0-6.82,2.35c2.08-3.26,4.28-2.93,7.33-4,.09-2.33-3.48,1-4.81,1.61-.08-.16,8-4.43,14.64-3.7.16.19-1.76-.57-3.52.31,0-.13,4.71-.81,6.6.13a17.42,17.42,0,0,0-4.65,2.2c-.09-.12,3.53-1.67,6-.47C83.83,69.33,84.8,67.72,71.39,73.71Z"/><path class="cls-5" d="M21.06,65.5c.21.08,5-7.76,8.31-9.29A12.32,12.32,0,0,0,24,59.14c1.17-3.84,1.49-4.49,4.35-6.11-.46-2.32-2.7,1.37-3.89,2.3-.13-.18,7-6.38,14-6.3.22.2-1.88-.2-3.45,1.05a14.21,14.21,0,0,1,6.53.29c-.16,0-3.46.14-4.51,1.58a14.33,14.33,0,0,1,7,.49C31,55.85,36.44,51.93,21.06,65.5Z"/><path class="cls-5" d="M200.54,30.92c-.27,0-4.9-11.28-8.73-14,3.83,2.14,4.4,4.12,6.07,6-.95-5-2.53-6-5.8-8.74,1-2.89,3.63,3.27,5,4.7.18-.17-7.28-9.75-15.92-11.76-.3.17,2.42.17,4.16,2.07.12-.15-5.53-3.36-8.33-3,.2.07,4.33,2.7,5.41,4.65.17-.11-4.57-2.71-8.2-2.25,6.61,5.79,7,1.33,15.38,8.62C193.21,20.37,196.45,25.41,200.54,30.92Z"/><path class="cls-5" d="M206.07,29.56c-.2,0-2.08-9.15-4.32-11.78a16.23,16.23,0,0,1,3.72,5.56c.22-3.73-.23-4-2.07-6.53,1.23-1.87.56,2.17,1.25,3.42-1.51-3.59-3.49-9.77-8.72-11.57-.24.07,1.76.78,2.65,2.45.11-.09-3.64-2.88-5.7-3.11.13.09,2.87,2.28,3.29,3.86.14,0-3.86-3.85-6.52-4.18C200,16.76,199.36,14.67,206.07,29.56Z"/><path class="cls-1" d="M98,95.71c-2.62,5.8-7.67-3.53-13.48-1.58-6.48,2.17-11.38,4-12.13,7.46-1.35,6.19.31-15.85,13.13-17.06,10.57-1,6.1-4.9,8.91-.93C98.34,89.1,100.56,90.06,98,95.71Z"/><path class="cls-2" d="M98,95.71c-2.62,5.8-7.67-3.53-13.48-1.58-6.48,2.17-11.38,4-12.13,7.46-1.35,6.19.31-15.85,13.13-17.06,10.57-1,6.1-4.9,8.91-.93C98.34,89.1,100.56,90.06,98,95.71Z"/><path class="cls-1" d="M103.22,108.62c-2.5-3.15,11.75-2.63,14.11-1.6C111,110.88,105.74,111.8,103.22,108.62Z"/></svg>