<svg id="Warstwa_1" data-name="Warstwa 1" xmlns="http://www.w3.org/2000/svg" viewBox="0 0 186 131"><defs><style>.cls-1{fill:#1f1f45;}.cls-2{fill:none;stroke:#1f1f45;stroke-miterlimit:10;stroke-width:2.2px;}.cls-3{fill:#55b182;}.cls-4{fill:#015b55;}.cls-5{fill:#85c72f;}.cls-6{fill:#cae10c;}.cls-7{fill:#fff;}</style></defs><title>Obszar roboczy 1</title><path class="cls-1" d="M122.67,77a15.93,15.93,0,0,1,7.86,17.62c-1,4.77-3.57,11-9.83,17.91-3.78,4.16-9.39,7.85-15.82,12.83-3.25-2.4-6.78-7.13-9.53-13.22A59.79,59.79,0,0,1,90.92,96c-.89-6.6-.7-12.91,2.77-16.21,9.59-9.12,8.27-4,17.73-2.07C117.1,78.92,116.78,73.77,122.67,77Z"/><path class="cls-1" d="M122.63,77.1a15.72,15.72,0,0,1,7.72,17.52c-1,4.77-4.08,10.43-10.35,17.31a116.4,116.4,0,0,1-15,13.85c-3.25-2.4-6.65-7.62-9.4-13.71A59.19,59.19,0,0,1,91.23,96c-.89-6.6-.79-12.64,2.67-15.94,9.59-9.12,8.33-5.57,17.78-3.59C117.34,77.66,116.74,73.84,122.63,77.1Z"/><path class="cls-1" d="M112.2,76.4c.37,2.65-1.76,11.44-3.31,20-1.64,9.09-3.45,18.1-2.77,19.91"/><path class="cls-1" d="M111.22,85.72c.79,1.19,5.23,3.4,6,4.77s.81,6.42,2.26,12.56"/><path class="cls-1" d="M141.95,73.46a16.27,16.27,0,0,1,8,17.81c-1,4.77-4.37,10.45-10.64,17.34a119.13,119.13,0,0,1-15.17,13.65c-3.25-2.4-7.09-7.32-9.84-13.41-2.28-5.05-3.25-11-4-16.26-.89-6.6-.45-12.37,3-15.67,9.59-9.12,8-5.67,17.5-3.85C136.62,74.17,136.07,70.21,141.95,73.46Z"/><path class="cls-1" d="M142,73.37a16.25,16.25,0,0,1,7.77,17.86c-1,4.77-4,10.64-10.27,17.53a121.16,121.16,0,0,1-15.29,13.66c-3.25-2.4-7.4-7.36-10.15-13.46-2.28-5.05-3.39-11-4.1-16.33-.89-6.6.19-12.19,3.65-15.48,9.59-9.12,7.69-5.39,17.19-3.64C136.57,74.58,136.12,70.11,142,73.37Z"/><path class="cls-1" d="M131.44,73c.37,2.65-2.66,11.29-4.21,19.89-1.64,9.09-2.62,18.27-1.94,20.08"/><path class="cls-1" d="M129.77,82.73c.79,1.19,5,3.5,5.81,4.87s2.4,5.72,3.85,11.86"/><path class="cls-1" d="M77.78,19.82c-4.19-2.35-10.69-1.65-16.92,1.87A29.19,29.19,0,0,0,48.77,34.35c-2.29,4.68-3,10.44-3.08,17.3.13-.66,4.65-6.36,12-12.14a77.14,77.14,0,0,1,14.91-9.27c5.9-2.75,12.14-4.44,17.28-2.88-3.57-11-8.65-11.2-20.8-6.79-5,1.82-10.91,6.24-16.94,15.3"/><path class="cls-1" d="M77.5,20.3a11.53,11.53,0,0,0-6.13-1.23,19.31,19.31,0,0,0-6.26,1.43,30.8,30.8,0,0,0-10.57,7.27,31.28,31.28,0,0,0-3.92,5.08,24,24,0,0,0-2.7,5.83,45.94,45.94,0,0,0-1.69,13l-1.1-.12a2.61,2.61,0,0,1,.13-.34l.12-.2c.08-.14.16-.25.24-.37s.33-.46.5-.69c.34-.44.69-.88,1-1.3.71-.85,1.46-1.67,2.22-2.48q2.28-2.41,4.76-4.61a94.53,94.53,0,0,1,10.5-8.12,57.2,57.2,0,0,1,5.76-3.36,43.54,43.54,0,0,1,6.18-2.61A28.23,28.23,0,0,1,83.23,26a17.4,17.4,0,0,1,6.81.69l-.82.84a22.25,22.25,0,0,0-2.39-5.49,7.49,7.49,0,0,0-4.48-3.4,13.76,13.76,0,0,0-5.86.24,53.77,53.77,0,0,0-5.84,1.73,27.83,27.83,0,0,0-10.37,6.07,60.5,60.5,0,0,0-8.16,9.15,48.31,48.31,0,0,1,7.56-9.81,32.62,32.62,0,0,1,4.89-3.91,24.08,24.08,0,0,1,5.69-2.65,43.92,43.92,0,0,1,6-1.72,14.78,14.78,0,0,1,6.36-.14,8.69,8.69,0,0,1,5.14,3.82,25.73,25.73,0,0,1,2.73,5.7l.42,1.17L89.65,28a15.31,15.31,0,0,0-6.22-.22,32.39,32.39,0,0,0-6.13,1.66,82.33,82.33,0,0,0-11.61,5.64A66.89,66.89,0,0,0,55,42.55Q52.58,44.68,50.29,47c-.76.78-1.5,1.57-2.21,2.39-.35.41-.7.82-1,1.24-.16.21-.33.42-.48.63s-.16.21-.21.31l-.09.15s0,0,0,0l-1.12.7,0-.82a61.73,61.73,0,0,1,1.38-13.37,26,26,0,0,1,6.64-11.86,28,28,0,0,1,5.33-4.29,29.7,29.7,0,0,1,6.14-3,23,23,0,0,1,6.71-1.3,13.19,13.19,0,0,1,6.72,1.48Z"/><path class="cls-1" d="M89.42,27.87c9.22,2.1,7.3,2.34,12.88,13.2s-4.71,1.36-14.62-1.9c-3.79-1.24-.33,5.59-4.85,2.43S83,27.19,74.24,29.15C66.63,27.14,77.91,26.51,89.42,27.87Z"/><path class="cls-2" d="M89.42,27.87c9.22,2.1,7.3,2.34,12.88,13.2s-4.71,1.36-14.62-1.9c-3.79-1.24-.33,5.59-4.85,2.43S83,27.19,74.24,29.15C66.63,27.14,77.91,26.51,89.42,27.87Z"/><path class="cls-1" d="M86.72,36.82C86.52,45.72,88.35,42.93,91,54c1.16,4.87,2.89,10.62,4.08,17.34.94,5.33,1.3,11.56,2.09,18,1.38,1.41,3-1.43,3.16-3.39.65-11.11-2.14-10.86-4.06-22A167.6,167.6,0,0,0,91.2,42.33C88.23,33.74,86.83,32.32,86.72,36.82Z"/><path class="cls-1" d="M95.79,61.76c-1.09-9.75-2.16-12-4.38-19.16-.43-.81-.41.78-.75,1.63"/><path class="cls-2" d="M95.79,61.76c-1.09-9.75-2.16-12-4.38-19.16-.43-.81-.41.78-.75,1.63"/><path class="cls-1" d="M112.19,22.48c-4.19-2.35-10.71-2.41-16.94,1.12-4.59,2.6-8.45,7.21-11.41,13.28C81.55,41.56,79.25,47.1,79.15,54c.13-.66,5.86-6.31,13.16-12.09,4.41-3.5,9.33-7.51,14.58-9.95,5.9-2.75,12.29-3.77,17.44-2.22-3.57-11-8.46-11.09-20.61-6.68-5,1.82-11,6.09-17,15.15"/><path class="cls-1" d="M111.92,23a13.2,13.2,0,0,0-6.14-1.53,17.51,17.51,0,0,0-6.31,1.07,21,21,0,0,0-5.63,3,21.57,21.57,0,0,0-2.41,2.12,27.51,27.51,0,0,0-2.15,2.39,52,52,0,0,0-6.61,11.23,31.82,31.82,0,0,0-3,12.68l-1.1-.12a2.07,2.07,0,0,1,.17-.38l.14-.2c.1-.14.19-.24.28-.36s.38-.43.57-.65c.39-.42.78-.82,1.17-1.22q1.19-1.2,2.42-2.35c1.63-1.54,3.31-3,5-4.48,3.45-2.87,6.81-5.78,10.4-8.54a36.41,36.41,0,0,1,12.06-6.39,23.58,23.58,0,0,1,13.68-.2l-.81.83a22.09,22.09,0,0,0-2.37-5.47,7.22,7.22,0,0,0-4.45-3.36,13.75,13.75,0,0,0-5.83.3,56.82,56.82,0,0,0-5.81,1.75,28.54,28.54,0,0,0-10.37,6,57.52,57.52,0,0,0-8.16,9.07,46.57,46.57,0,0,1,7.56-9.72,32.43,32.43,0,0,1,4.9-3.85A24.86,24.86,0,0,1,104.84,22a45.13,45.13,0,0,1,6-1.74,14.76,14.76,0,0,1,6.33-.21,8.48,8.48,0,0,1,5.12,3.8,26.73,26.73,0,0,1,2.69,5.68l.41,1.15-1.22-.33c-4.17-1.11-8.61-.39-12.68.94a39.64,39.64,0,0,0-5.95,2.57c-1.91,1-3.77,2.19-5.6,3.42s-3.63,2.53-5.41,3.88-3.55,2.69-5.25,4.11-3.4,2.86-5,4.36Q83,50.72,81.77,51.87c-.4.39-.79.78-1.16,1.17-.18.2-.38.4-.54.6s-.18.2-.24.29l-.11.14s0,0,0,0L78.59,54a39.48,39.48,0,0,1,2.7-13.22A63.43,63.43,0,0,1,84,34.54a32.16,32.16,0,0,1,3.75-5.71,24.42,24.42,0,0,1,5-4.69,22.52,22.52,0,0,1,6.2-3,20.78,20.78,0,0,1,6.8-.93A15,15,0,0,1,112.47,22Z"/><path class="cls-3" d="M124.27,29.16c9.22,2.1,6.43,3.69,12,14.55s-3.83.3-13.75-3c-3.79-1.24-.56,6.31-5.09,3.15s.1-14-8.64-12C101.51,28.27,112.76,27.8,124.27,29.16Z"/><path class="cls-2" d="M124.27,29.16c9.22,2.1,6.43,3.69,12,14.55s-3.83.3-13.75-3c-3.79-1.24-.56,6.31-5.09,3.15s.1-14-8.64-12C101.51,28.27,112.76,27.8,124.27,29.16Z"/><path class="cls-1" d="M121.77,39.13c-.21,8.9,1.29,6.08,3.93,17.14,1.16,4.87,2.19,10.75,3.38,17.47.94,5.33,2.48,10.89,3.28,17.28,1.38,1.41,2.27-.87,2.39-2.83.65-11.11-2.61-10.74-4.53-21.86-1.53-8.88-2.85-18-4.17-21.77C123.08,36,121.88,34.64,121.77,39.13Z"/><path class="cls-1" d="M129.63,64.15c-1.09-9.75-1.59-12-3.81-19.13-.43-.81-.5.55-.84,1.4"/><path class="cls-2" d="M129.63,64.15c-1.09-9.75-1.59-12-3.81-19.13-.43-.81-.5.55-.84,1.4"/><path class="cls-4" d="M144.6,71.8c4.41,1.26,11.12,5.63,12.54,15.93a39.22,39.22,0,0,1-2.4,21.39c-2.25,5.56-6.21,11.74-10.89,19-3.93-1.7-9.48-6.12-14.15-11.94a75.2,75.2,0,0,1-9.4-15.91c-3-6.8-3.57-13.06-1.33-17.48,6.17-12.22,5.31-8.28,15-8.53C139.75,74.1,137.89,69.88,144.6,71.8Z"/><path class="cls-1" d="M145.39,69a22.3,22.3,0,0,1,8.38,4.13,20.4,20.4,0,0,1,3.36,3.36,21.58,21.58,0,0,1,1.36,2,16.07,16.07,0,0,1,1.13,2.12c.36.72.59,1.48.88,2.22s.45,1.52.64,2.28.32,1.52.41,2.33a21.46,21.46,0,0,1,.14,2.42,32.93,32.93,0,0,1-1.37,8.91,76.75,76.75,0,0,1-2.78,8c-1,2.57-2.17,5.17-3.46,7.67a143,143,0,0,1-8.57,14.33l-1.18,1.76-1.83-.85a33.83,33.83,0,0,1-9.34-6.82,70.89,70.89,0,0,1-7.17-8.49,87.36,87.36,0,0,1-6.09-9.23,35.14,35.14,0,0,1-4.07-10.62,20.87,20.87,0,0,1,.87-11.72c.44-1,.85-1.74,1.27-2.56s.87-1.62,1.31-2.43.94-1.62,1.51-2.45c.27-.41.63-.83,1-1.24A8,8,0,0,1,123.09,73l.41-.28.48-.22a3.87,3.87,0,0,1,1-.33,7.29,7.29,0,0,1,1.8-.17c1.08,0,1.92.13,2.81.19s1.7.09,2.55.09a18.89,18.89,0,0,0,2.41-.14,4.32,4.32,0,0,0,1.73-.63c.49-.32.93-.87,2-1.67a6,6,0,0,1,1.91-.92,4.91,4.91,0,0,1,1-.2l.5-.06h.46A14.7,14.7,0,0,1,145.39,69ZM144,73.94a10.59,10.59,0,0,0-2-.52l-.22,0h-.17a1,1,0,0,0-.31,0,1.31,1.31,0,0,0-.54.16c-.44.21-1.25,1-2.33,1.57a8.79,8.79,0,0,1-3.36,1c-1.14.11-2,.08-3,.09s-1.9-.08-2.84-.17-1.85-.21-2.57-.24a2.25,2.25,0,0,0-1.46.29,3.62,3.62,0,0,0-.65.56c-.22.3-.46.56-.68.9-.45.66-.88,1.4-1.3,2.15s-.83,1.53-1.23,2.33-.84,1.62-1.12,2.27a16.91,16.91,0,0,0-.52,9.49,31.14,31.14,0,0,0,3.76,9.36,72.63,72.63,0,0,0,5.94,8.64,66.5,66.5,0,0,0,6.92,7.8,29.44,29.44,0,0,0,8.09,5.67l-3,.91A107.44,107.44,0,0,0,148.86,112c1-2.43,2-4.88,2.88-7.4s1.69-5,2.29-7.49a30.61,30.61,0,0,0,1-7.23,17.8,17.8,0,0,0-5.21-12.2,18.12,18.12,0,0,0-2.7-2.21A16,16,0,0,0,144,73.94Z"/><path class="cls-1" d="M140.28,71c.07.5.16,1.05.18,1.48l0,1.11c-.07.64-.12,1.27-.21,1.81-.18,1.14-.32,2.14-.5,3.16-.32,2-.58,3.92-.75,5.83a45.35,45.35,0,0,0-.22,5.65,37.7,37.7,0,0,0,.66,5.52c.34,1.83.67,3.67.86,5.52s.28,3.72.41,5.57l.35,5.58.2,2.79a12.44,12.44,0,0,0,.47,2.75,9.32,9.32,0,0,1-1.44-2.49c-.38-.88-.72-1.77-1-2.67-.62-1.8-1.15-3.61-1.64-5.44s-.95-3.65-1.31-5.49-.56-3.7-.75-5.56a52.44,52.44,0,0,0-.78-5.58A47.9,47.9,0,0,0,133.26,85a41.55,41.55,0,0,0-2.14-5.28,18.27,18.27,0,0,0-1.4-2.36,5.37,5.37,0,0,0-.79-.92c-.14-.08-.26-.16-.4-.23s-.21.1-.3.17Z"/><path class="cls-1" d="M139.25,80.91a.4.4,0,0,0-.19,0v.15a1.77,1.77,0,0,0,.27.42,8.67,8.67,0,0,0,.86.93c.65.64,1.39,1.26,2.15,1.94.38.34.78.68,1.19,1.08.2.19.43.42.65.66s.25.29.37.43a4.12,4.12,0,0,1,.24.36c.56.87,1,1.72,1.44,2.58.9,1.68,1.68,3.4,2.48,5.07s1.56,3.34,2.4,5a33.16,33.16,0,0,0-7.21-8.16c-.7-.56-1.43-1.11-2.13-1.56a1,1,0,0,0-.24-.13h-.14l-.47-.12c-.35-.09-.75-.2-1.18-.29L137,88.69c-.49-.11-1-.2-1.55-.35-.27-.06-.59-.17-.91-.28l-.55-.23c-.23-.12-.48-.28-.72-.43Z"/><path class="cls-1" d="M140.47,97.94A24.89,24.89,0,0,1,137,99.12a7.74,7.74,0,0,0-1.6.51,1,1,0,0,0-.39.49,1.63,1.63,0,0,0-.11.33l-.11.4c-.08.26-.17.52-.23.78-.26,1,.27,2.24.23,3a4.6,4.6,0,0,1-.22,1c-.06.26-.11.46-.14.63a.65.65,0,0,0,0,.18l.07.59a8.19,8.19,0,0,1,0,1.14,8.85,8.85,0,0,1-.38,1.95,22.12,22.12,0,0,1-1.2,2.86c-.43.86-.83,1.73-1.3,2.62l-2.34-.23a15.64,15.64,0,0,1-.43-3.17c0-1,0-2.09-.06-2.89a4.1,4.1,0,0,0-.16-1,2.32,2.32,0,0,0-.13-.31l-.08-.13c0-.1-.11-.36-.16-.54a8.61,8.61,0,0,1-.24-2.29,6.12,6.12,0,0,1,.27-1.9c.4-1.1,1.51-1.75,1.7-2.63a3.91,3.91,0,0,0,.09-.65l0-.32c0-.12,0-.17,0-.39a7.35,7.35,0,0,1,.6-2.26,12.77,12.77,0,0,1,2.65-3.44,3.85,3.85,0,0,0,1.3-2.17Z"/><path class="cls-1" d="M86.29,64.94c4.41,1.26,11.32,5.6,12.74,15.9.73,5.29.55,12.23-3.1,21.22-2.25,5.56-5.84,11.76-10.51,19-3.93-1.7-9-6.22-13.68-12-3.8-4.73-8-10-10.36-15.36-3-6.8-4.07-13.89-1.84-18.32,6.17-12.22,6.44-6.85,16.18-7.09C81.47,68.11,79.59,63,86.29,64.94Z"/><path class="cls-1" d="M86.09,65.67c4.41,1.26,11.27,4.91,12.69,15.2.73,5.29-.13,11.82-3.77,20.8a108.63,108.63,0,0,1-9.55,19.44c-3.93-1.7-8.44-6.77-13.11-12.59-3.8-4.73-7.6-9.93-10-15.3-3-6.8-4-13-1.81-17.38,6.17-12.22,5.41-7.9,15.15-7.61C81.2,68.41,79.38,63.76,86.09,65.67Z"/><path class="cls-1" d="M75,67.25c1.23,2.72,3.25,12.11,4.6,21.67C81,99,82.87,108.62,84.11,110.36"/><path class="cls-1" d="M77.72,77.58c1.15,1.05,6.6,1.7,7.83,2.94S88.5,87,91.9,93.15"/><path class="cls-1" d="M79,87.47c-2.09,1.84-5.38,2.35-5.86,5.26a18.55,18.55,0,0,0,0,7.56c.55,2.22.3,4.29-.12,8.45"/><path class="cls-4" d="M27.28,8.25C22.59,6.83,16.55,8.48,12,13.11A27,27,0,0,0,4.79,28C4.1,32.69,5,38.25,6.34,44.52c0-.67,4.73-7.21,11.06-14.81a88.32,88.32,0,0,1,13.13-13C36.09,12.4,42.16,8.57,47.62,9,43.86,1.25,39.49,4.73,30.4,7.25c-4.39,1.22-8.55,4.45-13,10.38a56.75,56.75,0,0,0-8,14.94"/><path class="cls-1" d="M26.79,9.85a10.59,10.59,0,0,0-5.38-.06,13.17,13.17,0,0,0-2.62.93c-.43.18-.83.43-1.24.64s-.79.49-1.16.79a16.38,16.38,0,0,0-3.83,4.08,29.75,29.75,0,0,0-2.71,5A34.91,34.91,0,0,0,8,26.5a30.51,30.51,0,0,0-1,5.55,43.17,43.17,0,0,0,1,12.1l-3.34.4a2.77,2.77,0,0,1,.19-.9l.15-.3c.11-.22.18-.32.27-.48s.35-.54.52-.81l1-1.5,2.08-2.89c1.39-1.91,2.84-3.77,4.26-5.65,2.8-3.77,5.82-7.48,8.9-11.2a59.21,59.21,0,0,1,5-5.33A42.39,42.39,0,0,1,32.83,11,32.11,32.11,0,0,1,36.1,9.12a23.89,23.89,0,0,1,3.58-1.49,17.76,17.76,0,0,1,8.11-.87L45.62,10c-.19-.44-.36-.92-.56-1.35a7.36,7.36,0,0,0-.69-1.15,3.19,3.19,0,0,0-1.75-1.37c-1.44-.45-3.63.12-5.68.78-1.05.33-2.11.71-3.18,1.08s-2.22.72-3.22,1a16.68,16.68,0,0,0-5.26,3,37.64,37.64,0,0,0-4.59,4.35c-1.47,1.57-2.84,3.29-4.17,5A93.17,93.17,0,0,0,9.39,32.57a42.66,42.66,0,0,1,4.8-12.77A36.29,36.29,0,0,1,23,9a19.73,19.73,0,0,1,6.53-3.32c2.2-.59,4.24-1.16,6.42-1.89.56-.17,1.08-.35,1.66-.5s1.14-.33,1.75-.46a10.39,10.39,0,0,1,4-.15,7.46,7.46,0,0,1,3.82,2.17A17.51,17.51,0,0,1,49.62,8L51.53,11l-4.08.24A13.45,13.45,0,0,0,41.91,13a56.61,56.61,0,0,0-5.41,3.44c-3.6,2.62-7.29,5.14-10.83,8a55.75,55.75,0,0,0-5,4.68c-1.57,1.67-3.11,3.42-4.64,5.17s-3,3.59-4.38,5.41c-.71.92-1.41,1.83-2.07,2.77-.33.47-.66.93-1,1.4-.14.23-.3.47-.41.68s-.14.24-.15.28L8,45A.91.91,0,0,0,8,44.49l-3.34.4A109.89,109.89,0,0,1,2.07,32.14a22.08,22.08,0,0,1,.28-6.92,24.21,24.21,0,0,1,2.34-6.53,24.88,24.88,0,0,1,4.06-5.6,24.55,24.55,0,0,1,5.43-4.35A19.13,19.13,0,0,1,20.71,6.3a15.24,15.24,0,0,1,7.06.35Z"/><path class="cls-3" d="M47,9.41c9.46.06,8,.7,15.81,10.1s-4.73,3.07-15.12,2c-4-.4.94,5.09-4.16,3s-4.33-7.79-14.27-7.34C24.8,8,35.46,10.57,47,9.41Z"/><path class="cls-2" d="M47,9.41c9.46.06,8,.7,15.81,10.1s-4.73,3.07-15.12,2c-4-.4.94,5.09-4.16,3s-4.33-7.79-14.27-7.34C24.8,8,35.46,10.57,47,9.41Z"/><path class="cls-1" d="M45.48,19.19c1.72,8.74,3.3,5.66,8.27,15.89,2.19,4.51,5.1,9.72,7.71,16,2.07,5,4.61,10.2,6.77,16.27,1.65,1.08,1.43-1.29,1.12-3.23-1.76-11-3.42-10.36-7.7-20.8-3.42-8.34-7-16.86-9.14-20.3C47.76,15.29,44.61,14.78,45.48,19.19Z"/><path class="cls-5" d="M132,16.34c2.16-1.48,9.47-1.83,17.37,2.65A44.65,44.65,0,0,1,163,31.26c.42.57-.86,2-1.51,1.68-3-1.29-9.45-3.52-16.87-5.86-5.52-1.74-11.55-3.48-17.24-4.65-7.21-1.49-13.13-2.32-17.08-1.12,3.75-9.7,5.74-7.66,18.72-6.26,5.32.58,11.63,3,19.23,7.58"/><path class="cls-1" d="M131,15a8.88,8.88,0,0,1,3.44-1.19,18.8,18.8,0,0,1,3.2-.21,29.2,29.2,0,0,1,6.18.8,31.25,31.25,0,0,1,11.34,4.93,30.52,30.52,0,0,1,8.27,8.94c.28.42.56.84.82,1.27l.2.32.1.16.05.08a3,3,0,0,1,.25.44,2.44,2.44,0,0,1,.21.93,2.87,2.87,0,0,1-.08.67,3,3,0,0,1-.35.85,4.07,4.07,0,0,1-.88,1,3.51,3.51,0,0,1-1.39.75,2.44,2.44,0,0,1-1.48-.07l-.1,0h0l0,0-.08,0-.16-.08-.63-.3c-1.71-.78-3.5-1.45-5.3-2.07-3.62-1.23-7.29-2.35-11-3.33-1.85-.49-3.7-1-5.58-1.33s-3.76-.66-5.64-.93-3.74-.54-5.58-.86-3.7-.72-5.51-1.11-3.59-.81-5.34-1.12a15.32,15.32,0,0,0-5-.2l-4.15.69,1.7-3.33a36.66,36.66,0,0,1,2.92-5.11,7.77,7.77,0,0,1,2.52-2.28,8,8,0,0,1,3.27-.92,36.71,36.71,0,0,1,5.75.25q2.72.27,5.38.58c.86.1,1.86.21,2.8.41a24.25,24.25,0,0,1,2.78.74,35.13,35.13,0,0,1,5.22,2.16,44.29,44.29,0,0,1,9.16,6.22c-3.46-1.28-6.8-2.64-10.19-3.71-1.69-.53-3.38-1-5.07-1.38-.85-.17-1.69-.33-2.53-.45s-1.64-.2-2.59-.32c-1.83-.19-3.63-.49-5.41-.78a28.53,28.53,0,0,0-5.09-.52,4.51,4.51,0,0,0-1.93.5,4.25,4.25,0,0,0-1.39,1.42A17.51,17.51,0,0,0,112.2,22l-2.45-2.64a22.27,22.27,0,0,1,6.4-1.28,35.44,35.44,0,0,1,6.13.12,46.77,46.77,0,0,1,5.84,1A49.89,49.89,0,0,1,133.79,21c7.34,2.9,14.59,5.39,21.9,8l5.52,1.93.71.25.18.06.09,0,0,0h0l-.06,0a1.33,1.33,0,0,0-.77-.07c-.24.07-.18.06-.17,0s0-.11,0-.09a.38.38,0,0,0-.09.19,1.07,1.07,0,0,0,0,.31,1.44,1.44,0,0,0,.12.58,1.36,1.36,0,0,0,.16.28l-.06-.06-.11-.13L161,32c-.31-.34-.63-.67-1-1-1.31-1.29-2.72-2.47-4.13-3.61s-2.8-2.28-4.22-3.37a38.15,38.15,0,0,0-9.06-5.63,20.14,20.14,0,0,0-5.15-1.22,13.4,13.4,0,0,0-2.56,0,5.32,5.32,0,0,0-2,.55Z"/><path class="cls-3" d="M109.44,21.84c-5.63,1-2.36.55-6,9.44-3.45,8.49,3.62.85,10.94-1.84,2.81-1,.33,4.53,3.72,2.16s4.47-11.13,11-9.66C119.28,21.83,118.08,20.82,109.44,21.84Z"/><path class="cls-2" d="M109.44,21.84c-5.63,1-2.36.55-6,9.44-3.45,8.49,3.62.85,10.94-1.84,2.81-1,.33,4.53,3.72,2.16s4.47-11.13,11-9.66C119.28,21.83,118.08,20.82,109.44,21.84Z"/><path class="cls-1" d="M116.08,28.13c-.28,10-2.39,7.12-4.68,19.61-1,5.58-2.91,11.78-3.85,19.37-1.11,1.52-1.15-.41-1.42-2.27-1.18-8.27.64-8,2.09-16.36a120.18,120.18,0,0,1,3.93-16.13C114.38,25.89,116.17,24.76,116.08,28.13Z"/><path class="cls-6" d="M111.13,32.12c.32-.61,1.19.91,1.07,1.58-1.24,6.67.69,7.6-3.33,13.07C104.44,52.8,109.46,37.5,111.13,32.12Z"/><path class="cls-4" d="M149.5,28.49c4.19-2.35,11.23-1.68,17.45,1.84a30.06,30.06,0,0,1,11.74,13.18,40.24,40.24,0,0,1,4.22,17.27c-.13-.66-5.48-6.67-12.78-12.45a77.92,77.92,0,0,0-15-9.28c-5.9-2.75-12.66-4.25-17.81-2.69,3.57-11,9-11.12,21.2-6.71,5,1.82,10.27,6.7,16.3,15.76"/><path class="cls-1" d="M148.68,27a15.31,15.31,0,0,1,7.41-1.72,25.89,25.89,0,0,1,7.25,1.09,28.79,28.79,0,0,1,6.82,2.86A24.48,24.48,0,0,1,175.9,34a25.91,25.91,0,0,1,4.1,6.07,40,40,0,0,1,2.45,6.75,56.38,56.38,0,0,1,2.14,13.95l-3.31.35a.71.71,0,0,0,.11.34l-.07-.1c0-.05-.12-.16-.19-.25s-.32-.39-.49-.58c-.35-.4-.72-.8-1.09-1.19-.75-.79-1.53-1.57-2.32-2.33-1.58-1.54-3.29-2.95-5-4.34a53.92,53.92,0,0,0-5.33-3.86c-1.85-1.17-3.8-2.18-5.74-3.15l-5.82-2.83c-1-.48-1.93-.91-2.86-1.35s-1.9-.81-2.86-1.21a39,39,0,0,0-5.85-1.85,14.73,14.73,0,0,0-5.88-.19L134,39l1.49-3.25c.46-1,.84-2,1.36-3l.37-.74.44-.73a10.87,10.87,0,0,1,.93-1.45l.52-.7c.18-.23.41-.44.61-.66s.41-.44.64-.64l.73-.58a9,9,0,0,1,1.59-1,15.3,15.3,0,0,1,1.75-.64,16.3,16.3,0,0,1,6.87,0,40.73,40.73,0,0,1,6.19,1.68c.49.18,1,.34,1.48.53s1.06.42,1.56.68a17.63,17.63,0,0,1,2.88,1.75,28.23,28.23,0,0,1,4.73,4.46,46.44,46.44,0,0,1,6.68,10.65c-2.85-3-5.58-6.13-8.6-8.77a35.15,35.15,0,0,0-4.69-3.53A22.9,22.9,0,0,0,159,31.8c-.43-.2-.84-.33-1.3-.49s-1-.33-1.44-.49c-1.92-.61-3.81-1.31-5.7-1.72a13.27,13.27,0,0,0-5.4-.31,6.24,6.24,0,0,0-3.92,2.92,8,8,0,0,0-.69,1.18l-.3.63-.25.67a20.88,20.88,0,0,0-.87,2.77l-2.39-2.44a21.51,21.51,0,0,1,7.48-1.23,28.23,28.23,0,0,1,7.31,1,33.46,33.46,0,0,1,6.71,2.64,43.22,43.22,0,0,1,6,3.73c3.75,2.79,7.22,5.93,10.6,9,1.69,1.56,3.28,3.2,4.89,4.83q1.2,1.23,2.36,2.52c.39.43.77.87,1.15,1.33.19.24.38.46.57.73s.19.24.31.43l.16.25a3.08,3.08,0,0,1,.29.72l-3.31.35a29.5,29.5,0,0,0-2.84-12.5,45.1,45.1,0,0,0-3.22-5.51,59.4,59.4,0,0,0-3.7-4.94A25.81,25.81,0,0,0,162,30.37a18.61,18.61,0,0,0-6-1.45,10.6,10.6,0,0,0-5.67,1Z"/><path class="cls-1" d="M138.11,37c-9.22,2.1-7,2.53-12.58,13.39s4.51,1.47,14.43-1.78c3.79-1.24.56,5.78,5.08,2.62s-.29-14.12,8.45-12.16C161.09,36.94,149.62,35.6,138.11,37Z"/><path class="cls-2" d="M138.11,37c-9.22,2.1-7,2.53-12.58,13.39s4.51,1.47,14.43-1.78c3.79-1.24.56,5.78,5.08,2.62s-.29-14.12,8.45-12.16C161.09,36.94,149.62,35.6,138.11,37Z"/><path class="cls-1" d="M141.55,45.93c.21,8.9-3.35,5.9-6,17-1.16,4.87-1.64,10.9-2.83,17.62-.94,5.33-1.32,11.76-2.11,18.15-1.38,1.41-3-1.69-3.07-3.65-.65-11.11,1.88-10.83,3.8-22,1.53-8.88,2.56-18.15,3.88-22C138.2,42.48,141.45,41.43,141.55,45.93Z"/><path class="cls-7" d="M136.45,51.9c.43-.81.36.58.19,1.48-1.65,8.89-.92,9.13-4.61,17.38C128,79.65,134.23,59.06,136.45,51.9Z"/><path class="cls-4" d="M61.58,38.16c3.58,2.54,8.71,8.81,6.73,18.55-1,5-3.8,11.07-9.94,18-3.8,4.3-9,8.28-15.57,13.35-3-2.78-6.25-7.86-8.62-14.59-1.93-5.47-2.33-11.73-2.8-17.34-.6-7.1-.92-13.9,2.5-17.18,9.44-9.07,8.52-5,17.41-2.24C56.57,38.39,56.13,34.3,61.58,38.16Z"/><path class="cls-1" d="M63.73,35.11a17.08,17.08,0,0,1,5.56,7.48,35,35,0,0,1,2.23,8.7,53.53,53.53,0,0,1,.22,9,31.89,31.89,0,0,1-1.69,9A27.36,27.36,0,0,1,59,82.87c-2.39,1.55-4.87,2.84-7.28,4.12a72.58,72.58,0,0,0-6.87,4.15l-2.31,1.61L40.82,91a39,39,0,0,1-5.81-8,57.35,57.35,0,0,1-4-8.74,80.11,80.11,0,0,1-4-18.45,30.55,30.55,0,0,1,.68-10.06,19.58,19.58,0,0,1,2-5,14.46,14.46,0,0,1,1.67-2.35c.32-.36.71-.75,1-1.05l.86-.79A46.36,46.36,0,0,1,37,33.33l1.13-.77c.43-.26.89-.5,1.36-.74l.86-.33c.15-.05.28-.1.44-.15l.53-.1a6.65,6.65,0,0,1,2.18,0,9.93,9.93,0,0,1,3,1.15l1.91,1.06c.6.33,1.2.61,1.82.89.3.15.63.24.94.38s.66.28.88.34h0c-.13.6.18-.81.15-.67h.09l.1,0a.89.89,0,0,0,.2,0l.35,0a3,3,0,0,0,.56-.05,14.25,14.25,0,0,0,2-.83A7.59,7.59,0,0,1,57.9,33a7.43,7.43,0,0,1,2.5.34A12.55,12.55,0,0,1,63.73,35.11ZM60,40.44a6.7,6.7,0,0,0-1.5-.83c-.15,0-.2,0-.21,0a2.64,2.64,0,0,0-.3.1,15.11,15.11,0,0,1-3.08,1.15A9.41,9.41,0,0,1,52.7,41l-1-.1a3.92,3.92,0,0,1-.48-.08l-.23,0-.12,0h-.09c0,.14.28-1.26.15-.67h0c-.52-.07-.89-.17-1.3-.26s-.81-.19-1.21-.31c-.81-.24-1.6-.51-2.38-.81s-1.51-.63-2.17-.92a4.59,4.59,0,0,0-1.23-.39s-.05.06-.37.21l-.6.39-.72.55c-1,.84-2,1.81-3.1,2.84L37,42.1c-.22.23-.36.38-.54.59A9.91,9.91,0,0,0,35.58,44a14.51,14.51,0,0,0-1.34,3.35,26.73,26.73,0,0,0-.76,7.93,65.7,65.7,0,0,0,2.85,17,36.2,36.2,0,0,0,3.56,7.7,26.35,26.35,0,0,0,5.19,6.3l-4-.18a39.64,39.64,0,0,0,5.3-5.64c1.57-2.06,3-4.22,4.36-6.29a115.42,115.42,0,0,1,8.14-10.94c.69-.86,1.43-1.71,2.14-2.61a32.47,32.47,0,0,0,2-2.85,15.33,15.33,0,0,0,2.35-6.4A10.91,10.91,0,0,0,64,45,13.92,13.92,0,0,0,60,40.44Z"/><path class="cls-1" d="M57.38,36.17c0,.45,0,1-.08,1.36l-.17,1c-.13.57-.27,1.15-.42,1.63-.3,1-.61,1.92-.92,2.83-.63,1.79-1.3,3.48-2,5.17-1.34,3.36-2.65,6.67-3.9,10s-2.3,6.64-3.19,10.05q-.69,2.56-1.2,5.16c-.17.87-.33,1.74-.44,2.61A12.11,12.11,0,0,0,45,78.6a25.16,25.16,0,0,1-.74-5.33c-.12-1.79-.18-3.59-.23-5.4-.06-3.61,0-7.23.12-10.89l.44-10.77c.06-1.77.11-3.54.1-5.23,0-.84,0-1.68-.09-2.41a10,10,0,0,0-.13-1l-.11-.31s-.09,0-.11,0Z"/><path class="cls-1" d="M53.18,45.11a1.6,1.6,0,0,0-.26-.38l-.05,0a2.41,2.41,0,0,0,.18.22c.17.19.47.47.74.74.59.55,1.26,1.18,2,1.89.36.35.73.76,1.14,1.23l.33.4c.11.13.22.27.35.47l.19.27c.06.08.12.18.21.33l.22.41a2.32,2.32,0,0,1,.16.36,10.05,10.05,0,0,1,.41,1.74c.08.51.14,1,.19,1.47a40.12,40.12,0,0,1,.11,5.58,22.86,22.86,0,0,1-1,5.6,30.15,30.15,0,0,1-2.91-4.82c-.82-1.61-1.46-3.25-2.23-4.76-.18-.38-.36-.74-.54-1.08a2.85,2.85,0,0,0-.5-.74s0,0,0,.07a.74.74,0,0,0,0,.13c0,.05,0,.06,0,.06l0,0s0,0-.09,0l-.14-.07-.87-.5c-.66-.4-1.42-.81-2.22-1.34a14.25,14.25,0,0,1-1.31-.93,8.77,8.77,0,0,1-.79-.69L46,50.18a8.16,8.16,0,0,1-.63-.92Z"/><path class="cls-1" d="M49.49,60.52a15.07,15.07,0,0,1-4.06-.16,14.1,14.1,0,0,0-2.08-.23,1.06,1.06,0,0,0-.39,0s-.05,0-.08.05a.29.29,0,0,0-.13.13,4.36,4.36,0,0,0-.36.57c-.43.79,0,1.94-.12,2.71a5.5,5.5,0,0,1-.39,1.09c-.13.35-.27.7-.37,1.06-.06.2-.1.3-.17.58a9.82,9.82,0,0,1-.26,1,9.32,9.32,0,0,1-.81,1.77,16.79,16.79,0,0,1-1.92,2.56c-.67.74-1.32,1.46-2.07,2.16l-2.13-1a21,21,0,0,1,.51-3.06c.24-1,.48-1.92.61-2.68a5.09,5.09,0,0,0,.07-1c0-.14,0-.28,0-.42s0-.58,0-.86a14.25,14.25,0,0,1,.21-1.79A6.25,6.25,0,0,1,36,61.37c.52-1.05,1.76-1.68,2.22-2.62.13-.23.22-.48.32-.72a4.33,4.33,0,0,1,.25-.49,4.89,4.89,0,0,1,.34-.54A6.31,6.31,0,0,1,41,55.27a26.46,26.46,0,0,1,3.56-1.55c.93-.37,1.62-.87,1.62-1.37Z"/><path class="cls-5" d="M61.36,52.87c-4.69-1.42-10.19.56-14.69,5.18a25.58,25.58,0,0,0-6.85,14.54,44.34,44.34,0,0,0,.35,16.47c0-.67,5-7.32,11.33-14.92A88.54,88.54,0,0,1,64.54,61c5.56-4.33,11.67-8,17.13-7.54-3.76-7.74-8.23-5-17.32-2.44-4.39,1.22-8.57,5-13,10.89-2.81,3.75-5.19,8.66-7.58,15.18"/><path class="cls-1" d="M61,53.92a9.86,9.86,0,0,0-5.48,0,14.43,14.43,0,0,0-5,2.56,21.9,21.9,0,0,0-6.76,9.12A45.25,45.25,0,0,0,41,76.93a34.75,34.75,0,0,0,.25,11.88L39,89.08a2.2,2.2,0,0,1,.16-.68l.14-.26c.1-.19.18-.3.26-.44s.34-.52.51-.78c.34-.5.69-1,1-1.47l2.13-2.85c1.42-1.89,2.88-3.75,4.34-5.59,2.87-3.73,5.86-7.41,9-11A50.76,50.76,0,0,1,67.4,56.29,30.14,30.14,0,0,1,74.07,53a17.32,17.32,0,0,1,7.71-1l-1.47,2.16a11.66,11.66,0,0,0-1.44-2.66,4.36,4.36,0,0,0-2.11-1.66c-1.69-.62-3.91-.13-6,.44s-4.33,1.35-6.45,2a16.2,16.2,0,0,0-5.4,3.21,41.44,41.44,0,0,0-4.62,4.63,48.72,48.72,0,0,0-4.08,5.21,98.12,98.12,0,0,0-6.43,11.82,56,56,0,0,1,4.85-12.78,30.66,30.66,0,0,1,1.83-3c.66-.94,1.34-1.87,2.05-2.77a33.84,33.84,0,0,1,4.84-5,18.45,18.45,0,0,1,6.28-3.48c2.23-.61,4.33-1.2,6.55-1.86a31.08,31.08,0,0,1,3.45-.78,9.43,9.43,0,0,1,3.85.16,7.29,7.29,0,0,1,3.36,2.17,16.59,16.59,0,0,1,2.18,3L84.28,55l-2.73,0a14.47,14.47,0,0,0-6,1.57,44,44,0,0,0-5.72,3.35c-1.86,1.25-3.72,2.62-5.53,4s-3.57,2.85-5.29,4.4a107.21,107.21,0,0,0-9.52,10.22Q47.21,81.19,45,84c-.72.92-1.42,1.85-2.1,2.79-.34.47-.67.94-1,1.41-.15.23-.32.47-.45.7a2.59,2.59,0,0,0-.18.32l-.06.13a.4.4,0,0,0,0-.26l-2.24.27a51.36,51.36,0,0,1-1.39-12.62,38.34,38.34,0,0,1,.6-6.37,24.36,24.36,0,0,1,10.7-16,18.53,18.53,0,0,1,6-2.68,13.13,13.13,0,0,1,6.69.17Z"/><path class="cls-1" d="M81.12,53.12c9.46.06,7.08,2.21,14.88,11.61S92.2,67,81.82,65.94c-4-.4.54,6.09-4.56,4s-4.89-8.29-14.83-7.84C58.29,52.56,69.59,54.29,81.12,53.12Z"/><path class="cls-2" d="M81.12,53.12c9.46.06,7.08,2.21,14.88,11.61S92.2,67,81.82,65.94c-4-.4.54,6.09-4.56,4s-4.89-8.29-14.83-7.84C58.29,52.56,69.59,54.29,81.12,53.12Z"/><path class="cls-1" d="M79.51,63.67c1.72,8.74,4.71,5,9.68,15.23,2.19,4.51,4,10.28,6.58,16.59,2.07,5,4.22,10.6,6.37,16.67,1.65,1.08,2.57-1.77,2.26-3.71-1.76-11-4-10.36-8.25-20.8A144.67,144.67,0,0,0,85.91,68C81.15,60.21,78.64,59.27,79.51,63.67Z"/><path class="cls-4" d="M91.81,70c3.1,3.37,7.09,9.93,2.92,19.43C92.59,94.34,88.8,99.85,81,105.6A112.7,112.7,0,0,1,62.47,117c-2.45-3.5-3.85-10.3-4.79-17.69A74,74,0,0,1,57.29,81c1-7.38,3.36-13.12,7.57-15.72,11.62-7.18,8.89-4.17,17,1.23C86.38,69.56,87.1,64.9,91.81,70Z"/><path class="cls-1" d="M95.28,66.84a31.87,31.87,0,0,1,3.42,3.68,25.4,25.4,0,0,1,2.79,4.27,18.91,18.91,0,0,1,1.74,5,18,18,0,0,1,.17,5.38,23.68,23.68,0,0,1-.45,2.66c-.22.86-.49,1.72-.78,2.55s-.63,1.64-1,2.41-.83,1.52-1.28,2.23a36.51,36.51,0,0,1-6.32,7.16,84.7,84.7,0,0,1-7,5.6,71.13,71.13,0,0,1-7.42,4.69c-5.08,2.76-10.18,5.13-15.28,7.45L61.35,121l-1.42-2.15a28.22,28.22,0,0,1-2.8-5.6,49,49,0,0,1-1.76-5.64A76.17,76.17,0,0,1,53.5,96.24a85.58,85.58,0,0,1-.4-11.5A45.21,45.21,0,0,1,55,73.08a30,30,0,0,1,2.39-5.66,16.1,16.1,0,0,1,4.31-5.12l.76-.52c.26-.17.43-.26.65-.39l1.25-.72c.86-.47,1.71-.95,2.65-1.37a17.27,17.27,0,0,1,3.11-1.13,6.9,6.9,0,0,1,5.29.59l.85.55c.45.36.92.73,1.26,1.06.74.69,1.35,1.25,2,1.79l1,.76,1,.69a15.6,15.6,0,0,0,2,1.08,3.07,3.07,0,0,0,1.5.17c.51-.07,1.18-.36,2.46-.7A9.14,9.14,0,0,1,88.64,64a6.1,6.1,0,0,1,1.24,0,5.64,5.64,0,0,1,1.22.26,7.4,7.4,0,0,1,1.08.42A13,13,0,0,1,95.28,66.84Zm-4.81,4.41a9.84,9.84,0,0,0-1.15-1.37.79.79,0,0,0-.18-.15c-.06-.06-.09-.05-.12-.09s-.09,0-.14-.06a2.9,2.9,0,0,0-.29,0c-.53,0-1.61.42-2.95.53a8.58,8.58,0,0,1-3.94-.6,23.2,23.2,0,0,1-2.88-1.55l-1.28-.87-1.22-.94-2.17-1.86c-.34-.3-.61-.49-.89-.7l-.33-.19c-.11-.07-.17,0-.24-.09a2.16,2.16,0,0,0-1.19.12,12.42,12.42,0,0,0-2,.88c-.73.38-1.49.81-2.24,1.25l-1.13.7c-.17.11-.41.24-.53.34l-.38.28a11.36,11.36,0,0,0-2.71,3.38,24.31,24.31,0,0,0-1.88,4.56c-2,6.54-2,13.69-1.3,20.87a59.1,59.1,0,0,0,1.82,10.46,43,43,0,0,0,1.66,4.92A21.16,21.16,0,0,0,65,115.32l-3.9-1a111.1,111.1,0,0,0,14-8.24,62.92,62.92,0,0,0,6.12-4.9,41.24,41.24,0,0,0,5.25-5.6,32.82,32.82,0,0,0,3.67-6.06,21,21,0,0,0,1.78-5.77,37.12,37.12,0,0,0,.41-6,16.28,16.28,0,0,0-.48-3.35A11.25,11.25,0,0,0,90.47,71.25Z"/><path class="cls-1" d="M88.3,66.32c-.1.39-.21.83-.33,1.18l-.34.92c-.23.53-.46,1.07-.69,1.54-.47,1-.92,1.86-1.39,2.74-.94,1.75-1.9,3.42-2.88,5.07-2,3.3-3.94,6.53-6,9.72s-4,6.36-5.86,9.57q-1.44,2.4-2.76,4.85c-.44.82-.87,1.64-1.25,2.48A9.83,9.83,0,0,0,66,107a10.09,10.09,0,0,1,.29-2.8q.29-1.38.63-2.75c.46-1.83,1-3.64,1.45-5.45l3-10.85c.93-3.61,1.82-7.22,2.57-10.83.38-1.8.73-3.6,1-5.35.14-.87.28-1.74.34-2.54,0-.42.05-.77.07-1.14l0-.44c0-.11-.07-.13-.09-.19Z"/><path class="cls-1" d="M82.87,74.47a1.74,1.74,0,0,0-.2-.48.16.16,0,0,0-.05-.06,2.79,2.79,0,0,0,.15.26c.15.24.4.58.64.91.52.68,1.11,1.46,1.73,2.33.31.43.63.92,1,1.49.08.12.18.32.27.47s.17.32.28.55a7.51,7.51,0,0,1,.29.71,5.78,5.78,0,0,1,.24.93,9.16,9.16,0,0,1,0,2c0,.55-.11,1.06-.18,1.56a49,49,0,0,1-1.24,5.73,27.67,27.67,0,0,1-2.22,5.55,29.74,29.74,0,0,1-1.76-5.69c-.42-1.87-.64-3.75-1-5.52-.08-.44-.17-.86-.26-1.25s-.22-.8-.3-.8c.08.49,0,.34-.21.18l-.81-.7c-.61-.54-1.33-1.12-2.07-1.82A15,15,0,0,1,76,79.56a9.19,9.19,0,0,1-.69-.87c-.14-.22-.28-.44-.41-.67a7.87,7.87,0,0,1-.47-1.13Z"/><path class="cls-1" d="M75.23,89a20.48,20.48,0,0,1-3.87-.9,10.13,10.13,0,0,0-2.12-.51c-.45,0-.54-.13-1.29.73-.57.69-.3,1.88-.55,2.65a6.4,6.4,0,0,1-.57,1.1c-.2.37-.41.75-.6,1.16l-.15.3-.08.16-.11.25a8.93,8.93,0,0,1-.5,1,9.85,9.85,0,0,1-1.18,1.58,18.81,18.81,0,0,1-2.47,2.21c-.84.62-1.65,1.23-2.56,1.79L57.31,99a57,57,0,0,1,2.43-5.59,5.93,5.93,0,0,0,.33-1.05,3.84,3.84,0,0,0,.08-.45v-.11l0-.2.09-.42a17.37,17.37,0,0,1,.47-1.69,6.63,6.63,0,0,1,.72-1.65c.7-1,2.07-1.55,2.75-2.45.18-.22.33-.47.5-.7a3.87,3.87,0,0,1,.34-.42c.14-.15.27-.31.42-.46a7.06,7.06,0,0,1,2.12-1.39,23.2,23.2,0,0,1,3.91-1,3.31,3.31,0,0,0,2.2-1.1Z"/><path class="cls-1" d="M101.56,38.74c1.77.07,8.08,7.94,6.21,11.62s-20.11-.76-21.28-2.2c-1.43,4.16-1.18,7.16-5.5,6.2s-9.7-1.88-6.44-4.15C86.67,41.8,97.51,38.58,101.56,38.74Z"/><path class="cls-2" d="M101.56,38.74c1.77.07,8.08,7.94,6.21,11.62s-20.11-.76-21.28-2.2c-1.43,4.16-1.18,7.16-5.5,6.2s-9.7-1.88-6.44-4.15C86.67,41.8,97.51,38.58,101.56,38.74Z"/><path class="cls-4" d="M77.39,33.41c-7.94-4.18-6.19-2.18-17.7,2.35-5,2-8.36,7.13-10.63,14.58-1.63,5.33-3.26,11.91-3,19C53.41,73.2,51.31,65,59.61,59.3c4-2.7,8.36-6.26,13.8-9.15a134.91,134.91,0,0,1,15-7.23c4.22-1.62,11.25-2.91,16.29-.21-4.83-8.6-16.6-11.57-23-10.52-6.2,1-11.48,5-16.07,9.3-2.37,2.22-5.77,4.52-8.42,8.35"/><path class="cls-1" d="M76.37,35.34c-2-1.06-4.26-2.21-5.41-2a9.68,9.68,0,0,0-2.67,1c-1.05.5-2.14,1-3.25,1.54s-2.23,1-3.36,1.46a16.81,16.81,0,0,0-2.88,1.35,14.09,14.09,0,0,0-4.23,4.44c-2.31,3.66-3.61,8.16-4.76,12.65a49.19,49.19,0,0,0-1.58,13.54l-1.17-1.85a8.52,8.52,0,0,0,1.54.64,1.52,1.52,0,0,0,.82.06,1,1,0,0,0,.25-.15,3.39,3.39,0,0,0,.42-.46,15.68,15.68,0,0,0,1-1.57,37.34,37.34,0,0,1,2.45-3.83,20.4,20.4,0,0,1,3.31-3.48c.32-.25.62-.51,1-.74l.93-.66L60.48,56,64,53.51a81.52,81.52,0,0,1,7.44-4.77,146.82,146.82,0,0,1,15.71-7.68,29.52,29.52,0,0,1,9-2,17.89,17.89,0,0,1,9.52,1.77l-2.93,3a18.58,18.58,0,0,0-9.83-7.83,25.66,25.66,0,0,0-6.38-1.48,19.07,19.07,0,0,0-3.18-.08,14.74,14.74,0,0,0-3.06.5c-4.14,1-8,3.55-11.63,6.37l-2.84,2.19c-1,.74-2,1.37-3,2a45.62,45.62,0,0,0-5.65,4.35,21.44,21.44,0,0,1,4-6.17l2.47-2.62c.77-.8,1.6-1.76,2.48-2.62A37.68,37.68,0,0,1,72,33.69a25.63,25.63,0,0,1,7.06-3.3,19.42,19.42,0,0,1,4-.7,23,23,0,0,1,4,.13,29.36,29.36,0,0,1,7.51,1.91,27.22,27.22,0,0,1,6.77,3.88,20.83,20.83,0,0,1,5.21,6l3.7,6.55-6.63-3.56a13.64,13.64,0,0,0-7.2-1.26,25.19,25.19,0,0,0-7.69,1.75,143,143,0,0,0-15.18,7.43,77.25,77.25,0,0,0-7,4.52L63,59.57l-1.79,1.26-.83.59c-.26.18-.5.39-.75.58A16,16,0,0,0,57,64.73a33.36,33.36,0,0,0-2.18,3.42,19.4,19.4,0,0,1-1.32,2,7.6,7.6,0,0,1-1,1.11,5.33,5.33,0,0,1-1.6.94,5.71,5.71,0,0,1-3.41.05,12.63,12.63,0,0,1-2.44-1l-1.12-.57,0-1.28a53.51,53.51,0,0,1,1.7-14.74c.6-2.4,1.25-4.68,2.07-7.06a34.31,34.31,0,0,1,3.24-6.89A18.41,18.41,0,0,1,56.48,35,21.09,21.09,0,0,1,60,33.28c1.08-.43,2.14-.9,3.19-1.39s2.11-1,3.21-1.52a13.21,13.21,0,0,1,4-1.37,6.74,6.74,0,0,1,1.29,0l.63.06.58.12a7.21,7.21,0,0,1,1.08.31,9.46,9.46,0,0,1,1,.37c1.24.51,2.3,1.09,3.39,1.64Z"/><path class="cls-1" d="M86.31,48.12c1.79,7.48.93,7.29,2.26,15.21.89,5.29,2.47,10.49,1.4,14.8,1.16,1.41,2.43.51,2.69-1.29,2.12-14.52-.32-18.37-5-28.71C85,43.6,85.72,45.65,86.31,48.12Z"/><path class="cls-6" d="M146.28,42.3c3.77,2.6,9.33,8.71,7.4,18.9-1,5.24-3.45,11.84-9.76,19.18a119.27,119.27,0,0,1-16,15.19c-3.17-2.86-6.42-9.56-9-16.55a74,74,0,0,1-4.11-17.82c-.72-7.4,0-13.8,3.51-17.27,9.72-9.59,7.83-5.27,17.06-2.21C140.77,43.5,140.55,38.36,146.28,42.3Z"/><path class="cls-1" d="M147.63,40.34a26.21,26.21,0,0,1,6.9,6A18,18,0,0,1,157,50.49a15,15,0,0,1,.76,2.3c.09.39.21.79.28,1.18l.17,1.21a24.09,24.09,0,0,1,.15,2.42c0,.8-.08,1.61-.15,2.4s-.21,1.56-.42,2.36a19.88,19.88,0,0,1-.72,2.33,33.24,33.24,0,0,1-4.52,7.79,121.08,121.08,0,0,1-11.13,12.69c-4,3.94-8.19,7.62-12.49,11.16l-1.16,1-1.15-1a26.55,26.55,0,0,1-3.84-4.35,52.35,52.35,0,0,1-3-4.74,58,58,0,0,1-4.63-10.26A72.62,72.62,0,0,1,112.61,66c-.27-1.84-.51-3.58-.74-5.45a48,48,0,0,1-.29-5.75,25.19,25.19,0,0,1,.76-6,15.08,15.08,0,0,1,3-6.08,21.68,21.68,0,0,1,2.23-2.1c.69-.6,1.42-1.21,2.17-1.78l1.17-.86c.39-.29.85-.56,1.28-.83s1-.53,1.44-.79a9,9,0,0,1,1.83-.63,5.8,5.8,0,0,1,2.14-.1,7.34,7.34,0,0,1,1.83.53c1,.46,1.77.93,2.55,1.34a23.74,23.74,0,0,0,2.34,1.14c.39.18.8.32,1.2.48l.6.23.56.16a4.88,4.88,0,0,0,2.13.18,23.3,23.3,0,0,0,2.47-.8,5.43,5.43,0,0,1,1.86-.18,4.37,4.37,0,0,1,.9.14,5.11,5.11,0,0,1,.83.23A15,15,0,0,1,147.63,40.34Zm-2.12,3.08a12,12,0,0,0-1.91-1.29,2.79,2.79,0,0,0-1.69-.37c-.63.09-1.6.51-2.71.67a9.22,9.22,0,0,1-3.21-.14c-.52-.1-1-.22-1.43-.34s-.91-.22-1.36-.37l-2.68-.84a19.1,19.1,0,0,0-2.44-.71,1.61,1.61,0,0,0-1.32.21,6.44,6.44,0,0,0-.64.45c-.27.25-.51.44-.79.72-.54.54-1.12,1.15-1.69,1.76s-1.17,1.26-1.76,1.92-1.29,1.37-1.56,1.73c-1.49,1.84-2.17,4.94-2.32,8.19a45.79,45.79,0,0,0,0,5c.09,1.71.22,3.55.35,5.29a69.32,69.32,0,0,0,1.4,10.28,41,41,0,0,0,1.46,4.9,45.06,45.06,0,0,0,2,4.78,36.24,36.24,0,0,0,2.54,4.48A23.09,23.09,0,0,0,129,93.61l-2.3-.07a80.66,80.66,0,0,0,11.71-11.18c1.76-2,3.46-4.15,5.11-6.3A66.16,66.16,0,0,0,148,69.48a30,30,0,0,0,3-6.81,18.41,18.41,0,0,0,.56-6.75,22.49,22.49,0,0,0-1.76-6.63,19,19,0,0,0-1.8-3.18A15.15,15.15,0,0,0,145.51,43.42Z"/><path class="cls-1" d="M142.25,39.93c0,.48,0,1-.07,1.45L142,42.45c-.14.6-.28,1.21-.43,1.72-.31,1.07-.63,2-1,3-.66,1.88-1.34,3.65-2,5.42-1.38,3.53-2.7,7-3.95,10.51s-2.39,7.09-3.42,10.67q-.79,2.68-1.44,5.4c-.22.9-.42,1.81-.57,2.73a10.77,10.77,0,0,0-.22,2.76,11,11,0,0,1-.42-2.8q-.07-1.41-.09-2.83c0-1.89,0-3.78,0-5.67.08-3.77.18-7.56.33-11.34s.35-7.62.5-11.37c.08-1.87.15-3.74.17-5.52,0-.88,0-1.77-.06-2.54,0-.41-.08-.73-.13-1.06l-.11-.32s-.09,0-.11.06Z"/><path class="cls-1" d="M138.06,49.22a.93.93,0,0,0-.16-.22,0,0,0,0,1,0,0c.06.07.11.16.23.29s.48.55.76.85c.59.63,1.23,1.32,1.91,2.1.34.39.69.83,1.07,1.33l.29.41.32.5a6.06,6.06,0,0,1,.59,1.2,28.77,28.77,0,0,1,.74,3,35.48,35.48,0,0,1,.62,5.79,20.12,20.12,0,0,1-.73,5.85,44,44,0,0,1-3.12-4.84c-.92-1.59-1.7-3.19-2.62-4.67a21.51,21.51,0,0,0-1.32-2.08c-.18-.27,0,.09-.1,0l-.09,0-.16-.1-.87-.6c-.65-.47-1.4-1-2.17-1.55-.4-.3-.79-.6-1.24-1a9.61,9.61,0,0,1-.72-.7l-.43-.5c-.18-.23-.37-.52-.53-.79Z"/><path class="cls-1" d="M134.1,65.2a16.72,16.72,0,0,1-4.15-.06,11.9,11.9,0,0,0-2.21-.13c-.42.1-.44-.17-1.06.94-.44.84,0,2-.12,2.83a6.29,6.29,0,0,1-.39,1.16c-.13.38-.26.76-.37,1.14-.06.21-.1.34-.16.62l-.19.85a16.17,16.17,0,0,1-.52,1.7,16.6,16.6,0,0,1-3.59,5.68l-2.14-1c.16-2.12.45-4.07.45-5.81,0-.44,0-.87,0-1.31l0-.67c0-.22,0-.61,0-.9a14.74,14.74,0,0,1,.18-1.86,6.69,6.69,0,0,1,.46-1.77c.52-1.11,1.77-1.81,2.23-2.79.13-.24.22-.51.33-.76a4,4,0,0,1,.24-.49,6,6,0,0,1,.33-.56,6.62,6.62,0,0,1,1.89-1.82,25,25,0,0,1,3.66-1.7c1-.4,1.71-.92,1.78-1.46Z"/><path class="cls-3" d="M95.36,52.24c-1.73.37-7.81,8.06-5.95,11.73s19.94-.67,21.11-2.11c1.43,4.16,1,6.69,5.36,5.73s11.48-2.65,10.71-10c-.82-7.86-7.48-2.61-15.4-4.18C105.28,52.21,99,51.47,95.36,52.24Z"/><path class="cls-2" d="M95.36,52.24c-1.73.37-7.81,8.06-5.95,11.73s19.94-.67,21.11-2.11c1.43,4.16,1,6.69,5.36,5.73s11.48-2.65,10.71-10c-.82-7.86-7.48-2.61-15.4-4.18C105.28,52.21,99,51.47,95.36,52.24Z"/><path class="cls-4" d="M119.69,47.29c7.94-4.18,6.44-3.21,18,1.32,4.46,1.76,7.75,5.88,11.23,9.86a65.05,65.05,0,0,1,8.73,12.45c-11-.46-8.19-5-19.84-9.62A134.11,134.11,0,0,0,116.82,55c-7.19-1.54-13.85-2.83-21-2.24,6.2-6.66,13-7.16,19.32-6.12,6.2,1,10.28,3.76,15.92,6.54a54.75,54.75,0,0,1,9.85,6.35"/><path class="cls-1" d="M118.67,45.36c.92-.48,1.84-1,2.83-1.45a15.66,15.66,0,0,1,3.38-1.27,8.29,8.29,0,0,1,4.1.18A28.31,28.31,0,0,1,132.14,44c1.94.81,3.8,1.62,5.7,2.36l.73.3.83.36c.53.27,1.06.54,1.56.85a22.19,22.19,0,0,1,2.78,2,45.67,45.67,0,0,1,4.57,4.64l2,2.35c.68.79,1.38,1.6,2,2.42a63.61,63.61,0,0,1,7.14,10.65l1.81,3.46-3.83-.28c-.73-.05-1.45-.09-2.19-.16s-1.48-.16-2.24-.36a13.34,13.34,0,0,1-4.49-1.74,29.84,29.84,0,0,1-3.48-2.71,27.13,27.13,0,0,0-3.05-2.26,36.5,36.5,0,0,0-7-3.27q-3.77-1.42-7.63-2.59a151,151,0,0,0-15.7-3.82A57.35,57.35,0,0,0,96,55l-5.6.47,3.83-4.13a24.24,24.24,0,0,1,5.31-4.39,21.18,21.18,0,0,1,6.56-2.55A24.47,24.47,0,0,1,113,44a30.38,30.38,0,0,1,6.63,1.32A36,36,0,0,1,125.72,48c1.9,1,3.69,2.09,5.46,3.15a33.16,33.16,0,0,1,9.76,8.37c-3.94-1.81-7.57-3.6-11.42-5.07-2-.81-3.86-1.76-5.72-2.59a40.84,40.84,0,0,0-5.53-2.11,30.74,30.74,0,0,0-5.69-1.09,21.5,21.5,0,0,0-5.62.14,17,17,0,0,0-9.53,5.43l-1.77-3.65a61.61,61.61,0,0,1,16.88,1.31,155.45,155.45,0,0,1,16.14,3.93q4,1.21,7.89,2.67a40.78,40.78,0,0,1,7.8,3.67,31.54,31.54,0,0,1,3.53,2.61,26.75,26.75,0,0,0,3,2.34A9,9,0,0,0,154,68.32c.56.15,1.2.19,1.8.29s1.27.09,1.9.14l-2,3.18A59.32,59.32,0,0,0,149,62c-.64-.78-1.28-1.54-2-2.31l-2-2.33a41.59,41.59,0,0,0-4.12-4.2,17.86,17.86,0,0,0-2.22-1.62c-.38-.24-.77-.43-1.16-.63l-.6-.26-.71-.29c-1.95-.77-3.88-1.6-5.76-2.39a24.78,24.78,0,0,0-2.65-1,3.86,3.86,0,0,0-2-.12,11.81,11.81,0,0,0-2.4.93c-.88.43-1.78.9-2.69,1.38Z"/><path class="cls-1" d="M110.95,61.89c-1.79,7.48-2.66,7-4,14.9a39.81,39.81,0,0,0,.37,15.3c-1.16,1.41-2.08.16-2.34-1.64-2.12-14.52-.82-18.51,3.81-28.85C111.47,57.08,111.54,59.42,110.95,61.89Z"/><path class="cls-4" d="M118.23,66c3.94,2.18,9.51,7.32,7.49,16.9a36.7,36.7,0,0,1-9.38,17.83c-3.78,4.16-9.16,8-15.58,13-3.25-2.4-6-7.44-8.72-13.53-2.28-5.05-5.38-10.36-6.09-15.65-.89-6.6.2-13,3.66-16.3,9.59-9.12,8.45-5,17.81-2.64C112.84,66.94,112.35,62.69,118.23,66Z"/><path class="cls-1" d="M119.22,64.17a27.35,27.35,0,0,1,7.62,4.69,13.85,13.85,0,0,1,4.43,8.88,17.46,17.46,0,0,1-.24,4.93,18.45,18.45,0,0,1-1.41,4.47A33.88,33.88,0,0,1,125,94.38c-1.72,2.16-3.54,4.14-5.34,6.1s-3.64,3.71-5.48,5.59a156.47,156.47,0,0,1-11.65,10.64l-1.37,1.11-1.47-1.07a26.87,26.87,0,0,1-4.2-3.91,52.41,52.41,0,0,1-3.43-4.3c-1.07-1.48-2-3-3-4.62a34.49,34.49,0,0,1-2.48-5.11,63.62,63.62,0,0,1-2.8-10.62,72.83,72.83,0,0,1-1.48-10.79,22.73,22.73,0,0,1,.59-6.28,13.71,13.71,0,0,1,1.36-3.44A12.58,12.58,0,0,1,85.38,66c.21-.27.47-.52.7-.77l.36-.36.25-.23a33.11,33.11,0,0,1,4.42-3.39c.39-.26.88-.53,1.33-.77a12.92,12.92,0,0,1,1.5-.72,13.45,13.45,0,0,1,1.77-.6,10.36,10.36,0,0,1,1-.19,4.89,4.89,0,0,1,1.07-.07,8.16,8.16,0,0,1,2.07.27,11.82,11.82,0,0,1,1.62.61c1,.45,1.7.91,2.47,1.32a26.59,26.59,0,0,0,4.5,2,5.23,5.23,0,0,0,2,.31c.6,0,1.23-.3,2.44-.52a8.31,8.31,0,0,1,3.49.25A20.1,20.1,0,0,1,119.22,64.17Zm-2.41,4.36a7.55,7.55,0,0,0-3.47-1.65c-.5,0-1.53.28-2.67.32a12,12,0,0,1-3.14-.31c-1.85-.41-3.57-.87-5.3-1.32s-3.41-.77-3.78-.31A18.21,18.21,0,0,0,96,67.5c-1,1.06-2.17,2.3-3.35,3.46l-.22.22-.08.11-.17.19a3.93,3.93,0,0,0-.31.48,5.57,5.57,0,0,0-.53,1.37,16.67,16.67,0,0,0-.47,4c0,3,.31,6.35.6,9.82a59.8,59.8,0,0,0,1.34,9.66,34.74,34.74,0,0,0,3.74,8.79,33.83,33.83,0,0,0,2.71,4,19.85,19.85,0,0,0,3.18,3.33l-2.84,0a68.74,68.74,0,0,0,11-10.28c3.32-3.88,6.73-7.65,8.92-12A30.09,30.09,0,0,0,122,84.36a16.08,16.08,0,0,0,.5-3,15.23,15.23,0,0,0,0-2.75,16.65,16.65,0,0,0-1.42-5.14,13.34,13.34,0,0,0-1.73-2.66A13.86,13.86,0,0,0,116.8,68.53Z"/><path class="cls-1" d="M110.28,64.43a16.13,16.13,0,0,1-.15,3.1c-.11.92-.25,1.78-.4,2.65-.3,1.73-.65,3.42-1,5.1-.76,3.36-1.54,6.68-2.43,10s-1.88,6.55-2.79,9.81c-.46,1.63-.92,3.25-1.34,4.89-.21.82-.41,1.64-.56,2.46a7.31,7.31,0,0,0-.16,2.5,7.44,7.44,0,0,1-.15-2.54c.06-.85.13-1.7.22-2.54.18-1.69.41-3.37.63-5.05.47-3.35.88-6.72,1.2-10.06s.58-6.7.68-10c.06-1.67.09-3.34.07-5,0-.81,0-1.63-.08-2.4a9.59,9.59,0,0,0-.26-2Z"/><path class="cls-1" d="M108.42,73.19a4.71,4.71,0,0,0,.47.52c.24.25.54.52.83.78.6.53,1.22,1.11,1.85,1.71.32.31.63.62,1,1a7.56,7.56,0,0,1,1,1.35,13.4,13.4,0,0,1,.92,2.7,38.55,38.55,0,0,1,1.17,10.1c-.82-1.51-1.52-3-2.17-4.56s-1.26-3.06-1.94-4.51a10.38,10.38,0,0,0-1-1.87c-.05,0-.34-.32-.59-.52s-.58-.45-.9-.68c-.63-.46-1.32-.92-2-1.44-.35-.26-.69-.52-1.06-.83a6.55,6.55,0,0,1-1.23-1.29Z"/><path class="cls-1" d="M104.52,87.78c-4.39,3.23,7.35,10.21,10.55,10C112.94,89.9,109,84.52,104.52,87.78Z"/><path class="cls-5" d="M97.41,94.05c.31-.08-3.5-9.42-2.32-12.92a9.68,9.68,0,0,0-1.54,6.71c-3.19-3.21-3.42-5-2.78-8.25-2.19-1-.56,3-.48,4.59C89.94,84.12,88,74.35,95,69.59c.48,0-1.77,1-1.65,3.07-.27-.07,2.8-4.36,6.1-5.13-.13.13-3.1,3.58-2.22,5.47-.29,0,2.27-4.12,6.5-5.13C100.66,81.13,97.76,78.63,97.41,94.05Z"/><path class="cls-5" d="M61,53.68c.21,0,5.92-6.7,9.25-8.59a16.11,16.11,0,0,0-5.54,3.53C66,44.71,66.1,44.2,69,42.3c-.52-2.43-2.75,1.26-4,2.29-.13-.14,7.37-6.45,14.46-7.44.22.15-2.06,0-3.64,1.32-.08-.12,4.87-2.33,7.07-1.85a20.72,20.72,0,0,0-4.57,3.7c-.12-.1,3.46-2.37,6.3-1.77C72.91,46.29,73.36,44,61,53.68Z"/><path class="cls-5" d="M57.7,59.57c.29,0,9.95-8.93,15.08-11.3a34.6,34.6,0,0,0-9.14,4.83c3.08-5.1,4.56-5.4,9.08-7.77-.08-3.67-4.85,2-6.79,3.32-.14-.16,11.9-8.47,22-9.91.26.17-2.35,1.18-4.92,2.87-.07-.15,6.47-3.63,9.38-3.13-.24.06-5.33,2.39-7.2,4.17-.14-.11,6-2.1,9.81-1.48-9.12,5.13-7.11,1.59-19.34,7.84A156.5,156.5,0,0,0,57.7,59.57Z"/><path class="cls-5" d="M125.31,54.93c-.15.09-6.34-2.56-9.31-3,2.8.13,4.16-.25,5.64.31-2-2.51-3.4-2.3-6-2.88-.29-1.92,3-.18,4.18.24.06-.14-7.43-3.19-12.9-1.95-.12.17,1.72,0,3.26.59a14.34,14.34,0,0,0-5.27,1.38c.13,0,3.09-.64,4.27.13a14.1,14.1,0,0,0-5.55,1.6C114.49,53.14,113.61,51.23,125.31,54.93Z"/><path class="cls-5" d="M166.93,42.32c-.17.09-5.33-5.61-8.22-6.56,2.79.54,4.39.93,5.75,1.81-1.34-3.08-2.65-3.13-5.18-4.2.16-2,2.07,1.43,3.15,2.1.09-.16-6.23-5.77-12.09-5-.16.19,1.8-.08,3.22.81.05-.13-4.3-.59-6,.36a13,13,0,0,1,3.85,2.29c.09-.12-3-1.86-5.22-.65C157.54,32.87,152.86,32.52,166.93,42.32Z"/><path class="cls-5" d="M14.28,31.49c.23,0,3.49-9,6.41-11.64-3,2.15-3.82,2.9-5,4.59.31-4.25.14-4.66,2.6-7.21-1.11-2.3-1.67,2.24-2.64,3.55-.17-.12,5.32-8.65,12.31-11.14.26.11-1.87.53-3.13,2.27-.11-.11,4.14-2.81,6.5-2.77a14.33,14.33,0,0,0-3.43,4.09,10.35,10.35,0,0,1,6.21-2.65C22.13,19,23.71,15.19,14.28,31.49Z"/><path class="cls-5" d="M9.87,30.92c.16,0,.62-7.73,2.23-10.12-1.74,2.06-1.34,3.16-1.89,4.58-.53-3.08-1.13-3.2.17-5.46-1.2-1.44-1,1.7-1.42,2.8.91-3.13,2.43-8.83,6.6-10.82.21,0-.87,1.5-1.46,3-.1-.06,2.47-2.92,4.16-3.31a11.4,11.4,0,0,0-1.85,3.69c-.12,0,2.29-3.7,4.47-4.22C13.7,19.93,14,17.92,9.87,30.92Z"/><path class="cls-1" d="M106.59,74.72c2.73,4.57,4.54-1.55,9.55-.49,5.58,1.19,9.56,1,10.51,3.84,1.71,5-1.19-12.85-12-12.64-8.87.18-7.12-4.7-8.59-.91C104.25,69.36,103.93,70.27,106.59,74.72Z"/><path class="cls-2" d="M106.59,74.72c2.73,4.57,4.54-1.55,9.55-.49,5.58,1.19,9.56,1,10.51,3.84,1.71,5-1.19-12.85-12-12.64-8.87.18-7.12-4.7-8.59-.91C104.25,69.36,103.93,70.27,106.59,74.72Z"/><path class="cls-1" d="M102.24,86.61c1.78-2.85-10.08-.76-11.94.32C95.91,89.52,100.44,89.49,102.24,86.61Z"/></svg>