<svg id="Warstwa_1" data-name="Warstwa 1" xmlns="http://www.w3.org/2000/svg" viewBox="0 0 242 168"><defs><style>.cls-1{fill:#1f1f45;}.cls-2{fill:#86077f;}.cls-3{fill:none;stroke:#1f1f45;stroke-miterlimit:10;stroke-width:1.58px;}.cls-4{fill:#015b55;}.cls-5{fill:#85c72f;}.cls-6{fill:#cae10c;}.cls-7{fill:#fff;}</style></defs><title>Obszar roboczy 1</title><path class="cls-1" d="M81.39,98c-3,1.69-7.43,4.31-9.72,9.16a20.87,20.87,0,0,0-1.42,13.48c.78,3.7,2.84,7.72,5.75,12.35,2.1,3.34,5.13,6.64,8.64,10.5a126.38,126.38,0,0,0,9.54,9.71c3.13,2.79,6.4,6.07,10.3,9.1a36.21,36.21,0,0,0,8.92-10.22,81.73,81.73,0,0,0,5.78-12.19c1.63-4.18,2.4-8.74,3.3-13a48.51,48.51,0,0,0,.9-13.26c-.35-5.07-.9-9.84-3.89-12.68a24.06,24.06,0,0,0-11.36-6.22c-7.33-1.65-6,2-12.43,2.22C88.26,97.15,89.25,93.66,81.39,98Z"/><path class="cls-2" d="M81.16,97.59a22.27,22.27,0,0,0-9.23,9.7c-1.67,3.53-2.2,7.83-1.06,13.22A37.76,37.76,0,0,0,76.05,133a76.8,76.8,0,0,0,8.3,10.79c2.75,3,5.57,6.65,9.33,10,3.13,2.79,6.84,5.94,10.74,9,2.83-2.09,6-6.22,8.75-10.77,2.16-3.58,3.68-7.94,5.38-12.3a80.83,80.83,0,0,0,3.74-12.83c1-4.69,2.2-9.19,1.92-13.28A18,18,0,0,0,119,101.48c-4-3.78-7.61-5.7-10.91-6.44-7.33-1.65-5.9,2.62-12.35,2.57C88.12,97.56,89,93.24,81.16,97.59Z"/><path class="cls-1" d="M95.54,96.33c-.3,2.13.55,7.21,1.56,13.4.67,4.09,1.64,8.65,2.47,13.23s1.42,9.24,2.07,13.29c1.07,6.63,2.17,12,1.61,13.45"/><path class="cls-1" d="M97.22,109.39c-1.06,1.59-7.7,4-8.79,5.87S86,123.39,84,131.58"/><path class="cls-1" d="M55.73,93.4c-3,1.69-7.25,4.42-9.55,9.26-1.67,3.53-2.19,7.89-1,13.29a38.08,38.08,0,0,0,5.26,12.44,75.45,75.45,0,0,0,8.17,10.91,123.09,123.09,0,0,0,9.4,10c3.13,2.79,7,5.47,10.86,8.5a36.28,36.28,0,0,0,9-10.21,83.07,83.07,0,0,0,5.48-12.33A81.52,81.52,0,0,0,97,122.31,49.54,49.54,0,0,0,98.11,109c-.35-5.07-1.48-9.61-4.46-12.44a22.78,22.78,0,0,0-11.3-5.84C75,89.05,76.5,92.32,70.05,92.5,62.61,92.7,63.59,89.05,55.73,93.4Z"/><path class="cls-1" d="M55.29,92.61a23.19,23.19,0,0,0-9,10.09,20.44,20.44,0,0,0-1.61,13.36c.78,3.7,3,7.59,5.93,12.22A76.58,76.58,0,0,0,58.87,139c2.75,3,5.56,6.63,9.32,10,3.13,2.79,6.74,5.69,10.64,8.71,2.83-2.09,5.88-5.84,8.62-10.39a80,80,0,0,0,6.09-12,82.24,82.24,0,0,0,3.79-12.93A48.6,48.6,0,0,0,97.91,109c-.35-5.07-1.32-9.58-4.31-12.42a22.42,22.42,0,0,0-11.3-5.72c-7.33-1.65-5.81,2-12.26,1.76C62.35,92.32,63.15,88.26,55.29,92.61Z"/><path class="cls-1" d="M70.37,91.82c-.3,2.13.25,7.12,1.25,13.3.67,4.09,1.39,8.69,2.21,13.27s1.58,9.21,2.24,13.27c1.07,6.63,1.63,11.79,1.07,13.29"/><path class="cls-1" d="M71.49,104.76c-1.06,1.59-7,4.43-8.14,6.26s-3.36,7.71-5.29,15.9"/><path class="cls-1" d="M140.8,20.65c3.62-2,8.68-2.7,14-1.5a34.27,34.27,0,0,1,12.75,6.34A39.55,39.55,0,0,1,177.08,36a46.08,46.08,0,0,1,5.61,13.05,58.42,58.42,0,0,1,2.26,14.13c-.13-.64-4-5.18-9.79-10.45-3.13-2.82-6.86-6-10.93-9a105.86,105.86,0,0,0-12.12-7.29A57.43,57.43,0,0,0,139,31.25c-4.89-1.26-10-1.69-14.29-.39.47-7.69,4.83-6.64,12.45-9.49a22.06,22.06,0,0,1,15.33.18c4,1.43,7.89,4.58,12.37,9a76.21,76.21,0,0,1,9.5,12"/><path class="cls-1" d="M140.61,20.3a18.38,18.38,0,0,1,8.8-2.18,25.58,25.58,0,0,1,8.94,1.56,37.19,37.19,0,0,1,8,4.19A40.33,40.33,0,0,1,170,26.61a38.48,38.48,0,0,1,3.25,3.19,43.14,43.14,0,0,1,8.89,15.69c1.69,5.77,3.11,11.64,3.2,17.7l0,1.27-.82-1.19s-.11-.21-.21-.34-.2-.29-.31-.43-.45-.57-.69-.85c-.47-.56-1-1.11-1.46-1.66-1-1.09-2-2.15-3.08-3.18-2.11-2.07-4.3-4.05-6.55-6s-4.56-3.77-6.94-5.53a66.12,66.12,0,0,0-7.41-4.79c-1.28-.73-2.59-1.42-3.89-2.13s-2.6-1.43-3.91-2.08a62,62,0,0,0-8.09-3.4,43.77,43.77,0,0,0-8.51-2.06,21.6,21.6,0,0,0-8.63.46l-.64.19.06-.65a11.68,11.68,0,0,1,.93-4,6.09,6.09,0,0,1,3-2.91A24.13,24.13,0,0,1,132,22.6c1.28-.35,2.54-.73,3.79-1.15a32.77,32.77,0,0,1,3.82-1.23,21.61,21.61,0,0,1,4-.54,23.18,23.18,0,0,1,8,1.11,22.72,22.72,0,0,1,7.1,3.81,60.57,60.57,0,0,1,6,5.33,71,71,0,0,1,9.69,12.64,80.56,80.56,0,0,0-10.13-12.19,59.89,59.89,0,0,0-6-5.15,23.1,23.1,0,0,0-6.89-3.62,23.62,23.62,0,0,0-7.7-1.09,20.85,20.85,0,0,0-3.86.48,32.09,32.09,0,0,0-3.76,1.18c-1.27.42-2.55.79-3.83,1.15a23.52,23.52,0,0,0-3.69,1.28A5.13,5.13,0,0,0,126,27.17a10.87,10.87,0,0,0-.77,3.71l-.58-.46a23.77,23.77,0,0,1,9-.78,42.93,42.93,0,0,1,8.84,1.84,55.45,55.45,0,0,1,8.34,3.41c2.67,1.4,5.23,2.83,7.81,4.38a97.27,97.27,0,0,1,14.26,10.81c2.24,2,4.44,4,6.54,6.09,1.05,1.06,2.08,2.14,3.08,3.24.5.56,1,1.12,1.47,1.7.24.29.47.58.7.89.12.15.23.31.34.47a2.31,2.31,0,0,1,.32.63l-.8.09a47.32,47.32,0,0,0-1-8.8,65.74,65.74,0,0,0-2.33-8.57,46.08,46.08,0,0,0-8.94-15.09,38.63,38.63,0,0,0-6.55-5.84A36.18,36.18,0,0,0,158,20.64,23.09,23.09,0,0,0,149.41,19,17.55,17.55,0,0,0,141,21Z"/><path class="cls-2" d="M125.13,30.8c-6.21,1.14-4.4,2-9.65,8A48.93,48.93,0,0,0,108,49c-3.78,7.35,1.63,6.76,7.45,4.11,5.66-2.58,6.2-10.67,12.27-7.26,4.64,2.61.74,8.67,6.78,4.44,3-2.09,3.25-6.61,3.81-10.49s2.05-7.08,8-5.75C148.13,23.56,140.5,29,125.13,30.8Z"/><path class="cls-3" d="M125.13,30.8c-6.21,1.14-4.4,2-9.65,8A48.93,48.93,0,0,0,108,49c-3.78,7.35,1.63,6.76,7.45,4.11,5.66-2.58,6.2-10.67,12.27-7.26,4.64,2.61.74,8.67,6.78,4.44,3-2.09,3.25-6.61,3.81-10.49s2.05-7.08,8-5.75C148.13,23.56,140.5,29,125.13,30.8Z"/><path class="cls-1" d="M129.86,43.28c1.15,7-2.68,4.75-5.08,13.64-1,3.86-1.82,8.6-3,14-.95,4.22-1.79,8.91-2.75,14-.82,4.38-2.05,9-2.83,14-.69,4.48-1.15,8.76-1.77,13.7-2.58.53-3-1-3.59-3.58-1.61-7.25,1.75-6.27,3.1-14.73.71-4.46.72-9.67,1.6-14.8s2.19-10,3.09-14.55c1.23-6.22,2.13-11.61,3.15-14.55C125.74,38.88,128.9,37.36,129.86,43.28Z"/><path class="cls-1" d="M117.41,76.76c.73-6.51.88-6.05,2.09-12.95a103.93,103.93,0,0,1,3.21-12.53c1-.7.32.92.77,2.06"/><path class="cls-3" d="M117.41,76.76c.73-6.51.88-6.05,2.09-12.95a103.93,103.93,0,0,1,3.21-12.53c1-.7.32.92.77,2.06"/><path class="cls-1" d="M94.6,23.78c3.62-2,8.53-2.2,13.86-1a33.17,33.17,0,0,1,12.82,5.87,39.36,39.36,0,0,1,9.64,10.42,46.14,46.14,0,0,1,5.78,13,59.13,59.13,0,0,1,2.14,14.19c-.13-.64-4.4-4.81-10.24-10.07-3.13-2.82-6.45-6.47-10.52-9.47-3.73-2.75-8.29-4.54-12.41-6.79-4.3-2.35-8.36-5.16-12.67-6.28A24.18,24.18,0,0,0,79.47,34c.47-7.69,4-6.34,11.65-9.19a21.36,21.36,0,0,1,15.09.1,35.12,35.12,0,0,1,12.93,8.27c3.12,3.09,5.69,7.54,9,12.5"/><path class="cls-1" d="M94.41,23.43a16.65,16.65,0,0,1,8.85-1.82,34.56,34.56,0,0,1,8.88,1.65A35,35,0,0,1,127.19,33a38,38,0,0,1,5.3,7.34,46.83,46.83,0,0,1,3.69,8.23,63.51,63.51,0,0,1,3.07,17.66l-.8.09s-.11-.18-.21-.3-.22-.27-.34-.4-.49-.53-.74-.79c-.5-.53-1-1-1.55-1.55-1.05-1-2.12-2-3.2-3-2.14-2-4.38-3.91-6.51-6s-4.26-4.05-6.54-5.85A37.56,37.56,0,0,0,112,43.93c-2.62-1.28-5.33-2.51-7.91-4s-5-3-7.65-4.25A23.33,23.33,0,0,0,79.6,34.43l-.64.2L79,34a13,13,0,0,1,.83-4l.21-.48.28-.45a4.84,4.84,0,0,1,.67-.83,6.1,6.1,0,0,1,1.74-1.16,26.67,26.67,0,0,1,3.79-1.24c1.26-.35,2.5-.72,3.72-1.16a21.7,21.7,0,0,1,15.63-.36,34.69,34.69,0,0,1,13.29,8.43A37.68,37.68,0,0,1,124,39c1.43,2.2,2.75,4.46,4.15,6.67l-4.46-6.46a38.51,38.51,0,0,0-5-6,35.49,35.49,0,0,0-13.13-8.06A22.62,22.62,0,0,0,98,23.92a21.65,21.65,0,0,0-7.52,1.53c-1.24.44-2.52.8-3.78,1.16a26.18,26.18,0,0,0-3.66,1.21,4.47,4.47,0,0,0-2.48,2.51,12.22,12.22,0,0,0-.68,3.7l-.58-.46a26,26,0,0,1,8.88-1.25,23.85,23.85,0,0,1,8.79,2c2.75,1.24,5.28,2.78,7.82,4.22s5.17,2.68,7.79,4.08a38.63,38.63,0,0,1,7.48,4.9c2.29,1.91,4.36,4,6.47,6.07s4.31,4,6.45,6c1.07,1,2.14,2,3.19,3.07.52.52,1,1,1.56,1.58.25.27.51.54.76.83s.25.29.37.44a2,2,0,0,1,.36.64l-.8.09a50.79,50.79,0,0,0-.95-8.79A54.57,54.57,0,0,0,135.2,49,45.92,45.92,0,0,0,131.36,41a42.81,42.81,0,0,0-5.2-7,41.24,41.24,0,0,0-6.56-5.78,32.15,32.15,0,0,0-7.79-4,30.79,30.79,0,0,0-8.58-1.75,15.82,15.82,0,0,0-8.42,1.63Z"/><path class="cls-1" d="M79,34.18c-6.21,1.14-4.17,2-9.43,8a48.28,48.28,0,0,0-7.45,10.11c-3.78,7.35,1.23,6.47,7,3.82,5.66-2.58,5.85-9.85,11.93-6.44,4.64,2.61.93,7.68,7,3.45,3-2.09,3.47-6.32,4-10.2s1.49-7.18,7.4-5.86C101.68,26.68,94.33,32.37,79,34.18Z"/><path class="cls-3" d="M79,34.18c-6.21,1.14-4.17,2-9.43,8a48.28,48.28,0,0,0-7.45,10.11c-3.78,7.35,1.23,6.47,7,3.82,5.66-2.58,5.85-9.85,11.93-6.44,4.64,2.61.93,7.68,7,3.45,3-2.09,3.47-6.32,4-10.2s1.49-7.18,7.4-5.86C101.68,26.68,94.33,32.37,79,34.18Z"/><path class="cls-1" d="M83.6,46.37c1.15,7-1.94,4.93-4.33,13.82-1,3.86-2.94,8.31-4.15,13.67-.95,4.22-1.31,9-2.27,14.11C72,92.34,71.33,97,70.56,102c-.69,4.48-1.59,9.43-2.21,14.37-2.58.53-2.53-1.91-3.1-4.48-1.61-7.25,1.26-6.1,2.6-14.56.71-4.46,1.13-9.6,2-14.72S71.3,72.51,72.21,68c1.23-6.22,2.14-11.63,3.16-14.58C79.33,41.9,82.63,40.45,83.6,46.37Z"/><path class="cls-1" d="M71.7,79.89c.73-6.51.88-6,2.09-12.91a110.74,110.74,0,0,1,2.6-12.75c1-.7.76.91,1.21,2"/><path class="cls-3" d="M71.7,79.89c.73-6.51.88-6,2.09-12.91a110.74,110.74,0,0,1,2.6-12.75c1-.7.76.91,1.21,2"/><path class="cls-4" d="M51.69,90.45a24.64,24.64,0,0,0-12.05,7.63A25.34,25.34,0,0,0,34,111.25c-.56,4.06-.15,8.76,1,14.37a74.84,74.84,0,0,0,3.75,14,134.25,134.25,0,0,0,6.48,13c2.13,3.92,4.7,7.86,7.54,12.27,3.44-1.49,7.19-4.7,11.37-8.9a97.15,97.15,0,0,0,9.62-11.14c2.9-4,6.18-7.89,8.43-12.18a61.88,61.88,0,0,0,4.95-13.95c1.39-5.57,1.49-10.6-.45-14.45-2.55-5.05-5.61-7.86-8.52-9.52-6.47-3.7-6.06.1-12.34-1.62C58.57,91.16,60.65,87.89,51.69,90.45Z"/><path class="cls-1" d="M52,91.62A23,23,0,0,0,43.64,97a21.59,21.59,0,0,0-5.45,8.17A26.9,26.9,0,0,0,36.85,110c-.28,1.63-.53,3.51-.7,5.22a34.47,34.47,0,0,0,.34,10.21,66.76,66.76,0,0,0,3.15,10.08c.65,1.69,1.28,3.43,2,5s1.54,3.17,2.39,4.76l2.62,4.82c.88,1.6,1.75,3.35,2.5,5a83.5,83.5,0,0,0,4.81,9.59L51.77,164a28.31,28.31,0,0,0,5.75-3.62,63.57,63.57,0,0,0,5.3-4.67,103.25,103.25,0,0,0,9.6-10.55c2.87-3.66,4.88-8,7.11-12.3s4.67-8.48,6.12-12.87A30.84,30.84,0,0,0,87,113.25a17.83,17.83,0,0,0-.6-6.66,14.54,14.54,0,0,0-1.38-3,22.51,22.51,0,0,0-1.91-2.83A18.84,18.84,0,0,0,78,96.27a13.55,13.55,0,0,0-3-1.38,5.23,5.23,0,0,0-1.39-.23,6.13,6.13,0,0,0-1.42.23c-.54.15-1.17.34-1.86.48a8.78,8.78,0,0,1-2.15.13,13.85,13.85,0,0,1-3.95-.92,17.17,17.17,0,0,1-3.55-1.77A27.78,27.78,0,0,0,57.92,91C56.51,90.36,54.2,90.94,52,91.62Zm-1-3.53a25.56,25.56,0,0,1,3.86-.71,7,7,0,0,1,1.05-.05,6.37,6.37,0,0,1,1.11.06,6.77,6.77,0,0,1,2.28.67,26.82,26.82,0,0,1,3.14,2.25,13.57,13.57,0,0,0,2.88,1.55,10.28,10.28,0,0,0,3.07.79,8.32,8.32,0,0,0,3.12-.48,8.86,8.86,0,0,1,2.15-.3,8,8,0,0,1,2.17.36,16.15,16.15,0,0,1,3.59,1.71A22.37,22.37,0,0,1,85.21,99a25.25,25.25,0,0,1,2.16,3.17c.33.56.61,1.09.9,1.7a13.3,13.3,0,0,1,.73,1.86,21,21,0,0,1,.78,7.69,33.59,33.59,0,0,1-1.39,7.45c-1.55,4.84-4,9.11-6.16,13.38S78,143.11,75,147.12a106.35,106.35,0,0,1-9.8,11,66.91,66.91,0,0,1-5.53,5,31.6,31.6,0,0,1-6.47,4.14l-1.33.6L51,166.58a86.42,86.42,0,0,1-5.31-9.85c-.8-1.65-1.6-3.15-2.52-4.73l-2.76-4.74c-.92-1.6-1.84-3.23-2.67-5s-1.51-3.45-2.22-5.16a67.08,67.08,0,0,1-3.58-10.76,37.16,37.16,0,0,1-.57-11.62c.19-1.92.4-3.68.76-5.64a31.67,31.67,0,0,1,1.62-5.69,24.21,24.21,0,0,1,2.88-5.3,26.33,26.33,0,0,1,4.07-4.36A26.75,26.75,0,0,1,51,88.09Z"/><path class="cls-1" d="M70.17,94.74c-.15-.1-.47.34-.7.75a11.36,11.36,0,0,0-.7,1.52c-.46,1.1-.82,2.3-1.21,3.5-.73,2.41-1.38,4.88-2.07,7.33s-1.24,4.84-1.7,7.29S63,120,62.66,122.51s-.68,5-1.19,7.43-1.09,4.86-1.59,7.29-1.06,4.88-1.65,7.31c-.29,1.22-.6,2.44-1,3.64a11.7,11.7,0,0,1-1.49,3.47,6.82,6.82,0,0,0,.52-1.78c.11-.61.2-1.22.27-1.84l.39-3.71c.23-2.48.43-5,.7-7.45s.59-5,1-7.44.85-4.89,1.25-7.32.81-4.92,1.05-7.41.39-5,.48-7.5c0-1.24,0-2.47.06-3.71s-.06-2.5-.1-3.76l-.19-3.91c0-.69,0-1.37,0-2.16a10.83,10.83,0,0,1,.37-2.82Z"/><path class="cls-1" d="M65.08,109.18a8.31,8.31,0,0,1-.87.55l-.68.29c-.4.13-.8.26-1.15.34-.72.19-1.37.3-2,.42-1.29.21-2.5.41-3.67.64a10.77,10.77,0,0,0-2.85.87,9.36,9.36,0,0,0-1.16,1.17c-.39.45-.78.92-1.16,1.41-1.5,2-2.94,4-4.31,6.08s-2.71,4.18-4,6.33c1.16-2.2,2.25-4.44,3.28-6.71s2-4.55,3.16-6.83c.27-.57.55-1.15.86-1.73a12.19,12.19,0,0,1,1.11-1.78,5.11,5.11,0,0,1,1-.92,10.84,10.84,0,0,1,.95-.64c.61-.36,1.21-.68,1.8-1,1.17-.61,2.33-1.14,3.4-1.72.52-.29,1.06-.57,1.49-.86a3.83,3.83,0,0,0,.56-.42l.13-.17s-.09,0-.12,0Z"/><path class="cls-1" d="M63.45,117.79a9.16,9.16,0,0,0,2.47,2.52,17.47,17.47,0,0,1,3.48,3.27,8.11,8.11,0,0,1,1.15,2.48c.22,1,.2,1.53.32,2.22.2,1.35,1,2.64,1.19,4.11a10.68,10.68,0,0,1,0,2.25,16.18,16.18,0,0,1-.35,2.31c0,.19-.09.39-.15.58l-.15.49c-.09.26-.16.52-.22.79a13.5,13.5,0,0,0-.26,1.7c-.2,2.42-.08,5.23-.35,7.94l-1.68.17c-.41-1.3-.74-2.6-1.08-3.92a29.77,29.77,0,0,1-.76-4.15,12.71,12.71,0,0,1,0-2.31c0-.39.07-.79.14-1.19l0-.29,0-.2.05-.41a11.67,11.67,0,0,0,.07-1.69c0-.58-.1-1.17-.07-1.77a20,20,0,0,0,.25-3.88,11.39,11.39,0,0,0-.41-1.73,3,3,0,0,0-.72-1,9.29,9.29,0,0,0-2.89-1.58,30.16,30.16,0,0,1-4.23-1.92Z"/><path class="cls-1" d="M129.52,81.2a24.82,24.82,0,0,0-12.23,7.56,25.84,25.84,0,0,0-5.57,13.31,42.67,42.67,0,0,0,.44,14.53c.84,4.15,2.8,8.6,4.87,13.71a126.92,126.92,0,0,0,6.1,13.17c2.13,3.92,4.71,7.79,7.56,12.2,3.44-1.49,7.25-4.52,11.42-8.72a97,97,0,0,0,9.73-11.09,103,103,0,0,0,8.24-12.31,63.61,63.61,0,0,0,5.41-13.84c1.39-5.57,1.31-10.87-.63-14.71-2.55-5.05-5.55-8.33-8.45-10-6.47-3.7-6.54,1.18-12.8-.58C136.3,82.36,138.47,78.63,129.52,81.2Z"/><path class="cls-1" d="M129.48,81.06a25.3,25.3,0,0,0-11.67,8.12c-2.68,3.19-5.47,7.15-6.25,12.86a43.31,43.31,0,0,0,.6,14.56c.84,4.15,3,8.54,5,13.65a124.74,124.74,0,0,0,6,13.22c2.13,3.92,4.41,8.4,7.26,12.8,3.44-1.49,7.28-5.35,11.46-9.56a97.26,97.26,0,0,0,9.5-11.19c2.9-4,6.34-7.76,8.59-12a62.78,62.78,0,0,0,5.25-13.84c1.39-5.57,1.25-10.63-.7-14.47-2.55-5.05-5.43-8.11-8.34-9.77-6.47-3.7-6.36.93-12.6-.9C136.25,82.36,138.43,78.5,129.48,81.06Z"/><path class="cls-1" d="M143.71,83.64c-1,2.19-1.5,7.85-2.57,14.67-.71,4.53-1.36,9.64-2.08,14.73s-1.67,10.21-2.38,14.7c-1.16,7.32-2.15,13.2-3.19,14.65"/><path class="cls-1" d="M140.48,97.35c-1.53,1.41-7.86,3.26-9.51,4.92s-5.27,7.69-9.82,15.89"/><path class="cls-1" d="M139.2,111c2.79,2.46,6.47,3.24,7.12,7.13s2.15,7.17,1.41,10.14-.75,5.54-.2,11.1"/><path class="cls-4" d="M208.36,5.61a17.77,17.77,0,0,1,12.86,1.18A26.28,26.28,0,0,1,231,15.45a35.23,35.23,0,0,1,5.23,12,48,48,0,0,1,1.58,13.07,69.31,69.31,0,0,1-2,13.05c0-.65-2.76-5.64-7.73-12.35-2.65-3.59-6-7.47-9.54-11.47-3.26-3.66-6.37-7.75-10.09-11a64.67,64.67,0,0,0-12.48-8.15C191.23,8,186.9,6.37,182.28,6.72,184.06.06,187.33,2.9,195,2.43c4-.25,8.53.89,13.32,3.11A34.1,34.1,0,0,1,219,13.93a55,55,0,0,1,8.13,11,89.72,89.72,0,0,1,6.12,12.38"/><path class="cls-1" d="M208,4.46a19,19,0,0,1,8.76-.5,22.44,22.44,0,0,1,8.13,3.27A30.8,30.8,0,0,1,231.43,13a29.75,29.75,0,0,1,4.68,7.39,42.56,42.56,0,0,1,3.47,16.75,48.63,48.63,0,0,1-.76,8.52c-.49,2.78-1.1,5.49-1.75,8.18l-2.4-.29a.32.32,0,0,0,0,.15c0,.07,0,0,0,0a1.58,1.58,0,0,0-.07-.18c-.06-.14-.13-.3-.21-.46-.15-.32-.33-.65-.51-1-.36-.65-.74-1.3-1.13-2-.78-1.3-1.63-2.56-2.49-3.82-1.74-2.51-3.53-5-5.48-7.31s-4-4.62-6.07-6.88-4.22-4.59-6.32-6.76a54.59,54.59,0,0,0-6.59-5.94,79.28,79.28,0,0,0-7.42-4.85l-3.93-2.26c-1.3-.72-2.6-1.43-3.91-2a18.71,18.71,0,0,0-8.13-2l-2.38,0,.73-2,.41-1.14c.16-.38.36-.77.54-1.15a6.07,6.07,0,0,1,1.86-2.18A5.69,5.69,0,0,1,186.29,1a16.77,16.77,0,0,1,2.38.06c1.49.14,2.9.26,4.32.28.71,0,1.39,0,2.13,0a20.68,20.68,0,0,1,2.33,0,31,31,0,0,1,8.87,2,35.41,35.41,0,0,1,4.16,1.86,28.15,28.15,0,0,1,3.84,2.51A44.11,44.11,0,0,1,220.73,14,54.7,54.7,0,0,1,226,21.19a42.8,42.8,0,0,1,2.12,3.93c.64,1.31,1.31,2.62,1.93,4a50.57,50.57,0,0,1,3.15,8.24A74.94,74.94,0,0,0,229,29.65l-2.3-3.73c-.76-1.26-1.51-2.45-2.34-3.62a63.36,63.36,0,0,0-5.5-6.62,52.56,52.56,0,0,0-6.18-5.87,28.08,28.08,0,0,0-3.45-2.36,33.26,33.26,0,0,0-3.81-1.81,26.69,26.69,0,0,0-8.12-2.05,18.39,18.39,0,0,0-2.06,0c-.72,0-1.51.09-2.26.08-1.51,0-3-.1-4.45-.14a14.5,14.5,0,0,0-2,0,2.72,2.72,0,0,0-1.37.53,3.39,3.39,0,0,0-.84,1.22c-.09.3-.2.57-.29.88l-.23,1-1.65-2a21.77,21.77,0,0,1,9.9,1.28,37,37,0,0,1,4.47,1.87c1.43.68,2.79,1.4,4.18,2.17a47.39,47.39,0,0,1,7.93,5.4,48.12,48.12,0,0,1,6.53,7c1.94,2.48,3.76,4.86,5.78,7.22s4,4.75,5.88,7.22,3.74,5,5.46,7.58c.87,1.29,1.7,2.61,2.52,3.94.41.67.81,1.34,1.2,2,.19.35.38.7.57,1.07.09.18.18.38.27.59a3.75,3.75,0,0,1,.14.36,1.69,1.69,0,0,1,.07.25,2.7,2.7,0,0,1,.05.44l-2.4-.29c1.09-5.37,2-10.74,1.32-16a56.71,56.71,0,0,0-1.41-7.8A55,55,0,0,0,232.31,22a29.42,29.42,0,0,0-3.67-6.79,24.57,24.57,0,0,0-5.4-5.56,16.74,16.74,0,0,0-14.53-2.91Z"/><path class="cls-2" d="M181.92,6.13c-6.31.2-4.87,1.22-11.3,5.95a54.2,54.2,0,0,0-8.81,9c-5.28,6.36-.47,6.32,5.78,5,6.08-1.3,8.16-8.65,13.35-4,4,3.55-.93,8.34,5.88,5.52,4-1.65,5.52-4.88,8.69-7.31,2.26-1.73,5.92-2.78,11.45-2.52,2.38-6.39-4.7-4.16-12-7.39C191.35,8.74,187,6.64,181.92,6.13Z"/><path class="cls-3" d="M181.92,6.13c-6.31.2-4.87,1.22-11.3,5.95a54.2,54.2,0,0,0-8.81,9c-5.28,6.36-.47,6.32,5.78,5,6.08-1.3,8.16-8.65,13.35-4,4,3.55-.93,8.34,5.88,5.52,4-1.65,5.52-4.88,8.69-7.31,2.26-1.73,5.92-2.78,11.45-2.52,2.38-6.39-4.7-4.16-12-7.39C191.35,8.74,187,6.64,181.92,6.13Z"/><path class="cls-1" d="M182.92,19.7c-.4,7.12-1.95,4.51-6.2,12.66-1.85,3.54-4.74,7.44-7.08,12.41-1.84,3.91-3.45,8.42-5.49,13.19-1.75,4.1-3.56,8.5-5.4,13.21-1.65,4.22-3.28,8.34-4.95,13-2.63,0-1.78-1.78-1.78-4.4,0-7.43,1.37-6,4.51-14,1.66-4.2,3.57-9,5.54-13.79s4.26-9.3,6.12-13.55c2.55-5.8,4.52-10.92,6.15-13.57C180.71,14.52,183.25,13.71,182.92,19.7Z"/><path class="cls-5" d="M69,15.25c-2.19-1.51-8.44-.94-15.9,1.81a51.76,51.76,0,0,0-14.3,7.58c-3.92,3.06-7.36,7.27-10.85,12-.56.75,0,1.55.91,1.18,2.73-1.17,7.61-2.8,13.5-4.84,4.13-1.43,8.78-2.93,13.64-4.38,4.53-1.35,9.16-2.93,13.77-4a138,138,0,0,1,14.06-2.95,34.7,34.7,0,0,1,14,.77c-.88-6.89-3.63-4.47-11.66-6.72A36.5,36.5,0,0,0,72.42,15,51.52,51.52,0,0,0,59,18.15a78,78,0,0,0-12.64,5.78"/><path class="cls-1" d="M68.29,16.24a6.09,6.09,0,0,0-3-.57,21.93,21.93,0,0,0-3.59.39,37.23,37.23,0,0,0-7.11,2.08,59.47,59.47,0,0,0-13,7A64,64,0,0,0,30.92,35.27l-1.21,1.46-.6.74c-.08.09.1-.14-.05-.47a.74.74,0,0,0-.37-.38.55.55,0,0,0-.33,0l.13,0,.46-.18,1.84-.66L38,33.21l3.61-1.28,3.64-1.21c2.44-.79,4.85-1.67,7.27-2.49s4.83-1.63,7.23-2.51,4.81-1.8,7.31-2.6S72,21.67,74.55,21a63.25,63.25,0,0,1,7.71-1.45,37,37,0,0,1,15.92,1.51l-1.8,1.52a8.57,8.57,0,0,0-.64-2.95,1.94,1.94,0,0,0-.73-.85,4,4,0,0,0-1.28-.48c-1-.23-2.24-.37-3.42-.56s-2.39-.42-3.58-.7L85,16.65c-.55-.12-1.1-.23-1.66-.31A30.62,30.62,0,0,0,80,16a51.33,51.33,0,0,0-6.87.26A59.84,59.84,0,0,0,59.57,19a111.3,111.3,0,0,0-13.21,5,61.11,61.11,0,0,1,12.52-6.77,46.54,46.54,0,0,1,14-3.52,42.47,42.47,0,0,1,7.27-.14,32.28,32.28,0,0,1,3.65.45c.61.11,1.21.25,1.81.4l1.72.47a29.16,29.16,0,0,0,3.36.69c1.14.2,2.29.26,3.57.52a6.68,6.68,0,0,1,2,.72,4.6,4.6,0,0,1,1,.73,5,5,0,0,1,.71.95,12.37,12.37,0,0,1,1.22,3.84l.42,2.06-2.22-.54a26.27,26.27,0,0,0-7.19-.58,52.1,52.1,0,0,0-7.25.88c-2.4.45-4.83,1-7.3,1.57s-5,1.06-7.45,1.52-4.92,1.08-7.39,1.73-5,1.32-7.38,2.06c-4.88,1.44-9.75,2.87-14.58,4.55-2.4.85-4.83,1.65-7.16,2.61l-1.73.72-.42.19a3,3,0,0,1-.78.25,2.2,2.2,0,0,1-1.26-.17,2,2,0,0,1-1-1.06,2.36,2.36,0,0,1,.33-2.25l.54-.8,1.1-1.6a66.22,66.22,0,0,1,4.73-6.27,31,31,0,0,1,6-5.36c4.42-3.09,9.46-4.92,14.41-6.47a53.46,53.46,0,0,1,7.69-1.79,24.39,24.39,0,0,1,4-.27,8.36,8.36,0,0,1,4.36,1.05Z"/><path class="cls-2" d="M98.5,23.41c7.41,1.9,2.91.81,7.74,12.69,4.61,11.33-4.79,1.67-14.57-1.92-3.75-1.38-.86,6.35-5.39,3.17S81,22,72.18,24c-6.25,2.19,5.91-1.28,13.17-1.66C89.61,22.11,94.24,22.91,98.5,23.41Z"/><path class="cls-3" d="M98.5,23.41c7.41,1.9,2.91.81,7.74,12.69,4.61,11.33-4.79,1.67-14.57-1.92-3.75-1.38-.86,6.35-5.39,3.17S81,22,72.18,24c-6.25,2.19,5.91-1.28,13.17-1.66C89.61,22.11,94.24,22.91,98.5,23.41Z"/><path class="cls-1" d="M90,31.7c-.9,6.64,1.29,4.77,3.14,13.18.81,3.67,2.45,7.92,3.38,13,.73,4,1,8.5,1.7,13.3.63,4.15,1.52,8.56,2.1,13.26,2.41.71,3.35-1,4-3.39,1.93-7.18-.84-6.72-2.17-14.86-.76-4.67-2.62-9.7-3.52-14.48-1.16-6.21-1.77-11.84-2.73-14.61C92.89,28.46,90.57,27.23,90,31.7Z"/><path class="cls-6" d="M95.85,37.35c-.43-.81-.89.93-.73,1.83,1.66,8.91-.77,9.94,4,17.64C104.32,65.24,98.07,44.53,95.85,37.35Z"/><path class="cls-4" d="M44.81,32.67c-3.62-2-8.79-2.58-14.11-1.39-4.24.95-8.52,3.39-12.65,6.51A39.26,39.26,0,0,0,8.15,48,46.8,46.8,0,0,0,2.52,61.17c-1.11,4.25-1.09,9-1.17,14.2.13-.64,3.3-5,9.14-10.29,3.13-2.82,7.06-5.7,11.13-8.7,3.73-2.75,7.45-5.91,11.56-8.16,4.3-2.35,9-3.5,13.34-4.61,4.89-1.26,9.24-1.83,13.54-.52-.47-7.69-4.17-6.55-11.79-9.4-4.2-1.57-9.4-1.72-15.17.37a35,35,0,0,0-12.91,8.27c-3.12,3.09-5.84,7.43-9.14,12.39"/><path class="cls-1" d="M44.22,33.72A16,16,0,0,0,36.17,32,21.26,21.26,0,0,0,28,33.74a35.34,35.34,0,0,0-7.28,4.48,68,68,0,0,0-6.49,5.67,40,40,0,0,0-5.25,6.58A44.55,44.55,0,0,0,5,58.16a42.81,42.81,0,0,0-1.37,4.12,32.71,32.71,0,0,0-.74,4.25c-.3,2.9-.3,5.88-.34,8.87l-2.4-.26a3.11,3.11,0,0,1,.38-.87c.11-.19.22-.36.33-.52.22-.33.44-.64.67-.95.45-.61.92-1.2,1.4-1.77,1-1.15,2-2.25,3-3.32a76.62,76.62,0,0,1,6.46-6.13c2.27-1.9,4.57-3.73,6.84-5.57s4.41-3.72,6.73-5.61a39,39,0,0,1,7.67-5,42.3,42.3,0,0,1,8.67-2.91c1.46-.34,2.87-.61,4.34-.91a41.9,41.9,0,0,1,4.52-.67,22.5,22.5,0,0,1,9.3,1l-1.72,1.36a11.15,11.15,0,0,0-.56-3.45,3.87,3.87,0,0,0-2.06-2.21,20.77,20.77,0,0,0-3.52-1.23c-1.26-.37-2.55-.73-3.83-1.17l-1-.32c-.29-.09-.58-.2-.88-.28a16.71,16.71,0,0,0-1.79-.43,18.94,18.94,0,0,0-3.68-.3,24.55,24.55,0,0,0-7.31,1.32,36.41,36.41,0,0,0-13,7.67A45,45,0,0,0,15.9,48.5c-1.63,2-3.2,4.16-4.86,6.22,2.58-4.59,5-9.32,8.73-13.31A33.8,33.8,0,0,1,33.3,32.59a24.26,24.26,0,0,1,8.15-1.36,21.23,21.23,0,0,1,4.16.45,19.13,19.13,0,0,1,2,.54c.33.1.66.23,1,.35l.9.33c1.2.44,2.43.83,3.69,1.18a27.3,27.3,0,0,1,3.92,1.36,9.15,9.15,0,0,1,1,.57,7.67,7.67,0,0,1,.93.77,5.53,5.53,0,0,1,.76,1l.33.51.25.53a14.26,14.26,0,0,1,1,4.24l.22,1.86-1.94-.5a17.65,17.65,0,0,0-8,0c-1.35.27-2.7.63-4.05,1l-4.13,1.29a59.19,59.19,0,0,0-7.8,2.92,57.05,57.05,0,0,0-7.13,4.25c-2.36,1.59-4.81,3.32-7.25,4.92s-4.81,3.27-7.07,5a69.72,69.72,0,0,0-6.45,5.66c-1,1-2,2.07-2.91,3.14-.46.54-.92,1.09-1.34,1.64-.21.28-.42.56-.61.83s-.18.27-.26.4-.14.31-.1.11l-2.4-.26c.06-3,.07-6,.29-9.06A35.28,35.28,0,0,1,1,61.68c.33-1.55.69-3,1.13-4.5a48.07,48.07,0,0,1,3.42-8.65,29.79,29.79,0,0,1,2.49-4,32.26,32.26,0,0,1,3.13-3.58,45.37,45.37,0,0,1,7.3-5.78,41.13,41.13,0,0,1,8.35-4.25,27.15,27.15,0,0,1,9.33-1.53,21.48,21.48,0,0,1,4.72.57,17.17,17.17,0,0,1,4.52,1.71Z"/><path class="cls-2" d="M60.3,43.45c6.21,1.14,4.41,1.62,9.67,7.63a52.87,52.87,0,0,1,6.7,10.57c3.78,7.35-.93,6.72-6.75,4.07-5.66-2.58-5.68-10.51-11.76-7.1-4.64,2.61-1.17,8.26-7.22,4-3-2.09-3.06-6.78-3.62-10.66s-1.86-7.1-7.78-5.78C37.15,35.92,44.93,41.64,60.3,43.45Z"/><path class="cls-3" d="M60.3,43.45c6.21,1.14,4.41,1.62,9.67,7.63a52.87,52.87,0,0,1,6.7,10.57c3.78,7.35-.93,6.72-6.75,4.07-5.66-2.58-5.68-10.51-11.76-7.1-4.64,2.61-1.17,8.26-7.22,4-3-2.09-3.06-6.78-3.62-10.66s-1.86-7.1-7.78-5.78C37.15,35.92,44.93,41.64,60.3,43.45Z"/><path class="cls-1" d="M55.68,55.47c-1.15,7,1.78,5,4.18,13.87,1,3.86,2.89,8.32,4.1,13.67.95,4.22,2,8.88,2.95,14,.82,4.38,1.3,9.13,2.07,14.12.69,4.48,1.43,9.09,2,14,2.58.53,3.13-1.39,3.7-4,1.61-7.25-1.78-6.27-3.13-14.74-.71-4.46-.77-9.66-1.65-14.79s-2.06-10-3-14.57a126.37,126.37,0,0,0-3.52-14.43C59.48,51.18,56.65,49.55,55.68,55.47Z"/><path class="cls-7" d="M62.76,63.53c-1-.7-.87.78-.7,2,.83,6,1.92,5.74,3.34,11.61s-.27,6.39,1.89,12C69.62,95.28,67.22,82.89,66,76A102.63,102.63,0,0,0,62.76,63.53Z"/><path class="cls-4" d="M162.52,45.26A23.47,23.47,0,0,0,153.28,70a40.86,40.86,0,0,0,5.05,12.93,74.59,74.59,0,0,0,8.13,11.34c2.76,3.13,6.77,5.66,10.56,9.09,3.16,2.86,6.32,6.45,10.28,9.52,2.63-2.44,5.33-6.81,7.77-11.93a92.69,92.69,0,0,0,5.39-13.08A98.45,98.45,0,0,0,203.71,74c.73-5,.15-9.85-.25-14.13-.51-5.46-2.09-9.71-5.06-12.57-3.9-3.75-7.22-5.62-10.37-6.2-7-1.28-5.4,2.19-11.62,2.44C169.06,43.88,169.78,40.11,162.52,45.26Z"/><path class="cls-1" d="M164.24,47.7a24.9,24.9,0,0,0-6.85,6.51,14.33,14.33,0,0,0-2.28,8.85,25.53,25.53,0,0,0,2.45,9.27,45.64,45.64,0,0,0,5,8.07c1.73,2.28,3.93,4.66,6.15,7.27,1.11,1.3,2.23,2.66,3.3,4.09s2,2.8,3,4.17a65.07,65.07,0,0,0,6.25,7.83,71.54,71.54,0,0,0,7.5,7.05l-2.88.13a24.68,24.68,0,0,0,3.57-4.11,41,41,0,0,0,3-4.86,67.1,67.1,0,0,0,4.44-10.68c.63-1.86,1.15-3.7,1.71-5.63s1.12-3.79,1.6-5.67a54.24,54.24,0,0,0,1.18-5.59,48.27,48.27,0,0,0,.48-5.65c.05-1.9,0-3.81-.09-5.72s-.31-3.83-.59-5.64c-.61-3.64-1.75-7.13-4.07-9.23a16.31,16.31,0,0,0-4.28-2.93,22.61,22.61,0,0,0-5.12-1.62,15.76,15.76,0,0,0-2.55-.34,5.26,5.26,0,0,0-1,.06,3.39,3.39,0,0,0-.92.27,26.32,26.32,0,0,1-2.86,1.32,12.69,12.69,0,0,1-3.39.64h0a4.7,4.7,0,1,0,0,.49h-.1l-.13,0-.26,0-.51,0c-.34,0-.68,0-1,0a17.42,17.42,0,0,1-2.1-.11c-1.39-.15-2.82-.6-3.5-.64a2.56,2.56,0,0,0-1,.09A6.69,6.69,0,0,0,167,46,24.28,24.28,0,0,0,164.24,47.7Zm-2.71-3.83a28.52,28.52,0,0,1,3.39-2.1,11.19,11.19,0,0,1,2.14-.84,7.3,7.3,0,0,1,2.6-.23,15.56,15.56,0,0,1,2.09.37c.57.13,1.06.21,1.56.28a12.75,12.75,0,0,0,1.52.08c.25,0,.52,0,.79,0l.4,0h.37c.1,1,0,.27.05.49h0a10.11,10.11,0,0,0,2.4-.64,27.08,27.08,0,0,0,2.44-1.35,7.44,7.44,0,0,1,1.88-.7,9.38,9.38,0,0,1,1.9-.21,19.74,19.74,0,0,1,3.36.29A24.45,24.45,0,0,1,194.68,41a21.05,21.05,0,0,1,5.57,3.65,13.67,13.67,0,0,1,1.25,1.25,14.64,14.64,0,0,1,1.09,1.42,16.16,16.16,0,0,1,1.61,3,28.61,28.61,0,0,1,1.7,6.26,52.12,52.12,0,0,1,.58,6.18,60.5,60.5,0,0,1,0,6.17,52.78,52.78,0,0,1-.72,6.18,58.56,58.56,0,0,1-1.46,6c-.57,1.95-1.19,3.85-1.79,5.73s-1.21,3.81-1.86,5.71-1.36,3.81-2.13,5.68-1.6,3.76-2.52,5.58a39.78,39.78,0,0,1-7.11,10.37l-1.31,1.29L186,114.32c-2.81-2.08-5.7-4.08-8.64-6.08-1.46-1-2.92-2-4.43-3.13s-2.9-2.3-4.26-3.5-2.63-2.45-3.84-3.66-2.39-2.42-3.58-3.72a41.19,41.19,0,0,1-6.62-9.12,39.08,39.08,0,0,1-3.4-10.92,51.06,51.06,0,0,1-.6-5.59,42.33,42.33,0,0,1,0-5.63A24.81,24.81,0,0,1,153.85,52,26.07,26.07,0,0,1,161.53,43.87Z"/><path class="cls-1" d="M181.27,43.65a3.76,3.76,0,0,0-.15,1c0,.47,0,1,0,1.55,0,1.09.09,2.23.16,3.39.16,2.31.38,4.68.59,7,.44,5,.36,9.67.86,14.25.55,4.73,1.08,9.46,1.68,14.17.25,2.36.51,4.73.72,7.1.1,1.19.19,2.38.25,3.57a12,12,0,0,1-.19,3.56,11.86,11.86,0,0,0-.27-3.51c-.2-1.16-.47-2.32-.74-3.47-.55-2.3-1.15-4.6-1.75-6.89-1.25-4.58-2.57-9.14-3.87-13.7-1.37-4.72-2.14-9.53-3.38-13.85-.64-2.29-1.29-4.59-1.91-6.94-.31-1.18-.6-2.38-.88-3.64-.14-.64-.27-1.28-.38-2a14,14,0,0,1-.19-2.5Z"/><path class="cls-1" d="M180.5,58.1c-.16.27-.35.56-.52.78l-.45.53a11.08,11.08,0,0,1-.82.79c-.53.47-1,.85-1.51,1.24-1,.76-1.92,1.43-2.79,2.1-.44.33-.84.65-1.2,1-.16.14-.33.29-.42.39l-.08.07,0,0s-.05,0-.08.09a5.8,5.8,0,0,0-.5,1.23c-.16.51-.32,1.05-.46,1.61-.61,2.22-1.13,4.56-1.8,6.86a46.21,46.21,0,0,1-2.49,6.81c-.26-2.44-.32-4.83-.34-7.21s.07-4.74.22-7.19c0-.61.1-1.23.18-1.88a11,11,0,0,1,.46-2.18,5.64,5.64,0,0,1,.69-1.35,11.62,11.62,0,0,1,.72-1c.46-.55.92-1,1.37-1.49.9-.9,1.78-1.72,2.62-2.49.4-.38.81-.77,1.14-1.12.18-.18.29-.34.43-.48l.12-.15s0,0,0,0Z"/><path class="cls-1" d="M181.89,66.86a8,8,0,0,0,2.93,1.5c.63.23,1.32.44,2,.76A9.12,9.12,0,0,1,189,70.4a7,7,0,0,1,1.66,2c.23.4.33.64.46.91a8.9,8.9,0,0,0,.43.79c.62,1,1.84,1.74,2.64,2.86a9.13,9.13,0,0,1,1,1.95,10.57,10.57,0,0,1,.63,2.33c.12,1,.06,1.3.13,1.85a13.24,13.24,0,0,0,.29,1.58c.58,2.21,1.54,4.67,2.12,7.18l-1.53.72c-.78-1-1.49-2.06-2.21-3.12a28.28,28.28,0,0,1-2-3.44,12.19,12.19,0,0,1-.77-2c-.21-.68-.35-1.63-.44-1.89a13.43,13.43,0,0,0-1.31-2.67,30.31,30.31,0,0,0-1.4-3.54c-.17-.28-.36-.55-.54-.83a8.15,8.15,0,0,0-.49-.72,2.2,2.2,0,0,0-.89-.76,6.78,6.78,0,0,0-2.85-.48,27.65,27.65,0,0,1-4.4-.35Z"/><path class="cls-5" d="M162.67,64.59c4-1.21,8.55-.34,12.9,1.73,3.64,1.74,7.66,4.11,10.49,8.08,2.34,3.27,3.83,7.6,5,12.34a49.7,49.7,0,0,1,1.05,13.17,66.21,66.21,0,0,1-1.1,13.24c0-.65-3.26-6-8.23-12.71-2.65-3.59-5.93-7.55-9.49-11.55a122.07,122.07,0,0,0-10.59-10.53c-3.92-3.44-7.87-6.72-12-8.92A26.46,26.46,0,0,0,136.4,66c1.77-6.66,5.35-3.94,13-4.41A28.57,28.57,0,0,1,163,64.49a34.74,34.74,0,0,1,11,8.31,59,59,0,0,1,7.62,11.49,90.4,90.4,0,0,1,6,12.42"/><path class="cls-1" d="M162.44,63.83a16.67,16.67,0,0,1,8.67,0A33.08,33.08,0,0,1,179,67a26.28,26.28,0,0,1,6.88,5.26,24.49,24.49,0,0,1,4.47,7.49c.52,1.34,1,2.69,1.38,4.05a36.8,36.8,0,0,1,1.6,12.7c0,1.41-.1,2.82-.18,4.2s-.12,2.78-.21,4.18a50.9,50.9,0,0,1-1.12,8.4l-1.59-.19c0,.05,0,.12,0,0a2.15,2.15,0,0,0-.09-.21c-.07-.16-.15-.32-.24-.48-.17-.33-.36-.66-.56-1-.38-.66-.8-1.32-1.21-2-.83-1.31-1.71-2.59-2.59-3.87-1.79-2.54-3.61-5.07-5.56-7.48A137.82,137.82,0,0,0,167.41,84.4c-2.27-2.11-4.59-4.13-7-6.09s-4.78-3.91-7.27-5.61a36.38,36.38,0,0,0-7.93-4.16,23.1,23.1,0,0,0-8.73-1.48l-1.56.05.47-1.36.39-1.13c.15-.37.34-.75.51-1.12a5.66,5.66,0,0,1,1.73-2,5.42,5.42,0,0,1,2.49-.84,15.47,15.47,0,0,1,2.35,0c1.5.1,3,.21,4.4.22.73,0,1.44,0,2.17,0s1.53,0,2.29,0a30.72,30.72,0,0,1,8.9,1.81,32.2,32.2,0,0,1,8,4.21,38.33,38.33,0,0,1,6.6,6.19,52.69,52.69,0,0,1,5,7.5c.73,1.29,1.42,2.62,2.08,3.94l2,4a55.52,55.52,0,0,1,3.34,8.25c-2.34-5.43-5.56-10.42-8.53-15.5A51.28,51.28,0,0,0,174,74.11a37.63,37.63,0,0,0-6.37-5.84,31.34,31.34,0,0,0-7.57-4.1,27.23,27.23,0,0,0-8.4-1.82q-1.07,0-2.14,0c-.75,0-1.51.08-2.27.06-1.51,0-3-.12-4.46-.15s-2.87,0-3.72.68A3.84,3.84,0,0,0,138,64.36c-.11.31-.24.61-.34.93l-.27,1L136.32,65a25,25,0,0,1,9.74,1,32.11,32.11,0,0,1,8.81,4.17A63.5,63.5,0,0,1,162.36,76c2.33,2.11,4.62,4.32,6.77,6.62s4.27,4.66,6.27,7.07,4,4.82,5.93,7.32,3.75,5,5.53,7.63c.89,1.3,1.75,2.61,2.6,3.93.42.67.84,1.33,1.25,2,.2.34.4.69.59,1.05.1.18.19.37.28.56s.09.21.14.33a1.78,1.78,0,0,1,.13.57l-1.59-.19a43.24,43.24,0,0,0,.82-8.13c0-2.74,0-5.56-.1-8.28a53,53,0,0,0-.9-8,65.43,65.43,0,0,0-2.25-7.77,23.84,23.84,0,0,0-3.72-6.93,22.64,22.64,0,0,0-6.06-5.11,28.74,28.74,0,0,0-7.37-3.27,14.34,14.34,0,0,0-7.79-.1Z"/><path class="cls-1" d="M136.35,65.65c-6.31.2-4.78,1.19-11.21,5.92-2.81,2.07-5.52,5.23-8.69,9-5.28,6.36-.55,6.76,5.7,5.43,6.08-1.3,8.22-9.49,13.42-4.85,4,3.55-.87,9.18,5.94,6.35,4-1.65,5.58-5.08,8.75-7.5,2.26-1.73,5.07-3.4,10.59-3.14,2.38-6.39-3.93-4.48-11.23-7.72A43.9,43.9,0,0,0,136.35,65.65Z"/><path class="cls-3" d="M136.35,65.65c-6.31.2-4.78,1.19-11.21,5.92-2.81,2.07-5.52,5.23-8.69,9-5.28,6.36-.55,6.76,5.7,5.43,6.08-1.3,8.22-9.49,13.42-4.85,4,3.55-.87,9.18,5.94,6.35,4-1.65,5.58-5.08,8.75-7.5,2.26-1.73,5.07-3.4,10.59-3.14,2.38-6.39-3.93-4.48-11.23-7.72A43.9,43.9,0,0,0,136.35,65.65Z"/><path class="cls-1" d="M138,79.11c-.4,7.12-2.7,4.43-7,12.59-1.85,3.54-4.69,7.47-7,12.44-1.84,3.91-3.61,8.35-5.65,13.12-1.75,4.1-3.07,8.7-4.9,13.41-1.65,4.22-3.61,8.67-5.27,13.36-2.63,0-2-2.23-2-4.86,0-7.43,2.31-5.75,5.46-13.72,1.66-4.2,3.59-9,5.56-13.77s3.52-9.61,5.38-13.85a103.51,103.51,0,0,1,7-13C136,74.43,138.36,73.12,138,79.11Z"/><path class="cls-4" d="M121.43,87.12a24.82,24.82,0,0,0-5.8,12.88,24.48,24.48,0,0,0,1.62,14.08,43,43,0,0,0,8.2,11.86,76.18,76.18,0,0,0,10.64,9.86,129.83,129.83,0,0,0,12.17,7.93c3.86,2.23,8.29,4.27,13,6.54A41.06,41.06,0,0,0,167,136.64c1.05-4.45,1-9.57,1.38-14.7a101.63,101.63,0,0,0,.53-14.7c-.35-5.24-.83-10.31-2.19-14.59-1.72-5.46-4.38-10-8-12.28a21.72,21.72,0,0,0-12.41-3.46c-7.44.23-5.07,3.49-11.31,5.27C127.7,84.26,127.71,80.27,121.43,87.12Z"/><path class="cls-1" d="M123.24,88.79A21.34,21.34,0,0,0,120.63,93a19.87,19.87,0,0,0-1.42,4.52,34,34,0,0,0-.18,9.2,23.56,23.56,0,0,0,1,4.4,18.33,18.33,0,0,0,1.83,4A69,69,0,0,0,128,123.3a59.08,59.08,0,0,0,7.39,7.29c1.35,1.14,2.71,2.21,4.17,3.37s2.82,2.27,4.22,3.34a64.93,64.93,0,0,0,8.78,5.78c3.1,1.72,6.36,3.28,9.61,4.91l-2.79.73a37.17,37.17,0,0,0,5.5-12.23c1.11-4.32,1.25-9,1.63-13.83a95.41,95.41,0,0,0,.14-14,66.56,66.56,0,0,0-2-13.69,47.28,47.28,0,0,0-2.27-6.43A17.24,17.24,0,0,0,159,83.25a8.13,8.13,0,0,0-1.12-.92,14.45,14.45,0,0,0-1.35-.82,18.17,18.17,0,0,0-2.94-1.31,19.41,19.41,0,0,0-6.41-1,18.38,18.38,0,0,0-3.2.23,5.31,5.31,0,0,0-1.29.38,3.66,3.66,0,0,0-1,.69,16,16,0,0,1-3,2.48,15,15,0,0,1-3.8,1.47,16.51,16.51,0,0,1-4,.58,26.22,26.22,0,0,0-3.28.06C126.25,85.35,124.64,87.06,123.24,88.79Zm-3.46-3.17a28.93,28.93,0,0,1,3-2.56,10.21,10.21,0,0,1,.87-.6,7.6,7.6,0,0,1,1-.56,7.28,7.28,0,0,1,2.33-.73,27.71,27.71,0,0,1,3.86.07,12.08,12.08,0,0,0,3.09-.39,10.57,10.57,0,0,0,2.86-1.07,13.16,13.16,0,0,0,2.46-2,7.44,7.44,0,0,1,1.93-1.27,8.92,8.92,0,0,1,2.11-.68,21.89,21.89,0,0,1,3.91-.37,23.38,23.38,0,0,1,7.67,1A22.15,22.15,0,0,1,158.43,78c.29.14.57.31.85.47s.56.32.87.53a12.17,12.17,0,0,1,1.66,1.32,20.06,20.06,0,0,1,4.4,6.55,51.16,51.16,0,0,1,2.5,7,70.59,70.59,0,0,1,2.15,14.55,101,101,0,0,1-.13,14.56c-.37,4.7-.51,9.57-1.66,14.53a41.48,41.48,0,0,1-6,13.77l-1,1.53-1.74-.81c-3.28-1.52-6.59-3-9.91-4.68a78.58,78.58,0,0,1-9.7-5.66c-1.54-1-3-2.1-4.51-3.14s-3-2.08-4.49-3.2A85.09,85.09,0,0,1,123,128a66,66,0,0,1-7.8-8.46,25.86,25.86,0,0,1-1.7-2.74,24.57,24.57,0,0,1-1.28-3,25.69,25.69,0,0,1-1.42-6.19,23.29,23.29,0,0,1,.13-6.25,22.51,22.51,0,0,1,1.73-6A31.88,31.88,0,0,1,119.78,85.62Z"/><path class="cls-1" d="M139.93,81.11a22.35,22.35,0,0,0,.31,3.14c.17,1.14.4,2.29.65,3.44.51,2.31,1.13,4.63,1.85,6.92,1.41,4.53,3.43,9.17,5.05,14s2.85,9.66,4.42,14.33c.78,2.34,1.64,4.67,2.5,7l1.27,3.52c.2.59.4,1.19.56,1.79a5.64,5.64,0,0,1,.27,1.85,5.54,5.54,0,0,0-.48-1.78c-.23-.57-.5-1.13-.77-1.69-.54-1.11-1.13-2.21-1.72-3.3-1.18-2.19-2.36-4.39-3.48-6.64-2.22-4.52-4.18-9.11-6.47-13.41s-5-8.43-7.43-13.07c-1.19-2.3-2.3-4.64-3.3-7.06-.5-1.21-1-2.44-1.43-3.71a31.94,31.94,0,0,1-1.22-4.15Z"/><path class="cls-1" d="M142.76,96.16a9.15,9.15,0,0,1-.37.93l-.36.64a11.15,11.15,0,0,1-.69,1c-.45.59-.88,1.07-1.32,1.57-.85,1-1.71,1.83-2.47,2.69-.39.43-.74.83-1.06,1.22-.12.17-.3.38-.36.49l-.1.14s0,0-.06.09a6.49,6.49,0,0,0-.27,1.39c-.07.56-.12,1.15-.16,1.74-.19,2.4-.26,4.89-.46,7.37a55.57,55.57,0,0,1-1.05,7.48,68.08,68.08,0,0,1-1.8-7.32c-.47-2.45-.85-4.89-1.16-7.43-.07-.64-.13-1.28-.16-2a11.64,11.64,0,0,1,.05-2.29,6,6,0,0,1,.45-1.51,11.82,11.82,0,0,1,.56-1.12c.37-.64.75-1.24,1.13-1.77.76-1.09,1.51-2.09,2.23-3,.34-.47.69-.94,1-1.36.15-.22.23-.4.34-.57l.08-.17s0,0,0,.07Z"/><path class="cls-1" d="M145.61,105a6.37,6.37,0,0,0,3.2.66,18.72,18.72,0,0,1,4.72.47,6.92,6.92,0,0,1,2.5,1.39c.17.16.32.34.48.51l.23.25.15.2c.2.26.4.53.63.78.87,1,2.24,1.63,3.22,2.71a14.48,14.48,0,0,1,2.29,4,10.55,10.55,0,0,1,.36,1.16q.09.38.21.76a11.48,11.48,0,0,0,.67,1.53c1.15,2.11,2.83,4.44,4,6.9l-1.34,1c-1-.89-2-1.81-3-2.73a30.23,30.23,0,0,1-2.91-3.06,11.75,11.75,0,0,1-1.29-2q-.28-.55-.51-1.12c-.13-.29-.22-.48-.35-.73a10.84,10.84,0,0,0-.87-1.39c-.33-.47-.75-.9-1.07-1.42a24.9,24.9,0,0,0-2-3.43c-.22-.25-.46-.49-.7-.74l-.18-.18-.13-.1-.24-.2a2.25,2.25,0,0,0-1.08-.36,10.29,10.29,0,0,0-3.29.53,19.14,19.14,0,0,1-4.82.81Z"/><path class="cls-2" d="M109.08,46.46c-2.36.09-11.54,10.47-9,15.38,1.23,2.42,8.33,1.56,15,.41,6.9-1.18,14.14-3,14.94-4,1.2,5.75.69,9.57,6.45,8.29s10-.46,8.46-5.53c-2-6.25-5.05-2.25-11.63-5.25-3.83-1.74-8-3.88-11.89-5.49C115.77,48,110.95,46.39,109.08,46.46Z"/><path class="cls-3" d="M109.08,46.46c-2.36.09-11.54,10.47-9,15.38,1.23,2.42,8.33,1.56,15,.41,6.9-1.18,14.14-3,14.94-4,1.2,5.75.69,9.57,6.45,8.29s10-.46,8.46-5.53c-2-6.25-5.05-2.25-11.63-5.25-3.83-1.74-8-3.88-11.89-5.49C115.77,48,110.95,46.39,109.08,46.46Z"/><path class="cls-4" d="M142,40.17c5.3-2.79,3.74-2.46,11.52-1.55a46.42,46.42,0,0,1,11.52,3.06c3.66,1.44,6.48,4.42,9.16,8.31,2.18,3.16,4.69,6.65,6.06,11.11,1.15,3.77,1.44,8.07,1.92,12.58A82.66,82.66,0,0,1,182.82,86c-6.41,1.71-3.31-3.42-9.92-8.37-3-2.27-6.67-4.95-10.86-7.67-3.43-2.23-7.56-4-11.68-6.35-3.68-2.06-7.43-4.49-11.61-6.46-3.87-1.83-8.27-2.82-12.52-4.46a42,42,0,0,0-11-2.63c-3.89-.36-7.69-.64-11,1.1,2-3.56,5.07-5.75,8.44-7.8a34.53,34.53,0,0,1,10.85-4.49c4.42-.91,8.68-1.44,11.85-.92a42.42,42.42,0,0,1,21.92,11.29c3.16,3,7.28,6.45,10.81,11.57"/><path class="cls-1" d="M141.31,38.78l2.05-1.09a12.56,12.56,0,0,1,2.44-1.06,6.54,6.54,0,0,1,1.51-.23c.48,0,.92,0,1.34,0,.83.08,1.6.18,2.37.28l2.3.29c.76.09,1.6.2,2.38.34a44.75,44.75,0,0,1,4.69,1.08c1.54.44,3,1,4.53,1.51a19.5,19.5,0,0,1,2.31,1,16.89,16.89,0,0,1,2.16,1.38,29.86,29.86,0,0,1,6.49,7.28,47.56,47.56,0,0,1,4.88,8.25,33.13,33.13,0,0,1,2.34,9.42c.37,3.15.66,6.17,1,9.3a73.12,73.12,0,0,1,.31,9.48l0,1.22-1.11.23a8.52,8.52,0,0,1-3.47.3,4.65,4.65,0,0,1-1.08-.38,3.61,3.61,0,0,1-.94-.69,5.13,5.13,0,0,1-.37-.4l-.27-.39a6.54,6.54,0,0,1-.44-.74c-.49-.94-.83-1.73-1.25-2.47a12,12,0,0,0-1.44-2A13.63,13.63,0,0,0,172.13,79c-.7-.55-1.48-1.12-2.22-1.67q-2.25-1.66-4.53-3.26C163.86,73,162.3,72,160.77,71s-3.14-1.82-4.79-2.68-3.34-1.7-5-2.6-3.32-1.87-4.94-2.81a76.63,76.63,0,0,0-9.73-5.12c-3.34-1.33-7-2.25-10.62-3.63a40.47,40.47,0,0,0-10.48-2.53c-3.68-.35-7.33-.61-10.14.92l-4.72,2.57L103,50.41a21.4,21.4,0,0,1,7.16-7.23,44.48,44.48,0,0,1,8.74-4.6,30.77,30.77,0,0,1,4.82-1.39c1.59-.33,3.19-.62,4.82-.82a32.19,32.19,0,0,1,5-.26,18.09,18.09,0,0,1,2.6.28c.82.14,1.64.32,2.45.53a44.69,44.69,0,0,1,9.18,3.57,37.44,37.44,0,0,1,8.1,5.62c1.23,1.07,2.35,2.27,3.45,3.38s2.22,2.3,3.31,3.49a39.38,39.38,0,0,1,5.57,7.86,69.27,69.27,0,0,0-6.8-6.6c-1.18-1-2.42-2-3.63-3s-2.41-2-3.63-3a40.16,40.16,0,0,0-7.75-4.87,47.31,47.31,0,0,0-8.62-3.15q-1.1-.28-2.21-.47a14.62,14.62,0,0,0-2.14-.23,29,29,0,0,0-4.49.24c-1.52.18-3,.43-4.58.73A27.43,27.43,0,0,0,120,41.63a40,40,0,0,0-8.12,4.2,17.93,17.93,0,0,0-6.18,6.12l-2.1-2.15a14.09,14.09,0,0,1,6.08-1.53,42.58,42.58,0,0,1,5.83.26,43.56,43.56,0,0,1,11.31,2.72c3.39,1.31,7,2.21,10.65,3.65a79.13,79.13,0,0,1,10.16,5.33c1.62,1,3.21,1.89,4.83,2.76s3.29,1.71,5,2.58,3.37,1.77,5,2.81,3.17,2.09,4.73,3.17,3.08,2.19,4.6,3.31c.76.57,1.5,1.1,2.28,1.71a16.75,16.75,0,0,1,2.27,2.12,15.18,15.18,0,0,1,1.81,2.55c.5.89.91,1.82,1.29,2.54a3.72,3.72,0,0,0,.27.47l.13.19c0,.05.08.07.11.11s.23.15.42.23a6.06,6.06,0,0,0,2.08-.25L181.26,86a70,70,0,0,0-.3-9.09c-.3-3-.61-6.19-1-9.19a30,30,0,0,0-2.11-8.56,44.64,44.64,0,0,0-4.58-7.72,26.91,26.91,0,0,0-5.8-6.56,13.76,13.76,0,0,0-1.75-1.12,16.31,16.31,0,0,0-1.95-.85c-1.41-.53-2.84-1-4.28-1.43a41.62,41.62,0,0,0-4.36-1c-.74-.13-1.44-.22-2.22-.31l-2.32-.29c-1.51-.17-3.14-.47-4-.18a10,10,0,0,0-1.81.81l-2.05,1.09Z"/><path class="cls-1" d="M130.71,58.77c-1.4,6.71-2.71,5.52-4.4,13a109,109,0,0,0-2,13.59,43.26,43.26,0,0,0,.92,13.79c-2.17,1.11-2.82-.44-4-2.58-3.11-5.74-.08-5.38.7-12.77.42-4,1.09-8.47,2-12.88a61.16,61.16,0,0,1,3.75-12.4C131.26,52.52,131.4,55.45,130.71,58.77Z"/><path class="cls-4" d="M49,50.25c-2.95,2-6.28,6.15-8.43,11.59a24.78,24.78,0,0,0-1,14.07,41.84,41.84,0,0,0,5.13,13.35A77.87,77.87,0,0,0,53.15,101,125.14,125.14,0,0,0,63,111.58c3.26,3,6.93,6,11,9.27,2.78-2.51,5.45-6.72,8.06-12a98.27,98.27,0,0,0,5.34-13.7A101.13,101.13,0,0,0,90.9,80.83c.83-5.18,2-10.22,1.61-14.7a20.87,20.87,0,0,0-5.79-13.32c-4-4-7.55-6.3-10.83-6.95-7.3-1.44-5.75,3.8-12.24,3.91C55.93,49.93,56.69,45,49,50.25Z"/><path class="cls-1" d="M50.13,51.84a21.38,21.38,0,0,0-6.36,7.81A28.77,28.77,0,0,0,42,64.37a31.68,31.68,0,0,0-1.09,4.86,22.37,22.37,0,0,0,.9,9.68,54.82,54.82,0,0,0,4.13,9.57A55.94,55.94,0,0,0,52.13,97c1.15,1.39,2.33,2.78,3.48,4.22s2.26,2.84,3.4,4.22,2.3,2.72,3.54,4,2.54,2.47,3.89,3.64c2.7,2.35,5.6,4.53,8.43,6.81l-1.65,0a38,38,0,0,0,7.9-11.38c2-4.14,2.93-8.84,4.29-13.51a110.18,110.18,0,0,0,3.3-13.78,69.06,69.06,0,0,0,.79-13.88,56.84,56.84,0,0,0-.87-6.81,15.53,15.53,0,0,0-2.25-5.73,8.38,8.38,0,0,0-.93-1.07c-.4-.39-.79-.78-1.2-1.16a30.13,30.13,0,0,0-2.56-2.1,19.42,19.42,0,0,0-5.79-3,10.36,10.36,0,0,0-3-.47,4.16,4.16,0,0,0-2.56,1A13.2,13.2,0,0,1,67,50.18a10.79,10.79,0,0,1-4,.62,13.72,13.72,0,0,1-3.85-.45c-1.27-.3-2.42-.85-3.37-1C54,49.14,52,50.51,50.13,51.84Zm-1.52-2.21A23.39,23.39,0,0,1,52,47.81a6.16,6.16,0,0,1,1-.35,5.44,5.44,0,0,1,1-.25,5.93,5.93,0,0,1,2.2,0c1.42.32,2.46.87,3.52,1.14a10.8,10.8,0,0,0,3.29.32,7.67,7.67,0,0,0,3.11-.64,9.44,9.44,0,0,0,2.56-2,7.46,7.46,0,0,1,3.86-2,13.21,13.21,0,0,1,4.13.09A21.4,21.4,0,0,1,84,46.9a25.51,25.51,0,0,1,3.2,2.24c.5.41,1,.83,1.46,1.28A13.25,13.25,0,0,1,90.13,52a18.63,18.63,0,0,1,3.08,7.56,51.28,51.28,0,0,1,.88,7.51,64.11,64.11,0,0,1-1.32,14.84,107,107,0,0,1-4,14.11c-1.53,4.48-2.74,9.24-5,13.76a42.76,42.76,0,0,1-8.78,12l-.8.73-.85-.68c-2.83-2.25-5.69-4.48-8.53-6.81a69.12,69.12,0,0,1-8-7.69c-1.23-1.37-2.41-2.76-3.59-4.11s-2.39-2.68-3.61-4a61.88,61.88,0,0,1-7-8.77,53.07,53.07,0,0,1-5.05-10.11,23.92,23.92,0,0,1-1.3-11.75,25.73,25.73,0,0,1,1.5-5.68,26.89,26.89,0,0,1,2.63-5.22A28.12,28.12,0,0,1,48.61,49.63Z"/><path class="cls-1" d="M68.63,48.92a5.79,5.79,0,0,0-.18,1.21c0,.51-.06,1.07-.07,1.64,0,1.14,0,2.33.06,3.53.1,2.4.27,4.85.46,7.3.4,5.26.21,10.11.68,14.88s1.49,9.7,2,14.71c.24,2.48.45,5,.57,7.45.06,1.24.1,2.49.11,3.73a13.58,13.58,0,0,1-.35,3.71,13.39,13.39,0,0,0-.1-3.68c-.15-1.22-.36-2.44-.6-3.65-.47-2.42-1-4.83-1.6-7.22-1.16-4.73-2.94-9.35-4.24-14.27s-2-10-3.2-14.52c-.63-2.42-1.25-4.86-1.81-7.36-.28-1.25-.54-2.51-.78-3.84-.12-.67-.23-1.33-.31-2.06A16.05,16.05,0,0,1,59.17,48Z"/><path class="cls-1" d="M67.9,64.13c-.16.26-.35.54-.52.77l-.45.53c-.28.29-.57.58-.83.8-.54.49-1,.88-1.55,1.29-1,.8-2,1.5-2.87,2.21a11.2,11.2,0,0,0-1.95,1.74,27.31,27.31,0,0,0-1.45,3.06c-.95,2.19-1.78,4.48-2.67,6.76s-1.81,4.58-2.9,6.88a43.19,43.19,0,0,1,.12-7.53A68.44,68.44,0,0,1,54,73.18a31.81,31.81,0,0,1,1.07-3.85,6.31,6.31,0,0,1,.67-1.27,12,12,0,0,1,.74-1c.48-.57.94-1.08,1.4-1.54.93-.93,1.83-1.79,2.7-2.6.42-.4.85-.81,1.18-1.18.19-.19.31-.36.46-.51l.13-.18s0,0,0,0Z"/><path class="cls-1" d="M69.05,73.09a8.22,8.22,0,0,0,3.09,1.54,16.57,16.57,0,0,1,4.4,1.92,7.51,7.51,0,0,1,1.89,2l.33.59c.11.2.15.31.22.46s.28.59.44.87c.63,1.15,1.85,2,2.62,3.22a10.61,10.61,0,0,1,.91,2.06,13,13,0,0,1,.59,2.37,8.85,8.85,0,0,1,.09,1.22l0,.93c0,.62.08,1.22.13,1.83a66.68,66.68,0,0,0,1.56,7.6l-1.54.69A26.52,26.52,0,0,1,80,92.92a18.7,18.7,0,0,1-.52-2.13l-.18-1.06c-.06-.35-.1-.5-.17-.76a8.56,8.56,0,0,0-.55-1.47c-.23-.51-.56-1-.78-1.58a29.56,29.56,0,0,0-1.31-3.77c-.16-.3-.35-.59-.54-.88-.09-.13-.19-.32-.26-.41l-.2-.27a2.59,2.59,0,0,0-1-.74,8.92,8.92,0,0,0-3.21-.49,25.92,25.92,0,0,1-4.68-.42Z"/><path class="cls-1" d="M117.34,64c2.31.5,11,11.06,8.5,16-1.23,2.42-7.95,2.08-14.66.93-6.9-1.18-14.2-3.31-15-4.28-1.2,5.75-.56,9.48-6.32,8.2S77.2,80.91,75.56,71.15c-1.17-6.94,6.19-2.11,13.81-3.9,4.34-1,9.25-1.85,13.86-2.53C108.72,63.92,114,63.23,117.34,64Z"/><path class="cls-3" d="M117.34,64c2.31.5,11,11.06,8.5,16-1.23,2.42-7.95,2.08-14.66.93-6.9-1.18-14.2-3.31-15-4.28-1.2,5.75-.56,9.48-6.32,8.2S77.2,80.91,75.56,71.15c-1.17-6.94,6.19-2.11,13.81-3.9,4.34-1,9.25-1.85,13.86-2.53C108.72,63.92,114,63.23,117.34,64Z"/><path class="cls-4" d="M84.38,58.27c-5.3-2.79-3.91-2.72-11.69-1.81A48.08,48.08,0,0,0,61.1,59.68a38.07,38.07,0,0,0-11.37,7.07c-3.2,2.86-5.58,6.75-8.26,10.5a99.65,99.65,0,0,0-7.42,11.59c6.86,2.56,5.35-2.87,13.38-6.67,3.84-1.82,8.12-4.41,13.16-6.41,4.29-1.7,8.8-3.8,13.67-5.32,4.55-1.43,9.57-1.73,14.41-2.77s9.51-2.42,14.35-2.85a89.79,89.79,0,0,1,15,.11c-3.82-4.1-8.49-6-12.73-7.29a32.13,32.13,0,0,0-14.35-1A48.64,48.64,0,0,0,79.83,59.8C76.44,61.22,73,62.55,69.2,64.4s-8.11,5.18-13,9"/><path class="cls-1" d="M83.65,59.65c-1.21-.62-2.45-1.36-3.49-1.83a3.79,3.79,0,0,0-1.43-.35,12.33,12.33,0,0,0-1.79.08c-1.3.13-2.65.3-4,.46a32,32,0,0,0-3.8.7,59,59,0,0,0-7.51,2.45,35.72,35.72,0,0,0-6.86,3.63,31.75,31.75,0,0,0-5.86,5,66.42,66.42,0,0,0-4.75,6.34,120.62,120.62,0,0,0-8.73,13.43l-.84-2.19a8.3,8.3,0,0,0,2.24.54,2.22,2.22,0,0,0,1.61-.47,14.92,14.92,0,0,0,1.77-1.77,23.63,23.63,0,0,1,2.14-2.08,18,18,0,0,1,2.47-1.78,14.94,14.94,0,0,1,1.32-.73c.46-.25.88-.45,1.28-.64,1.64-.81,3.28-1.68,4.95-2.55s3.37-1.72,5.11-2.5c.87-.4,1.76-.76,2.64-1.12l2.57-1c3.44-1.43,6.92-2.92,10.57-4.09a71.13,71.13,0,0,1,11.21-2.27c3.63-.53,7.15-1.48,10.86-2.31,1.85-.41,3.72-.79,5.64-1s3.84-.38,5.74-.44a100.64,100.64,0,0,1,11.38.34L116.85,66c-3.61-3.91-8.77-6.12-14.1-7.31a31.56,31.56,0,0,0-8-.71,29.61,29.61,0,0,0-4,.44c-1.36.24-2.71.52-4,.86s-2.65.71-4,1.16-2.57,1-3.92,1.48c-2.66,1-5.29,2-7.87,3.14-5.09,2.07-9.72,5.46-14.66,8.37a82,82,0,0,1,6.28-5.89c1.11-.91,2.25-1.81,3.46-2.64a35.35,35.35,0,0,1,3.79-2.25c2.57-1.33,5.21-2.49,7.83-3.6,1.29-.55,2.62-1.17,4-1.67s2.79-1,4.21-1.34,2.86-.67,4.3-.92a32.41,32.41,0,0,1,13.36.37,41,41,0,0,1,4.26,1.25,33.47,33.47,0,0,1,4.13,1.72,25.34,25.34,0,0,1,7.27,5.4l2.73,3-4-.33a97.56,97.56,0,0,0-11-.33c-1.83.06-3.66.18-5.43.42s-3.58.6-5.38,1l-5.45,1.27c-1.83.43-3.75.79-5.6,1.08a68.59,68.59,0,0,0-10.74,2.15c-3.47,1.12-6.87,2.56-10.33,4L61.3,77.16c-.85.34-1.68.69-2.52,1.07-1.66.75-3.31,1.57-5,2.43s-3.3,1.74-5,2.58c-.44.21-.87.42-1.23.61a12.11,12.11,0,0,0-1.12.62A14.85,14.85,0,0,0,44.4,86a20.51,20.51,0,0,0-1.87,1.83,17,17,0,0,1-2.21,2.16,4.73,4.73,0,0,1-.8.5,4.11,4.11,0,0,1-.92.37,3.9,3.9,0,0,1-1,.19,3.7,3.7,0,0,1-.93,0,11.2,11.2,0,0,1-3.19-.73l-1.69-.56.85-1.63A123,123,0,0,1,41.6,74.34a69,69,0,0,1,5-6.63,27.36,27.36,0,0,1,3.08-3A40.14,40.14,0,0,1,53,62.19a38.85,38.85,0,0,1,7.46-4,62,62,0,0,1,7.92-2.58,35.15,35.15,0,0,1,4.18-.77c1.34-.16,2.67-.33,4.07-.47a15.1,15.1,0,0,1,2.26-.08,7,7,0,0,1,2.49.6c1.42.65,2.5,1.32,3.7,1.93Z"/><path class="cls-1" d="M95.53,77.09c1.4,6.71,2.5,5.56,4.19,13.09a110.1,110.1,0,0,1,1.67,13.59c.45,4.9.56,10-.41,14,2.17,1.11,3.33-.46,4.49-2.6,3.11-5.74.34-5.65-.44-13-.42-4-1-8.55-2-13s-2.89-8.59-4.52-12.22C95,70.86,94.84,73.78,95.53,77.09Z"/><path class="cls-4" d="M86.89,82.44c-3,1.69-7.48,4.29-9.77,9.14a21,21,0,0,0-1.57,13.54c.78,3.7,3.22,7.57,6.13,12.2a74.14,74.14,0,0,0,8,11c2.75,3,6.15,6,9.91,9.38,3.13,2.79,6.51,5.47,10.41,8.49,2.83-2.09,5.29-5.59,8-10.14a78.31,78.31,0,0,0,6.21-11.85,80.86,80.86,0,0,0,3.45-12.93c1-4.69,2.33-9.18,2-13.27a17.67,17.67,0,0,0-5.53-11.84c-4-3.78-7.36-6.12-10.66-6.86-7.33-1.65-5.95,2-12.39,2.24C93.76,81.72,94.74,78.09,86.89,82.44Z"/><path class="cls-1" d="M87.42,83.41A19.56,19.56,0,0,0,80.95,90a15.7,15.7,0,0,0-1.65,3.85A17.21,17.21,0,0,0,78.85,98a47.88,47.88,0,0,0,1.25,9.33,32.88,32.88,0,0,0,3.26,8.9,48.38,48.38,0,0,0,5.89,7.91c1.11,1.29,2.25,2.55,3.39,3.92l3.23,4c1.07,1.29,2.15,2.55,3.32,3.7s2.43,2.23,3.73,3.3c2.6,2.13,5.39,4.11,8.12,6.21l-2.05,0a33.27,33.27,0,0,0,8.16-9.91,73.77,73.77,0,0,0,5.42-12.07c1.34-4,1.78-8.38,2.6-13s1.54-8.74,1.11-12.66A23.81,23.81,0,0,0,125,91.79a12,12,0,0,0-1.22-2.4,8.83,8.83,0,0,0-.77-1c-.13-.16-.28-.3-.42-.45l-.56-.53a38.17,38.17,0,0,0-4.76-3.91A16.25,16.25,0,0,0,112,81a6.36,6.36,0,0,0-2.44-.19A7.42,7.42,0,0,0,107,82.07a9.62,9.62,0,0,1-3.88,1.3,13,13,0,0,1-2,0c-.62-.07-1.22-.09-1.83-.19a17.32,17.32,0,0,1-3.6-.89,14,14,0,0,0-3-.93C91.16,81.23,89.24,82.29,87.42,83.41Zm-1.73-3.13a23.88,23.88,0,0,1,3.42-1.38,8.3,8.3,0,0,1,4.09-.34,21.79,21.79,0,0,1,3.46,1.22,10.9,10.9,0,0,0,3,.67,14.58,14.58,0,0,0,1.56.05,10,10,0,0,0,1.44-.17,5.26,5.26,0,0,0,2.41-1.15c.41-.32.81-.67,1.36-1.08.24-.2.58-.4.87-.6a8.88,8.88,0,0,1,1-.5,10.25,10.25,0,0,1,4.3-.56,18.66,18.66,0,0,1,3.88.69,21.47,21.47,0,0,1,3.59,1.43,29.06,29.06,0,0,1,6.14,4.23l.69.63c.25.26.52.51.76.78a14.85,14.85,0,0,1,1.3,1.7,18.2,18.2,0,0,1,1.85,3.67,26.81,26.81,0,0,1,1.55,7.48,31.91,31.91,0,0,1-.35,7.46c-.37,2.38-.89,4.65-1.41,6.88-1.06,4.28-1.78,8.94-3.66,13.51a87.37,87.37,0,0,1-6.49,12.4A39,39,0,0,1,111,147.95l-1,.76-1-.79c-2.67-2.09-5.4-4.16-8.12-6.33a59.07,59.07,0,0,1-7.66-7.25l-3.39-3.85c-1.1-1.22-2.3-2.45-3.47-3.71a75.79,75.79,0,0,1-6.93-8.07,36.7,36.7,0,0,1-4.9-9.84,46.16,46.16,0,0,1-1.36-5.25,29.39,29.39,0,0,1-.6-5.61,17.55,17.55,0,0,1,.21-3,14.36,14.36,0,0,1,.76-3,16.46,16.46,0,0,1,3.18-5.15A29.38,29.38,0,0,1,85.69,80.27Z"/><path class="cls-1" d="M103.43,81.09a16.4,16.4,0,0,0-.17,2.91c0,1.07.05,2.16.12,3.26.13,2.2.34,4.41.58,6.62l1.7,13.35c.57,4.38,1.73,8.75,2.33,13.27.27,2.24.49,4.49.62,6.74.06,1.13.1,2.25.09,3.38a11.39,11.39,0,0,1-.38,3.35,11.3,11.3,0,0,0,.15-3.34c-.07-1.12-.19-2.23-.34-3.34-.3-2.22-.69-4.43-1.13-6.62-.9-4.35-2.46-8.57-3.47-13L100.6,94.43c-.47-2.22-.91-4.45-1.27-6.72-.18-1.14-.35-2.28-.47-3.45a20.35,20.35,0,0,1-.13-3.82Z"/><path class="cls-1" d="M103.47,94.33a6.63,6.63,0,0,1-1.63,1.52c-.51.37-1,.68-1.5,1l-2.9,1.76c-.46.29-.92.58-1.33.89a5.45,5.45,0,0,0-1,.85,6,6,0,0,0-.65,1.24c-.21.49-.4,1-.58,1.53-.74,2.1-1.37,4.29-2.07,6.45s-1.42,4.33-2.25,6.47c.22-2.28.5-4.55.88-6.79s.78-4.49,1.32-6.75c.14-.57.29-1.13.46-1.71A8.33,8.33,0,0,1,93,98.92a7.13,7.13,0,0,1,1.44-1.53c.48-.41.95-.76,1.42-1.11.95-.69,1.89-1.34,2.8-2,.45-.32.9-.63,1.3-1a5.32,5.32,0,0,0,.86-.79Z"/><path class="cls-1" d="M105,111.53c3.11,2.29-.39,6.05-4.63,8.77-3.75,2.41-8.47,4.28-10.47,4.13C94,114.4,99.12,107.17,105,111.53Z"/><path class="cls-5" d="M116,119.85c-.42-.11,3.29-12.62,1.7-17.31a12.47,12.47,0,0,1,1.92,8.86c4.25-4.28,4.42-7.11,3.56-11.48,2.93-1.33,1.48,4.52,1.37,6.63.3,0,1.51-5.51.08-11.13a15.49,15.49,0,0,0-6.29-9.07c-.64,0,1.91,2.11,1.74,4.9.36-.09-3.83-5.65-8.24-6.67.17.17,3.33,4.34,2.17,6.86.38,0-2.94-5.17-8.6-6.52-4.5,4.12,3.19,4,5.78,10.91a75,75,0,0,1,3.36,11.78A72.17,72.17,0,0,1,116,119.85Z"/><path class="cls-5" d="M163.29,65.71c-.29.05-7.71-9.5-12.16-12a26.66,26.66,0,0,1,8.2,5.09c-1.73-5.23-3.33-5.63-7.18-8.17.7-3.25,3.85,2.15,5.46,3.53.11-.12-3.82-3.46-8.88-6.61a26.6,26.6,0,0,0-10.15-4c-.29.2,2.06,1.06,4.18,2.89.1-.17-5.69-3.26-8.63-2.62.22.06,4.9,1.95,6.32,3.9.16-.13-5.37-2.39-9.17-1.59,1.72,6,4.77,1.53,11.51,5.2,3.18,1.73,6.5,4.45,10.41,7C156.47,60.5,159.82,63,163.29,65.71Z"/><path class="cls-5" d="M168,73.22c-.22,0-4.7-4-9.86-7.86-3.71-2.77-7.56-6-10.43-7.28a66.27,66.27,0,0,1,12.59,6.65c-4.12-6.81-6.2-6.82-12.23-10,.1-4.9,6,2.64,8.62,4.34.12-.14-5.9-4.89-13.75-8.83a52.37,52.37,0,0,0-15.64-4.62c-.35.23,3.37,1.4,6.8,3.66.1-.2-8.8-3.79-12.69-3.13.32.08,7.54,2,10,4.34.19-.15-8.43-2.7-13.47-1.88-1.1,6.9,4.8,1.15,13.31,4.57,3.59,1.44,7.74,3.51,12.59,6,3.73,1.91,7.88,4,12.27,6.63C159.87,68.05,163.9,70.39,168,73.22Z"/><path class="cls-5" d="M77.21,67.2c.2.12,8.58-3.62,12.54-4.23a19.36,19.36,0,0,0-7.1,1.32c2.72-3.35,3.72-3.46,7.24-4.24.39-2.57-3.45.54-5,1.1-.07-.19,9.74-4.91,17-3.26.16.23-2.15.42-4.21,1.17,0-.15,5.33-.43,7.3.85-.18,0-4.25.18-5.83,1.21-.08-.14,4.5-.37,7.05,1.27-6.57,3.33-5.95.05-14.59,1.61A111.63,111.63,0,0,0,77.21,67.2Z"/><path class="cls-5" d="M21.79,50.77c.23.12,7.13-7.33,11-8.6-3.72.72-5.66,1.15-7.48,2.32,1.78-4.11,3.35-4.29,6.73-5.71-.21-2.63-3.32.74-4.76,1.62-.12-.21,8.84-6.65,16.67-5.66.22.25-1.94.94-3.84,2.13-.07-.18,5.13-1.49,7.46-.21-.18,0-4.56.37-5.9,1.82a15.64,15.64,0,0,1,8,1.25c-6.89,3.17-4.71-.91-14.55,3.73A84.35,84.35,0,0,0,21.79,50.77Z"/><path class="cls-5" d="M226.67,35.69c-.31,0-5-12.48-8.87-16a24.07,24.07,0,0,1,6.73,7.11c-.42-5.67-2.09-6.71-5.38-10.12,1.48-3.07,3.65,3.29,4.93,5,.14-.1-2.82-4.55-7.17-8.85a26,26,0,0,0-9.44-6c-.35.15,2.44.89,4.13,3.22.15-.15-5.57-3.91-8.73-3.85.21.1,4.39,2.95,5.34,5.26.2-.1-4.83-3.61-8.91-3.57,1.25,6.42,5,1.53,11.18,7.11a81.73,81.73,0,0,1,8.62,9.9A92.42,92.42,0,0,1,226.67,35.69Z"/><path class="cls-5" d="M232.61,35.17c-.22-.06-2.29-9.69-4.44-12.89,2.32,2.75,3.68,4.2,4.42,6.1.71-4.11-1-5.31-2.69-8.32,1.6-1.92,2.13,3.05,2.73,4.53-1.22-4.18-3.37-11.35-8.94-14-.28,0,1.61,1.42,2.4,3.37.13-.08-3.51-3.94-5.76-4.46.13.11,2.71,3.15,3,5,.16,0-4-4.51-6.89-5.2,3.77,6.71,5,3.86,9.79,11.86A67.24,67.24,0,0,1,232.61,35.17Z"/><path class="cls-1" d="M103.42,94.64c-3.64,6.1-7.35-3.69-14-2.27-7.46,1.59-12.74,2.31-14,6-1.45,4.26-.5-4.07,4.29-10.52,2.72-3.67,6.65-7,11.86-6.94,11.84.23,8.69-5.36,11.13-.5C105.93,87,107,88.7,103.42,94.64Z"/><path class="cls-3" d="M103.42,94.64c-3.64,6.1-7.35-3.69-14-2.27-7.46,1.59-12.74,2.31-14,6-1.45,4.26-.5-4.07,4.29-10.52,2.72-3.67,6.65-7,11.86-6.94,11.84.23,8.69-5.36,11.13-.5C105.93,87,107,88.7,103.42,94.64Z"/><path class="cls-1" d="M108,110c-2.37-3.81,13.31-1.73,15.79-.28C116.25,113.17,110.41,113.8,108,110Z"/></svg>