<svg id="Warstwa_1" data-name="Warstwa 1" xmlns="http://www.w3.org/2000/svg" xmlns:xlink="http://www.w3.org/1999/xlink" viewBox="0 0 926 525"><defs><style>.cls-1{fill:none;}.cls-2{fill:#010a11;}.cls-3,.cls-5,.cls-6{fill:#feedbd;}.cls-12,.cls-3,.cls-5{stroke:#1f1f45;}.cls-3{stroke-linecap:round;stroke-linejoin:round;stroke-width:10px;}.cls-4{fill:#1f1f45;}.cls-12,.cls-5{stroke-miterlimit:10;}.cls-5{stroke-width:3px;}.cls-7{fill:#444a33;}.cls-8{fill:#001422;}.cls-9{clip-path:url(#clip-path);}.cls-10,.cls-12{fill:#f11a89;}.cls-11{fill:#cae10c;}.cls-12{stroke-width:4px;}</style><clipPath id="clip-path"><path class="cls-1" d="M710.76,289.36c-28.53-7-56.57-8.94-73-16.1C619.66,265.37,620.16,256.77,618,258c-4.17,2.44-14.71,95.85-17.54,98.51s-175.73,61.67-175.73,61.67L345.25,289.36l89.37-147.2,390.49-29.08L753.27,278.21Z"/></clipPath></defs><title>Obszar roboczy 1</title><g id="Skull"><path class="cls-2" d="M416.22,385.49l-13.08,0c-97.44-.24-186.29,1.62-185.33,7,1,5.65-42.83,32.48,11.21,43.95s80.2,6.3,80.2,6.3-87.94,12.33-4.4,27.61,74.88,19.95,74.88,19.95-44,9,87.71,20.95,64,16.43,131.66,12l67.69-4.46s47.15-38.17,106.86-26.46,68.61,27.35,94.15,8.69,39.51-11.68,39.51-11.68l-19.34-48.57L655,415"/><path class="cls-3" d="M4.23,12C8,15,10.6,17.66,13.64,19.54c18.78,11.55,37.65,22.9,56.49,34.31,6.7,4.08,13.87,7.56,20,12.43,14.08,11.16,27.85,22.81,41.32,34.76,4,3.5,6.55,8.61,10.91,14.5-.06-5.53-.55-9.78,0-13.91.46-3.46,1.2-8.39,3.56-9.78,4.65-2.77,6.27,2.81,8.18,5.65,10.84,16.38,15.32,35.17,19.42,54,2.41,11,4,22.33,5.31,33.59.49,4.21,1,10.23-4.9,11.08-3.42.53-7.34-2.2-11.25-3.53.47,6.2.74,13.78,1.69,21.29,4.47,35.33,16.65,68.29,32.6,99.71,4.28,8.51,11.12,16.55,21.14,21.29s18.59,12.23,28.2,17.9a68.37,68.37,0,0,0,10.6,4.86c2.39-2.56,2.53-2.72,4.91-5.33a28.27,28.27,0,0,0-3-5c-5.48-6.88-11.84-13.05-17.28-19.94-1.7-2.14-3.19-6.66-2.08-8.31,2.6-3.9,6.06-1.58,9,.92,18,15.35,35.89,31,60.93,36.25,13.42,2.82,26,8.47,37.63,15.76,9,5.68,17.18,7.91,23.52,0a19.32,19.32,0,0,1,6.9-4.84,4.7,4.7,0,0,1,4.31,1.14,4.55,4.55,0,0,1,.11,4.31c-5.71,8.32-2.79,17,1.63,23.51A184.15,184.15,0,0,0,409.73,427c10.52,9.81,23,17.51,34.19,26.55,5.3,4.27,10.42,3.76,15.05.39,16-11.81,34.8-17.25,53-24.14,4.2-1.57,7.77-4.81,11.65-7.27-8.3-11.3-18.38-13.3-29.52-13.91-13.11-.71-24.65,3.6-36.19,8.69-18.07,8-37.44-1.67-41.7-20.93a21.58,21.58,0,0,1,.15-10.25c2.49,3,5,5.83,7.37,8.86,2.75,3.52,4.87,7.63,8,10.74,6,5.88,13,8.56,21.41,4.48,6.41-3.11,12.9-6,19.34-8.91,14.63-6.56,28.83-3.47,42.53,2.59,7.26,3.25,13.9,8,20.58,12.5,4.09,2.7,7.66,4.61,12.14.87,1.17-1,3-1.29,4.63-1.81l32.91-10.65c5.42,17.89-.59,38,3.33,57,4.39-11.3,8-21.87,12.82-31.9,1.34-2.87,6.4-6,9.32-5.63,4.87.62,8.41,4.44,8.73,10.5.14,2.66,1.73,6.73,3.72,7.48s5.55-1.27,8.15-2.53c1.17-.54,1.58-2.47,2.7-3.27,3.63-2.64,7.89-7.47,11.07-6.87,3.39.6,6.44,6.16,8.45,10.15,2.43,5,3.66,10.52,5.41,15.81,1.2-.07,1.07,0,2.28-.08,1.53-6.15,2.56-12.42,4.73-18.33,1.07-2.91,4.16-7,6.49-7.06,2.84-.13,6.65,2.74,8.65,5.36,3.63,4.89,6.18,10.53,9.12,15.67,2.19-7.6,4.5-15.61,6.8-23.61l2.39-.23c5.58,10.59,11.21,21.21,17.12,32.48,4.32-3.19,6.53-6,5-11.06a67.57,67.57,0,0,1-2.68-13.2c-.25-2.56.4-7.17,1.53-7.45,2.82-.73,6.89-.5,9.11,1.12,4.11,3.08,7.41,7.29,10.84,11.23,10.73,12.37,25.56,18.42,39.59,25.69,6.93,3.61,13.54,8,20.82,10.55a93.08,93.08,0,0,0,22.11,4.53c16.4,1.72,32.86,3.56,49-2.22,13.77-4.94,16.3-10,10.43-23.66-4.1-9.49-4-10.81,5.68-13.94,8.42-2.75,17.35-4,26-6a30,30,0,0,0,4.17-1.48c.21-1.33.28-1.69.49-3-4.36-3.56-8.37-7.61-13.07-10.59-16.33-10.39-32.87-20.45-49.53-30.71-2.95,7.25-10,8.13-18.58,7.52l6.61,7.43c-25-3.49-42-22-64.68-25.49l-.76,1.64c6.4,5.12,12.52,10.64,19.27,15.27s14.35,8.6,21.59,12.85l-1,1.81c-3.29-1.53-6.79-2.76-9.9-4.58-11.77-6.91-23.82-13.47-35-21.27-5.88-4.08-5.15-5.16-12.79-.33,17.61,12,34.63,23.71,51.61,35.38-16.83-.44-28.41-12.4-42.32-19.22l-.95,1.59L803,428c-13.63-2-21.1-12.24-32.81-18.3,6.21,11.78,15.47,17.68,24.74,23.63s17.66,12.9,27.31,17.78,20.59,7.86,31,11.67c0,.73,0,1.47.07,2.24-1.71.37-3.58,1.38-5.11,1-32.37-8.1-61.55-22.29-85.52-46-5.4-5.38-10.78-10.89-15.08-17.14-5.16-7.54-3.41-16-.09-23.89,2.64-6.24,8.51-5.32,14-6,18.17-2.17,34.53,5.27,51.64,8.87,7.63,1.58,15.07,4.15,22.57,6.23.69-1.33.56-1,1.2-2.41-6-4.67-11.91-9.57-18.15-14-7.76-5.5-15.83-10.48-23.58-15.94-1.42-1-2-3.18-2.88-4.8,1.86-.27,4.15-1.34,5.56-.67,12.86,6.47,25.59,13.18,38.25,20,2.66,1.42,5,3.46,7.65,4.83-9.09-11.61-21.89-18.26-34.45-25-15-8.14-30.61-15.24-46-22.67-28.17-13.57-56.93-25.53-87.51-32.5-9.23-2.1-18.68-3.42-28.07-4.71-11.27-1.58-22.06-3.72-28.91-14.36-5.84-9-16.33-10.87-25-15.48,0,0-.09,0-.14-.06a4.67,4.67,0,0,0-6.63,5.18c1.76,8.2,3.49,16.48,5.84,24.58,1.11,3.8,5.34,6.56,7.34,10.25,1.24,2.26,1,5.34,1.39,8-2.21-1.06-5.11-1.57-6.62-3.31-8.16-9.46-18.43-15.42-30-19.62-2.54-.92-4.36-3.82-6.46-5.76,3.44-.92,6.83-2.14,10.35-2.6,1.4-.19,3,1.19,6,2.46-6.7-11.31-14.78-19.49-23.91-26.71-1.19-.93-3.72-.72-5.46-.3-5.2,1.3-10.41,2.74-15.64,4.13-1.23-5-2.57-10.44-4-16.19l4.27-5a9.85,9.85,0,0,0-.2-13.09,49.62,49.62,0,0,0-10.4-8.57c-8.21-35.14-16.81-72.34-21.39-85.26-1.94,5.52-2.83,9.74-4.83,13.32-1,1.78-4,2.45-6.1,3.66a43.69,43.69,0,0,1-2-5.39c-2.73-10.89-.84-21.6,1.45-32.25,2.1-9.75,4.84-19.22,12.17-28,2.33,3,4.14,5.33,7.22,9.27,4-6.13,7.72-11.86,11.54-17.52,7-10.31,14.19-20.56,21.21-30.92,1.25-1.85,3.18-5.08,2.5-6a8.06,8.06,0,0,0-6.39-3c-24,3-46.25,9.37-63.15,28.79-12.14,13.94-16.22,31-20.68,47.85-3.91,14.69.56,64,4.36,103.87-2.51.29-5,.61-7.45,1-16.64,2.82-33.59,5.57-49.25,11.39-10.44,3.87-19.27,12.71-28.19,20-6.47,5.33-12,11.88-19.26,19.24,36.17,18.69,50.45,46.88,43.23,87.11-6.79-10.56-17.1-4.85-25-8.21-2.42-1-4.83-2-7.24-2.9.21-1.59.15-1.41.36-3,7.54-1,15.06-2.13,23.06-3.25-.89-5.61-2.61-9.4-11.07-9.76-11.3-.49-22.49-4-33.73-6.14l.23-3.29c11.89-.64,23.74-1.28,35.8-2-.4-7.56-5-8.6-11.4-8.84-24.12-.78-47-8.13-70-14.54-1.36-.34-2.49-1.66-3.43-3.93,24.08,4.16,48,8.79,73.12,5-6.29-8.09-12.23-14.59-23.8-13.61-23.78,2.07-45.25-5.61-65.86-17-13.5-7.45-24.89-17-35.46-28.16C225.48,216,220,196.5,215.52,176.9c-4-17.26-4.1-35.44-8.23-52.64-3.8-15.74-10.28-30.94-16.36-46C183.86,60.78,169.56,49.09,155,38.4c-27.57-20.12-60-28-92.94-33.11C43.26,2.42,24.35,6.92,4.23,12Z"/><path class="cls-4" d="M485.45,173.61c5.57-7.81-.18-14-1.88-21.85C478.16,157.94,479.26,167.09,485.45,173.61Z"/><path class="cls-5" d="M645.41,442.55c-16.44,9-17.16,13.12-13.86,26.49,1.69,6.83,6.58,9,13.82,6.84,6-1.76,8.15-6.06,6.2-12.79S647.62,449.92,645.41,442.55Z"/><path class="cls-5" d="M673.41,442.86c-2,8.54-3.87,16.34-5.63,24.16-1.45,6.41,1.34,12.3,6.18,13.29,6.18,1.27,11.12-1.72,11.78-9.11a36.09,36.09,0,0,0-8.92-27.36C676.33,443.28,675.12,443.33,673.41,442.86Z"/><path class="cls-5" d="M701.79,448.33c-1.79,6.74-3.74,13.43-5.3,20.22a24.13,24.13,0,0,0-.43,8.44c.84,6.2,5.56,9.81,10.74,8.7,6.38-1.37,9.48-6.42,7.08-12.85-3.11-8.33-6.87-16.42-10.35-24.62Z"/><path class="cls-5" d="M611.72,438.28c-10.51,9.08-11.22,19.21-10.3,29.54.48,5.36,5,7.77,9.8,7.07,5.83-.84,7.27-6.37,6.61-10.89C616.62,455.71,614,447.64,611.72,438.28Z"/><path class="cls-6" d="M794.86,432.67c9.17,5.87,17.66,12.9,27.31,17.78a130.6,130.6,0,0,0,16.31,6.63,228.09,228.09,0,0,0,44.65-.27c-.25-.7-.54-1.43-.88-2.15-4.1-9.49-4-10.81,5.68-13.94,8.42-2.75,17.35-4,26-6a30,30,0,0,0,4.17-1.48c.21-1.33.28-1.69.49-3-4.36-3.56-8.37-7.61-13.07-10.59-16.33-10.39-32.87-20.45-49.53-30.71-2.95,7.25-10,8.13-18.58,7.52l6.61,7.43c-25-3.49-42-22-64.68-25.49l-.76,1.64c6.4,5.12,12.52,10.64,19.27,15.27s14.35,8.6,21.59,12.85l-1,1.81c-3.29-1.53-6.79-2.76-9.9-4.58-11.77-6.91-23.82-13.47-35-21.27-5.88-4.08-5.15-5.16-12.79-.33,17.61,12,34.63,23.71,51.61,35.38-16.83-.44-28.41-12.4-42.32-19.22l-.95,1.59,33.72,25.81c-13.63-2-21.1-12.24-32.81-18.3C776.33,420.82,785.59,426.72,794.86,432.67Z"/><path class="cls-6" d="M398.72,224c-8.69,3.23-16.24,9.86-23.67,16.21a43.43,43.43,0,0,1,5,3.75c8.85,7.62,16.5,17.64,27.7,20.88,7.23,2.08,14.94,1,22.45,1.14,21.63.37,41.67,10.66,60.81,20.72q33.39,17.48,66.75,35c13.29,7,27.83,14.15,42.65,11.58,5.89-1,12.23-3.56,17.61-.91,7.08,3.49,7.69,13.35,12.61,19.5,8.69,10.76,25.47,6.23,39.13,4.25,24.94-3.69,52.25,6,66.62,26.72,5.47,7.88,9,16.95,13.91,25.18,12.43,20.75,33.72,35.12,56.81,42.7a164.85,164.85,0,0,1-44.57-31.36c-5.4-5.38-10.78-10.89-15.08-17.14-5.16-7.54-3.41-16-.09-23.89,2.64-6.24,8.51-5.32,14-6,18.17-2.17,34.53,5.27,51.64,8.87,7.63,1.58,15.07,4.15,22.57,6.23.69-1.33.56-1,1.2-2.41-6-4.67-11.91-9.57-18.15-14-7.76-5.5-15.83-10.48-23.58-15.94-1.42-1-2-3.18-2.88-4.8,1.86-.27,4.15-1.34,5.56-.67,12.86,6.47,25.59,13.18,38.25,20,2.66,1.42,5,3.46,7.65,4.83-9.09-11.61-21.89-18.26-34.45-25-15-8.14-30.61-15.24-46-22.67-28.17-13.57-56.93-25.53-87.51-32.5-9.23-2.1-18.68-3.42-28.07-4.71-11.27-1.58-22.06-3.72-28.91-14.36-5.84-9-16.33-10.87-25-15.48,0,0-.09,0-.14-.06a4.67,4.67,0,0,0-6.63,5.18c1.76,8.2,3.49,16.48,5.84,24.58,1.11,3.8,5.34,6.56,7.34,10.25,1.24,2.26,1,5.34,1.39,8-2.21-1.06-5.11-1.57-6.62-3.31-8.16-9.46-18.43-15.42-30-19.62-2.54-.92-4.36-3.82-6.46-5.76,3.44-.92,6.83-2.14,10.35-2.6,1.4-.19,3,1.19,6,2.46-6.7-11.31-14.78-19.49-23.91-26.71-1.19-.93-3.72-.72-5.46-.3-7.53,1.86-15,4.07-22.57,5.94-2,.51-4.26.15-6.42.21.19-2.5-.55-5.63.69-7.3,4.08-5.4,8.45-10.59,13-15.94a9.85,9.85,0,0,0-.2-13.09c-9.9-10.52-22.3-16.54-39.44-13.64-14,2.34-28.44,2.15-42.47,4.54C431.33,215.43,414.38,218.18,398.72,224Z"/><path class="cls-6" d="M351.27,263.25c1.38.72,2.7,1.41,4,2.15-.75-1.35-1.45-2.7-2.12-4.11C352.53,262,351.89,262.58,351.27,263.25Z"/><path class="cls-6" d="M4.12,11.31c3.76,3.05,6.37,5.69,9.41,7.57C32.31,30.42,51.18,41.78,70,53.18c6.7,4.08,13.87,7.56,20,12.43,14.08,11.16,27.85,22.81,41.32,34.76,4,3.5,6.55,8.61,10.91,14.5-.06-5.53-.55-9.78,0-13.91.46-3.46,1.2-8.39,3.56-9.78,4.65-2.77,6.27,2.81,8.18,5.65,10.84,16.38,15.32,35.17,19.42,54,2.41,11,4,22.33,5.31,33.59.49,4.21,1,10.23-4.9,11.08-3.42.53-7.34-2.2-11.25-3.53.47,6.2.74,13.78,1.69,21.29a261,261,0,0,0,11.54,49.87c62,16.8,120.92,43.77,178.57,72.25a70.6,70.6,0,0,0,7.93,3.4h0c.11-1.14.07-1.14.27-2.56,7.54-1,15.06-2.13,23.06-3.25-.89-5.61-2.61-9.4-11.07-9.76-11.3-.49-22.49-4-33.73-6.14l.23-3.29c11.89-.64,23.74-1.28,35.8-2-.4-7.56-5-8.6-11.4-8.84-24.12-.78-47-8.13-70-14.54-1.36-.34-2.49-1.66-3.43-3.93,24.08,4.16,48,8.79,73.12,5-6.29-8.09-12.23-14.59-23.8-13.61-23.78,2.07-45.25-5.61-65.86-17-13.5-7.45-24.89-17-35.46-28.16-14.66-15.44-20.13-34.92-24.62-54.53-4-17.26-4.1-35.44-8.23-52.64-3.8-15.74-10.28-30.94-16.36-46-7.07-17.44-21.37-29.13-35.93-39.82-27.57-20.12-60-28-92.94-33.11C43.15,1.76,24.24,6.26,4.12,11.31Z"/><path class="cls-6" d="M444.07,199.56c.56-7.51,1.62-14.57,1.52-21.63-.32-23.59-.65-47.21,5.45-70.2,4.48-16.9,8.54-33.91,20.7-47.88,16.88-19.39,39.16-25.77,63.15-28.79a8,8,0,0,1,6.36,3c.68,1-1.25,4.17-2.51,6-7,10.37-14.16,20.61-21.2,30.95-3.83,5.63-7.5,11.36-11.54,17.5l-7.23-9.27c-7.3,8.75-10,18.2-12.15,27.95-2.3,10.69-4.19,21.39-1.48,32.29a49.58,49.58,0,0,0,2,5.35c2.1-1.19,5.09-1.87,6.1-3.66,2-3.58,2.92-7.77,4.84-13.29l24.88,69.86c-7.32-.94-15.53,1.75-18.62-8.93l-2.42,7.87c-13.2,2.67-8.18-12.75-16.33-16.8l.16,17.94-8.93,1.06-5-22.23-2.73.19L468,199.35Z"/><path class="cls-1" d="M355.27,265.39c8.67,15.62,23.36,29.66,32.7,45.38,4.27,7.17,7.42,16.43,3.17,23.64-5.5,9.32-17.9,8.23-28.81,4.38h0"/><path class="cls-1" d="M353.15,261.29a46.21,46.21,0,0,1-4.83-23.19c7.68-5.87,18.3-3.23,26.73,2.12"/><path class="cls-1" d="M807.15,450.75c2.11.69,4.21,1.33,6.34,1.89a148.92,148.92,0,0,0,25,4.44"/><path class="cls-1" d="M892.12,455.91c-3,.32-6,.66-9,.9"/><path class="cls-7" d="M175.8,263.16A357.07,357.07,0,0,0,196.86,313c4.28,8.51,11.12,16.55,21.14,21.29s18.59,12.23,28.2,17.9A68.37,68.37,0,0,0,256.8,357c2.39-2.56,2.53-2.72,4.91-5.33a28.27,28.27,0,0,0-3-5c-5.48-6.88-11.84-13.05-17.28-19.94-1.7-2.14-3.19-6.66-2.08-8.31,2.6-3.9,6.06-1.58,9,.92,18,15.35,35.89,31,60.93,36.25,13.42,2.82,26,8.47,37.63,15.76,9,5.68,17.18,7.91,23.52,0a19.32,19.32,0,0,1,6.9-4.84,4.7,4.7,0,0,1,4.31,1.14,4.55,4.55,0,0,1,.11,4.31c-5.71,8.32-2.79,17,1.63,23.51a184.15,184.15,0,0,0,26.2,30.79c10.52,9.81,23,17.51,34.19,26.55,5.3,4.27,10.42,3.76,15.05.39,16-11.81,34.8-17.25,53-24.14,4.2-1.57,7.77-4.81,11.65-7.27-8.3-11.3-18.38-13.3-29.52-13.91-13.11-.71-24.65,3.6-36.19,8.69-18.07,8-37.44-1.67-41.7-20.93a21.58,21.58,0,0,1,.15-10.25c2.49,3,5,5.83,7.37,8.86,2.75,3.52,4.87,7.63,8,10.74,6,5.88,13,8.56,21.41,4.48,6.41-3.11,12.9-6,19.34-8.91,14.63-6.56,28.83-3.47,42.53,2.59,7.26,3.25,13.9,8,20.58,12.5,4.09,2.7,7.66,4.61,12.14.87,1.17-1,3-1.29,4.63-1.81l32.91-10.65c5.42,17.89-.59,38,3.33,57,4.39-11.3,8-21.87,12.82-31.9,1.34-2.87,6.4-6,9.32-5.63,4.87.62,8.41,4.44,8.73,10.5.14,2.66,1.73,6.73,3.72,7.48s5.55-1.27,8.15-2.53c1.17-.54,1.58-2.47,2.7-3.27,3.63-2.64,7.89-7.47,11.07-6.87,3.39.6,6.44,6.16,8.45,10.15,2.43,5,3.66,10.52,5.41,15.81,1.2-.07,1.07,0,2.28-.08,1.53-6.15,2.56-12.42,4.73-18.33,1.07-2.91,4.16-7,6.49-7.06,2.84-.13,6.65,2.74,8.65,5.36,3.63,4.89,6.18,10.53,9.12,15.67,2.19-7.6,4.5-15.61,6.8-23.61l2.39-.23c5.58,10.59,11.21,21.21,17.12,32.48,4.32-3.19,6.53-6,5-11.06a67.57,67.57,0,0,1-2.68-13.2c-.25-2.56.4-7.17,1.53-7.45,2.82-.73,6.89-.5,9.11,1.12,4.11,3.08,7.41,7.29,10.84,11.23,10.73,12.37,25.56,18.42,39.59,25.69,6.93,3.61,13.54,8,20.82,10.55a93.08,93.08,0,0,0,22.11,4.53c16.4,1.72,32.86,3.56,49-2.22,13-4.69,16-9.47,11.31-21.51a228.09,228.09,0,0,1-44.65.27c4.87,1.7,9.81,3.25,14.66,5,0,.73,0,1.47.07,2.24-1.71.37-3.58,1.38-5.11,1a211.81,211.81,0,0,1-41-14.64c-23.1-7.58-44.38-21.95-56.81-42.7-4.93-8.23-8.44-17.3-13.91-25.18-14.37-20.68-41.68-30.41-66.62-26.72-13.66,2-30.44,6.52-39.13-4.25-4.93-6.15-5.53-16-12.61-19.5-5.38-2.65-11.71-.12-17.61.91-14.82,2.56-29.36-4.62-42.65-11.58q-33.4-17.55-66.75-35c-19.14-10.06-39.18-20.35-60.81-20.72-7.51-.13-15.22.94-22.45-1.14-11.2-3.24-18.85-13.27-27.7-20.88a43.43,43.43,0,0,0-5-3.75c-1.52,1.29-3,2.54-4.52,3.79-5.9,4.84-11,10.72-17.38,17.28.67,1.4,1.37,2.76,2.12,4.11,33.22,18.66,46.19,46.25,39.23,85-6.79-10.56-17.1-4.85-25-8.21-2.42-1-4.83-2-7.24-2.9,0-.18,0-.31.06-.44a70.6,70.6,0,0,1-7.93-3.4C296.72,306.93,237.77,280,175.8,263.16Z"/><path class="cls-6" d="M445.66,306.48a11.74,11.74,0,0,1,2.09,5.19c2.25,10.69,2.12,22.63,9,31.11,4.13,5.08,10.24,8.13,16.37,10.43a102.91,102.91,0,0,0,25.39,6c1.93.2,4.33.71,4.79,2.6a4.16,4.16,0,0,1-.29,2.34c-3.93,11.12-17,15.61-28.42,18.47-10.13,2.53-21,4.87-30.82,1.46-11.3-3.91-18.75-14.44-25.44-24.36-3.08-4.57-6.26-9.41-6.73-14.9a27,27,0,0,1,1.11-9C414.51,328.87,432.43,290.51,445.66,306.48Z"/><path class="cls-4" d="M693.32,370.73c-1.59-1.5-3-4-4.8-4.34-15.1-2.93-23.64-14-32.53-25-1.66-2-4.86-2.85-7.35-4.23,0,3-.91,6.54.32,9a88.53,88.53,0,0,0,9.45,14.12c7.07,9.13,17,12.4,30.28,12.71Z"/><path class="cls-4" d="M583.79,364.85c2.44-2.65,4.56-8.3,3.36-11.13a177.43,177.43,0,0,0-16.93-30.25c2.62,16.22,8.78,32.4-7.76,46.85C571.57,371.13,578.75,370.33,583.79,364.85Z"/><path class="cls-4" d="M726.33,388.12c-4.53.86-8.85,2.07-13.23,2.4s-8.94-.21-15.2-.43c7.22,6.42,25.28,8.5,31.12,5,4.15-2.48,6.65-6.17,4.66-10.68-4.86-11-14.63-17.78-23.52-25.4C709.43,371.78,722.41,376.45,726.33,388.12Z"/><path class="cls-4" d="M458.5,169l1.26-1.78c-1.68-1.64-3.09-4.18-5.08-4.78-10.68-3.19-21-1-31,3.41C435.25,170.76,447,168.26,458.5,169Z"/><path class="cls-4" d="M539.12,273.57c1,.55,4.23-.68,4.23-1.08,0-2.17.05-5.23-1.29-6.37-5.49-4.68-12.3-5.46-19.07-5.85l-1.32,2.57C527.46,266.46,533.17,270.21,539.12,273.57Z"/><path class="cls-4" d="M509.78,254.83c-3.66-9.38-13.08-13.75-23.75-13l-.47,1.78Z"/><path class="cls-4" d="M306.28,303.24c3.12,9.32,9.12,11.46,18.25,8.59l1-2.57Z"/><path class="cls-7" d="M645.41,442.55c-16.44,9-17.16,13.12-13.86,26.49,1.69,6.83,6.58,9,13.82,6.84,6-1.76,8.15-6.06,6.2-12.79S647.62,449.92,645.41,442.55Z"/><path class="cls-7" d="M673.41,442.86c-2,8.54-3.87,16.34-5.63,24.16-1.45,6.41,1.34,12.3,6.18,13.29,6.18,1.27,11.12-1.72,11.78-9.11a36.09,36.09,0,0,0-8.92-27.36C676.33,443.28,675.12,443.33,673.41,442.86Z"/><path class="cls-7" d="M701.79,448.33c-1.79,6.74-3.74,13.43-5.3,20.22a24.13,24.13,0,0,0-.43,8.44c.84,6.2,5.56,9.81,10.74,8.7,6.38-1.37,9.48-6.42,7.08-12.85-3.11-8.33-6.87-16.42-10.35-24.62Z"/><path class="cls-7" d="M611.72,438.28c-10.51,9.08-11.22,19.21-10.3,29.54.48,5.36,5,7.77,9.8,7.07,5.83-.84,7.27-6.37,6.61-10.89C616.62,455.71,614,447.64,611.72,438.28Z"/><path class="cls-8" d="M475.58,299.84c-8.37-4-16.59-7.57-25.69-2.84a25,25,0,0,0-7.77,6c-4.44,5.42-8.28,11.33-12.46,17-12.66,17.07-6.36,57.33,24.2,63.4,10.85,2.15,21.67,3,28.86-8.61.84-1.36,4.63-.84,7-1.29,2.81-.52,7.17-.23,8.13-1.88,6-10.22,16.65-10.66,26.07-12.66,18.21-3.88,26.36-24.06,13.38-37.57-20.28-21.11-44.22-37.09-72.91-44.91a9.47,9.47,0,0,0-4.92-.27,52.28,52.28,0,0,0-7.11,3.27c2.1,1.28,4.08,3.39,6.32,3.72,17.59,2.56,31.09,10.34,39.06,23l-.8,2.12C489.83,305.47,482.47,303.15,475.58,299.84Z"/><g class="cls-9"><path class="cls-10" d="M683,290.6c-23.65,10.16-48.61-13.65-56.88-24.4-4.28-5.55-11.77-8.41-18-9.88a15.89,15.89,0,0,0-16.87,6.73c-4.45,6.7-9,16.17-5.31,23.37,6.31,12.38,13.41,46.12-25.17,64.23s-74,3.9-92.38-34.75l-21.82,5.92-10.88-13.23,24.83-9.28,128.88-58.1,77.2-35.26,13.29-8,7.86,13.71L677.84,220C703.91,252.82,706.63,280.44,683,290.6Z"/><path class="cls-4" d="M683.54,291.82a31.5,31.5,0,0,1-10.12,2.39,35.71,35.71,0,0,1-10.3-.86,55.36,55.36,0,0,1-18.46-8.54,90,90,0,0,1-15.19-13.35c-1.13-1.25-2.23-2.53-3.29-3.86-.53-.69-1-1.31-1.54-1.91l-.82-.87-.88-.82a28.64,28.64,0,0,0-8.38-4.89,46.42,46.42,0,0,0-4.68-1.55,20.31,20.31,0,0,0-4.74-.86,15.18,15.18,0,0,0-12.49,5.8,42.4,42.4,0,0,0-2.64,4.13,42.84,42.84,0,0,0-2.22,4.39,28.8,28.8,0,0,0-1.62,4.6,15.31,15.31,0,0,0,.13,9.34l.46,1.07.56,1.15c.35.78.7,1.56,1,2.35a47.08,47.08,0,0,1,1.63,4.83,50.31,50.31,0,0,1,1.54,20.22,42.68,42.68,0,0,1-7.41,18.92,45.31,45.31,0,0,1-6.79,7.65,56.86,56.86,0,0,1-8.12,6.17l-1.07.69-1.1.63-2.21,1.27c-1.52.75-3,1.58-4.55,2.25l-2.31,1c-.77.34-1.57.64-2.35,1-1.56.66-3.17,1.19-4.77,1.76a73.66,73.66,0,0,1-20,3.79,59.86,59.86,0,0,1-10.23-.37,57.85,57.85,0,0,1-10-2.06,61.82,61.82,0,0,1-9.56-3.74,65.94,65.94,0,0,1-8.81-5.27,72.9,72.9,0,0,1-7.88-6.58,78.06,78.06,0,0,1-6.87-7.61,95.67,95.67,0,0,1-10.81-17.32v0l2.33,1.07-22.12,4.71h0l-.41.14-.37-.39-11.83-12.42,0,0-1.8-2.19,2.64-.95,14.83-5.33c4.93-1.81,10-3.41,14.7-5.69l28.86-12.82,28.82-12.92,28.78-13c19.18-8.69,38.39-17.29,57.49-26.18l28.69-13.23,28.65-13.31-.19.1,13.23-8.06h0l1.74-1.06,1,1.78,7.86,13.71.83,1.45-1.29,1.08-9.94,8.3h0l.28-2.78a144.28,144.28,0,0,1,11.76,17.41,79.57,79.57,0,0,1,8.16,19.52,43.94,43.94,0,0,1,1.43,10.65A29.7,29.7,0,0,1,698.86,277a24.4,24.4,0,0,1-6.18,9A31.53,31.53,0,0,1,683.54,291.82Zm-1.05-2.44a28.78,28.78,0,0,0,8.24-5.38,21.48,21.48,0,0,0,5.32-8,26.64,26.64,0,0,0,1.53-9.62,40.73,40.73,0,0,0-1.49-9.84A76.17,76.17,0,0,0,688,238a140.64,140.64,0,0,0-11.72-16.75L675,219.71l1.5-1.26h0l9.94-8.3-.45,2.53L678.18,199l2.76.72h0l-13.33,7.89-.1.06-.09,0L552.18,259.6l-28.83,13-28.79,13-28.75,13.15c-2.4,1.09-4.76,2.26-7.26,3.13l-7.38,2.86-14.76,5.73.84-3.14v0l9.9,14-.78-.25h0L467.9,314l1.45-.48.88,1.55v0a91.92,91.92,0,0,0,10.07,16.81,74.76,74.76,0,0,0,6.42,7.38,69.54,69.54,0,0,0,7.38,6.39,57.92,57.92,0,0,0,17.31,8.85,54.89,54.89,0,0,0,9.54,2.08,57.05,57.05,0,0,0,9.78.47c13.08-.45,26-4.83,37.27-11.58a53,53,0,0,0,7.86-5.88,43.26,43.26,0,0,0,6.54-7.27,40.67,40.67,0,0,0,7.18-18,48.48,48.48,0,0,0-1.36-19.48,45.26,45.26,0,0,0-1.54-4.67c-.29-.77-.62-1.51-1-2.26l-.53-1.1-.53-1.24a17,17,0,0,1-.12-10.37,30.4,30.4,0,0,1,1.73-4.83,44.43,44.43,0,0,1,2.33-4.53,43.56,43.56,0,0,1,2.79-4.29,16.73,16.73,0,0,1,13.77-6.41,21.83,21.83,0,0,1,5.09.91,47.88,47.88,0,0,1,4.84,1.6,31.34,31.34,0,0,1,8.88,5.11l1,.88.91.94c.58.67,1.13,1.34,1.63,2,1,1.28,2.13,2.52,3.25,3.73a85.45,85.45,0,0,0,15,12.85,53.21,53.21,0,0,0,17.84,7.93A30.6,30.6,0,0,0,682.49,289.37Z"/><path class="cls-11" d="M487.05,305.13,564,268.45s32.23,48.25-4.4,69.38C508.34,367.39,487.05,305.13,487.05,305.13Z"/><path class="cls-4" d="M484.75,304.16c26.3-12.57,52.73-24.79,78.79-36.66l.85-.39.48.75h0c1.12,1.48,2.1,3,3.06,4.54s1.88,3.11,2.71,4.73a83.93,83.93,0,0,1,4.52,10,59.15,59.15,0,0,1,4.1,21.72A38.84,38.84,0,0,1,577.47,320a33.73,33.73,0,0,1-5.32,10.17,40.23,40.23,0,0,1-8.34,7.79A51.52,51.52,0,0,1,559,340.9a53.19,53.19,0,0,1-5,2.5l-2.55,1.14c-.86.35-1.76.64-2.63,1s-1.75.66-2.66.89l-2.73.7c-.46.11-.91.25-1.37.33l-1.4.23c-.94.15-1.87.31-2.81.44a46.49,46.49,0,0,1-5.7.2c-1-.06-1.91,0-2.86-.16l-2.85-.37c-.94-.16-1.87-.41-2.8-.61a21.74,21.74,0,0,1-2.75-.8,40.76,40.76,0,0,1-10.24-5A59.51,59.51,0,0,1,495,325.54a87.25,87.25,0,0,1-5.75-9.45q-1.29-2.44-2.42-5c-.38-.84-.74-1.69-1.1-2.54l-.52-1.3-.25-.66-.12-.34,0-.08-.09-.26A3,3,0,0,1,484.75,304.16Zm4.61,1.94a2.08,2.08,0,0,0,.16-1.47c0-.16-.06-.19,0-.14v0l0,.07.11.29.23.6.48,1.2c.34.8.68,1.59,1,2.38q1.08,2.37,2.31,4.67a82.29,82.29,0,0,0,5.46,8.86A56.51,56.51,0,0,0,513.55,337a35.64,35.64,0,0,0,9,4.42,17.72,17.72,0,0,0,2.39.7c.81.18,1.62.41,2.44.54l2.48.33c.82.14,1.67.09,2.5.14a41.25,41.25,0,0,0,5-.15l2.5-.38,1.25-.19c.42-.08.82-.2,1.24-.3l2.47-.62c.82-.2,1.62-.53,2.43-.79s1.63-.53,2.42-.84l2.37-1a49,49,0,0,0,4.65-2.27,47.1,47.1,0,0,0,4.41-2.59,35.54,35.54,0,0,0,7.38-6.71,29.1,29.1,0,0,0,4.69-8.71,34.38,34.38,0,0,0,1.7-9.89c.21-6.81-1.26-13.69-3.38-20.34a103.1,103.1,0,0,0-3.73-9.85c-.72-1.61-1.45-3.21-2.21-4.81s-1.59-3.17-2.43-4.69h0l1.33.37C539.21,282,514.35,294.22,489.36,306.1Z"/><path class="cls-11" d="M623.5,241.87l38.92-15.08s32.49,25.65,20.28,44C659.77,305.11,623.5,241.87,623.5,241.87Z"/><path class="cls-4" d="M622,241.33c-1-.51-.32-.44-.21-.56l.62-.26,1.24-.53,2.49-1.05,5-2.1c3.38-1.38,6.74-2.79,10.18-4.1s6.85-2.63,10.26-3.89,6.85-2.45,10.26-3.56l1-.31.63.55h0a97.7,97.7,0,0,1,12.07,11.79,57,57,0,0,1,9.29,14.25,26.74,26.74,0,0,1,2.2,8.5,18.28,18.28,0,0,1-1.48,8.87,13.47,13.47,0,0,1-1.06,2,19.3,19.3,0,0,1-1.21,1.84,33.26,33.26,0,0,1-2.77,3.37,21.49,21.49,0,0,1-7.27,5.15,17.42,17.42,0,0,1-9,1.13,25.55,25.55,0,0,1-8.37-2.73,56.32,56.32,0,0,1-13.52-10.34,119.34,119.34,0,0,1-10.93-12.75q-2.51-3.35-4.85-6.83-1.17-1.74-2.29-3.51l-1.11-1.78-.55-.9-.27-.45-.13-.23-.08-.13a2.09,2.09,0,0,1-.18-.47A2.12,2.12,0,0,1,622,241.33Zm3.06,1.08a1.24,1.24,0,0,0,.12-.76,1.21,1.21,0,0,0-.11-.36l0,0,0,0,.13.22.26.44.53.87,1.08,1.74q1.1,1.73,2.24,3.43,2.29,3.41,4.75,6.69a116.2,116.2,0,0,0,10.63,12.4,53.2,53.2,0,0,0,12.71,9.74,22.33,22.33,0,0,0,7.31,2.4,14.15,14.15,0,0,0,7.31-.91,18.26,18.26,0,0,0,6.15-4.38,25.06,25.06,0,0,0,4.42-6.31,15,15,0,0,0,1.21-7.3,23.52,23.52,0,0,0-2-7.48A53.85,53.85,0,0,0,673,239.42a94.75,94.75,0,0,0-11.62-11.35h0l1.59.24c-3.07,1.4-6.16,2.68-9.2,4s-6.13,2.46-9.2,3.65-6.17,2.31-9.28,3.44L630.61,241l-2.37.83-1.19.42-.6.21C626.16,242.53,626.42,242.76,625,242.41Z"/></g><path class="cls-12" d="M427.41,311.94l-92.14,92s-34.41,41.83-4,54.71c22,9.3,8-18.63,19-34.09s93.37-99.74,93.37-99.74Z"/></g></svg>