<svg id="Warstwa_1" data-name="Warstwa 1" xmlns="http://www.w3.org/2000/svg" viewBox="0 0 142 106"><defs><style>.cls-1{fill:#3267ad;}.cls-2{fill:#41b8d4;}.cls-3{fill:#1f1f45;}.cls-4{fill:#fe8d22;}.cls-5{fill:#ffd600;}.cls-6{fill:#cae10c;}.cls-7{fill:#00a6c5;}.cls-8{fill:#86077f;}.cls-9{fill:#f11a89;}</style></defs><title>Obszar roboczy 1</title><g id="Speakers"><polygon class="cls-1" points="9.72 59.39 15.34 62.6 21.11 65.56 26.68 68.88 32.27 72.18 32.53 73.11 29.65 80.72 29.86 80.86 26.45 87.86 25.52 87.76 19.77 84.7 13.95 81.79 8.03 79.04 2.15 76.22 2.15 74.79 4.14 67.23 4.12 67.11 8.39 59.66 9.72 59.39"/><polygon class="cls-2" points="30.25 80.77 25.9 88.12 25.19 88.39 19.55 85.14 13.7 82.26 7.9 79.3 2.07 76.38 1.9 75.2 4.18 67.09 10.8 70.3 16.97 74.21 23.37 77.7 30.25 80.77"/><path class="cls-3" d="M29.95,80.89h-.17l-.13.78-.38,1.08L28.45,85l-1.12,2.17-.9.88-.22.23.08.82L25,88.94l-2-1.27-2.07-1L17,84.3,8.54,80.67,4.74,78,2.4,77.54l-.51-.27.17-.64-.14.12,0-.11-.17.2-.38-.26.15-1.49L1,74.92l2.87-7.86L4,66.71l.47-.08,3.2,1.83,3.18,2,2,.22,1.52,1.14,3.21,1.85,3.17,1.83,3.16,1.78Zm0,.12,0-.39-6.74-3.17-3.33-1.53-3.35-1.42-3.2-1.62-1.38-1.16-1.48-1L7,69.52l-3-2,.53-.27-2.38,8-.26-.06.52.3L2,76.09l.48-.42h0l-.28.59.14-.12.08.17.63,0,2.05,1L9,79.86l8.39,3.78L21.28,86l2,1.13,1.2.14.47.35.12.45.38-.52-.06.32.06.09.06-.18h-.07l-.25-.07v-.3l.79-.81,1.34-1.71.71-2.21L29,82Z"/><polygon class="cls-1" points="32.38 73.06 30.46 80.52 29.38 80.77 23.24 77.11 16.84 73.91 10.35 70.88 4.5 67.19 8.69 59.84 9.61 59.58 15.49 62.34 20.86 66 26.73 68.8 32.37 72 32.38 73.06"/><path class="cls-3" d="M32.67,73.33l-.15,1.84-.32,1.91-.56,1.87-1.16,1.57.07.08-.07,0-.58.48-.43.19-.23-.06-.17,0-.81-.43-1.45-1.2-3.47-1.3-3.06-2.1-3.36-1.51-6.58-3.31L3.88,67.81l-.37-.4.07-.54,1.53-1.77,1.07-2.06,1.4-1.86.08-1.29.57-.35.65-.66.85.31.24-.25.13-.1-.16.62.28.08,1.17.26,2.12.95,4.16,2.07,7.83,5,3.83,2.62,2.16.91.86.85.56.37-.07.35.17.54Zm-.26.12.08-.36-.29-.62-1.09-.37L29.2,70.72l-4.17-2-8.16-4.39-4-2.31-2.07-1.07-1-.58-.28-.1-.13-.07.15-.4L9.36,60l-.25-.47L8.95,60l-.1.61-.6,1L6.89,63.46l-1,2.12L4.61,67.34l-.2-.52,6.41,3.63,6.81,2.87,3.1,2L24,77l3,2.15,1.77.61.88.3-.14.62.09,0,.12-.31h.13l-.25-.11.71-1.83.78-1.75.44-1.9Z"/><polygon class="cls-3" points="29.59 82.16 26.76 81 25.56 80.08 24.63 80.36 24.4 79.88 24.11 79.64 21.54 78.26 18.95 76.9 13.72 74.28 8.49 70.95 14.17 73.41 19.35 76.13 22.25 76.83 24.73 78.42 25.07 78.55 25.25 78.96 25.98 79.1 27.35 79.6 30.01 80.68 29.59 82.16"/><polygon class="cls-3" points="28.76 82.97 28.44 82.41 27.96 82.05 26.61 82.04 24.57 80.73 23.49 80.17 22.89 79.95 22.49 79.42 20.09 78.74 16.19 75.8 11.5 73.56 16.26 75.64 20.3 78.38 22.55 79.29 23.05 79.66 23.68 79.67 24.84 80 27.04 81.11 28.4 80.97 28.88 81.49 29.37 81.65 28.76 82.97"/><polygon class="cls-3" points="28.15 83.91 27.2 83.44 26.36 82.89 25.52 82.3 25.03 82.16 24.7 82.28 24.46 82.04 23.39 81.82 22.77 80.84 20.72 80.29 17.41 77.85 15.61 76.86 13.73 75.78 15.64 76.83 17.69 77.28 21.2 79.43 24.8 81.33 25.18 80.82 25.29 81.38 25.75 81.64 26.76 81.87 27.77 82.16 28.93 82.59 28.15 83.91"/><polygon class="cls-3" points="27.05 84.87 26.87 84.69 26.31 84.31 24.89 84.12 23.87 83.02 23.06 83.14 22.91 83.02 22.65 82.98 22.43 82.67 20.11 81.15 17.93 79.6 20.35 80.74 22.78 82.08 23.05 82.31 23.25 82.17 23.45 82.04 24.07 82.39 25.33 83.05 26.66 83.52 27.32 83.8 27.84 83.53 28 83.76 27.05 84.87"/><polygon class="cls-3" points="26.85 86.45 25.99 86.06 25.42 85.3 24.02 84.12 23.06 83.97 22.39 83.29 20.66 82.66 17.52 80.84 14.02 79.03 17.61 80.66 21.04 81.88 22.56 82.92 22.95 83.15 23.05 83.47 23.5 83.02 24.28 83.53 25.82 84.57 26.75 84.78 27.95 85.29 26.85 86.45"/><polygon class="cls-3" points="26.33 87.47 25.54 87.26 24.99 86.97 24.04 86 22.74 85.67 22.37 84.94 22.12 85.08 21.94 85.25 21.83 85.2 21.77 84.94 21.5 85.05 19.51 83.27 17.27 81.87 19.58 83.16 22.23 83.71 22.25 84.06 22.42 84.03 22.59 84.41 23.33 84.33 24.63 84.68 25.61 85.77 26.24 86.01 27.04 86.13 26.33 87.47"/><polygon class="cls-3" points="24.29 87.19 23.04 80.63 19.13 75.17 24.42 78.06 29.85 81.02 26.28 88.18 25.43 87.92 24.29 87.19"/><polygon class="cls-1" points="10.83 35.86 17 33.9 23.17 31.92 29.28 29.72 35.67 28.45 36.77 28.61 40.02 36.07 40.19 36.06 42.31 43.54 42.06 43.9 35.93 46.06 29.9 48.58 23.53 50.07 17.48 52.53 16.48 51.73 12.81 44.83 12.46 44.92 10.3 36.62 10.83 35.86"/><polygon class="cls-2" points="40.22 35.98 42.74 43.93 42.23 44.4 36.06 46.46 29.87 48.49 23.75 50.75 17.65 53.04 16.58 52.2 12.69 44.98 19.51 42.99 26.31 40.33 33.22 38.03 40.22 35.98"/><path class="cls-3" d="M40.18,35.76l-.07.45,1,.4.35,1.08L42.15,40,43,42.23V43.5l.29.24-.11.57-.63.92-2.18.92-2.19.62-4.34,1.51-8.82,2.59-4.3,1.63-2.11.93L18,53.33l-.19-.13-.08,0v.14l-.13-.24-.38.7L15.75,52.5l.32,0-4-7.32-.24-.52.51-.28,3.51-1.13L19.31,42l1.88-.32,1.61-1.05,3.51-1.21L30,39l3.5-1Zm-.12.36,0-.33-6.78,3.15L29.77,40.1l-3.46,1.11L23,42.49l-1.8.19-1.66.66L16,44.18l-3.4,1.19.55-.85,4,7.39.1,0-.36.19.46.2,0-.2.1.27.09.16.08,0,.09-.18.63.07,2-1.34,4.4-1.32,8.83-2.54,4.31-1.58L40,44.94l1-.52.54-.21.28-.08.27.28L42,44h-.17l.28-.13h0l-.27.39,0-.3-.12-1.1-.93-2-.29-2.24-.31-1.13Z"/><polygon class="cls-1" points="36.56 28.71 39.87 35.64 39.71 36.16 32.83 38.09 26.23 40.93 19.34 42.88 12.4 45.16 10.14 36.66 10.71 35.47 16.88 33.49 23.18 31.95 29.45 30.28 35.57 28.13 36.56 28.71"/><path class="cls-3" d="M36.78,28.76l1,1.56,1.08,1.57,1.1,1.6.7,1.77-.39.22.42-.14-.2.9-.47.08-.06.29-.19-.08-.89.24-1.63.92-3.54,1-3.43,1.35-3.64.72-7,2.27-7.06,2.11-.39.4-.26-.43-.32-2.3-.9-2.16-.27-2.32-.12-1.17-.45-.49-.09-.93.76-.58.2.26,0-.09V34.9l.38.24,1.06-.5,2.07-1.08,4.58-.91,8.8-3L32.28,29l2.18-.86,1.25.13.76-.4.18.42.41.24Zm-.22.33.07-.4-.94-.41-1,.69-2.18.8L28,30.82l-8.68,3.28-4.51,1.15-2.32.27L11.43,36,11.12,36H11l0,.35-.11-.27,0,.23-.43.26.23.53.2,1.15.83,2.18.79,2.19.45,2.18-.66-.44,7.15-2,7-2.14,3.41-1.41,3.48-1.22,3.59-.83,1.86-.23.86-.36-.1-.43.23.26,0-.17.27.06-.07-.27-1.53-1.32-.51-1.94-1-1.67Z"/><polygon class="cls-3" points="40.43 37.09 38.18 38.55 36.77 39 36.01 39.05 35.74 39.52 35.32 39.43 32.56 40.4 29.66 40.9 24.07 42.58 18.8 44.27 23.94 42.24 29.31 39.9 32.15 39.16 34.91 38.21 35.28 38.18 35.42 37.65 36.05 37.28 37.33 36.56 40.09 35.91 40.43 37.09"/><polygon class="cls-3" points="41.19 38.3 40.34 38.37 39.83 38.68 38.77 39.24 36.41 39.82 35.22 40.1 34.6 40.24 34.06 40.54 31.66 40.96 27.2 42.95 22.25 44.11 27.08 42.57 31.61 40.84 33.89 40.04 34.43 39.74 34.95 39.55 36.03 39.02 38.35 38.2 39.24 37.22 39.77 36.83 40.33 37.05 41.19 38.3"/><polygon class="cls-3" points="40.73 39.43 40.13 39.7 39.28 40.21 38.35 40.58 37.72 40.4 37.59 40.76 37.24 40.71 36.24 41 35.21 41.12 33.32 41.96 29.29 42.71 27.42 43.68 25.74 43.95 27.21 43.04 29.15 42.39 33.04 41.09 36.82 39.59 37.13 39.81 37.24 39.5 37.76 39.37 38.63 38.79 39.46 38.03 40.98 37.88 40.73 39.43"/><polygon class="cls-3" points="41.48 40.85 40.77 40.66 40.2 41.08 38.86 41.43 37.56 41.91 37.09 42.58 36.74 42.22 36.59 42.33 36.28 42.56 33.58 43.26 31.03 43.72 33.48 42.88 36.21 42.24 36.4 41.79 36.49 41.7 36.68 41.72 37.28 41.37 38.4 40.51 39.88 40.27 40.36 39.62 40.88 39.85 41.33 39.35 41.48 40.85"/><polygon class="cls-3" points="42.05 42.12 41.22 42.56 40.34 42.65 38.51 42.77 37.58 42.83 36.86 43.62 35.03 43.85 31.5 44.73 28.17 46.03 31.63 45.08 34.76 43.12 36.54 42.68 36.91 42.4 37.14 42.4 37.34 42.25 38.13 41.78 39.95 41.37 40.89 41.22 41.79 40.65 42.05 42.12"/><polygon class="cls-3" points="42.01 43.23 41.59 43.05 41.05 43.47 39.88 44.05 38.57 44.25 38.06 44.78 37.78 44.5 37.64 44.34 37.63 44.66 37.5 44.87 37.31 44.79 34.66 45.02 32.34 45.74 34.48 44.58 37.05 43.92 37.15 43.74 37.15 43.39 37.65 43.74 38.01 42.97 39.43 42.88 40.56 42.09 41.35 42.27 42.23 41.71 42.01 43.23"/><polygon class="cls-3" points="40.74 44.61 35.1 41.22 28.49 39.59 34.41 38.15 40.25 36.23 42.59 43.82 42.13 44.12 40.74 44.61"/><polygon class="cls-1" points="1.75 13.82 6.28 9.2 10.95 4.73 15.66 0.29 16.64 0.15 21.19 4.21 21.5 3.93 25.2 8.45 25.55 8.97 20.63 13.24 16.31 18.11 11.37 22.36 10.71 22.49 5.65 19.52 5.64 19.36 1.28 14.63 1.75 13.82"/><polygon class="cls-2" points="21.35 3.63 25.64 8.53 25.44 8.86 21.25 13.86 16.32 18.12 11.73 22.73 11.02 22.66 5.96 19.23 10.92 14.09 16.18 9.07 21.35 3.63"/><path class="cls-3" d="M21.23,3.79l.15-.13.41.87,1.08.06,1,1.57,1.25,1.31,1,.3L26,8.16l.22.37-.34.69-1.17,1.32-1.13,1.3L20.91,14l-4.65,5.08-2.63,2.24-.95,1.48L12.3,23l-.19,0,0,0-.1-.07-.08,0,.08.73-1.1-.77-.09.12L5.38,19.79l.14-.54-.19-.47,2.23-1.66,1.89-2,1-.95,1.07-.89,2-1.86,1.87-2,2.08-1.75Zm0,.37.3.11L17.29,7.91l-1.41,2.44L13.64,12l-1.91,1.88-.59,1.32-1.2.64L8,17.61,5.9,19.3,6,18.94,11.2,22.4l-.19.3.2-.17.42.34-.12-.36.09.08.14.1,0,0h.16l.36-.25L13,20.73,16,18.78l4.8-4.93,2.06-2.8,1.64-.81.15-1,.57-.07L25.29,9h.16l.14,0,.15-.17-.41-.16,0-.08.08.2-.19-.1-.81-.34-.8-1.47L22.75,5.4l-1-.33Z"/><polygon class="cls-1" points="16.67 0.1 20.92 4 20.92 4.1 15.78 9.04 10.8 14.15 5.82 19.33 1.54 14.4 1.29 13.33 6.34 9.27 11.06 4.85 15.56 0.19 16.67 0.1"/><path class="cls-3" d="M16.61.39l1.28.52,1.44.44,1,1.06.87,1.17,0,0,.15-.15,0,.59.2.36-.08.16,0,.2-.92,0L19.85,6,17.9,8,16,9.94l-1.76,2.14L9.95,15.61,6,19.43l-.19.36-.36-.2-.92-1.49L3.29,16.89,2,15.7l-.26-.93-.26-.36L.95,14l.48-.47-.23-.32.31.24-.19-.35,0-.29,1-.18L3.16,11,5.62,8.52l5.47-4.3,2.38-2.56L15.17,1l.3-1,.66.12.24,0,.27.09Zm.09.12L16.46.37l-.4.26-.72.48-1.4,1.06L11.5,4.63l-4.8,5L3.95,11.78,2.81,13.13l-.63.59L2.13,14l-.49-.38.18.29-.09-.06L1.66,14H2l0,.59.58.65,1.24,1.23L5,17.66,6,19l-.42,0,3.8-4,4.21-3.58,2-1.89,1.73-2.18,2.28-1.59.74-1.23.76-.21L20.85,4,20.69,4l.6.08-.06,0-.44.25-1-1.1-1.41-.52-.69-1.38Z"/><polygon class="cls-3" points="21.9 4.65 20.71 6.26 20.04 7.12 19.92 7.76 19.41 7.71 19 7.68 17.84 9.62 15.94 10.8 12.76 13.8 9.78 16.7 12.63 13.68 15.39 10.27 16.95 8.73 18.29 6.99 18.55 6.86 19.03 6.96 19.35 6.51 20 5.65 21.34 3.59 21.9 4.65"/><polygon class="cls-3" points="22.41 5.45 22.32 5.63 21.8 5.7 21.43 6.59 20.11 7.83 19.39 8.4 19.04 8.71 18.62 8.93 17.23 10.1 15.03 13.05 12.41 15.09 14.85 12.86 17.01 9.9 18.7 9.02 18.61 8.3 19.18 8.24 19.67 7.48 20.83 6.07 21.49 5.41 21.82 5.09 21.82 4.55 22.41 5.45"/><polygon class="cls-3" points="23.11 5.99 22.38 6.33 22.14 7.11 21.68 7.71 21.11 7.72 21.27 8.11 21.07 8.27 20.53 8.83 19.85 9.22 18.81 10.36 16.32 12.16 15.41 13.46 13.97 14.51 15.42 13.42 15.97 11.85 18.44 9.96 20.57 7.79 20.21 7.34 20.58 7.35 20.79 7.03 21.42 6.52 21.74 5.77 22.45 5.02 23.11 5.99"/><polygon class="cls-3" points="23.66 6.93 23.64 7.31 22.87 7.2 22.18 7.99 21.43 8.72 21.23 9.23 21.32 9.49 21.14 9.54 21.15 9.99 19.21 10.88 17.82 12.22 19.07 10.76 20.49 9.26 20.64 9.04 20.57 8.91 20.93 9.01 21.47 8.75 21.9 7.78 22.44 6.87 23 6.63 22.74 6.04 22.85 6.16 23.66 6.93"/><polygon class="cls-3" points="24.3 7.66 24.12 7.91 23.4 8.07 22.62 9.25 21.86 9.42 21.62 10.16 20.76 11.23 18.37 12.66 16.42 14.98 18.22 12.54 20.37 10.82 21 9.57 21.66 9.7 21.34 9.21 21.7 9.28 22.11 8.73 22.94 7.63 23.25 6.98 23.73 6.76 24.3 7.66"/><polygon class="cls-3" points="25.09 8.18 25.03 8.68 24.58 8.87 23.71 9.38 23.03 10.07 22.84 10.57 22.57 10.48 22.74 10.73 22.69 10.82 22.68 11.03 22.2 10.64 20.85 12.13 19.25 13.24 20.55 11.79 21.64 10.13 22.03 10.31 22.1 10.21 22.14 9.96 22.32 9.47 23.15 8.86 23.71 8.03 23.96 7.56 24.27 7.49 25.09 8.18"/><polygon class="cls-3" points="24.55 9.88 15.02 10.41 21.42 4.01 25.5 8.51 25.27 8.73 24.55 9.88"/><polygon class="cls-1" points="140.33 35.9 138.63 42.8 137.3 49.76 136.6 56.83 134.85 63.71 134.13 70.78 132.7 77.73 131.21 84.67 129.85 85.76 123.49 85.21 117.11 84.84 110.74 84.33 104.38 83.68 104.2 83.87 96.83 82.86 89.58 81.1 88.85 80.13 89.56 73.03 90.96 66.04 91.71 58.96 92.4 51.87 93.62 44.84 94.45 37.76 95.92 30.77 97.64 29.57 105.1 28.97 112.56 28.5 112.69 28.78 119.18 30.15 125.7 31.44 132.21 32.79 138.76 33.9 140.33 35.9"/><polygon class="cls-4" points="104.31 83.69 96.99 82.38 89.51 81.55 88.46 80.07 89.49 73.02 90.84 66.03 91.4 58.91 92.38 51.86 93.53 44.83 94.88 37.82 95.41 30.7 97.63 29.31 105.18 29.17 112.7 28.66 111.54 35.51 110.42 42.39 109.47 49.29 108.74 56.23 107.29 63.06 106.34 69.96 105.27 76.86 104.31 83.69"/><path class="cls-3" d="M104.23,83.8l.14,0-1.78.37-2.13-.36L96,83.66l-4.46-1.09-1.19.15-.53-.27-.23-.31-.24.47-.2-.26L88,80.76v-.46l-.57-.49.69-.41L88.31,75l.92-4.23,1.28-8.57,1-8.6L93,45.08l1-8.61.47-4.31.45-1,.21-.53-.18-.89,1.41-.81,1.38-.14-.09-.17,7.53-.61,7.56.21.86-.33-.15.86-.78,7-1.26,7-.24,3.57-.39,3.54-1.07,7L108,63.65l-.67,6.94-1.68,6.58Zm-.16.11.32-.33L105,76.5l1-7,.48-7,1.23-6.85.58-6.86.73-3.34.91-3.28.71-6.84,1.26-6.8.8.63-7.51.29-7.51,1-.08-.59-.14.61-.83.19-.13.24.08.55-.43,1-.45,4.31-1.14,8.59L93,53.84l-1.4,8.55L90.82,71l-1,4.24-.49,4.31.12.56.33.06-.34.32.29-.22v0l.16-.24.2.42.53-.07,1,.05,4,.66,4,1.39,2.28,0Z"/><polygon class="cls-5" points="129.79 86.36 121.62 85.53 113.44 84.61 105.22 84.15 104.16 82.7 105.35 75.96 106.1 69.16 107.68 62.48 108.18 55.64 109.67 48.95 110.65 42.18 111.45 35.38 112.53 28.57 119.06 30.16 125.61 31.47 132.25 32.41 138.68 34.33 140.3 35.9 138.53 42.78 137.62 49.81 136.44 56.8 135.25 63.78 133.94 70.75 132.68 77.73 131.45 84.71 129.79 86.36"/><path class="cls-3" d="M129.38,86.51l-9.79,0-5.07-.38-5-.63-2.43-.89-1.25-.26-.67.14-.86-.46-.8-.78.17-.57-.08-.35.28-1.23.86-2.44.64-10.13.61-5,1-5,1.59-10,1.2-6.65.8-6.71,1.47-6.6-.32-1.17.95.78,5,.71L122.62,30l10,1.77,4.95,1.07,1.19.47.67.56,1.11.15.08,2,0,1.28-1.18,10.07-1.23,4.94-1.09,4.95-2,9.95-1.88,10-.75,5-.84,2.42.3.42-.34.3-.31.78-1.56.09Zm-.31-1.16.81.1.73-.23.16-.33.55-.07.13-.28.12-2.54.7-5,1.07-10.09,1.68-10,.69-5,1-5,2.62-9.83-.23-1.34-.17-.4,0-.36-.38-.13-1.21-.39-5-.8-9.84-2.51-5.09-.44-4.78-1.6.91-.39-1,6.71-.63,6.73-1,6.68-1.69,10-1.11,5-.23,5.1-2.38,9.87-.19,2.54,0,1.27-.42.25-.16.24.26.42.45,0,.63-.27,1.26.36,2.55-.33,5.07.39,5.07.24Z"/><polygon class="cls-6" points="129.77 64 130.13 70.51 126.79 78.37 119.57 82.67 113.48 76.66 112.96 68.04 115.77 59.84 123.39 56.11 128.38 60.03 130.72 58.14 132.68 61.35 129.77 64"/><path class="cls-3" d="M130,64.19l.35.16,0,.11.09.11.28.46.24,1v1.07l.23,1-.78,4.13-1.54,3.87-2.15,3.61-3.49,2.4-4.28.64-3.46-2.54L113,76.82l-.7-8.3,2.88-7.71,2.46-3.42.81-.73,1-.42,1-.52,1.12-.11,2.3-.31L126,56.39l3.19,3.2-1.31,0,1.06-1.16,1.34-.91,1.94.22L133,59.4l-.83,3-.74,1.26-.69.27-.34,0-.17.62v-.5Zm.17-.08.06-.23.18,0,.27-.17.4-.47.64-1.06.21-2.52-.71-.89-.85-.56-.88.72-.31,1.16-.48,1.23-.92-1-2.41-2.87-1.79-.35-1.77-.27L118.15,58l-2.41,3.17-1.62,3.6-1,3.84v1l-.2,1,.47,2,.6,3.89,2.15,3.21,3,2.15,3.85-.07,3.12-2.48,1.72-3.56L128.9,72l.7-.87,0-1,.4-2,.15-1-.56-1,.47-1v-.51l-.11-.3h0Z"/><polygon class="cls-7" points="123.49 75.69 122.11 78.04 120.58 78.14 119.25 78.21 116.83 77.06 115.04 75.17 113.54 70.15 113.82 67.52 114.88 65.12 116.13 62.86 117.7 60.63 118.4 60.43 118.97 59.98 119.64 59.7 120.08 60.01 120.38 59.73 123.24 60.19 125.31 62.17 126.41 64.7 126.63 67.37 126.12 69.91 125.75 69.94 126.06 68.63 125.86 67.39 125.05 65.09 122.51 61.47 120.48 61.01 119.9 60.67 119.41 61.13 118.81 61.17 118.18 61.32 115.62 65.42 114.73 70.15 115.56 74.89 117.14 76.66 117.55 77.12 117.97 76.92 118.14 77.23 118.45 77.06 118.72 77.28 119.01 77.56 119.28 77.4 120.22 76.7 121.21 76.4 123.58 75.78 123.49 75.69"/><polygon class="cls-6" points="124.38 45.53 117.83 52.35 114.08 44.05 120.04 37 124.38 45.53"/><path class="cls-3" d="M124.07,45.52l-.18,2.65-1,2.66-.54.47-.64.34-.84,0-.25.92-2.9.4-2.34-1.54-1.71-2.14-.78-2.65.4-2.71.67-2.59,1.41-2.28.15-.77.53-.47.72-.23.35-.76.64-.41.32-.19.52.23.75-.12.8-.39,2.57,1.8,1.52,2.42.21,5.43Zm0-.06-.83-4.93-3.35-2.45-1.95.16-.55.15h-.77l0,.88-.53.32-2,4.45.69,4.84,1.3,1.9,1.78,1.35,3.88-2.27L123,47.82l.84-2.46Z"/><polygon class="cls-5" points="121.69 45.14 117.34 50.09 114.6 44.12 118.83 39.67 121.69 45.14"/><path class="cls-7" d="M121.87,45.09,121.48,47l-.83,1.52-.1.65-.48.17-.83.5-1.89.2-1.58-.91-1.49-1.29-.33-1.9.46-1.82.21-1.82.83-1.69.38-.31.14-.54,1-.33.55,0-.08-.73.34,0,1.17.08,2,.91.9,1.83-.22,3.65Zm-.65,0L121,41.8l-1-1.22-1.27-.18-1.25-.11-.34.14-.43.1-.36.22.17.66-1.19,2.83-.16,3.23,2.27,1.93,1.34-.4.36-.13.06-.44.52-.1.41-.26.11-1.68,1.07-1.32Z"/><polygon class="cls-6" points="134.45 43.92 130.3 48.44 127.2 42.88 131.76 38.22 134.45 43.92"/><path class="cls-3" d="M134.76,43.93l.09,2-1,1.75-.46.23-.32.4-1,.35-1.87.15-2-.43-.64-1.9-1-1.71.58-1.88.55-1.74.63-1.8.4-.3.35-.33.75-.64.31-.52.33,0,.27-.07,1.1.11,1.92.86.72,1.83.16,3.62Zm-.46,0-.73-3.2-.87-1.14-1-.66-1.27.17L130,39l-.48.07.1.67-.64,0-.6,3.26-.28,3.26.78,1.48,1.49.47,1.46-.2.34-.2.27-.32,0-.48.35-.27.77-1.39L134.7,44Z"/><polygon class="cls-5" points="132.71 43.67 129.97 46.79 128.44 43.05 130.99 39.68 132.71 43.67"/><path class="cls-7" d="M133,43.66l.13,1.42-.83,1-.54.44-.59.35-1.33.47-1.45-.52-.85-1.2.23-2.66.78-2.42-.06-.5L129,40l.54-.49.69-.44.89.06,1.71.53.36,1.53L133,43.7Zm-.49,0L132,41.57l-.46-.87-.69-.27-.33-.11-.45.22-.26.39-.13.19-.58-.16-.54,2.12.48,2L130,46.4l.8-.22.31-.3.3-.13-.29-.36.78-.79.82-.91Z"/><polygon class="cls-3" points="101.88 83.98 102.11 78.11 102.27 75.31 102.4 73.91 102.99 73.2 102.91 72.48 103.85 66.97 104.62 61.43 105.13 55.84 106.42 50.39 107.7 44.94 108.55 39.13 107.83 44.95 107.62 50.55 107.44 56.16 106.52 61.68 105.68 67.22 105.05 72.77 105.43 73.51 105.33 74.12 104.87 75.5 105.31 78.31 104.5 83.81 101.88 83.98"/><polygon class="cls-3" points="99.89 83.11 100.03 81.9 100.39 80.84 100.42 78.54 101.42 74 101.05 71.64 101.72 70.49 101.88 69.34 102.49 64.74 104.11 55.62 105.67 46.65 104.31 55.65 103.56 64.9 102.46 69.43 102.83 70.64 102.15 71.7 102.49 74.01 102.59 78.67 102.6 81.03 102.46 82.23 102.31 83.51 99.89 83.11"/><polygon class="cls-3" points="98.09 81.99 98.2 80.47 98.68 78.61 98.4 76.66 98.64 75.7 98.41 75.19 98.74 74.93 98.77 74.63 98.72 72.59 99.43 70.73 100.24 66.9 101.29 59.12 102.24 55.31 103.16 51.57 102.8 55.41 102.58 59.32 101.78 67.12 100.88 74.86 100.33 75.21 100.46 75.69 100.65 76.67 101.02 78.65 100.36 80.66 100.34 82.7 98.09 81.99"/><polygon class="cls-3" points="95.08 81.91 95.75 80.69 95.49 79.35 95.69 76.75 96.14 74.14 96.24 72.81 96.38 72.47 96.14 72.22 96.59 72.13 96.18 71.33 98.14 66.34 99.01 61.03 98.16 66.33 97.8 71.63 97.68 72.28 97.45 72.33 97.1 72.38 97.7 72.48 97.25 72.83 97.53 74.14 97.83 76.8 97.51 79.51 97.32 80.87 97.48 82.08 95.08 81.91"/><polygon class="cls-3" points="92.6 81.44 92.81 80.02 93.73 78.48 94.17 75.03 94.58 73.35 94.92 71.64 95.28 68.17 96.31 61.3 97.44 54.39 96.47 61.33 95.87 68.25 95.71 71.73 96.01 72.62 95.97 73.02 95.94 73.48 95.88 75.23 95.11 78.68 94.86 80.43 94.84 82.28 92.6 81.44"/><polygon class="cls-3" points="90.33 81.31 90.71 80.01 91.04 78.83 91.24 76.35 91.72 73.89 91.54 72.61 91.56 72.3 91.64 72.14 92.04 72 91.56 71.55 91.79 71.27 93.09 66.39 94.49 61.29 93.97 66.55 93.75 71.59 93.81 71.91 93.25 72.16 93.48 72.28 93.24 72.42 93.8 72.75 93.52 74.01 93.42 76.55 92.92 79.07 93.06 80.39 92.77 81.75 90.33 81.31"/><polygon class="cls-3" points="89.06 77.13 95.02 74.89 100.13 70.93 104.64 66.26 107.74 60.62 106.19 68.16 105.47 75.87 103.85 83.48 96.38 82.09 88.83 81.41 88.56 80.09 89.06 77.13"/><polygon class="cls-5" points="121.24 69.46 117.57 74.04 114.85 68.55 118.93 64.58 121.24 69.46"/><polygon class="cls-7" points="122.25 74.22 121.15 75.99 120.09 76.53 118.93 76.3 118.25 76.52 117.95 75.79 117 75.31 115.61 73.83 114.62 72.03 114.05 70.01 114.25 67.91 115.17 66.02 117.74 62.9 117.98 62.19 118.57 62.15 119.07 61.83 119.33 61.71 119.7 62.08 122.01 62.08 123.69 63.69 124.59 65.69 124.94 67.8 124.57 69.91 124.19 69.76 123.89 67.87 123.68 65.97 122.63 64.46 121.22 63.59 119.75 62.9 119.35 63.16 118.84 62.87 118.53 63.32 118.03 63.36 116.52 64.51 115.91 66.34 115.23 69.98 115.25 71.86 116.03 73.57 117.19 75.02 118.13 75.03 118.96 75.27 119.7 74.86 120.55 74.84 122.37 74.4 122.25 74.22"/><polygon class="cls-7" points="120.03 72.41 119.39 73.96 118.53 74.38 117.64 73.98 117.27 73.81 116.68 74.05 115.98 73.61 115 72.35 114.62 69.49 114.5 66.54 116.61 64.31 117.09 64.38 117.33 63.95 117.68 63.67 118.15 63.9 119.82 63.97 120.94 65.15 121.85 66.48 121.9 68.01 121.37 69.29 120.89 69.52 120.61 68.13 120.21 67.04 119.9 65.92 119.16 65.24 118.19 65.19 117.95 64.83 117.72 65.07 117.53 65.28 117.17 65.18 116.03 67.2 115.14 69.48 115.54 72.01 116.63 72.67 117.15 72.66 117.56 72.51 118.09 72.52 118.66 72.75 119.88 72.44 120.03 72.41"/><polygon class="cls-3" points="131.63 60.94 130.6 59.3 130 60.85 130.43 62.48 131.63 60.94"/><polygon class="cls-3" points="107.24 83.48 107.55 82.4 108.25 81.73 108.6 79.98 108.57 80 108.58 79.77 108.66 79.61 108.48 79.48 108.46 78.71 108.44 77.93 107.79 77.77 108.2 77.27 107.65 76.79 108.26 76.56 108.5 75.86 108.32 75.06 108.52 74.73 108.63 74.36 108.78 74 108.75 73.54 109.32 73.03 110.17 71.82 110.49 71.81 110.41 71.57 110.69 71.28 110.45 71.11 110.46 70.93 110.59 70.54 109.81 69.16 109.83 66.19 109.4 65.44 110.07 65.06 109.91 64.67 110.01 63.14 111.92 57.72 110.26 63.23 110.49 64.78 109.95 65.08 110.35 65.38 110.33 66.14 110.97 69.03 110.57 70.54 110.62 70.91 111.06 71.06 110.92 71.3 110.76 71.73 110.49 71.81 110.31 71.91 109.91 73.44 109.39 73.97 108.63 74.36 108.81 74.8 108.84 75.18 108.57 75.88 108.66 76.65 108.2 76.93 107.91 77.29 108.64 77.44 108.64 77.84 108.69 78.62 109.14 79.23 109.18 79.41 109.1 79.67 109.32 80.12 109.5 80.17 109.07 81.89 108.75 82.78 109.01 83.69 107.24 83.48"/><polygon class="cls-3" points="125.59 56.17 126.31 56.6 127.01 56.15 127.68 56.09 128.24 56.12 128.53 56 128.17 55.27 128.49 54.54 128.67 54.6 128.46 53.32 128.77 51.85 129.06 52.49 128.4 52.5 128.48 51.74 127.86 51.66 127.57 51.28 127.68 51.09 127.65 51.13 128.03 48.95 127.92 51.15 127.83 50.72 128.34 50.94 128.56 51.62 129.04 51.58 129.64 51.59 129.72 51.99 129.71 52.26 129.4 53.46 128.94 54.64 129.33 54.74 128.99 54.67 128.74 55.41 128.44 56.15 128.47 56.19 128.32 55.98 127.88 56.67 127.29 56.97 126.87 57.5 126.22 57.78 125.59 56.17"/><polygon class="cls-1" points="100.47 18.55 101.96 25.61 104.22 32.48 105.62 39.57 107.92 46.42 109.36 53.51 111.04 60.52 112.94 67.49 115.15 74.38 116.45 81.5 115.19 83.75 108.86 85.91 102.59 88.23 96.33 90.59 89.87 92.39 83.68 94.99 83.51 95.15 77.17 96.56 70.96 98.46 64.58 99.78 62.68 99.03 61.22 91.91 58.82 85.05 56.73 78.11 54.54 71.19 52.99 64.09 50.96 57.13 48.64 50.25 46.45 43.33 44.47 36.34 46.21 33.2 52.08 30.36 58.01 27.63 63.84 24.69 64.06 24.84 70.77 22.93 77.63 21.78 84.46 20.44 91.17 18.54 97.95 16.96 100.47 18.55"/><polygon class="cls-8" points="83.83 95 77.39 96.85 71.03 98.46 64.58 99.75 62.66 99.03 61.1 91.94 58.74 85.07 56.77 78.1 54.9 71.09 53.05 64.07 50.56 57.25 49.02 50.14 47.07 43.15 44.79 36.25 46.29 33.36 52.27 30.6 58.23 27.78 64.01 24.59 65.95 31.64 67.79 38.7 69.86 45.7 72 52.68 73.71 59.78 75.79 66.78 77.77 73.8 79.67 80.85 81.69 87.88 83.83 95"/><path class="cls-3" d="M83.9,94.93l.22.28L81.63,96l-2.62,1-5.59,1.67-5.78,1.51-1.37.68-.67.41-.49-.48-.06.56H64.7l-2.32-1.26-.41-.5-.58-.42.37-.81L60.24,93l-1.71-5.41L57,82.11l-1.17-5.56-2.07-7.27L51,62.21l-1.73-7.37L47.5,49.44,46,44l-1.39-5.5-.6-1.3,0-.76-.65-1,1.19-1.71L46,32.12l-.19.21,6.08-2.58,5.93-2.88,5.77-3.21,1-.22.52.87,2.35,8.92,2.73,8.87,1.65,4.39L73.11,51l2.2,9,1.93,9,2.57,8.73,2.33,8.57Zm-.53-.1-.32,0-1.4-6.06-2-5.89-1.7-6-2.66-8.78-3-8.58L69.54,51,69,46.54l-1.52-4.22-2.12-8.72-2-8.78,1.06.53-5.66,3.34-6.13,2.49-5.77,3.19v.24h-.12l-1.17,1,0,.47.8.49,0,1.48,1.71,5.41,1.44,5.48,1.33,5.52L53,61.63,54.8,69l2.58,7.13,1.06,5.59L60.63,87l1.52,5.46,1.49,5.49.2.68h.35l-.09.31.05-.3.14.06.16,0,.27-.29.64-.21,1.34-.19,5.26-1,5.34-1.45,2.79-.73Z"/><polygon class="cls-9" points="115.32 84.13 109.14 86.01 102.98 87.94 97.04 90.52 90.88 92.5 84.73 94.5 83.01 93.69 81.26 86.74 78.94 79.96 77.56 72.9 75.1 66.15 73.34 59.2 71.51 52.28 69.91 45.29 67.97 38.39 65.76 31.56 63.72 24.59 70.59 22.86 77.48 21.65 84.36 20.36 91.2 18.84 98.07 17.49 100.43 18.56 102.24 25.54 104.27 32.47 105.5 39.6 107.69 46.48 109.61 53.44 111.47 60.41 113.06 67.45 114.59 74.52 116.76 81.42 115.32 84.13"/><path class="cls-3" d="M114.81,84.38l-5.75,2.8-6,2.14-6.2,2.31-6.33,1.94-3.18.93-1.6.43-.85.1-1.29.47-1.12-.87.12-.77,0-.43L82.2,91.8l-1.56-3-1.71-6.42L77,76l-1.92-6.34-2-6.32L71.1,57l-1.68-6.41-1.15-6.56-2-6.33-1.44-6.48L62.53,25l-.25-1.3,1.32-.06,6.49-1.37L76.59,21l6.48-1.41,6.49-1.36,6.39-1.82,1.64-.25h1.14l1.35,0,1.68,2.09.11,1.69,1.69,6.42,2.08,6.3,2,6.34,1.3,6.52,1.77,6.4,1.11,6.56L113.26,65l1.53,6.46,1.36,6.5,1.07,3.17-.21.51.3.51-.49.94-1.43,1.38Zm-.72-.44,1-.37,1.26-.74.11-.76-.12-.37-.15-.35-.9-3.19-1.72-6.41-2.41-6.21-1.84-6.38L108,52.65l-1.72-6.41-1.62-6.43-2.27-6.27L101.29,27l-1.24-6.53-.45-1.6-.66-.5-.36.13h-.43l-1.75-.22L90,19.93,83.42,21l-6.37,2-6.48,1.42L64,25.65l.8-1.27,1.72,6.39,1.85,6.37,1.77,6.39,2.21,6.26,1.72,6.4,1.66,6.42,2.15,6.28,1.69,6.42,1.17,6.54,1.33,6.51,1.05,3.15.78,1.5-.17.46h.31l.06.49h.44l.72-.38,1.57-.57,2.92-1.65,6.27-2.23,6.2-2.38,5.91-1.47Z"/><polygon class="cls-6" points="103.57 57.64 107.61 65.15 108.47 72.74 106.86 80.22 101.04 84.86 93.75 83.85 88.65 78.31 85.31 71.56 83.97 64.05 86.21 56.81 91.47 51.58 99.57 53.42 101.3 49.98 105.21 52.99 103.57 57.64"/><path class="cls-3" d="M103.92,57.68l.17.27-.07.18.35-.11.72.29.56,1.33.88,1.07.35,1.38,1.92,5.13.46,5.53-1.06,5.44-2.63,5-5.17,2.25L94.89,85l-4.61-3.11-3.6-4.23-1.74-5.26-1.19-5.33-.26-5.52,2.13-5.17.66-1.24.32-1.5,1-1.19L89,51.89l2.74-1.19,3-.33,5.15,2.38-1.21.51.07-1.94,1.49-1.95,2.5-.1,1.9,1.22,1.08,3.93-.4,2-.79.68-.19.53-.16.33-.16-.55Zm-.29-.16.29-.07h.32l.07-.55.06-.84.54-1.59-1.42-3-1.1-1.17-1.27.39-.36,1.24-.17,1.43.25,2.08-1.56-1.55-4.73-1.4-2.32.21-2,1.14-3.72,3L85,61.81,85.28,67l.54,5.19.41,1.25,1,1,1.23,2.24L91.19,81,95.36,84l4.86.5,4.4-2.14,2.63-4.44.33-5.19-.72-5.08-.2-1.28-.53-1.19-.56-2.52-.44-1.22-.2-1.33L104.16,59l-.45-.53.32-.58-.25-.3Z"/><polygon class="cls-7" points="102.67 74.84 101.53 78.41 100.25 79.81 98.52 80.66 94.8 80.75 91.61 79.14 87.15 73.79 86.2 70.43 85.69 67 86.03 63.52 87.57 60.38 87.7 59.37 88.27 58.62 89.29 58.4 89.46 57.86 89.79 57.51 93.5 56.83 97.15 57.73 99.86 60.2 101.37 63.39 102.15 66.67 101.71 66.99 101.13 65.33 100.45 63.84 98.63 61.18 93.32 58.61 90.71 59.17 89.92 59.19 89.45 59.79 88.68 60.1 88.42 60.88 87.47 66.94 88.74 73.07 92.53 77.92 95.01 79.84 95.83 79.68 96.2 79.63 96.52 79.28 96.99 79.71 97.3 79.47 97.47 79 98.05 79.34 99.23 78.53 99.89 77.15 101.88 74.57 102.67 74.84"/><polygon class="cls-6" points="86.61 38.61 86.96 45.3 82.8 49.98 76.62 48.39 73.22 42.46 73.35 35.72 77.17 30.39 83.38 32.74 86.61 38.61"/><path class="cls-3" d="M86.58,38.69l1.72,3.16-.41,3.68-.37.85-.8.62-.14,1-.81.54L83.08,51l-3.74-.24-3.23-1.8L73.89,46l-1.2-3.39-.54-3.52.28-3.58.42-.82.07-.94.77-.65.36-.86.31-1,.39-.31.24-.48,1.12-.25,1-.22,3.72.26,3.13,1.93,2.62,6.36Zm.06-.12-4-5.07-5.07-1.7-2.34,1.33-.8.36-.06.88-.64.61.2.89.32,6.3,3.26,5.34,2.42,1.71,2.78.44L86,45.1,86.17,42l.37-3.32Z"/><polygon class="cls-5" points="83.37 39.55 80.87 47.11 74.6 42.06 77.19 34.31 83.37 39.55"/><path class="cls-7" d="M83.75,39.35l.73,2.4-.18,2.36L84,44.7l-.09.68-1,.86-1.84,1.85-2.62-.38L76.4,46.42l-1.41-2-.77-2.25-.35-2.33-.1-2.43.45-.51-.33-.78.91-1,.38-.55.4-.13.16-.31L77,33.47l2.73.08L81.83,35l2,4.38Zm-.7.33L80.83,36l-1.76-.9-1.66,0L76,36l-.58.16.16.66-.43.37-.07.51.16,4.17,1.88,3.79,3.74,1.43,1.39-1.41.52-.27-.35-.68.42-.42,0-.52.36-2,.26-2.28Z"/><polygon class="cls-6" points="98.29 31.13 95.69 39 89.42 33.68 91.91 25.85 98.29 31.13"/><path class="cls-3" d="M98.72,30.87l.86,2.49-.31,2.52-.09.69L98.7,37l-.52,1.22-2.26,1.52-2.73-.07-2.05-1.58-1.59-1.92L88.38,34l-.46-2.5L88.53,29l.11-.62.36-.55.45-1.23.44-.52.27-.24.22-.27,1.15-1,3,.13,2.09,1.77,1.73,4.58Zm-1,.49-2.3-3.64-1.68-1-1.6.13-1.61.58-.13.51-.3.38-.12.5-.36.44L90,33.51l2.18,3.57,1.61,1.07,1.79.53,1.53-1.19.41-.36,0-.56.16-.51.1-.53.1-2.05.14-2.28Z"/><polygon class="cls-5" points="95.84 31.83 94.38 37.08 90.41 33.4 91.85 28.25 95.84 31.83"/><path class="cls-7" d="M96.36,31.6,97,33.3,97.06,35l-.31.91-.91.47-1.3,1.25-1.79-.31-1.44-.89-2-2.72-.14-3.49.42-.35.1-.43.25-.92.79-.69.84-.7,2.18.11,1.68,1.1.79,3.36Zm-.6.3L94.2,29.43,93,29.13l-.83.18-.55-.42-.45.52-.58.42-.12.33.27.43L91,33.24l1,2.55,2.29.89.82-.84.5-.49L95.49,35l-.1-.33-.17-1.38.93-1.46Z"/><polygon class="cls-3" points="80.95 95.91 78.2 89.25 76.68 85.9 76.08 84.17 75.84 83.17 75.8 82.23 74.04 75.12 71.9 68.11 69.65 61.13 68.01 53.99 66.46 46.82 64.81 39.85 67.22 46.6 69.55 53.55 71.82 60.51 74.6 67.3 76.37 74.42 79.07 81.24 79.09 82.19 79.15 83.05 80.28 84.56 81.46 88.02 83.78 94.86 80.95 95.91"/><polygon class="cls-3" points="77.93 96.09 77.83 94.93 77.55 93.48 76.34 90.72 74.5 84.96 73.59 82.05 72.82 80.61 72.47 79.13 71.34 73.16 70.07 67.22 68.37 61.39 66.51 55.61 65.21 49.69 67.13 55.44 68.47 61.36 70.2 67.18 72.05 72.96 73.79 78.78 74.6 80.11 74.76 81.58 76.3 84.2 78.69 89.82 80.14 92.56 80.32 94.18 81.09 95.77 77.93 96.09"/><polygon class="cls-3" points="75.18 96.5 74.42 94.31 73.81 91.9 72.9 89.55 72.41 88.38 72.48 87.65 72.3 87.32 72.12 86.98 71.43 84.46 70.85 81.96 69.77 76.95 66.84 67.1 65.7 62.1 64.93 57.2 66.29 61.96 67.8 66.87 71.55 76.44 74.25 86.28 74.32 86.81 74.67 87.34 75.47 88.39 76.81 90.64 77.81 93.11 78.2 95.72 75.18 96.5"/><polygon class="cls-3" points="71.55 97.08 71.57 95.9 70.8 94.36 69.53 91.18 68.61 87.84 68.31 86.09 67.63 85.87 68.06 85.44 68 85.21 67.6 84.39 66.1 77.58 65.07 70.78 67.21 77.32 69.2 83.97 69.18 84.88 69.19 84.99 69.2 85.07 69.53 85.07 69.28 85.66 70 87.25 71.54 90.38 73.1 93.53 73.85 95.16 74.61 96.64 71.55 97.08"/><polygon class="cls-3" points="68.31 98.91 68.39 96.55 67.73 94.38 66.58 90 65.98 87.82 65.71 85.53 64.59 81.12 61.85 72.44 59.52 63.31 62.7 72.17 65.15 80.95 67.15 85.07 67.11 86.29 67.45 86.74 67.81 87.25 68.6 89.39 69.83 93.82 70.88 95.91 71.52 98.35 68.31 98.91"/><polygon class="cls-3" points="65.56 99.27 65.49 97.72 64.83 96.24 63.73 93.19 63.27 89.9 62.64 88.38 62.34 88.04 62.41 87.79 62 87.62 62.12 87.13 62.23 86.68 61.03 80.17 59.86 73.69 62.16 79.87 64.14 86.16 64.6 86.44 64.26 86.97 64.68 86.95 64.65 87.17 64.97 87.49 65.23 89.17 66.67 92.17 67.47 95.44 68.18 97 68.81 99 65.56 99.27"/><polygon class="cls-3" points="61.68 95.17 66.33 90.39 70.09 84.83 72.52 78.56 74.82 72.17 75.33 65.42 77.24 72.74 79.38 80.02 80.74 87.49 82.71 94.76 76.53 96.86 70.04 98.09 63.75 99.84 62.65 99.07 61.68 95.17"/><polygon class="cls-5" points="96.32 68.7 94.03 75.65 88.71 70.89 90.65 63.92 96.32 68.7"/><polygon class="cls-7" points="100.44 73.69 99.36 76.52 98.27 77.46 97 78.08 96.31 78.55 95.58 78.21 94.11 78.41 91.53 77.31 89.44 75.52 88.26 73.06 86.73 70.71 86.34 67.92 88.22 62.67 88.3 61.83 88.97 61.44 89.39 60.77 89.81 60.72 90 60.32 93.06 59.77 95.89 60.61 97.89 62.61 99.49 64.85 100.42 67.53 99.55 67.84 98.48 65.4 96.92 63.52 94.99 62.24 92.93 61.8 90.89 61.91 90.51 62.33 89.95 62.47 89.59 62.9 89.23 63.34 88.05 65.44 88.27 67.89 89.36 72.54 90.16 74.92 92.15 76.38 94.32 77.16 95.5 77.55 96.34 76.67 97.08 75.92 98.07 75.45 99.92 73.81 100.44 73.69"/><polygon class="cls-7" points="96.22 72.95 95.72 74.81 95.2 75.67 94.26 76.22 93.71 75.98 93.15 76.36 92.18 75.91 90.26 75.49 87.52 72.71 87 68.89 88.16 65.32 88.46 64.96 88.74 64.55 88.73 63.73 89.44 63.78 91.48 62.62 93.44 63.77 94.88 65.13 96.08 66.69 96.12 68.46 95.78 68.9 94.85 67.35 93.78 66.19 92.7 65.04 91.34 65.02 89.96 64.63 89.8 65.18 89.51 65.36 89.47 65.79 89.28 66.05 88.43 68.86 89.09 71.96 91.01 74.39 92.31 75.14 92.97 74.86 93.78 74.86 94.17 74.35 94.51 73.69 95.96 72.7 96.22 72.95"/><polygon class="cls-3" points="103.88 53.04 101.89 51.73 101.65 53.89 103.37 55.59 103.88 53.04"/><polygon class="cls-3" points="86.92 92.95 87.04 91.58 86.94 90.41 86.54 88.13 86.48 88.19 86.71 87.75 86.55 87.63 86.5 87.35 85.72 86.75 85.11 86 84.83 85.6 84.51 85.2 84.15 84.76 83.94 84.31 83.85 83.34 83.87 82.35 83.67 81.9 83.72 81.38 83.72 80.88 83.83 80.41 84.14 79.48 84.11 77.52 84.26 77.3 84.51 77.09 84.07 76.76 84.02 76.59 84.05 76.28 83.94 75.78 82.79 74.22 80.53 71.07 80.05 70.22 80.03 69.7 80.16 69.1 79.82 67.18 78.67 59.74 80.21 67.11 80.69 68.97 80.64 69.34 80.7 69.9 81.74 70.34 83.59 73.78 84.16 75.66 84.63 75.96 84.81 76.14 84.54 76.58 84.66 77.1 84.66 77.37 84.87 77.66 84.14 79.48 84.4 80.51 84 81.37 84.14 81.81 84.13 82.3 84.14 83.28 84.31 84.23 84.73 84.64 84.59 85.16 85.28 85.13 85.39 85.72 86.08 86.39 86.63 87.22 86.88 87.31 86.97 87.57 87.35 87.97 87.53 87.94 88.37 90.1 88.53 91.29 89.03 92.08 86.92 92.95"/><polygon class="cls-3" points="94.16 50.56 95.04 50.12 96.08 50.15 96.66 49.4 97.3 49.09 97.45 48.88 96.98 48.05 96.71 47.06 97.03 47.01 96.48 45.48 95.75 43.88 96.1 44.44 95.63 44.26 95.03 44.08 94.41 44.09 93.96 43.48 93.93 43.38 93.77 43.45 93.23 40.72 94.06 43.36 94.04 43.26 94.62 43.11 95.24 43.36 95.89 42.88 96.43 43.29 96.98 43.21 96.61 43.75 96.77 45.39 97.16 46.97 97.28 46.97 97.48 46.93 97.56 47.96 98.07 48.91 97.76 49.09 97.61 49.14 97.18 49.93 96.47 50.49 96.2 51.37 95.64 52.31 94.16 50.56"/><polygon class="cls-1" points="47.67 46.89 51.51 52.7 55.34 58.52 59.23 64.3 62.66 70.38 66.52 76.19 70.33 82.03 70.18 83.78 64.53 88.2 58.68 92.37 53.24 97.08 53.15 97.18 47.76 100.39 42.68 104.08 41.11 103.95 37.29 98.08 33.33 92.3 29.63 86.35 25.18 80.91 21.57 74.89 17.43 69.23 17.51 67.14 22.27 62.98 26.25 58.06 26.46 58 33.02 54.42 39.44 50.61 45.86 46.8 47.67 46.89"/><polygon class="cls-4" points="53.23 97 47.81 100.36 42.6 103.97 41.28 103.83 37.65 97.83 33.33 92.3 29.42 86.5 25.52 80.68 21.57 74.89 17.56 69.14 17.52 67.15 22.2 62.83 26.56 58.53 30.51 63.68 33.9 69.5 37.78 74.97 41.51 80.55 45.71 85.81 49.66 91.25 53.23 97"/><path class="cls-3" d="M53.35,96.93l-.17.06-1.09,1-1.21,1.39-3.15,2.07-3.1,2.29-.75.62-.29.44-.55-.43,0,.27-.25,0-1.59.14-.22-.39-.35-.17,0-.55-1.94-3.11-2.07-3-4.37-5.85-4-6.08-4.66-5.64-4.09-6-2-3-.8-.55,0-.55-.22-.63,0-1.32.79-1.1.17.37,4.08-4.92,4.7-4.3.54-.86L26.88,58l3.57,4.75,3.26,5,1.92,2.33,2,2.29,3.15,5.06,3.43,4.81,3.23,4.88L50,92.26ZM53,97l.09-.1L49.61,92l-3.81-4.63-3.29-4.91L38.94,77.8,35.5,73.13l-1.77-2.28-1-2.78-3.35-4.73L26.3,58.47l.74.19L22.48,63.1l-4.32,4.68-.25-.19h0l-.4,1.19.33.16.07.5,1,.44L20.79,73,24.85,79l4.42,5.82L33.17,91l4.13,6L39.49,100l2.28,2.86,0,.6.43-.37-.09.27-.25,0,.47.17-.05-.26.35.13.27-.36.55-.71,3-1.69,2.95-2,1.58-1Z"/><polygon class="cls-5" points="70 83.55 64.73 88.06 59.22 92.27 53.73 96.49 52.53 96.37 48.27 89.98 43.68 83.81 39.74 77.19 35.07 71.08 30.7 64.74 26.56 58.31 32.74 54.13 39.4 50.63 45.89 46.84 47.32 47.12 51.28 52.85 55.38 58.5 59.25 64.28 63.02 70.15 66.79 76.01 70.69 81.79 70 83.55"/><path class="cls-3" d="M70,84.12l-6.16,5.45-3.37,2.6L57.11,94.8l-1.65,1.36-.94.51-.46.3-.79-.08-.83.1-.25-.35,0-.36-.64-.86L50.33,93.7l-5.07-6.88-2.61-3.38-2.37-3.55-5-6.9-4.52-7.25-5.05-6.89-.26-.79.69-.4,3.54-2.4,3.93-1.74L40.82,49l3.42-2.58,1.06-.31.67-.34.82,0,1.24.88.5,1,4.95,7,2.45,3.49,2.62,3.4L62.64,69l4.52,7.25,2.4,3.54,1.13,1.82-.22.46.59.09-.25.68L70.34,84Zm-.58-.18.69-.26.56-.85-.26-.45-.25-.09,0-.27L68.9,80.26,66.68,76.6l-5.21-6.78-4.8-7.07L54.5,59.07l-2.37-3.55L47.7,48.2l-.53-.93-.58-.18-.27,0-.16.4-1.06.31-3.5,2.48-7.42,4.24-3.66,2.2L27,59.2V58.06L31.88,65l5.24,6.75,4.63,7.18,2.42,3.51,2.3,3.6,4.46,7.29L52,95.13l.6.89.25.14.33-.2.09.5.3-.18.26-.5.79-.72,1.87-1.12,2.88-3.21L63,88.37Z"/><polygon class="cls-6" points="57.65 70.1 61.73 73.77 64.12 80.74 61.85 87.5 54.83 87.07 49.01 82.64 46.33 75.7 49.09 69.18 54.23 68.34 54.58 65.93 57.26 67.2 57.65 70.1"/><path class="cls-3" d="M57.62,70.25l.43-.46-.12.61.28-.31.21.52.92.2.47.84,1,.26,2.06,2.94,1.06,3.39.63,3.46-.58,3.52-2.29,2.92L58,88.75l-3.43-1.08L49.29,83l-3-6.33L46,73.08l.14-.92.25-.93.9-.64.4-.82L49,68.53l1.68-.86,3.82.16-.89.56-.5-1.09,1-1.23L55.35,65l1.46.48,1.54,2.22L58.41,69l-.3.6-.28.18.17.36-.35-.37Zm.19-.2-.42-.37.59.23-.25-.42.43-.49-.56-1-1.2-1.88-1.06.16-.63.19-.33.81.37.95.58,1-1.25-.05L51,69l-1.42.47-1.2.92L47.2,73.26l.19,3.22,1,3.12,1.7,2.82.06,1,.63.57L52,85.19l2.86,1.74L58,87.7l3.23-.2L63,84.79l1.21-3.09L63,78.52l-1.54-2.89-.36-.75-.35-.76-.85-1.44-.4-.76-.83-.41-.22-.95-.54-.08.05-.4-.36,0Z"/><polygon class="cls-7" points="60.26 81.04 60.64 83.22 60.2 84.37 59.16 85.04 56.98 85.65 54.75 85.68 51.02 83.29 49.69 81.51 48.6 79.56 47.88 77.39 48.53 75.16 48.62 74.63 48.29 73.84 49.11 73.63 48.94 73.16 49.41 73.13 51.2 71.48 53.56 71.92 55.8 72.51 57.41 74.11 58.51 75.94 58.41 76.05 57.64 75.36 56.73 74.84 55.15 73.59 51.52 72.84 49.82 73.5 49.66 73.99 49.57 74.47 49.39 74.89 49.27 75.32 49.19 79.34 51.48 82.85 54.91 85.2 56.94 85.27 57.37 85.01 57.73 85.35 57.71 84.69 58.26 85.11 58.08 84.5 58.2 84.35 58.43 84.26 59.04 83.62 59.61 82.89 60.45 81.03 60.26 81.04"/><polygon class="cls-6" points="43.12 62.18 43.52 70.08 35.92 67.2 35.75 58.93 43.12 62.18"/><path class="cls-3" d="M43.47,61.89l1.42,1.85L45.1,66l.34.61-.32.55-.13.56-.21.53-1,2.19-2.42.77L39.2,70.13l-1.79-1.3-1.94-1.32-1.06-2.08V63.09L34,62.54V62l.39-.54L34,60.7l.25-.59.21-.26.15-.3.68-.33.34-.55L38,58.26l2.34.42,2.79,3.49Zm-.4.36-3.23-2.56-3.7-.21-.94,1.62-.37.39-.1.52-.09.52.5.49,1.57,3.64,2.68,3.12,2,.67,1.71-1,1-3.26,0-2.1-.95-2Z"/><polygon class="cls-5" points="41.79 63.11 41.49 68.36 36.85 66.55 36.74 61.55 41.79 63.11"/><path class="cls-7" d="M41.76,63l.72,1.51.91,1.43-.17.4-.32.36.2.91L41.93,69l-1.7.56-1.48-.77-1.17-1-1.48-.76-.52-1.53L35.1,64l.12-.41L35,63.2l.32-.81-.24-.54.22-.16.32-.12.7-.56L38,60.09l1.61.75,2,2.4Zm-.52.55-2-2-1.3.36-.91.14-.94.59.28.42-.19.25.06.31-.38.35.93,2.64,2.36,1.37,2.24.32.57-1L42.2,67,42,66.68l.15-.34-.45-.19-.21-1.33,0-1.51Z"/><polygon class="cls-6" points="48.96 55 48.95 60.51 44.01 58.45 43.76 53.05 48.96 55"/><path class="cls-3" d="M48.82,55.19l1.36.93.08,1.63.09.43,0,.43-.06.86L49.1,60.72l-1.57.2H45.89L44.55,60,43.37,58.9,43,57.28l-.38-1.48-.41-.38.39-.41-.24-.87,0-.49.53-.05-.28-.37.64-.86,2-.32,1.73.44,1.76,2.58Zm0-.17-2.48-1.34-1.2-.52-1,.43-.7.87,0,.33-.34.26-.27.34.43.33,1,2.51,2.06,1.71,1.16.82,1.36-.35.44-1.26.45-.24-.35-.37-.21-.27.37-.47-.75-1.17-.31-1.52Z"/><polygon class="cls-5" points="47.85 55.78 47.52 59.27 44.37 58.2 44.18 54.47 47.85 55.78"/><path class="cls-7" d="M47.74,55.84l.61.94.54.92.2.67-.26.55-.7,1.2-1.37.29-1.07-.61-1.92-1.18-.68-2.19.14-.3.07-.29v-.6l.34-.56.37-.52,1.25-.39,1.12.42,1.39,1.64Zm-.23.19L46,54.72l-.87.24-.37.46-.31,0-.07.25-.18.23-.36.19.38.19.55,1.57L46,59.19l1.59.15.38-.7.21-.44L48.07,58l-.16-.18L47.66,57l-.06-1Z"/><polygon class="cls-3" points="51.74 98.39 48.85 94.53 47.09 92.92 46.51 91.87 46.15 91.33 45.43 91.11 43.06 87.02 40.5 83.06 35.33 75.18 30.39 67.55 36.28 74.48 41.57 82.31 44.6 85.92 47.38 89.72 47.83 90.12 48.07 90.61 48.72 91.6 50.59 93.09 53.42 96.97 51.74 98.39"/><polygon class="cls-3" points="50.02 99.13 49.52 98.27 48.93 97.54 47.89 95.92 45.44 92.89 44.39 91.22 43.51 90.58 43.46 89.45 41.41 86.12 36.85 79.77 32.66 73.44 36.77 79.83 41.62 85.97 43.76 89.24 44.58 89.85 44.81 90.88 46.46 92 48.95 95.05 50.57 96.25 50.97 97.25 51.99 98.25 50.02 99.13"/><polygon class="cls-3" points="48.34 99.73 47.54 98.44 46.45 97.27 45.49 95.96 44.97 95.34 44.57 95.12 44.35 95 44.23 94.73 43.27 93.34 42.81 91.67 40.53 89.22 37.01 83.63 35.34 80.77 33.7 77.55 36.1 80.26 37.64 83.23 41.62 88.49 45.71 93.63 45.98 93.8 45.96 94.42 46.64 94.9 47.74 96.16 49.2 97.14 50.3 98.87 48.34 99.73"/><polygon class="cls-3" points="46.21 100.71 45.7 100.29 45 99.48 44.11 97.4 42.48 95.85 41.67 95.06 41.83 94.55 41.27 94.73 41.69 94.29 41.09 93.97 39.32 89.83 36.95 86.31 39.22 89.88 41.9 93.47 42.23 93.91 42.3 93.94 42.34 93.97 42.16 94.3 42.76 94.06 43.23 95.18 45.06 96.52 46.55 98.25 47.15 99.26 48.31 100.36 46.21 100.71"/><polygon class="cls-3" points="44.66 102.61 44.23 101.15 43.11 100.11 41.68 97.59 41.12 96.21 40.32 94.98 38.49 92.67 35.59 87.57 32.06 82.96 35.66 87.51 38.92 92.38 41.05 94.44 41.5 95.01 41.35 95.58 41.7 95.79 42.57 96.98 44.49 99.21 45.68 100.19 46.3 101.41 44.66 102.61"/><polygon class="cls-3" points="42.95 103.08 42.32 102.7 42.24 101.53 40.85 99.94 39.66 98.21 38.78 97.54 38.71 97.26 38.42 97.31 38.55 96.99 38.49 96.69 38.16 96.57 36.11 92.82 34.39 89.19 36.81 92.39 39.76 95.48 39.91 95.69 39.99 95.93 39.9 96.12 39.95 96.25 40.18 96.4 40.8 97.28 42.4 98.72 43.36 100.71 43.98 101.61 44.84 102.37 42.95 103.08"/><polygon class="cls-3" points="39.44 101.68 42.34 95.04 43.15 87.89 42.24 80.47 45.66 86.1 49.05 91.65 52.29 97.04 47.24 100.49 42.21 104.41 41.34 103.79 39.44 101.68"/><polygon class="cls-5" points="55.23 78.53 55.69 83.38 51.37 81.22 51.09 76.78 55.23 78.53"/><polygon class="cls-7" points="58.98 80.58 59.23 82.59 58.81 83.56 57.91 84.13 57.54 84.53 56.95 84.28 56.15 84.97 54.32 84.62 52.74 83.84 51.29 82.86 50.43 81.34 49.7 79.81 48.87 76.3 49.43 75.98 49.75 75.64 49.47 74.92 49.62 74.74 49.8 74.55 51.52 73.34 53.58 73.23 55.23 74.2 56.43 75.51 57.35 76.83 57.34 76.89 56.23 75.72 54.85 74.84 53.32 74.42 51.98 75.01 50.85 75.53 50.61 75.74 50.37 75.97 49.8 76.11 49.91 76.57 50.02 78.09 49.98 79.7 51.9 82.26 53.03 83.37 54.48 84.01 55.99 83.97 56.63 83.71 57.16 83.27 57.54 82.71 57.96 82.16 58.74 80.78 58.98 80.58"/><polygon class="cls-7" points="56.43 80.8 56.49 82.25 56.08 82.78 55.9 83.67 55.53 83.88 55.08 83.62 54.41 83.59 53.24 83.47 51.3 82.25 49.52 80.54 49.66 77.99 49.62 77.64 49.61 77.25 49.94 77.04 49.99 76.64 51.33 76.01 52.67 75.97 54.02 76.24 54.76 77.3 55.77 78.36 55.21 78.27 54.51 77.5 53.33 77.49 52.44 77.41 51.69 77.38 50.89 77.46 50.71 77.57 50.57 77.74 50.47 77.95 50.58 78.23 50.42 80.21 51.77 81.82 53.3 83.28 54.33 83.05 54.8 82.98 55.28 82.72 55.34 82.29 55.38 81.8 56.12 80.98 56.43 80.8"/><polygon class="cls-3" points="56.73 67.33 55.29 66.87 55.82 68.08 57.08 69.01 56.73 67.33"/><polygon class="cls-3" points="54.77 95.17 54.37 94.31 54 93.65 53.76 92.14 53.78 92.13 53.51 92.04 53.32 92.15 53.36 91.73 52.71 91.63 52.07 91.52 52.02 90.95 51.75 90.81 51.63 90.55 51.41 90.31 51 89.83 50.67 89.31 50.52 89.03 50.39 88.73 50.42 88.4 50.37 88.09 50.24 87.48 49.53 86.34 50.05 86.1 50.08 85.92 49.85 85.67 49.48 85.88 49.26 85.91 49.24 85.44 48.17 84.78 46.37 83.06 45.7 82.82 45.87 82.23 45.77 81.94 45.02 80.92 42.76 76.46 45.23 80.8 45.59 82.02 46.19 81.81 46.11 82.46 46.71 82.69 48.77 84.1 49.51 85.13 49.99 85.06 49.95 85.34 50.16 85.44 50.02 85.94 50.07 86.1 50.02 86.26 50.64 87.43 50.34 88.1 50.79 88.57 50.71 88.92 50.7 89.28 51.36 89.63 51.26 90.4 51.69 90.51 51.58 91 52.1 90.75 52.24 91.2 52.92 91.19 53.48 91.47 53.71 91.33 53.63 91.88 53.95 92.01 54.33 91.77 55.01 93.1 55.48 93.68 55.94 94.23 54.77 95.17"/><polygon class="cls-3" points="50.42 67.7 50.92 67.47 51.15 66.89 51.53 66.48 52 66.38 51.77 66.49 51.73 65.57 51.34 65.03 51.27 65.1 50.79 64.15 50.25 63.66 50.55 63.32 49.97 63.8 49.52 63.83 49.15 63.34 48.77 63.69 48.53 63.9 48.33 63.7 47.43 61.51 49.09 63.23 48.85 63.46 49.05 62.99 49.5 63.12 49.81 62.69 50.23 62.92 50.4 63.06 50.4 63.15 50.88 64.09 51.51 64.93 51.61 64.89 51.76 64.82 51.76 65.55 52 66.18 52.23 66.14 52.33 66.27 51.71 66.63 51.55 67.2 51.69 67.84 51.63 68.52 50.42 67.7"/></g></svg>