<svg id="Warstwa_1" data-name="Warstwa 1" xmlns="http://www.w3.org/2000/svg" viewBox="0 0 364 168"><defs><style>.cls-1{fill:#1f1f45;}.cls-2{fill:#fe8d22;}.cls-3{fill:#00a6c5;}.cls-4{fill:#ffd600;}.cls-5{fill:#76cacb;}.cls-6{fill:none;stroke:#1f1f45;stroke-miterlimit:10;stroke-width:1px;}.cls-7{fill:#015b55;}.cls-8{fill:#55b182;}.cls-9{fill:#85c72f;}.cls-10{fill:#86077f;}.cls-11{fill:#cae10c;}.cls-12{fill:#fff;}</style></defs><title>Obszar roboczy 1</title><path class="cls-1" d="M15.72,105S15.83,98,6.45,84.82c-.26-.39,7.61,16.34,6,22.59C14.41,107.41,15.72,105,15.72,105Z"/><path class="cls-1" d="M15.27,107.15s-1.3-6.92-13-17.93c-.33-.33,10.6,14.53,10.35,21.12C14.51,109.89,15.27,107.15,15.27,107.15Z"/><path class="cls-1" d="M13.48,107s-.83-3.18-13.62-12.59c-.37-.28,10.89,9.51,11.45,16.16C13.08,109.86,13.48,107,13.48,107Z"/><path class="cls-1" d="M18.16,103.85s.79-5.58-7.33-16.9c-.23-.33,6,13.72,3.83,18.66C16.61,105.74,18.16,103.85,18.16,103.85Z"/><path class="cls-1" d="M17.32,101.77s-3.38-4.79-1.41-18c0-.39,1.07,14.67,5.43,18.35C19.63,102.92,17.32,101.77,17.32,101.77Z"/><path class="cls-2" d="M42.94,19.37s-5.7,44.08-7.86,47.9-13.86,31-22.74,37.19l83.28,1.78Z"/><path class="cls-1" d="M43,19.86a.37.37,0,0,0,.33-.18.37.37,0,0,0,0-.11v0l0,.18,0,.36-.08.72-.17,1.44-.34,2.87-.71,5.74L40.58,42.39c-.51,3.82-1.08,7.64-1.68,11.45s-1.21,7.62-2.11,11.45c-.13.49-.23,1-.41,1.47l-.12.38-.18.43-.1.21-.08.15-.16.3c-.42.83-.83,1.7-1.24,2.57L32,76C30.32,79.5,28.59,83,26.75,86.37s-3.77,6.78-5.92,10a58.84,58.84,0,0,1-3.47,4.77A24.16,24.16,0,0,1,13,105.45l-.66-2.18q5.21.08,10.41.31l10.4.55c6.93.43,13.87.63,20.81.69,13.88.14,27.78-.26,41.66,0L94.44,107,81.56,85.48C77.29,78.3,73,71.18,68.81,63.9L56,42Zm-.21-1L56.18,40.16,69.75,61.72c4.57,7.2,9.07,14.55,13.59,21.85l13.46,22,1.32,2.15-2.53-.05c-13.88-.29-27.75-1.27-41.62-1.73-6.94-.24-13.88-.33-20.83-.2l-10.42.1q-5.21,0-10.41-.14l-3.55-.1,2.88-2.08a22,22,0,0,0,3.89-3.81,56.54,56.54,0,0,0,3.35-4.56c2.11-3.16,4-6.47,5.87-9.83S28.34,78.51,30,75.06l2.55-5.18c.43-.87.85-1.73,1.32-2.61l.18-.34.09-.17,0-.12.11-.23.11-.31c.15-.4.26-.87.39-1.31.92-3.66,1.58-7.47,2.25-11.25S38.34,46,39,42.15l1.78-11.42L41.59,25,42,22.17l.21-1.43.11-.71.05-.36,0-.18v0a.78.78,0,0,1,.05-.2A.71.71,0,0,1,42.84,18.89Z"/><path class="cls-3" d="M43.71,16.17S33.65,60.14,31.49,64,20.28,98.86,11.4,105.09l19.52-.48S41.38,72.27,43.71,16.17Z"/><path class="cls-1" d="M43.65,16.66a.41.41,0,0,0,.46-.13c.1-.18,0-.1.05-.07l0,.18-.07.37-.15.73-.3,1.46L43,22.13,41.74,28q-1.25,5.84-2.61,11.66T36.36,51.26c-1,3.88-1.94,7.71-3.21,11.6a12,12,0,0,1-.62,1.55c-.21.42-.38.79-.57,1.26-.36.89-.71,1.82-1,2.75l-2,5.61c-1.35,3.75-2.75,7.5-4.3,11.19a99.76,99.76,0,0,1-5.23,10.85,44.1,44.1,0,0,1-3.29,5.11,18.21,18.21,0,0,1-4.38,4.33h0l-.3-.91,19.5-1.36h0l-1.28,1c2.19-7,3.88-14.3,5.41-21.56s2.76-14.62,3.86-22c.51-3.69,1.05-7.37,1.47-11.08s.84-7.4,1.21-11.11.63-7.43,1-11.14c.15-1.87.23-3.5.46-5.24S43.47,18.53,43.65,16.66Zm.13-1c0,1.85.07,3.75.1,5.77s0,4.09-.15,5.94c-.25,3.73-.41,7.46-.74,11.19S42.4,46,42,49.74s-.81,7.43-1.25,11.15c-1,7.42-2.07,14.82-3.45,22.19s-2.93,14.67-5.06,22L32,106l-1,0h0l-19.54-.41-1.52,0,1.22-.88h0a19.27,19.27,0,0,0,3.67-4.41c1-1.65,2-3.36,2.86-5.12,1.74-3.52,3.28-7.17,4.76-10.83s2.87-7.38,4.26-11.1l2.07-5.6c.35-.94.71-1.87,1.11-2.82.18-.46.44-1,.68-1.45A10.64,10.64,0,0,0,31,62.11c1.25-3.67,2.22-7.57,3.28-11.38s2-7.69,3-11.54l3-11.57,1.47-5.79.74-2.89.37-1.45.19-.72.09-.36,0-.18a.82.82,0,0,1,.09-.25A.66.66,0,0,1,43.78,15.67Z"/><path class="cls-4" d="M129.39,22.84s-84.32-6-85.47-6a8.93,8.93,0,0,1-3.18-1.37l-3.24.89-5.25-1.1-.34,4.19,1,3.9,4.15-.54s-2.49-1.35,2.76-.25S47,22.38,47,22.38l4.15-.54,78.63,4.24,5.06-.52,3.26-1.85,3.27-2.18L140.54,18l-1.83-.37a4.87,4.87,0,0,1-2.12,2.21c-1.63.93-3,1.54-3,1.54S129.89,21.24,129.39,22.84Z"/><path class="cls-1" d="M129.66,23l-.14,0c-.46.06-1.12.1-1.53.11l-1.4.05c-.93,0-1.87.05-2.8,0-1.86,0-3.72,0-5.58,0-3.72-.1-7.43-.25-11.14-.54S99.67,21.85,96,21.42s-7.4-.67-11.11-.94c-7.41-.54-14.82-1.07-22.24-1.54L51.5,18.21l-5.56-.36-1.37-.08-.68,0a3.82,3.82,0,0,1-.92-.17,12,12,0,0,1-2.73-1.34l.76.12-3.23.9-.22.06-.23,0-5.26-1.08,1.16-.87-.32,4.19,0-.33,1.07,3.9-1.1-.73L37,21.77l-.35,1.9a4.18,4.18,0,0,1-.41-.26L36,23.23a1.55,1.55,0,0,1-.31-.38,1.09,1.09,0,0,1-.1-.23,1.36,1.36,0,0,1,0-.15,1.25,1.25,0,0,1,0-.23,1.12,1.12,0,0,1,.39-.84,1.31,1.31,0,0,1,.64-.29,2.72,2.72,0,0,1,.57,0,11.73,11.73,0,0,1,1.57.19c.49.08,1,.18,1.45.28s.9.18,1.35.24a15.43,15.43,0,0,0,2.69.19,8.16,8.16,0,0,0,1.28-.12,4.85,4.85,0,0,0,.59-.14,3.54,3.54,0,0,0,.41-.15l.42-.16L51,20.87h.18L70.85,22c6.56.29,13.1.77,19.67.82,3.28.06,6.57.08,9.85.21s6.55.35,9.83.52c6.55.41,13.09.93,19.64,1.41h-.18l5.08-.39-.39.13,3.31-1.77-.05,0,3.32-2.09-.34.85-.74-3.59.55.54-1.82-.42.75-.41a4.9,4.9,0,0,1-1.12,1.52,6.38,6.38,0,0,1-1.46,1c-1,.51-2,1-3,1.4l-.1,0h-.1a9.43,9.43,0,0,0-2.21.16,3.83,3.83,0,0,0-1,.34,1.71,1.71,0,0,0-.39.28,1.15,1.15,0,0,0-.14.17l-.06.1A1.06,1.06,0,0,1,129.66,23Zm-.22-.28-.23-.14a.08.08,0,0,0-.06,0l.08-.15a1.83,1.83,0,0,1,.21-.29,2.4,2.4,0,0,1,.53-.43,4.56,4.56,0,0,1,1.18-.48,10.24,10.24,0,0,1,2.43-.33l-.2,0c1-.46,1.9-1,2.81-1.53a5.17,5.17,0,0,0,1.15-.9,3.9,3.9,0,0,0,.76-1.11l.2-.51.55.1,1.84.32.43.08.12.46.92,3.55.13.52-.47.33-3.21,2.26h0l0,0-3.21,1.94-.16.1-.23,0-5.05.64h-.18c-6.56-.22-13.12-.41-19.68-.71-3.28-.18-6.55-.31-9.83-.54s-6.54-.56-9.81-.85c-6.54-.65-13.09-.89-19.64-1.3l-19.66-1h.18l-4.14.55.42-.16a3.93,3.93,0,0,1-.92.4,6.76,6.76,0,0,1-.81.2,10.1,10.1,0,0,1-1.58.17,17.39,17.39,0,0,1-3-.19c-.5-.07-1-.16-1.48-.25l-1.38-.26a10.14,10.14,0,0,0-1.28-.15h-.15a.63.63,0,0,0,.31-.17.89.89,0,0,0,.21-.27,1,1,0,0,0,.1-.41.82.82,0,0,0,0-.19.73.73,0,0,0,0-.11,1,1,0,0,0-.07-.15c-.14-.2-.07-.08,0-.07l.19.12,2.69,1.52-3,.38-4.15.52-.87.11L32,23.58l-1-3.9,0-.17v-.17l.35-4.19.09-1.1,1.07.23,5.25,1.12h-.44l3.24-.87.4-.11.36.23a10.36,10.36,0,0,0,2.24,1.14,2.19,2.19,0,0,0,.44.09l.71,0,1.41.1,5.56.41,11.12.83c7.41.57,14.82,1.08,22.24,1.6,3.71.26,7.41.55,11.13.63s7.44.13,11.15.36,7.41.61,11.1,1c1.85.23,3.69.47,5.53.75.92.13,1.84.3,2.76.44l1.38.25a10,10,0,0,1,1.25.31Z"/><path class="cls-3" d="M136.63,18.15s18.16,44.68,20.12,48.6S169,98.38,177.59,105l-86.12,1.7L61.56,91.47,45.1,15.85Z"/><path class="cls-1" d="M136.75,18c.34.56.52,1,.76,1.45l.67,1.35,1.32,2.72q1.31,2.72,2.57,5.47,2.53,5.48,4.93,11c3.2,7.37,6.29,14.8,9.35,22.22L157.51,65l.58,1.33c.22.49.44,1,.62,1.44l2.27,5.6c1.51,3.72,3,7.42,4.67,11.07A119.13,119.13,0,0,0,171,95.11c.48.87,1,1.72,1.53,2.56l.79,1.26.86,1.21a21.53,21.53,0,0,0,3.87,4.33l1.53,1.31-2,0c-3.59.07-7.17.27-10.76.41s-7.18.19-10.76.24l-21.53.34-21.53.32-21.53.45h-.2l-.18-.09c-5-2.5-10-5-15-7.51L61,92.52l-.48-.24-.13-.56c-1.47-6.28-2.87-12.58-4.27-18.87s-2.69-12.62-4-18.92l-3.77-19c-.61-3.17-1.28-6.32-1.95-9.48s-1.3-6.32-2-9.46l-.21-.92,1,0c7.65.17,15.38-.2,23.1-.06s15.36.54,23,.8,15.29.63,22.88,1q5.7.25,11.36.55Zm-.25.36-11.61,0q-5.8,0-11.53,0c-7.66,0-15.3-.05-22.88-.18S75.3,18,67.75,17.81s-15.06-1-22.67-1.22l.75-.9c.66,3.16,1.4,6.3,2.1,9.44s1.41,6.29,2.16,9.43L54.55,53.4C56,59.69,57.44,66,58.75,72.28s2.69,12.62,4,18.94l-.62-.8,14.85,7.84c4.94,2.63,9.93,5.18,14.89,7.77l-.38-.09,21.53-.41,21.53-.53L156,104.5c3.59-.1,7.18-.17,10.77-.19s7.18.06,10.77,0l-.45,1.35a39.9,39.9,0,0,1-7.6-9.66c-2.09-3.48-4-7.07-5.79-10.68s-3.5-7.28-5.13-11l-2.44-5.5c-.2-.46-.41-.88-.62-1.3l-.68-1.41-1.23-2.78C150.42,56,147.41,48.5,144.5,41q-2.17-5.63-4.21-11.31c-.68-1.89-1.35-3.79-2-5.7l-1-2.87-.46-1.44A9.52,9.52,0,0,1,136.5,18.33Z"/><path class="cls-3" d="M45.07,16.85S63.23,61.53,65.2,65.45s17.7,35.63,26.25,42.3l-38.06-1.93S44.58,73,45.07,16.85Z"/><path class="cls-1" d="M45,16.36a1.64,1.64,0,0,1,.63.53,4,4,0,0,1,.24.5l.32.74.64,1.47,1.27,2.94,2.53,5.89,5,11.8,5,11.8c1.67,3.93,3.31,7.89,5,11.77,3.7,7.58,7.81,15.14,12,22.55,2.09,3.71,4.22,7.39,6.48,11,1.13,1.79,2.32,3.55,3.54,5.27a31.4,31.4,0,0,0,4.08,4.75h0l1.11.93-1.44,0-38.1-1h-1l-.24-1C50.3,98.79,49.13,91.43,48.11,84s-1.74-14.87-2.33-22.33c-.25-3.73-.53-7.46-.69-11.2s-.32-7.47-.43-11.21-.11-7.47-.17-11.21c0-1.86,0-3.95.13-5.92S44.9,18.22,45,16.36Zm.19,1c.09,1.87.25,3.69.37,5.42s.13,3.4.18,5.27c.14,3.73.18,7.45.39,11.17s.36,7.44.65,11.16.58,7.43.91,11.14c.73,7.41,1.61,14.81,2.75,22.16s2.48,14.7,4.32,21.81l-1.27-1h0l38,2.81-.33.89h0a27.78,27.78,0,0,1-4.68-4.58c-1.41-1.65-2.67-3.4-3.91-5.16S80.11,94.85,79,93s-2.25-3.66-3.34-5.51Q72.38,82,69.41,76.25c-2-3.82-3.94-7.56-5.8-11.53C60.2,56.84,57.07,48.9,53.9,40.95,52.32,37,50.74,33,49.21,29l-2.31-6-1.15-3-.57-1.5-.28-.75c0-.11-.14-.3-.06-.24A.33.33,0,0,0,45.17,17.34Z"/><path class="cls-1" d="M99,71.19c1.25,4.86-2.19,8.5-2.6,12.92C95.49,88.4,94.78,92.73,94,97a58,58,0,0,0-.9,6.4,5.35,5.35,0,0,0,0,.69.66.66,0,0,0,0,.09s0,0-.07-.13a.79.79,0,0,0-.39-.28.76.76,0,0,0-.36,0,.62.62,0,0,0-.22.06.6.6,0,0,0-.16.1,12.21,12.21,0,0,0,.94-1.29c.58-.93,1-2,1.62-2.88a63.28,63.28,0,0,1,4.12-5.1c.72-.83,1.4-1.68,2.09-2.52.34-.42.69-.85,1-1.28a8,8,0,0,0,.84-1.27l.65.09A12.14,12.14,0,0,1,102.07,93c-.49,1-1,2-1.56,3a38,38,0,0,1-3.6,5.6c-.7.86-1.6,1.56-2.39,2.36-.39.4-.75.83-1.13,1.27a1.47,1.47,0,0,1-.47.36,1.31,1.31,0,0,1-.32.09,1.14,1.14,0,0,1-.46,0,1.09,1.09,0,0,1-.54-.41,1.38,1.38,0,0,1-.21-.51,2.7,2.7,0,0,1-.05-.31,7,7,0,0,1,0-1c0-1.17.16-2.27.28-3.38s.27-2.21.46-3.3c.73-4.37,1.81-8.65,2.83-12.93,1.53-4.15.2-9,3.73-12.68Z"/><path class="cls-1" d="M89.6,86.4c1.62,1.7-.05,3.38.31,5.07q0,1.27.06,2.54l0,1.27v.63a1.72,1.72,0,0,1-.26,1,1.2,1.2,0,0,1-1.21.56,1.23,1.23,0,0,1-.92-.85,4.93,4.93,0,0,1-.14-.74l-.1-.63A8.92,8.92,0,0,0,87.08,94a9.92,9.92,0,0,1-.52-1.2,10.62,10.62,0,0,1-.19-2.54,24.06,24.06,0,0,1,.09-2.59l.43-.07a24.06,24.06,0,0,1,1,2.41,10.62,10.62,0,0,1,.67,2.46,9.93,9.93,0,0,1-.09,1.3A8.92,8.92,0,0,0,88.57,95l.12.62a3.37,3.37,0,0,0,.12.5c0,.07.06,0-.06,0s-.16.05-.15,0a.71.71,0,0,0,0-.26l0-.63L88.73,94q.08-1.26.13-2.53c.41-1.69-1.21-3.38.46-5.06Z"/><path class="cls-5" d="M136.6,19.15c-.35-.88-13.53,58.09-20.16,64.5a34.43,34.43,0,0,0-1.13-23.57c-5.3-12.25-2.18,35.26-20.16,46.58l82.42-.61S145.38,41.45,136.6,19.15Z"/><path class="cls-2" d="M145.94,5.37s-7.41,57.3-10.22,62.27-18,40.25-29.57,48.35l108.26,2.31Z"/><path class="cls-1" d="M146,5.86a.46.46,0,0,0,.34-.23.79.79,0,1,1,0-.13v.18l0,.23-.06.47-.11.93L146,9.17l-.46,3.73-.94,7.46-2,14.91c-.67,5-1.43,9.92-2.21,14.88S138.82,60,137.65,65c-.16.62-.32,1.24-.52,1.88a9.55,9.55,0,0,1-.83,1.86c-.55,1.09-1.09,2.22-1.63,3.35l-3.24,6.79c-2.2,4.51-4.45,9-6.84,13.43s-4.9,8.8-7.69,13a76.13,76.13,0,0,1-4.49,6.16,31.09,31.09,0,0,1-5.57,5.48l-.66-2.18q6.77.11,13.53.37l13.53.61c9,.46,18,.74,27.06.79s18,.11,27.08.12,18.05,0,27.07.22l-1.21,2.1L196.4,91c-5.58-9.35-11.17-18.65-16.7-28.1L163,34.54Zm-.21-1,34.81,55.86c5.88,9.37,11.71,18.89,17.54,28.36l17.41,28.47,1.31,2.15-2.52-.05c-9-.19-18-.55-27.06-.93s-18-.8-27.06-1-18-.44-27.07-.36l-13.54,0q-6.77,0-13.53-.2l-3.55-.09,2.88-2.08a28.92,28.92,0,0,0,5.12-5,73.86,73.86,0,0,0,4.38-6c2.75-4.12,5.25-8.44,7.64-12.81s4.65-8.83,6.85-13.32l3.31-6.74c.55-1.13,1.11-2.25,1.7-3.39a7.32,7.32,0,0,0,.72-1.55c.19-.55.35-1.14.5-1.74,1.19-4.78,2-9.74,2.9-14.66S140.21,40,141,35l2.28-14.85,1.1-7.43L144.92,9l.27-1.86.13-.93.07-.46,0-.23,0-.12V5.36s0,0,.05-.19A.56.56,0,0,1,145.84,4.88Z"/><path class="cls-3" d="M146.94,1.2s-13.08,57.16-15.89,62.13-14.57,45.37-26.11,53.47l25.38-.62S143.91,74.14,146.94,1.2Z"/><path class="cls-1" d="M146.87,1.69a.39.39,0,0,0,.46-.1c.1-.17,0-.08,0,0l0,.24-.1.48-.2.95-.4,1.9-.81,3.8-1.66,7.58q-1.66,7.59-3.45,15.14t-3.63,15.11q-.93,3.77-2,7.53c-.69,2.51-1.37,5-2.23,7.52-.1.31-.22.63-.35,1a9.45,9.45,0,0,1-.44,1c-.28.53-.52,1.07-.76,1.66-.48,1.17-.93,2.38-1.37,3.58l-2.64,7.29-2.69,7.3q-1.41,3.63-2.91,7.23A132.68,132.68,0,0,1,115,104.92a59.41,59.41,0,0,1-4.21,6.64,23.14,23.14,0,0,1-5.59,5.64h0l-.3-.91,25.36-1.51h0l-1.28,1c1.43-4.54,2.67-9.25,3.81-13.93S135,92.4,136,87.66c1.94-9.48,3.55-19,5-28.62.65-4.8,1.34-9.59,1.87-14.41s1.07-9.63,1.54-14.45c.26-2.41.45-4.83.63-7.24l.57-7.25c.19-2.43.29-4.62.55-6.91S146.66,4.13,146.87,1.69Zm.13-1c0,2.41,0,4.87,0,7.45s-.09,5.21-.25,7.62L146.31,23c-.15,2.42-.31,4.85-.53,7.27-.4,4.84-.79,9.68-1.32,14.51s-1.08,9.66-1.66,14.48c-1.27,9.64-2.74,19.25-4.54,28.81-.91,4.78-1.87,9.55-3,14.3s-2.24,9.46-3.66,14.2l-.28.93-1,0h0l-25.4-.27-1.59,0,1.29-.89h0a24.06,24.06,0,0,0,4.88-5.72,75.6,75.6,0,0,0,3.79-6.65c2.29-4.59,4.34-9.31,6.27-14.08,1-2.39,1.89-4.8,2.8-7.21l2.73-7.25,2.69-7.29c.46-1.22.92-2.43,1.43-3.66.25-.6.54-1.25.87-1.86a14,14,0,0,0,.66-1.63c1.63-4.8,2.89-9.86,4.25-14.83s2.62-10,3.89-15l3.79-15.05,1.88-7.53.94-3.76L146,3l.24-.94.12-.47.06-.24a1,1,0,0,1,.1-.28A.72.72,0,0,1,147,.7Z"/><path class="cls-4" d="M258.32,9.88S148.71,2.08,147.22,2,143.08.26,143.08.26l-4.21,1.15L132,0l-.44,5.44L133,10.5l5.39-.7S135.13,8,142,9.47s9.26-.19,9.26-.19l5.39-.7,102.21,5.51,6.58-.67L269.64,11l4.25-2.83-1.08-4.64-2.38-.48a6.34,6.34,0,0,1-2.76,2.87c-2.12,1.21-3.93,2-3.93,2S259,7.8,258.32,9.88Z"/><path class="cls-1" d="M258.58,10h-.14c-.6.05-1.39.08-2,.08h-1.82c-1.21,0-2.42,0-3.63,0-2.42,0-4.84-.09-7.25-.16-4.83-.18-9.66-.41-14.47-.78s-9.62-1-14.42-1.45-9.63-.83-14.44-1.18l-28.91-2-14.46-1-7.23-.47L148.06,3,147.18,3a4.71,4.71,0,0,1-1.13-.2A15.29,15.29,0,0,1,142.57,1l.76.12-4.2,1.17-.22.06-.23,0L131.85.93,133,.06l-.42,5.45,0-.33,1.38,5.07-1.1-.73,5.39-.72-.35,1.9a5.16,5.16,0,0,1-.51-.32,3.06,3.06,0,0,1-.27-.22,1.72,1.72,0,0,1-.35-.42,1.13,1.13,0,0,1-.11-.24,1.47,1.47,0,0,1,0-.16,1.32,1.32,0,0,1,0-.24,1.14,1.14,0,0,1,.4-.86,1.41,1.41,0,0,1,.69-.31,3.26,3.26,0,0,1,.68,0,15.05,15.05,0,0,1,2,.24c.63.11,1.26.24,1.87.36s1.19.24,1.78.32a20.35,20.35,0,0,0,3.55.24,10.87,10.87,0,0,0,1.71-.17,6.54,6.54,0,0,0,.8-.19,4.13,4.13,0,0,0,.61-.23l.24-.13.18,0,5.39-.69h.18L182.2,9c8.52.42,17,.94,25.57,1.14,4.27.11,8.53.18,12.79.38s8.52.45,12.78.66c8.51.51,17,1.14,25.53,1.73h-.18l6.59-.55-.39.13,4.29-2.33-.05,0,4.3-2.75-.34.85-1-4.66.55.54L270.3,3.7l.75-.41a6.24,6.24,0,0,1-1.4,1.91,8.12,8.12,0,0,1-1.85,1.3c-1.26.67-2.54,1.28-3.86,1.84l-.1,0h-.1a12.37,12.37,0,0,0-2.91.23,5.06,5.06,0,0,0-1.33.46,2.31,2.31,0,0,0-.53.38,1.59,1.59,0,0,0-.19.24l-.08.14A1.4,1.4,0,0,1,258.58,10Zm-.37-.33-.07-.1,0-.05.1-.19a2.27,2.27,0,0,1,.27-.36,3,3,0,0,1,.67-.54,5.8,5.8,0,0,1,1.51-.61,13.19,13.19,0,0,1,3.12-.4l-.2,0c1.25-.6,2.48-1.27,3.68-2a6.92,6.92,0,0,0,1.54-1.19,5.25,5.25,0,0,0,1-1.51L270,2.3l.54.1,2.38.43.44.08.12.46L274.67,8l.13.52-.47.33-4.19,2.91h0l0,0-4.19,2.49-.16.1-.23,0-6.57.8h-.18c-8.52-.33-17.05-.62-25.57-1-4.26-.24-8.52-.41-12.78-.71s-8.51-.65-12.76-1c-8.5-.72-17-1.12-25.54-1.62L156.55,9.55h.18l-5.39.72.42-.16a4.87,4.87,0,0,1-1.12.48,8.52,8.52,0,0,1-1,.25,12.84,12.84,0,0,1-2,.21,22.32,22.32,0,0,1-3.9-.24c-.64-.08-1.27-.21-1.9-.33s-1.2-.24-1.8-.34a13.47,13.47,0,0,0-1.71-.2h-.26s0,0,.26-.15a.86.86,0,0,0,.2-.26.93.93,0,0,0,.1-.4.76.76,0,0,0,0-.18.64.64,0,0,0,0-.1,1.06,1.06,0,0,0-.06-.13c-.12-.17,0,0,.05,0l.28.18,2.69,1.52-3,.39-5.39.69-.87.11-.22-.84-1.35-5.07,0-.17V5.35l.45-5.44.09-1.1,1.07.23L139.07.49h-.44l4.21-1.14.4-.11.36.23a13.7,13.7,0,0,0,3,1.51,3,3,0,0,0,.65.13l.92.06,1.82.13,7.23.53,14.45,1.07L200.56,5c4.82.34,9.63.7,14.47.87s9.66.3,14.48.6,9.63.77,14.44,1.27c2.4.27,4.8.54,7.2.87,1.2.15,2.4.34,3.6.52l1.8.27c.65.09,1.06.2,1.66.34Z"/><path class="cls-5" d="M148.7,2.08s23.61,58.09,26.16,63.19,23,46.31,34.13,55l112-2.21c-11.11-8.67-24.53-44.69-27.09-49.78S267.69,5.08,267.69,5.08Z"/><path class="cls-3" d="M148.7,2.08c-.64,73,10.82,115.67,10.82,115.67l49.47,2.5c-11.12-8.67-31.57-49.89-34.13-55S148.7,2.08,148.7,2.08Z"/><path class="cls-3" d="M201.64,112.46c.67,1,15.45-72,23.78-80A43.26,43.26,0,0,0,226.84,62c6.66,15.39,3.05-42.78,25.63-57L148.68,2.2S181.94,83.57,201.64,112.46Z"/><path class="cls-5" d="M218.71,12.14c-9.75,16-16.23,53.26-26.19,50.24S155.95,2.24,155.95,2.24l66.11,1Z"/><path class="cls-1" d="M149.11,2.37c.13.08.24.09.28.13s.1.21.17.36l.4,1,.8,1.92,1.61,3.84,3.22,7.69,6.46,15.37c4.32,10.23,8.55,20.53,13,30.68.55,1.22,1.18,2.46,1.82,3.69l1.9,3.7,3.88,7.36q3.9,7.35,8,14.56c2.76,4.8,5.62,9.55,8.7,14.13.75,1.16,1.55,2.28,2.35,3.4l1.2,1.68,1.26,1.62c.43.53.83,1.09,1.27,1.6l1.35,1.51a31.07,31.07,0,0,0,2.86,2.76l-.75-.25,14-.29,14-.19c9.33-.11,18.66-.1,28-.16s18.66-.2,28-.34l28-.73-.4,1.22a32.55,32.55,0,0,1-5.46-5.86l-1.19-1.59-1.09-1.65-1.09-1.65-1-1.69c-2.72-4.51-5.15-9.17-7.46-13.89s-4.47-9.49-6.55-14.3l-3.09-7.19c-.26-.6-.53-1.16-.79-1.73l-.85-1.82-1.58-3.61c-4.17-9.61-8.06-19.31-12-29L266.5,5.56l1.16.8c-9.83-.27-19.64-.52-29.47-.86l-29.53-1Zm-.82-.57,59.44.86,30,.49c10,.16,20,.41,30,.64l.84,0,.32.78q11.85,29,23.91,58l1.53,3.59.79,1.74c.28.62.58,1.24.82,1.85L299,77c2,4.82,4,9.62,6.18,14.36s4.46,9.41,7,13.91l1,1.69,1,1.64,1,1.64,1.12,1.57a31.25,31.25,0,0,0,5,5.72l1.33,1.19-1.74,0-28,.38c-9.33.23-18.66.4-28,.76s-18.65.69-28,.95l-14,.36-14,.26h-.48l-.27-.26a33.12,33.12,0,0,1-3.13-3l-1.42-1.6c-.46-.54-.87-1.11-1.31-1.66l-1.3-1.67-1.22-1.72c-.81-1.15-1.63-2.29-2.38-3.46-3.11-4.66-6-9.45-8.73-14.29-5.53-9.7-10.7-19.5-15.53-29.62-4.37-10.26-8.52-20.56-12.67-30.87l-6.17-15.49L151.31,10l-1.54-3.88L149,4.21l-.38-1c-.06-.17-.12-.28-.22-.6A3.15,3.15,0,0,1,148.29,1.8Z"/><path class="cls-1" d="M148.8,2.57c.09,2.46.29,4.87.43,7.15s.17,4.47.25,6.91l.26,7.26c.08,2.42.14,4.84.28,7.26.4,9.68,1.14,19.34,1.94,29s2,19.27,3.38,28.84c.72,4.78,1.43,9.57,2.21,14.34s1.59,9.56,2.65,14.25l-.64-.52c4.12.32,8.24.6,12.36.82s8.25.39,12.37.58c8.25.34,16.51.53,24.76.79l-.68,1.81a33.19,33.19,0,0,1-3.18-2.95l-1.46-1.57c-.48-.53-.9-1.09-1.35-1.63l-1.34-1.64c-.43-.56-.84-1.13-1.25-1.69-.83-1.14-1.66-2.27-2.43-3.44-3.17-4.62-6.06-9.41-8.81-14.26s-5.43-9.74-8-14.67l-3.83-7.42-1.88-3.73c-.63-1.24-1.24-2.48-1.84-3.81-2.23-5.13-4.3-10.28-6.39-15.43l-6.21-15.48c-2.08-5.16-4.1-10.33-6.12-15.51l-3-7.77-1.5-3.89L149,4.22l-.37-1c0-.15-.17-.38-.1-.35A.45.45,0,0,0,148.8,2.57Zm-.19-1a2.22,2.22,0,0,1,.68.64,5.55,5.55,0,0,1,.29.61l.41,1,.83,1.91,1.64,3.83,3.27,7.67,6.52,15.35c4.31,10.24,8.66,20.49,13.07,30.64.54,1.21,1.17,2.45,1.8,3.69L179,70.6,182.87,78q3.91,7.34,8.06,14.54c1.38,2.4,2.81,4.77,4.22,7.15s2.9,4.7,4.41,7c.73,1.17,1.52,2.29,2.3,3.43l1.17,1.7,1.23,1.64c.41.54.81,1.11,1.24,1.63l1.32,1.54a31.29,31.29,0,0,0,2.81,2.84l2,2-2.67-.19c-8.24-.58-16.47-1.21-24.71-1.71-4.12-.23-8.24-.49-12.37-.67s-8.25-.34-12.38-.44H159l-.14-.51A230.89,230.89,0,0,1,153,89.33c-1.37-9.63-2.4-19.31-3.23-29l-.55-7.27c-.19-2.42-.27-4.85-.41-7.28-.28-4.85-.43-9.71-.57-14.57s-.14-9.72-.2-14.57c0-2.41.05-5.11.18-7.65S148.53,4,148.61,1.59Z"/><path class="cls-1" d="M218.75,72.72c.9,6.13-2.84,11.05-3.54,16.76-1.21,5.57-2.18,11.2-3.15,16.8a74.19,74.19,0,0,0-1.15,8.36,7.13,7.13,0,0,0,0,.94,1.24,1.24,0,0,0,0,.15s0,.06,0-.07a.76.76,0,0,0-.37-.26.71.71,0,0,0-.35,0,.55.55,0,0,0-.21.06c-.15.08-.14.09-.12.06a17.34,17.34,0,0,0,1.26-1.67c.78-1.19,1.4-2.51,2.22-3.66,1.63-2.33,3.49-4.49,5.28-6.7.9-1.1,1.77-2.22,2.64-3.35.42-.56.87-1.12,1.25-1.7a10.23,10.23,0,0,0,.59-.86,5.22,5.22,0,0,0,.46-.86l.65.09a16,16,0,0,1-1.63,4.16c-.67,1.28-1.38,2.54-2.11,3.79a62,62,0,0,1-4.75,7.2c-.9,1.13-2,2.09-3,3.15-.5.53-1,1.09-1.44,1.65a1.63,1.63,0,0,1-.52.41,1.44,1.44,0,0,1-.33.1,1.21,1.21,0,0,1-.48,0,1.15,1.15,0,0,1-.57-.43,1.56,1.56,0,0,1-.24-.57,3.09,3.09,0,0,1-.06-.37,8.76,8.76,0,0,1,0-1.2c.05-1.5.21-2.93.38-4.37s.37-2.86.61-4.28c.95-5.67,2.31-11.24,3.61-16.81,1.82-5.44.82-11.61,4.68-16.52Z"/><path class="cls-1" d="M206.55,92.5c1.61,2.2-.06,4.4.29,6.59,0,1.1,0,2.2,0,3.3l0,1.65v.82a2.06,2.06,0,0,1-.31,1.13,1.36,1.36,0,0,1-1.37.64,1.41,1.41,0,0,1-1.05-1,6.47,6.47,0,0,1-.18-.92c0-.27-.08-.54-.13-.81-.12-.54-.18-1.08-.35-1.61s-.47-1-.58-1.57a18.57,18.57,0,0,1-.32-3.29c0-1.11-.09-2.21,0-3.33L203,94c.43,1,.75,2.1,1.08,3.16a18.57,18.57,0,0,1,.8,3.2c.07.55,0,1.12,0,1.67s.15,1.09.21,1.63c0,.27.1.54.15.81a5,5,0,0,0,.15.69c.06.13.12.14.07.11s0,0,0-.06a1,1,0,0,0,.09-.44l0-.82.07-1.64c.06-1.1.11-2.19.14-3.29.42-2.19-1.19-4.39.48-6.58Z"/><path class="cls-1" d="M74.32,112.91s3.49-6,1.77-22.1c0-.47-1.36,18-5.81,22.65C72,114.41,74.32,112.91,74.32,112.91Z"/><path class="cls-1" d="M72.86,114.6s2.25-6.67-2.53-22c-.13-.45,2.14,17.86-1.31,23.48C70.86,116.62,72.86,114.6,72.86,114.6Z"/><path class="cls-1" d="M71.37,113.6s.83-3.18-5.72-17.64c-.18-.43,4.85,13.62,2.08,19.69C69.62,115.89,71.37,113.6,71.37,113.6Z"/><path class="cls-1" d="M77,113.14s3.42-4.49,1.87-18.33c0-.4-1.44,14.92-5.78,18.15C74.72,114,77,113.14,77,113.14Z"/><path class="cls-1" d="M77.27,110.91s-.61-5.83,7.59-16.42c.23-.31-6.25,13.32-4.24,18.66C78.73,113,77.27,110.91,77.27,110.91Z"/><path class="cls-1" d="M131.57,121.63s3.49-6,1.77-22.1c0-.47-1.36,18-5.81,22.65C129.23,123.12,131.57,121.63,131.57,121.63Z"/><path class="cls-1" d="M130.11,123.31s2.25-6.67-2.53-22c-.13-.45,2.14,17.86-1.31,23.48C128.11,125.33,130.11,123.31,130.11,123.31Z"/><path class="cls-1" d="M128.62,122.31s.83-3.18-5.72-17.64c-.18-.43,4.85,13.62,2.08,19.69C126.88,124.61,128.62,122.31,128.62,122.31Z"/><path class="cls-1" d="M134.25,121.85s3.42-4.49,1.87-18.33c0-.4-1.44,14.92-5.78,18.15C132,122.74,134.25,121.85,134.25,121.85Z"/><path class="cls-1" d="M134.53,119.63s-.61-5.83,7.59-16.42c.23-.31-6.25,13.32-4.24,18.66C136,121.76,134.53,119.63,134.53,119.63Z"/><path class="cls-1" d="M302.41,119.64c2.13,1.25,5.13,3.26,6.68,6.75,1.12,2.54,1.25,5.66.34,9.47a26.2,26.2,0,0,1-3.61,8.94,57.24,57.24,0,0,1-6.3,7.39,89.62,89.62,0,0,1-6.95,6.79c-2.27,1.93-4.92,3.85-7.74,5.93a25.44,25.44,0,0,1-6.17-7.36c-1.47-2.58-2.38-5.78-3.51-8.91a57.9,57.9,0,0,1-2.58-9.17c-.61-3.35-1.26-6.62-1-9.52a13.06,13.06,0,0,1,3.95-8.58,16.73,16.73,0,0,1,8-4.28c5.23-1,4.15,1.61,8.73,1.83C297.52,119.18,296.91,116.41,302.41,119.64Z"/><path class="cls-1" d="M302.48,119.53a15.52,15.52,0,0,1,6.32,7,14.22,14.22,0,0,1,1,9.42c-.62,2.61-2.15,5.38-4.3,8.62a51.85,51.85,0,0,1-5.82,7.75c-2,2.1-4.54,4.12-7.27,6.43-2.27,1.93-4.72,4.11-7.54,6.18a25.54,25.54,0,0,1-6.17-7.38,59.4,59.4,0,0,1-3.56-8.89,58.3,58.3,0,0,1-2.71-9.15,35.56,35.56,0,0,1-.56-9.53c.34-3.6,1.6-6.57,3.77-8.53a17.08,17.08,0,0,1,7.88-4.45c5.23-1,4.16,1.95,8.75,2.11C297.56,119.28,297,116.29,302.48,119.53Z"/><path class="cls-1" d="M291.82,118.3a38.61,38.61,0,0,1-.86,9.41c-.55,2.89-1.21,6.14-1.88,9.38s-1,6.57-1.54,9.44c-.88,4.7-1.47,8.23-1.09,9.31"/><path class="cls-1" d="M291.05,127.42c.72,1.15,4.81,3.35,5.55,4.67s2,5.57,3.2,11.43"/><path class="cls-1" d="M321,116.31a16.55,16.55,0,0,1,6,7.45c1.12,2.54,2.23,5.63,1.32,9.45-.62,2.61-2.37,5.35-4.52,8.59a54.59,54.59,0,0,1-6.1,7.5,87.55,87.55,0,0,1-6.86,6.87c-2.27,1.93-4.93,3.67-7.75,5.75a25,25,0,0,1-5.82-7.36A67.2,67.2,0,0,1,291,136.64c-.61-3.35-1.45-6.59-1.17-9.49a12.93,12.93,0,0,1,4-8.5c2.89-2.61,5.51-4.06,7.86-4.53,5.23-1,4.18,1.65,8.77,1.58C316,115.61,315.52,113.08,321,116.31Z"/><path class="cls-1" d="M321,116.33a16.47,16.47,0,0,1,6.13,7.37,14.34,14.34,0,0,1,1,9.47A28.27,28.27,0,0,1,324,141.9a57.31,57.31,0,0,1-6.32,7.34,93.46,93.46,0,0,1-7.09,6.59c-2.27,1.93-4.63,4-7.46,6.08-2-1.53-3.82-4.14-5.68-7.42a56.38,56.38,0,0,1-4.06-8.61,58.1,58.1,0,0,1-2.58-9.18,34.37,34.37,0,0,1-.23-9.48c.34-3.6,1.28-6.49,3.45-8.45a16.09,16.09,0,0,1,7.86-4.16c5.23-1,4.09,1.36,8.67,1.29C316,115.82,315.51,113.1,321,116.33Z"/><path class="cls-1" d="M310.56,115.46c.17,1.52-.8,5-1.62,9.4-.55,2.89-1,6.19-1.62,9.42s-1.42,6.49-2,9.36c-.88,4.7-1.33,8.44-1,9.52"/><path class="cls-1" d="M309.43,124.57c.72,1.15,4.92,3.29,5.67,4.61s1.44,5.75,2.67,11.61"/><path class="cls-1" d="M261.61,63.57c-2.16-1.29-5.08-1.35-8.23-1a21.77,21.77,0,0,0-8.12,2.11,27,27,0,0,0-6.77,5.11,30.1,30.1,0,0,0-5,6.9,35.47,35.47,0,0,0-2.77,8,42.93,42.93,0,0,0-1.28,8.39c.09-.41,2.31-3,5.83-6.16,1.84-1.63,4.11-3.41,6.54-5.23,2.15-1.62,4.62-3,7-4.53A61.06,61.06,0,0,1,256.17,73a33.72,33.72,0,0,1,8.09-2.1,18.47,18.47,0,0,1,8.54.29c.28-4.37-2.76-3.32-6.91-5.63a15.33,15.33,0,0,0-8.33-2,17.43,17.43,0,0,0-8.27,2.52,33.43,33.43,0,0,0-6.57,5.72,54.46,54.46,0,0,0-5.8,6.55"/><path class="cls-1" d="M261.48,63.79a11.05,11.05,0,0,0-6-1.11,34.77,34.77,0,0,0-6.24.87,16.5,16.5,0,0,0-2.94,1,23,23,0,0,0-2.72,1.55,26.48,26.48,0,0,0-4.8,4,29,29,0,0,0-6.56,10.6,50,50,0,0,0-1.65,6.11,38,38,0,0,0-.82,6.26l-.5-.07a3.06,3.06,0,0,1,.47-.76c.16-.21.33-.42.51-.62.35-.41.7-.8,1.06-1.19.72-.78,1.47-1.53,2.24-2.26,1.51-1.5,3.21-2.76,4.85-4.1s3.23-2.74,5-3.93,3.56-2.3,5.35-3.42,3.56-2.28,5.45-3.28a23.7,23.7,0,0,1,6-2.21c1-.24,2.09-.42,3.14-.58s2.11-.32,3.18-.38a16.89,16.89,0,0,1,6.38.67l-.37.25a3.7,3.7,0,0,0-.49-2.5,4.62,4.62,0,0,0-2.28-1.27c-.88-.29-1.78-.58-2.65-1s-1.68-.88-2.51-1.25a15,15,0,0,0-5.29-1.38,16.91,16.91,0,0,0-5.45.57,18.54,18.54,0,0,0-5,2.26,28.79,28.79,0,0,0-4.27,3.54c-2.6,2.66-5.42,5.14-7.64,8.15,2.08-3.12,4.82-5.7,7.36-8.43a29.21,29.21,0,0,1,4.27-3.67,17.64,17.64,0,0,1,5.14-2.35,17.42,17.42,0,0,1,5.63-.59,15.47,15.47,0,0,1,5.48,1.43c.87.39,1.66.9,2.5,1.25s1.72.65,2.61.95a5.14,5.14,0,0,1,2.52,1.44,4.21,4.21,0,0,1,.65,2.85l0,.36-.35-.11a15.47,15.47,0,0,0-6.15-.47,49.93,49.93,0,0,0-6.16,1.13c-4.1.88-7.61,3.19-11.23,5.36-1.82,1.09-3.65,2.13-5.4,3.27s-3.37,2.49-5,3.78-3.35,2.56-4.85,4c-.77.72-1.51,1.46-2.24,2.22-.36.38-.71.77-1.05,1.16-.17.2-.34.4-.5.6a4.12,4.12,0,0,0-.38.56l-.56,1.2.05-1.27a52.19,52.19,0,0,1,2.37-12.56,27.59,27.59,0,0,1,6.55-11,27.31,27.31,0,0,1,5-4.07A22.26,22.26,0,0,1,246,63.92a17.18,17.18,0,0,1,3.09-1,39.86,39.86,0,0,1,6.37-.8,11.55,11.55,0,0,1,6.31,1.23Z"/><path class="cls-1" d="M272.54,71.07c4.3,1.27,3,1.68,6.58,6a35.36,35.36,0,0,1,4.94,7.43c2.55,5.29-1.06,4.83-5.15,2.84s-4-7.68-8.37-5.36c-3.34,1.77-1,6.21-5.22,3.1-2.08-1.54-1.61-5.08-1.94-7.85s-1.29-5.25-5.51-4.41c-3.5-1.44,1.92-1.42,7.09-1.82A32.3,32.3,0,0,1,272.54,71.07Z"/><path class="cls-6" d="M272.54,71.07c4.3,1.27,3,1.68,6.58,6a35.36,35.36,0,0,1,4.94,7.43c2.55,5.29-1.06,4.83-5.15,2.84s-4-7.68-8.37-5.36c-3.34,1.77-1,6.21-5.22,3.1-2.08-1.54-1.61-5.08-1.94-7.85s-1.29-5.25-5.51-4.41c-3.5-1.44,1.92-1.42,7.09-1.82A32.3,32.3,0,0,1,272.54,71.07Z"/><path class="cls-1" d="M269.6,80.08c-1,4.11.83,2.72,2.16,8,.58,2.29.91,5.12,1.59,8.3.53,2.5.88,5.3,1.42,8.32.47,2.6,1.62,5.26,2.07,8.22.4,2.65.57,5.48.94,8.4.33,2.69.52,5.41.8,8.33,1.87,0,1.76-1,2.3-2.82,1.24-4-.62-3.39-1.27-8.33-.33-2.49-.47-5.39-.9-8.4-.39-2.74-.86-5.58-1.29-8.35-.45-2.94-.84-5.8-1.3-8.35a83.23,83.23,0,0,0-1.71-8.27C271.8,76.93,270.6,75.93,269.6,80.08Z"/><path class="cls-1" d="M277,104c-.4-4.64-.58-4.3-1.31-9.22a77,77,0,0,0-1.8-9.07c-.7-.52-.1.81-.45,1.61"/><path class="cls-6" d="M277,104c-.4-4.64-.58-4.3-1.31-9.22a77,77,0,0,0-1.8-9.07c-.7-.52-.1.81-.45,1.61"/><path class="cls-1" d="M294.51,66.41a13.92,13.92,0,0,0-8.4-1.33,22.82,22.82,0,0,0-7.95,2.85,26.53,26.53,0,0,0-7,4.81,30.56,30.56,0,0,0-4.67,7.09,34.59,34.59,0,0,0-3,7.89,44.13,44.13,0,0,0-.83,8.4c.09-.41,2.32-2.57,5.83-5.68,1.84-1.63,3.93-3.56,6.36-5.39,2.15-1.62,4.54-3.1,7-4.58a59.8,59.8,0,0,1,7.33-3.92c2.68-1.16,5.19-2.64,7.8-3.07a18.64,18.64,0,0,1,8.6.78c.28-4.37-2.53-3.67-6.69-6a16,16,0,0,0-8.53-1.77,17.78,17.78,0,0,0-8.1,2.89,30.33,30.33,0,0,0-7.11,5.08,63,63,0,0,0-5.22,7.06"/><path class="cls-1" d="M294.38,66.62a12.15,12.15,0,0,0-6-1.38,17.88,17.88,0,0,0-3.12.26,17.2,17.2,0,0,0-3,.89,43.79,43.79,0,0,0-5.65,2.84,21.74,21.74,0,0,0-5,3.74,26.34,26.34,0,0,0-3.64,5.09,45.4,45.4,0,0,0-2.83,5.66,25.94,25.94,0,0,0-1.71,6.07,61.63,61.63,0,0,0-.46,6.34l-.51-.07a2.6,2.6,0,0,1,.52-.75l.55-.58c.37-.38.75-.75,1.12-1.11.76-.73,1.53-1.44,2.31-2.15,1.56-1.4,3.1-2.81,4.69-4.2a60.42,60.42,0,0,1,5-3.91c1.73-1.21,3.5-2.33,5.28-3.45a57.84,57.84,0,0,1,5.52-3.1l5.74-2.61a17.35,17.35,0,0,1,3.05-1,14.68,14.68,0,0,1,3.21-.31A20.36,20.36,0,0,1,305.65,74l-.37.25a4.21,4.21,0,0,0-.43-2.56,4.29,4.29,0,0,0-2.16-1.46c-.86-.34-1.75-.67-2.61-1.06s-1.67-.9-2.51-1.24a15.76,15.76,0,0,0-5.38-1.16,16.57,16.57,0,0,0-2.76.09,13.74,13.74,0,0,0-2.67.66,28.5,28.5,0,0,0-5,2.45,35.9,35.9,0,0,0-4.7,3c-3,2.27-4.91,5.58-7.15,8.56,2.09-3.08,3.91-6.47,6.9-8.87a36.31,36.31,0,0,1,4.7-3.13A25.87,25.87,0,0,1,286.57,67a14.26,14.26,0,0,1,2.78-.68,17.07,17.07,0,0,1,2.85-.09,16.22,16.22,0,0,1,5.55,1.2c.9.37,1.69.88,2.53,1.25s1.71.7,2.59,1.06a4.88,4.88,0,0,1,2.4,1.65,4.72,4.72,0,0,1,.57,2.87l0,.36-.36-.11a16.11,16.11,0,0,0-12,.55c-.95.42-1.88.88-2.83,1.33l-2.85,1.31c-1.87.9-3.68,1.92-5.48,3A67.37,67.37,0,0,0,272,87.75c-1.58,1.36-3.15,2.76-4.71,4.15-.78.7-1.55,1.4-2.31,2.12-.38.36-.76.72-1.12,1.09l-.53.56a3.85,3.85,0,0,0-.41.51l-.56,1.11.05-1.18c.09-2.12.14-4.26.44-6.4a30.36,30.36,0,0,1,1.65-6.23,45.83,45.83,0,0,1,2.72-5.83,23.68,23.68,0,0,1,3.72-5.3,22.56,22.56,0,0,1,5.24-3.81A43,43,0,0,1,282,65.79a17.11,17.11,0,0,1,6.36-1.11,12.66,12.66,0,0,1,6.27,1.51Z"/><path class="cls-1" d="M305.32,74.1c4.3,1.27,3.37,1.33,7,5.7a37.33,37.33,0,0,1,4.83,7.62c2.55,5.29-1.21,4.67-5.3,2.68s-4.06-7.22-8.44-4.9c-3.34,1.77-.86,5.76-5.08,2.65-2.08-1.54-1.81-4.78-2.14-7.55s-1.44-4.92-5.66-4.09c-3.5-1.44,2-2.24,7.19-2.64A37.12,37.12,0,0,1,305.32,74.1Z"/><path class="cls-6" d="M305.32,74.1c4.3,1.27,3.37,1.33,7,5.7a37.33,37.33,0,0,1,4.83,7.62c2.55,5.29-1.21,4.67-5.3,2.68s-4.06-7.22-8.44-4.9c-3.34,1.77-.86,5.76-5.08,2.65-2.08-1.54-1.81-4.78-2.14-7.55s-1.44-4.92-5.66-4.09c-3.5-1.44,2-2.24,7.19-2.64A37.12,37.12,0,0,1,305.32,74.1Z"/><path class="cls-1" d="M302.22,83.05c-1,4.11.68,2.84,2,8.14.58,2.29,1.68,4.94,2.36,8.13.53,2.5.88,5.32,1.43,8.34.47,2.6.73,5.41,1.18,8.37.4,2.65.72,5.45,1.08,8.37.33,2.69.8,5.81,1.08,8.72,1.87,0,1.94-1.41,2.49-3.2,1.24-4-.9-3.43-1.55-8.37-.33-2.49-.55-5.38-1-8.39-.39-2.74-.67-5.6-1.1-8.38-.45-2.94-.69-5.83-1.16-8.38-.64-3.52-1.13-6.53-1.69-8.3C304.77,79.89,303.22,78.91,302.22,83.05Z"/><path class="cls-1" d="M309.34,107c-.4-4.64.3-4.4-.44-9.32A81.56,81.56,0,0,0,307,88.34c-.7-.52-.65,1-1,1.83"/><path class="cls-6" d="M309.34,107c-.4-4.64.3-4.4-.44-9.32A81.56,81.56,0,0,0,307,88.34c-.7-.52-.65,1-1,1.83"/><path class="cls-7" d="M323.57,115a15.57,15.57,0,0,1,11.6,12.07,24.29,24.29,0,0,1,.48,8.74,40,40,0,0,1-1.53,8.72c-.83,2.52-2.4,5.06-3.81,8-1.17,2.45-2.29,5.18-3.92,7.93-1.4,2.37-3,5-4.76,7.59-2.08-1-4.35-3.17-6.82-5.62a63,63,0,0,1-5.7-6.58,75.93,75.93,0,0,1-4.89-7.21,62.93,62.93,0,0,1-4-7.76,36,36,0,0,1-2.43-8.32c-.51-3.29-.64-6.23.6-8.53a15.5,15.5,0,0,1,6.25-6.64c4.66-2.51,4.38.44,8.89-.6C318.76,115.61,317.25,113,323.57,115Z"/><path class="cls-1" d="M324,113.47a19.11,19.11,0,0,1,7.09,4.25,19.74,19.74,0,0,1,5,6.62,19.29,19.29,0,0,1,1.37,8.22,42.48,42.48,0,0,1-1,8,38.16,38.16,0,0,1-2.5,7.63c-1.07,2.42-2.3,4.71-3.36,7a45.85,45.85,0,0,1-3.73,7l-4.39,6.48-.53.79-.84-.41a27.61,27.61,0,0,1-8.49-6.42c-1.18-1.34-2.21-2.74-3.22-4.12s-2.06-2.73-3-4.17a86,86,0,0,1-5.36-8.91,47.87,47.87,0,0,1-3.84-9.73c-.89-3.36-1.28-7.16.06-10.65a11.46,11.46,0,0,1,.58-1.27c.21-.39.43-.77.65-1.15a24.38,24.38,0,0,1,1.48-2.21,13.93,13.93,0,0,1,4-3.71,9.57,9.57,0,0,1,2.62-1.08,5.18,5.18,0,0,1,3,.27,5.78,5.78,0,0,0,2.19.52,6.4,6.4,0,0,0,2.21-.44,9,9,0,0,0,2.08-1,23.58,23.58,0,0,1,2.22-1.54,5.49,5.49,0,0,1,3.1-.43A17.27,17.27,0,0,1,324,113.47Zm-.69,2.21c-1.54-.51-3.17-1-4.23-.5-.57.25-1.24.84-2,1.33a10.91,10.91,0,0,1-2.55,1.16,8.77,8.77,0,0,1-2.82.5,7.51,7.51,0,0,1-2.78-.66,3.36,3.36,0,0,0-2-.23,8,8,0,0,0-2.12.86,11.86,11.86,0,0,0-3.47,3.26,22.67,22.67,0,0,0-1.37,2.06c-.21.36-.41.72-.61,1.09a9.72,9.72,0,0,0-.49,1.07c-1.14,3-.8,6.37.08,9.56,1.78,6.45,5.27,12.4,9.09,18,1,1.38,2,2.71,3.05,4.1s2,2.72,3.14,3.94a25.47,25.47,0,0,0,7.85,5.83l-1.37.38,4.16-6.47a42.93,42.93,0,0,0,3.42-6.79c1-2.42,2.2-4.72,3.16-7.06a36.69,36.69,0,0,0,2.19-7.13,46.07,46.07,0,0,0,.85-7.43,16.3,16.3,0,0,0-1.11-7,19,19,0,0,0-4.12-5.82A16.79,16.79,0,0,0,323.36,115.68Z"/><path class="cls-1" d="M315.86,115.27a18.89,18.89,0,0,1,.34,3.17c0,1,.07,1.87.08,2.78.05,1.82.08,3.61.09,5.39a90,90,0,0,0,.79,10.56l.33,2.62.29,2.59c.24,1.7.52,3.43.8,5.18s.38,3.55.54,5.29l.26,2.62a9.44,9.44,0,0,0,.54,2.56,8.41,8.41,0,0,1-1-2.47c-.24-.86-.44-1.72-.63-2.58-.4-1.73-.69-3.46-1.11-5.14s-.93-3.4-1.23-5.18-.4-3.52-.58-5.28-.32-3.51-.61-5.24-.65-3.46-1-5.18c-.2-.86-.4-1.72-.62-2.57s-.5-1.68-.76-2.5-.58-1.63-.93-2.4a6.55,6.55,0,0,0-1.12-1.9Z"/><path class="cls-1" d="M317,124.62c-.07,0,.27.37.55.58s.66.47,1,.71c.71.49,1.48.93,2.25,1.43a8.68,8.68,0,0,1,2.31,1.95,20.53,20.53,0,0,1,1.38,2.37c1.64,3.14,3.05,6.33,4.62,9.45a64.53,64.53,0,0,0-5.76-8.71,19.14,19.14,0,0,0-1.67-1.87,7.26,7.26,0,0,0-2-.93c-.79-.28-1.62-.54-2.48-.8-.44-.14-.87-.27-1.33-.45a5.85,5.85,0,0,1-1.63-.85Z"/><path class="cls-1" d="M317.67,137.53a20.32,20.32,0,0,1-2.95,1.3,5.44,5.44,0,0,0-2,1.11,1.9,1.9,0,0,0-.5.81c0,.09-.05.15-.09.26l-.09.36-.18.71a25.48,25.48,0,0,0-.22,2.82,10,10,0,0,0-.29,2.32c0,.27.11.85.15,1.36a11.57,11.57,0,0,1,.05,1.55,22.4,22.4,0,0,1-1.06,5.77l-1.06-.13c-.1-1.9-.08-3.79-.32-5.51-.07-.43-.14-.85-.24-1.26s-.23-.76-.35-1.43a8.71,8.71,0,0,1,.14-3.29c.28-1,.9-1.78,1.1-2.68.05-.22.09-.45.12-.67l0-.33.09-.43a4.94,4.94,0,0,1,.74-1.71,9.74,9.74,0,0,1,2.49-2.27,6.93,6.93,0,0,0,1.84-1.7Z"/><path class="cls-1" d="M268.42,107.1c2.14.67,5.32,1.6,7.75,4.14a17.74,17.74,0,0,1,4.32,7.8,25.72,25.72,0,0,1,.2,8.88,43,43,0,0,1-2.1,8.57,66,66,0,0,1-3.17,8.25c-1.17,2.45-2.89,4.86-4.52,7.61-1.4,2.37-2.8,4.81-4.58,7.41a25.8,25.8,0,0,1-6.68-5.22c-1.91-1.89-4.3-3.77-6.17-6.23-1.73-2.27-2.94-5-4.44-7.57a64.17,64.17,0,0,1-4.2-7.66,36.61,36.61,0,0,1-2.46-8.38c-.51-3.29-.56-6.4.68-8.7a15,15,0,0,1,6.56-6.35c4.66-2.51,4.38.64,8.88-.4C263.7,108.08,262.11,105.12,268.42,107.1Z"/><path class="cls-1" d="M268.42,107.12a15.53,15.53,0,0,1,11.59,12,24.26,24.26,0,0,1,.48,8.73,41.85,41.85,0,0,1-2,8.58,66.14,66.14,0,0,1-3.19,8.24c-1.17,2.45-2.66,5-4.29,7.73-1.4,2.37-2.89,4.88-4.67,7.48-2.08-1-4.23-3-6.7-5.43-1.91-1.89-4.34-3.73-6.21-6.19a78.06,78.06,0,0,1-4.49-7.53,65.34,65.34,0,0,1-4.39-7.59,36.69,36.69,0,0,1-2.37-8.46,13.61,13.61,0,0,1,1.14-8.55c1.9-3.54,4-5.69,6.08-6.82,4.66-2.51,4.54.93,9-.09C263.7,108.09,262.1,105.14,268.42,107.12Z"/><path class="cls-1" d="M257.9,108.56a33.21,33.21,0,0,1,2.19,8.12c.36,2.53.53,5.43.89,8.42.33,2.78.57,5.66.9,8.42.36,3,.94,5.86,1.3,8.36.6,4.19.77,7.53,1.38,8.43"/><path class="cls-1" d="M260.16,118.42c1.06,1,5.94,2,7.08,3.25s3.36,5.76,6.45,11.66"/><path class="cls-1" d="M261.3,128.16c-2,1.7-5.25,1.85-5.78,4.61s-1.16,5.11-.69,7.23a20.86,20.86,0,0,1,.1,7.95"/><path class="cls-7" d="M213.82,51.78a12.44,12.44,0,0,0-9.05.82,18.2,18.2,0,0,0-7,5.89,24.51,24.51,0,0,0-4,8.33A33.52,33.52,0,0,0,192,76.05a50.25,50.25,0,0,0,1.27,9.33c0-.42,1.37-3.55,4.38-7.54,1.57-2.08,3.95-4.05,6.07-6.47,1.88-2.14,3.5-4.74,5.67-6.83A69.78,69.78,0,0,1,216.35,59a37.63,37.63,0,0,1,7.74-4.2c2.93-1.25,5.72-2.14,8.48-1.86-2.05-4.45-3.79-2.39-9.24-2.86a19.34,19.34,0,0,0-9.68,1.17c-2.59,1.13-4.94,3.4-7.57,6.15A38.89,38.89,0,0,0,200,65.06a66.43,66.43,0,0,0-4.32,8.82"/><path class="cls-1" d="M213.59,52.5c-3.45-1.14-7.39,0-10.4,2a17.14,17.14,0,0,0-3.94,3.85,23.3,23.3,0,0,0-2.81,4.77c-.38.84-.71,1.71-1,2.58s-.54,1.78-.82,2.73a41.41,41.41,0,0,0-1.34,5.48c-.64,3.64.11,7.49.77,11.31l-1.52.14a2.21,2.21,0,0,1,0-.26l0-.15c0-.1.05-.17.08-.24s.11-.29.17-.43.24-.53.36-.79c.25-.51.52-1,.8-1.5q.85-1.47,1.78-2.87a31.53,31.53,0,0,1,2-2.73c.74-.87,1.54-1.66,2.3-2.46a44.45,44.45,0,0,0,4.3-4.89,50.62,50.62,0,0,1,4.18-5.34,48.92,48.92,0,0,1,5.08-4.5c.89-.7,1.71-1.34,2.69-2a27.21,27.21,0,0,1,3-1.77q1.53-.79,3.1-1.43c1-.43,2.09-.83,3.2-1.18a15.85,15.85,0,0,1,7-.83l-1,1.41a4.76,4.76,0,0,0-1.4-2.15,4.08,4.08,0,0,0-2.53-.39c-1,0-2.11.1-3.18.06s-2.11-.17-3.12-.2a17.37,17.37,0,0,0-5.92.71,13.61,13.61,0,0,0-5.07,2.94c-1.53,1.31-3,2.79-4.42,4.27a46.29,46.29,0,0,0-4.09,4.58,52.84,52.84,0,0,0-3.33,5.18c-1,1.79-2,3.62-2.92,5.5A47.23,47.23,0,0,1,197.95,68a42.76,42.76,0,0,1,3-5.57,40.32,40.32,0,0,1,4-4.93,51.42,51.42,0,0,1,4.48-4.46A18.08,18.08,0,0,1,212,51.2a13.85,13.85,0,0,1,3-1.27,19.84,19.84,0,0,1,6.42-.67c1.07,0,2.12.16,3.1.17a27.19,27.19,0,0,0,3.05-.14,12.76,12.76,0,0,1,1.67-.05,4.19,4.19,0,0,1,1.87.53,6.76,6.76,0,0,1,2.29,2.78L234.3,54,232.48,54a14,14,0,0,0-5.94,1.29c-1.93.84-3.94,1.79-5.8,2.78-.93.51-1.84,1-2.7,1.62l-2.67,1.86a58.07,58.07,0,0,0-5.17,3.89,39.77,39.77,0,0,0-4.3,4.82,46.26,46.26,0,0,1-4.62,4.9c-.8.76-1.56,1.53-2.27,2.33a30.1,30.1,0,0,0-2,2.56c-.62.89-1.21,1.8-1.73,2.75-.26.47-.52.95-.75,1.42-.11.24-.22.48-.33.72s-.1.24-.13.34a1.57,1.57,0,0,0,0,.15l0,.05a.1.1,0,0,0,0-.06l-1.52.14c-.78-3.79-1.79-7.69-1.52-11.85a31.53,31.53,0,0,1,1-5.94,28.26,28.26,0,0,1,2-5.71A22.72,22.72,0,0,1,202.18,53a17.47,17.47,0,0,1,5.71-2.24,12.33,12.33,0,0,1,6.17.34Z"/><path class="cls-8" d="M232.61,52.65c4.48.26,3.42.95,7.9,4.42a36.4,36.4,0,0,1,6.4,6.3c3.63,4.61,0,4.67-4.46,3.61s-5.62-6.22-9.4-3c-2.88,2.45.3,6.34-4.49,4.21-2.79-1.24-3.65-4-5.86-5.77-1.58-1.27-3.8-2.21-7.73-2.12-1.58-4.58,3.12-2.59,8.35-4.76C225.92,54.45,229,52.92,232.61,52.65Z"/><path class="cls-6" d="M232.61,52.65c4.48.26,3.42.95,7.9,4.42a36.4,36.4,0,0,1,6.4,6.3c3.63,4.61,0,4.67-4.46,3.61s-5.62-6.22-9.4-3c-2.88,2.45.3,6.34-4.49,4.21-2.79-1.24-3.65-4-5.86-5.77-1.58-1.27-3.8-2.21-7.73-2.12-1.58-4.58,3.12-2.59,8.35-4.76C225.92,54.45,229,52.92,232.61,52.65Z"/><path class="cls-1" d="M231.48,62.24c-.08,4.22,1.39,2.58,3.84,7.47,1.06,2.11,2.11,4.74,3.46,7.7,1.06,2.33,2.16,4.92,3.34,7.75,1,2.43,2.63,4.82,3.71,7.62,1,2.5,1.95,5.15,2.94,7.93.91,2.55,1.49,5.24,2.4,8,1.83-.39,1.39-1.4,1.54-3.26.34-4.21-.93-3.28-2.63-8-.86-2.36-1.58-5.18-2.64-8-1-2.59-2.42-5.12-3.44-7.74-1.08-2.77-1.84-5.58-2.85-8a81,81,0,0,0-3.51-7.71C233.3,58.6,231.56,58,231.48,62.24Z"/><path class="cls-9" d="M312.63,61c1.3-.85,4.58-.4,8.58.77a32.36,32.36,0,0,1,8.1,3.05,40.42,40.42,0,0,1,6.9,5.3,44,44,0,0,1,5.45,6.76c.38.55-.11.91-.71.63-1.67-.76-4.7-1.3-8.12-2.61-2.39-.92-5-2.31-7.83-3.3-2.6-.89-5.3-1.89-8.06-2.71s-5.54-1.59-8.22-2.22a70.82,70.82,0,0,0-8.44-1c-3.37-.39-6-.59-8.18,0,1.35-4.75,2.56-3.51,8.3-5a26.45,26.45,0,0,1,9.92-.42,38.42,38.42,0,0,1,9.53,2.73,57.94,57.94,0,0,1,8.75,4.62"/><path class="cls-1" d="M312.22,60.4a5.54,5.54,0,0,1,3.11-.56,20.07,20.07,0,0,1,2.82.34c1.85.34,3.6.86,5.37,1.28a30.11,30.11,0,0,1,5.36,1.8,29,29,0,0,1,4.81,3A30.64,30.64,0,0,1,337.86,70a37.3,37.3,0,0,1,3.32,4.51l.75,1.15.37.58.09.14a1.91,1.91,0,0,1,.16.3,1.34,1.34,0,0,1,0,1,1.23,1.23,0,0,1-.8.76,1.53,1.53,0,0,1-.76,0,2.24,2.24,0,0,1-.51-.18l-.28-.12c-.38-.16-.8-.31-1.22-.44-1.69-.56-3.49-1-5.23-1.62A55,55,0,0,1,328.71,74a39,39,0,0,0-5-1.87,92.09,92.09,0,0,0-10.44-2.85c-1.75-.38-3.53-.8-5.23-1.21s-3.4-.51-5.2-.71c-.9-.1-1.82-.2-2.75-.36s-1.77-.29-2.65-.41a15.24,15.24,0,0,0-5.09,0l-1.59.35.5-1.45A12.61,12.61,0,0,1,292.34,63a4.08,4.08,0,0,1,1-1.15,4.65,4.65,0,0,1,1.37-.65c.91-.27,1.75-.34,2.57-.5s1.63-.29,2.43-.51a26.57,26.57,0,0,1,10.3-.7,34,34,0,0,1,9.84,3,46.59,46.59,0,0,1,8.7,5.26,76.51,76.51,0,0,0-9.17-4.13,42.75,42.75,0,0,0-9.58-2.43,26.3,26.3,0,0,0-9.76.46c-.84.19-1.68.36-2.52.51a19.73,19.73,0,0,0-2.38.5,2.27,2.27,0,0,0-1.49,1.2A9.12,9.12,0,0,0,293,66l-1.09-1.1a18,18,0,0,1,5.74-.6c.93,0,1.86.08,2.77.13l2.67.13a33,33,0,0,1,5.6.65c1.82.47,3.53,1,5.29,1.59,3.52,1,6.87,2.51,10.33,3.68s6.73,3.07,10,4.21c1.69.58,3.41,1,5.21,1.51.45.13.9.26,1.36.43l.35.14c.14.06.1,0,.13,0s0,0-.09,0a.53.53,0,0,0-.34.63s0,0,0,0l-.1-.13-.41-.54-.83-1.07A42.24,42.24,0,0,0,336,71.76c-1.24-1.17-2.62-2.33-4-3.42a40.22,40.22,0,0,0-4.28-3A24.76,24.76,0,0,0,323,63.3c-1.73-.56-3.44-1.13-5.16-1.5a18.55,18.55,0,0,0-2.57-.41,4.19,4.19,0,0,0-2.19.28Z"/><path class="cls-10" d="M291.43,65.79c-5.3,1.21-1.88,1.15-5.53,9.5-1.74,4,.74,3.44,3.74,2.1s3.29-5.28,6.51-3.44c2.46,1.41.52,4.65,3.8,2.48,1.68-1.11,2.39-4.15,3.85-6.35s3.42-3.61,6.44-2.85c-4.71-.14-4.18-.82-9.33-1.22A58.61,58.61,0,0,0,291.43,65.79Z"/><path class="cls-6" d="M291.43,65.79c-5.3,1.21-1.88,1.15-5.53,9.5-1.74,4,.74,3.44,3.74,2.1s3.29-5.28,6.51-3.44c2.46,1.41.52,4.65,3.8,2.48,1.68-1.11,2.39-4.15,3.85-6.35s3.42-3.61,6.44-2.85c-4.71-.14-4.18-.82-9.33-1.22A58.61,58.61,0,0,0,291.43,65.79Z"/><path class="cls-1" d="M297,72.47c.52,4.73-.8,3.24-2.26,9.19-.64,2.59-1.51,5.67-2.26,9.25-.59,2.83-1,6-1.64,9.38-.52,2.93-1.16,6-1.65,9.32-1.73.46-2.09-.71-2.66-2.41-1.26-3.75,1-3.3,1.84-7.79.44-2.37.67-5.12,1.21-7.84s1.39-5.28,1.93-7.69c.74-3.3,1-6.21,1.6-7.77C295.38,70,296.64,69.29,297,72.47Z"/><path class="cls-11" d="M293.45,76.46c.54-.36.89.66.75,1.29-1.34,6.3-1.66,6.24-3.6,12.38-1.05,3.33.12-3.29.86-7A56.6,56.6,0,0,1,293.45,76.46Z"/><path class="cls-7" d="M329.47,73.78c2.22-1.18,5.26-1.11,8.4-.61a22.1,22.1,0,0,1,8,2.71A27.22,27.22,0,0,1,352,81.62a29.13,29.13,0,0,1,4.85,6.89,35.32,35.32,0,0,1,2.32,8.13,42.11,42.11,0,0,1,1.14,8.42c-.07-.41-2.54-2.92-5.89-6.21-1.76-1.73-3.84-3.69-6.17-5.64-2.06-1.72-4.25-3.53-6.6-5.14a59.72,59.72,0,0,0-7.37-3.92,34,34,0,0,0-7.74-3A18.67,18.67,0,0,0,318,81c-.06-4.38,2.77-3.59,7-5.68a16.09,16.09,0,0,1,8.62-1.14,17.34,17.34,0,0,1,8.06,3A32.72,32.72,0,0,1,348,83.15a56.12,56.12,0,0,1,5.28,6.95"/><path class="cls-1" d="M329.11,73.11a12.67,12.67,0,0,1,6.65-1,32.63,32.63,0,0,1,6.47,1.13,18.66,18.66,0,0,1,6.05,2.94A31.82,31.82,0,0,1,353,80.73,30,30,0,0,1,356.92,86a22.81,22.81,0,0,1,2.27,6.26c.49,2.13.79,4.25,1.18,6.33a35.27,35.27,0,0,1,.71,6.47l-1.51.12a.24.24,0,0,0,0,.12l0,0-.08-.11-.22-.27-.51-.56-1.08-1.12L355.45,101c-1.51-1.47-3-2.9-4.61-4.29a82.76,82.76,0,0,0-10-7.52,59.11,59.11,0,0,0-5.43-2.81c-1.94-.92-3.74-1.91-5.61-2.7a24.38,24.38,0,0,0-5.74-1.78,14.63,14.63,0,0,0-5.92-.06l-1.08.25,0-1a4.42,4.42,0,0,1,3.57-4.84c.92-.3,1.78-.58,2.63-.91.42-.17.83-.34,1.23-.54a12.74,12.74,0,0,1,1.36-.59,16.57,16.57,0,0,1,5.79-.87,18,18,0,0,1,5.77.9,21.81,21.81,0,0,1,9.3,6.7,51.84,51.84,0,0,1,6.51,9.2,77.48,77.48,0,0,0-7.38-8.39,30.82,30.82,0,0,0-4.17-3.54,19.56,19.56,0,0,0-4.79-2.39,18.33,18.33,0,0,0-5.27-.88,15.15,15.15,0,0,0-5.27.67,11.17,11.17,0,0,0-1.22.5c-.44.2-.89.4-1.34.58-.9.36-1.82.63-2.67.94a3.82,3.82,0,0,0-2,1.21,3.74,3.74,0,0,0-.43,2.22l-1.05-.79a18,18,0,0,1,6.65-.54,25.47,25.47,0,0,1,6.47,1.39,59.89,59.89,0,0,1,5.88,2.61A33.92,33.92,0,0,1,342.4,87c1.76,1.28,3.37,2.71,5,4.11s3.18,2.84,4.72,4.3,3,3,4.51,4.49l2.22,2.27,1.1,1.17.54.62c.09.11.18.22.27.35a2.29,2.29,0,0,1,.15.22,1.64,1.64,0,0,1,.08.14,1.58,1.58,0,0,1,.11.3l-1.51.12a27.75,27.75,0,0,0-.74-6.16l-.67-3.11c-.24-1-.51-2-.81-3a21.05,21.05,0,0,0-2.53-5.49A51.45,51.45,0,0,0,351,82.47a44.34,44.34,0,0,0-4.2-4.48,15.79,15.79,0,0,0-5.16-3,25.5,25.5,0,0,0-6-1.31,10.52,10.52,0,0,0-5.8.72Z"/><path class="cls-1" d="M318.34,81.2c-4.36,1.05-3.18,1.15-7,5.32a36.39,36.39,0,0,0-5.16,7.28c-2.81,5.15.75,4.86,4.93,3.08s4.46-7.66,8.72-5.12c3.25,1.93.35,6,4.71,3.15,2.16-1.43,2.54-4.55,3-7.29s1.3-4.74,5.48-3.69c3.57-1.26-2-2.16-7.16-2.81A35.4,35.4,0,0,0,318.34,81.2Z"/><path class="cls-6" d="M318.34,81.2c-4.36,1.05-3.18,1.15-7,5.32a36.39,36.39,0,0,0-5.16,7.28c-2.81,5.15.75,4.86,4.93,3.08s4.46-7.66,8.72-5.12c3.25,1.93.35,6,4.71,3.15,2.16-1.43,2.54-4.55,3-7.29s1.3-4.74,5.48-3.69c3.57-1.26-2-2.16-7.16-2.81A35.4,35.4,0,0,0,318.34,81.2Z"/><path class="cls-1" d="M320.68,90c.78,4.15-.85,2.68-2.45,7.91-.69,2.26-1.06,5.09-1.9,8.24-.66,2.47-1.4,5.19-2.1,8.18-.6,2.57-1.42,5.27-2,8.2-.53,2.63-1.38,5.34-1.89,8.24-.47,2.67-.62,5.31-1.05,8.21-1.87-.08-2.1-.93-2.56-2.74-1-4.09,1.21-3.44,2.11-8.35.45-2.47.65-5.38,1.22-8.36.52-2.72,1.44-5.47,2-8.22.6-2.91,1-5.78,1.56-8.31.82-3.49,1.32-6.49,2-8.23C318.61,86.74,319.89,85.85,320.68,90Z"/><path class="cls-12" d="M316,95.21c.72-.48.91.91.77,1.76-.7,4.23-1.51,4-2.63,8.18s-.33,4.38-2,8.35c-1.77,4.3.86-4.23,1.84-9.11A82.61,82.61,0,0,1,316,95.21Z"/><path class="cls-7" d="M245.45,81.08A16.48,16.48,0,0,1,251,87.35a16.77,16.77,0,0,1,1.36,8.35,23.64,23.64,0,0,1-2.23,8.2c-1.07,2.24-3.06,4.3-5,6.84a63.7,63.7,0,0,1-5.52,6.36c-1.83,1.84-3.75,3.9-6.09,5.87-2,1.69-4.25,3.19-6.68,5a23.45,23.45,0,0,1-4.72-6.63,59.83,59.83,0,0,1-3.28-7.73c-.84-2.6-.91-5.51-1.46-8.27a59.93,59.93,0,0,1-1.09-8.25c-.18-3-.69-5.88-.23-8.38a13.57,13.57,0,0,1,3.68-7.55,14.57,14.57,0,0,1,7.89-3.78c5-.79,3.78,1.91,8.18,2.39C240.89,80.3,240.38,77.29,245.45,81.08Z"/><path class="cls-1" d="M246.27,80a17.75,17.75,0,0,1,5.38,5.8,17.49,17.49,0,0,1,1.85,7.81,35.09,35.09,0,0,1-.06,4,28.64,28.64,0,0,1-.64,4,33.53,33.53,0,0,1-1.14,3.81,36.57,36.57,0,0,1-1.45,3.63,24.38,24.38,0,0,1-4.61,6.64,70.71,70.71,0,0,1-5.52,5,46.35,46.35,0,0,1-6.14,4.66q-3.22,2-6.24,4.19l-1,.73-.82-.85a17.35,17.35,0,0,1-2.66-3.81c-.71-1.3-1.32-2.61-1.95-3.89a61.55,61.55,0,0,1-3.6-7.93,81.36,81.36,0,0,1-2.18-8.42,73.87,73.87,0,0,1-.76-8.67c-.1-1.43-.18-2.88-.17-4.37a21.4,21.4,0,0,1,.45-4.52,21.7,21.7,0,0,1,1.32-4.39,10.82,10.82,0,0,1,1.22-2.13,10.3,10.3,0,0,1,1.73-1.77,16.21,16.21,0,0,1,8.32-4,8.69,8.69,0,0,1,2.54,0,5.17,5.17,0,0,1,2.5,1.21,10.77,10.77,0,0,0,1.49,1.21,4.74,4.74,0,0,0,1.6.58h0c0,.07.09-.58,0-.31h.11l.13,0,.28,0c.19,0,.38,0,.57,0a8.66,8.66,0,0,0,1.09,0c.73-.06,1.36-.31,2.51-.5a5,5,0,0,1,1.83.08,7.28,7.28,0,0,1,1.54.59A17.94,17.94,0,0,1,246.27,80Zm-1.77,2.37a15.29,15.29,0,0,0-2-1.28,4.46,4.46,0,0,0-.88-.35,2,2,0,0,0-.75,0c-.56.07-1.58.42-2.59.51a11.56,11.56,0,0,1-1.51,0c-.25,0-.49,0-.73,0l-.36,0-.19,0-.09,0h-.06c0,.27.05-.37,0-.31h0a6.77,6.77,0,0,1-2.44-.72A12.45,12.45,0,0,1,231,78.75a2.64,2.64,0,0,0-1.32-.58,6.12,6.12,0,0,0-1.71.07,14.19,14.19,0,0,0-6.73,3.53A7.17,7.17,0,0,0,220,83.06a9.18,9.18,0,0,0-.88,1.57A18.75,18.75,0,0,0,218,88.4a31.05,31.05,0,0,0-.35,8.11,72.89,72.89,0,0,0,.49,8.34A68.21,68.21,0,0,0,220.1,113a48.7,48.7,0,0,0,3.49,7.58c.62,1.27,1.27,2.51,2,3.69a14.52,14.52,0,0,0,2.3,3.11l-1.82-.13q2.85-2.31,5.51-4.84a21.4,21.4,0,0,0,2.42-2.6c.75-.91,1.47-1.88,2.24-2.86,1.57-2,3.27-3.84,4.82-5.57a47,47,0,0,0,4.18-5.24c.66-.93,1.27-1.93,1.93-3a32.64,32.64,0,0,0,1.75-3,16.65,16.65,0,0,0,1.79-6.6,10.82,10.82,0,0,0-1.31-6.49A16.91,16.91,0,0,0,244.5,82.35Z"/><path class="cls-1" d="M238.88,78.88a9.64,9.64,0,0,1-.17,1.74c-.09.49-.18.95-.29,1.39-.21.89-.44,1.73-.67,2.56l-1.4,4.93L235,94.43c-.43,1.65-1,3.33-1.61,4.91s-1.15,3.13-1.56,4.78-.86,3.27-1.29,4.9-.86,3.28-1.33,4.91c-.23.82-.46,1.63-.66,2.45a8,8,0,0,0-.35,2.49,8.11,8.11,0,0,1,.06-2.54l.36-2.52c.25-1.68.48-3.35.68-5l.62-5.07c.16-1.69.53-3.43.84-5.08s.65-3.26.82-4.94l.57-5,.56-5c.09-.83.17-1.65.22-2.44,0-.39,0-.77,0-1.13a3.2,3.2,0,0,0-.06-.79Z"/><path class="cls-1" d="M236,87.91s0,0,0,0L236,88c.1.1.18.21.31.33s.54.51.84.77c.62.53,1.26,1.09,1.92,1.71.33.3.67.64,1,1a5.3,5.3,0,0,1,1,1.57,8.58,8.58,0,0,1,.35,1.49c.07.45.13.89.18,1.32a54.49,54.49,0,0,1,.15,10.28,46.89,46.89,0,0,1-1.61-4.88c-.46-1.63-.84-3.28-1.3-4.86-.11-.39-.23-.78-.35-1.15a5.4,5.4,0,0,0-.38-.93s-.21-.22-.47-.44-.56-.45-.88-.68c-.64-.46-1.34-.92-2-1.45-.36-.27-.71-.53-1.1-.86a7.44,7.44,0,0,1-.59-.55l-.33-.38a5.82,5.82,0,0,1-.37-.57Z"/><path class="cls-1" d="M233,99.7a16.38,16.38,0,0,1-3.16.18,5.92,5.92,0,0,0-2.21.25,1.76,1.76,0,0,0-.7.5l-.15.18-.19.28-.39.59a26.61,26.61,0,0,0-1.11,2.5,10.74,10.74,0,0,0-1.06,2c-.06.17-.09.28-.14.49s-.1.5-.17.75a9.86,9.86,0,0,1-.49,1.45,24.62,24.62,0,0,1-2.93,4.8l-1-.47c.5-1.76,1.19-3.49,1.57-5.09a11.94,11.94,0,0,0,.2-1.18c0-.2,0-.39,0-.59a5.85,5.85,0,0,1,.12-.85,8.73,8.73,0,0,1,1.24-2.91c.57-.78,1.41-1.3,1.87-2,.12-.18.22-.38.32-.57l.16-.3.23-.38a4.8,4.8,0,0,1,1.31-1.3,10.57,10.57,0,0,1,3-1.13,5.67,5.67,0,0,0,2.16-.91Z"/><path class="cls-9" d="M245.25,94.46a13.06,13.06,0,0,0-9.27.89,18.72,18.72,0,0,0-7.06,6,24.8,24.8,0,0,0-4.12,8.36,34.79,34.79,0,0,0-1.09,9.3,47.55,47.55,0,0,0,.76,9.37c0-.42,2-3.2,5-7.19,1.57-2.08,3-4.83,5.1-7.25,1.88-2.14,4.34-3.93,6.52-6a70.3,70.3,0,0,1,6.57-5.91,37.86,37.86,0,0,1,7.69-4.29A17,17,0,0,1,263.8,96c-2.05-4.45-3.67-2.69-9.12-3.16A19.8,19.8,0,0,0,245,94.29a25.26,25.26,0,0,0-7.79,5.94,40.47,40.47,0,0,0-5.85,7.85,71.23,71.23,0,0,0-3.86,9"/><path class="cls-1" d="M245.09,94.93a10.73,10.73,0,0,0-5.55-.17,14.65,14.65,0,0,0-5.19,2.18,18.75,18.75,0,0,0-4.08,3.93,25.83,25.83,0,0,0-3,4.83,30.09,30.09,0,0,0-2.75,11,46.05,46.05,0,0,0,.46,11.59l-1,.09a1.36,1.36,0,0,1,0-.26l.06-.13a2.22,2.22,0,0,1,.11-.22c.07-.14.15-.26.22-.38l.47-.71,1-1.36,2-2.67c.65-.89,1.34-1.76,1.94-2.65s1.19-1.83,1.78-2.77a26.76,26.76,0,0,1,4.18-5.28c1.6-1.58,3.32-3,4.83-4.5s3.06-3.17,4.74-4.68a30.11,30.11,0,0,1,5.56-3.9A37.87,37.87,0,0,1,257,96.2a15.54,15.54,0,0,1,6.83-.84l-.66.92A5.55,5.55,0,0,0,261.67,94a4.22,4.22,0,0,0-2.65-.56c-1,0-2.09.05-3.15,0s-2.08-.17-3.1-.17a17.53,17.53,0,0,0-11.28,3.81,37.28,37.28,0,0,0-4.51,4.17A39.67,39.67,0,0,0,233.1,106c-2.45,3.33-3.9,7.25-5.61,11.05.67-2,1.3-4,2.07-5.9a30.49,30.49,0,0,1,2.86-5.6,37.72,37.72,0,0,1,8.39-9.39,17.8,17.8,0,0,1,5.64-3,20.49,20.49,0,0,1,6.31-.9c1.07,0,2.13.11,3.13.15s2,0,3.09-.05a10.6,10.6,0,0,1,1.65,0,3.76,3.76,0,0,1,1.7.62,7.12,7.12,0,0,1,2.06,2.71l.53,1-1.19-.08a14.3,14.3,0,0,0-6.13,1.14,51.42,51.42,0,0,0-5.82,2.79c-3.8,2-6.9,5-10.19,8-1.68,1.51-3.44,2.84-5,4.29a25.55,25.55,0,0,0-4.12,5c-.61.91-1.2,1.85-1.83,2.76s-1.33,1.78-2,2.67-1.32,1.76-2,2.65l-.94,1.34-.44.67c-.06.11-.14.23-.19.33a1.36,1.36,0,0,0-.07.15l0,.06a.07.07,0,0,0,0-.06l-1,.09a58.57,58.57,0,0,1-.95-11.86,30.27,30.27,0,0,1,.66-6,24.08,24.08,0,0,1,2-5.72,24.78,24.78,0,0,1,3.4-5,21.38,21.38,0,0,1,4.55-4,16.63,16.63,0,0,1,5.65-2.22,12.25,12.25,0,0,1,6.08.28Z"/><path class="cls-1" d="M263.9,96c4.48.26,3.46.59,7.94,4.06a37,37,0,0,1,6.31,6.38c3.63,4.61.06,4.44-4.36,3.38s-5.7-6.07-9.47-2.86c-2.88,2.45.43,6.14-4.36,4-2.79-1.24-3.58-4-5.79-5.75-1.58-1.27-4.19-1.92-8.12-1.84-1.58-4.58,3.22-2.95,8.46-5.12A30.4,30.4,0,0,1,263.9,96Z"/><path class="cls-6" d="M263.9,96c4.48.26,3.46.59,7.94,4.06a37,37,0,0,1,6.31,6.38c3.63,4.61.06,4.44-4.36,3.38s-5.7-6.07-9.47-2.86c-2.88,2.45.43,6.14-4.36,4-2.79-1.24-3.58-4-5.79-5.75-1.58-1.27-4.19-1.92-8.12-1.84-1.58-4.58,3.22-2.95,8.46-5.12A30.4,30.4,0,0,1,263.9,96Z"/><path class="cls-1" d="M262.87,105.24c-.08,4.22,1.35,2.57,3.79,7.46,1.06,2.11,2.58,4.52,3.93,7.49,1.06,2.33,1.89,5.05,3.07,7.88,1,2.43,1.9,5.12,3,7.91,1,2.5,2.35,5,3.33,7.77.91,2.55,1.64,5.41,2.55,8.2,1.83-.39,1.34-1.61,1.49-3.47.34-4.21-.78-3.33-2.48-8-.86-2.36-1.8-5.11-2.86-8-1-2.59-2.42-5.12-3.44-7.74-1.08-2.77-2.16-5.45-3.16-7.83-1.39-3.3-2.26-6.22-3.2-7.83C264.55,101.64,263,101,262.87,105.24Z"/><path class="cls-7" d="M274.29,111.1a18.43,18.43,0,0,1,3.56,8,16.61,16.61,0,0,1-.12,8.68,24.38,24.38,0,0,1-4,7.84,44,44,0,0,1-6.37,6.12,63.83,63.83,0,0,1-6.88,5.56c-2.27,1.47-5.1,2.46-7.92,4-2.43,1.29-4.89,2.53-7.77,3.82a24.08,24.08,0,0,1-3.4-7.75c-.64-2.61-.6-5.62-.91-8.69a75.58,75.58,0,0,1-.5-8.69,62.63,62.63,0,0,1,.74-8.67,35.94,35.94,0,0,1,2.24-8.35c1.28-3.07,2.68-5.68,4.93-7a14.83,14.83,0,0,1,8.79-2.07c5.28.3,3.4,2.75,7.84,4C269.71,109.38,270,106.12,274.29,111.1Z"/><path class="cls-1" d="M275.34,110.18a22.19,22.19,0,0,1,4.82,7,15.49,15.49,0,0,1,.7,8.83c-.14.72-.31,1.42-.51,2.11a16.75,16.75,0,0,1-.76,2.11,22.56,22.56,0,0,1-2.11,3.77,49.27,49.27,0,0,1-5.27,6.25,40.19,40.19,0,0,1-3,2.78,29,29,0,0,1-3.4,2.4c-2.29,1.42-4.54,2.57-6.56,4-1,.73-2.13,1.49-3.28,2.22a24.32,24.32,0,0,1-3.57,1.92l-7.12,3.32-1.1.51-.64-1a19.31,19.31,0,0,1-2.08-5.08c-.47-1.7-.87-3.3-1.25-5A76.67,76.67,0,0,1,238.84,136c-.1-1.73-.14-3.45-.13-5.17l0-5.1a32.83,32.83,0,0,1,.42-5.27,35.45,35.45,0,0,1,1.29-5.12,37.41,37.41,0,0,1,2-4.89,14.58,14.58,0,0,1,3.28-4.47,10.91,10.91,0,0,1,2.39-1.56,17.64,17.64,0,0,1,2.52-1.06,15.61,15.61,0,0,1,5.43-.78,15.24,15.24,0,0,1,2.76.32,6,6,0,0,1,2.77,1.37,7,7,0,0,0,3.89,2.2,10.13,10.13,0,0,0,2.27.31,15.79,15.79,0,0,1,2.76.09,6.57,6.57,0,0,1,2.8,1.44A21.41,21.41,0,0,1,275.34,110.18Zm-2.23,1.94c-1-1.25-2.1-2.53-3.13-2.8a14,14,0,0,0-2.31-.14,13.07,13.07,0,0,1-2.76-.43,11.38,11.38,0,0,1-2.65-1,10.47,10.47,0,0,1-2.19-1.72,3.36,3.36,0,0,0-1.75-.83,13.66,13.66,0,0,0-6.88.52,15.15,15.15,0,0,0-2.15,1,8.31,8.31,0,0,0-1.85,1.24c-2.17,2-3.45,5.17-4.51,8.25a32.84,32.84,0,0,0-1.19,4.74,30.24,30.24,0,0,0-.38,4.87l0,5.08c0,1.67,0,3.34.13,5a68,68,0,0,0,1.32,9.88c.36,1.58.8,3.27,1.26,4.83a17,17,0,0,0,1.78,4.3l-1.74-.5,6.88-3.44a21.63,21.63,0,0,0,3.2-1.89c1-.7,2-1.5,3-2.31,2.12-1.68,4.44-3,6.47-4.46A22.91,22.91,0,0,0,266.5,140a29.07,29.07,0,0,0,2.5-2.67,51,51,0,0,0,4.24-6,23.18,23.18,0,0,0,1.55-3.08,16.36,16.36,0,0,0,.53-1.56c.16-.55.31-1.11.42-1.66a17.65,17.65,0,0,0,.25-6.55A14.41,14.41,0,0,0,273.12,112.12Z"/><path class="cls-1" d="M267.24,107.57a34.87,34.87,0,0,1-4.31,10.51c-1,1.56-1.95,3-2.81,4.45s-1.64,3-2.43,4.57-1.64,3.18-2.45,4.73l-2.38,4.7-2.37,4.71c-.39.79-.78,1.58-1.12,2.38a8.72,8.72,0,0,0-.8,2.49,8.84,8.84,0,0,1,.53-2.59c.27-.84.55-1.68.84-2.51l1.77-5,1.76-5c.58-1.68,1.17-3.27,1.71-5s1.11-3.36,1.81-5.08,1.47-3.31,2.12-4.87a29.77,29.77,0,0,0,2.21-9.44Z"/><path class="cls-1" d="M263.46,116.07a4.3,4.3,0,0,0,.32.64c.18.32.41.68.63,1,.47.71.95,1.46,1.42,2.26.24.4.48.82.71,1.29a7.92,7.92,0,0,1,.33.79,4.14,4.14,0,0,1,.23,1,17.92,17.92,0,0,1-.05,2.89,52.72,52.72,0,0,1-1.92,10.5c-.29-1.78-.46-3.54-.57-5.3s-.18-3.51-.33-5.21a15.36,15.36,0,0,0-.31-2.36,7,7,0,0,0-1-1.62c-.5-.65-1.06-1.31-1.61-2-.28-.37-.55-.73-.84-1.16a5.91,5.91,0,0,1-.85-1.71Z"/><path class="cls-1" d="M257.22,127.44a16.39,16.39,0,0,1-3.29-.51,6.92,6.92,0,0,0-2.39-.26,2,2,0,0,0-.86.34,11.53,11.53,0,0,0-1,.9,26.2,26.2,0,0,0-1.66,2.34,12.8,12.8,0,0,0-1.54,1.91c-.09.16-.17.31-.25.47l-.3.7a14,14,0,0,1-.7,1.38,19,19,0,0,1-3.86,4.56l-.83-.66a40.8,40.8,0,0,0,2.5-5c.15-.42.3-.83.42-1.26l.18-.65a6.52,6.52,0,0,1,.31-.84,9.84,9.84,0,0,1,1.85-2.69c.74-.7,1.7-1.09,2.34-1.77.34-.35.54-.66,1-1.15a5.12,5.12,0,0,1,1.67-1,12.06,12.06,0,0,1,3.31-.39,6,6,0,0,0,2.43-.42Z"/><path class="cls-8" d="M283.65,82.39c.9.06,2.77,2.34,4.28,4.9,1.32,2.24,2.47,4.62,1.6,6.22S283.78,94.9,279,94,269.53,91.4,269,90.69c-1,4.07-1,6.16-5,5.15s-7.88-.2-6.66-3.76c1.5-4.4,4.11-1.62,8.83-3.63,2.75-1.17,5.77-2.57,8.58-3.64C278.75,83.26,282.32,82.31,283.65,82.39Z"/><path class="cls-6" d="M283.65,82.39c.9.06,2.77,2.34,4.28,4.9,1.32,2.24,2.47,4.62,1.6,6.22S283.78,94.9,279,94,269.53,91.4,269,90.69c-1,4.07-1,6.16-5,5.15s-7.88-.2-6.66-3.76c1.5-4.4,4.11-1.62,8.83-3.63,2.75-1.17,5.77-2.57,8.58-3.64C278.75,83.26,282.32,82.31,283.65,82.39Z"/><path class="cls-7" d="M260.59,77.05c-3.71-2.08-2.89-1.55-8.43-1A35.7,35.7,0,0,0,244,78.37a14.88,14.88,0,0,0-7.21,5.19c-1.6,2.21-2.57,5.12-3.62,8.27a47.24,47.24,0,0,0-1.95,8.78,63.17,63.17,0,0,0-.8,9.1c4.53,1.33,2.76-2.39,7.55-5.79,2.2-1.56,4.68-3.57,7.71-5.43,2.48-1.52,5.26-3.06,8.23-4.62,2.65-1.4,5.61-2.52,8.61-3.85,2.79-1.23,5.59-2.71,8.64-3.8a32.08,32.08,0,0,1,8-1.33c2.77-.18,5.74,0,8,1.3a17,17,0,0,0-6-6.07,25.23,25.23,0,0,0-7.67-3.54,24.3,24.3,0,0,0-8.48-.48,30.25,30.25,0,0,0-8.5,2.57A30.68,30.68,0,0,0,249,83.35c-2.3,2-4.43,5.2-7,8.77"/><path class="cls-1" d="M260.1,77.91a13,13,0,0,0-2.74-1.31,11.62,11.62,0,0,0-3,.17c-1.12.15-2.27.2-3.25.39A25.38,25.38,0,0,0,248,78c-1,.34-2.08.72-3.13,1.1a19.52,19.52,0,0,0-2.93,1.27,12.87,12.87,0,0,0-4.59,4.11,25.49,25.49,0,0,0-2.64,5.85,48,48,0,0,0-1.82,6.31c-.46,2.13-.73,4.32-1,6.53a47.34,47.34,0,0,0-.47,6.53l-.71-.93a4.51,4.51,0,0,0,1.56.22c.35-.06.54-.23.89-.73s.64-1.11,1-1.71a11.82,11.82,0,0,1,1.33-1.74,11.56,11.56,0,0,1,1.63-1.46l1.63-1.2c1.08-.8,2.16-1.61,3.27-2.39s2.25-1.56,3.43-2.25l3.54-2c2.37-1.3,4.67-2.74,7.2-3.83s5-2.09,7.38-3.21a79.1,79.1,0,0,1,7.5-3.24,34.52,34.52,0,0,1,8.2-1.32,15.31,15.31,0,0,1,8.39,1.44l-1.36,1.32c-2-3.73-6-6.19-10-8a17.43,17.43,0,0,0-3.06-1,25.31,25.31,0,0,0-3.24-.51,21,21,0,0,0-6.5.34,31.21,31.21,0,0,0-6.3,2,40.9,40.9,0,0,0-5.89,3.12,23.21,23.21,0,0,0-4.93,4.41c-1.5,1.69-3,3.47-4.5,5.17,1.15-2,2.31-4,3.63-5.85a27.27,27.27,0,0,1,2.17-2.75,19.24,19.24,0,0,1,2.65-2.37,34.24,34.24,0,0,1,6.07-3.51,31,31,0,0,1,6.68-2.28,23.15,23.15,0,0,1,7.12-.39,26.38,26.38,0,0,1,3.51.58,19.49,19.49,0,0,1,3.41,1.18,33.55,33.55,0,0,1,6.08,3.6,16.9,16.9,0,0,1,4.79,5.4l1.59,3L286.69,87a13.47,13.47,0,0,0-7.3-1.19,32.83,32.83,0,0,0-7.69,1.22,77.9,77.9,0,0,0-7.29,3.16c-2.47,1.16-5,2.14-7.4,3.22s-4.68,2.46-7,3.74l-3.49,2c-1.14.67-2.23,1.41-3.31,2.17s-2.15,1.57-3.24,2.37c-.53.4-1.13.81-1.62,1.19a9.6,9.6,0,0,0-1.36,1.22,9.83,9.83,0,0,0-1.11,1.46c-.34.53-.63,1.1-1,1.75a3.79,3.79,0,0,1-.36.5,2.93,2.93,0,0,1-.49.49,2.86,2.86,0,0,1-.65.4,4.31,4.31,0,0,1-.72.21,6.14,6.14,0,0,1-2.41-.28l-.7-.17v-.76a49.24,49.24,0,0,1,.48-6.81c.29-2.21.56-4.46,1-6.69a50.09,50.09,0,0,1,1.88-6.54,27.26,27.26,0,0,1,2.87-6.31A14.85,14.85,0,0,1,241,78.64a21.5,21.5,0,0,1,3.2-1.39c1.05-.38,2.11-.77,3.19-1.12a27.24,27.24,0,0,1,3.35-.91,16.86,16.86,0,0,1,1.75-.23l1.64-.18,1.68-.19a6.27,6.27,0,0,1,2,.05,7.3,7.3,0,0,1,1.79.7c.52.27,1,.54,1.5.82Z"/><path class="cls-1" d="M268.22,90.89c.87,4.79,1.56,4,2.63,9.39a77.82,77.82,0,0,1,1.08,9.69,31.35,31.35,0,0,1-.74,9.85c1.52.83,2.26-.22,3.12-1.72,2.31-4-.2-3.93-.62-9.19-.23-2.85,0-6.14-.55-9.29a42.36,42.36,0,0,0-3-8.76C267.73,86.5,267.79,88.52,268.22,90.89Z"/><path class="cls-7" d="M326.19,86.39a18.27,18.27,0,0,1,5.61,6.83,17.46,17.46,0,0,1,1.27,8.67,24.25,24.25,0,0,1-2.3,8.44A43.07,43.07,0,0,1,326,117.7a64.46,64.46,0,0,1-5.53,6.85c-1.89,1.94-3.86,4.15-6.27,6.23-2.08,1.8-4.48,3.84-7,5.74a28.36,28.36,0,0,1-5.2-7.4,67.29,67.29,0,0,1-2.91-8.26,76,76,0,0,1-2.4-8.38,63.92,63.92,0,0,1-1.44-8.62,36,36,0,0,1,.51-8.7c.56-3.28,1.47-6.17,3.38-8A15.55,15.55,0,0,1,307.27,83c5.21-.89,4,2,8.61,2.27C321.33,85.51,320.84,82.51,326.19,86.39Z"/><path class="cls-1" d="M326.53,85.92a19.79,19.79,0,0,1,5.55,5.93,26.24,26.24,0,0,1,1.81,3.63,15,15,0,0,1,1,4.08,13.51,13.51,0,0,1-.23,4.28,21.74,21.74,0,0,1-1.27,3.9c-.52,1.24-1.06,2.41-1.66,3.59a39.24,39.24,0,0,1-2,3.45c-.71,1.12-1.47,2.19-2.27,3.24s-1.54,2-2.32,3.08A31.9,31.9,0,0,1,319.8,127c-1,.84-2.06,1.61-3.07,2.39s-2,1.58-3,2.38l-6.07,4.84-.53.42-.51-.48a29,29,0,0,1-5.87-8.65,84.44,84.44,0,0,1-3.75-9.62,57,57,0,0,1-2.39-10.11c-.24-1.73-.42-3.41-.55-5.16a38.61,38.61,0,0,1,0-5.28c.06-.88.16-1.77.31-2.65s.31-1.72.51-2.6a14,14,0,0,1,2.19-5.2,8.62,8.62,0,0,1,1-1.15c.34-.31.69-.6,1.05-.88a16.28,16.28,0,0,1,2.31-1.51A15.44,15.44,0,0,1,306.68,82a11.15,11.15,0,0,1,2.81-.09,5.48,5.48,0,0,1,1.48.38,5.88,5.88,0,0,1,1.27.78,6.8,6.8,0,0,0,1.93,1.3,6.71,6.71,0,0,0,2.27.43,8.71,8.71,0,0,0,2.37-.18,24.82,24.82,0,0,1,2.55-.66,5.31,5.31,0,0,1,2.84.59A17.86,17.86,0,0,1,326.53,85.92Zm-1,1.37c-1.29-1-2.69-2-4-2a22.55,22.55,0,0,0-2.39.55,10.75,10.75,0,0,1-2.69.25,9,9,0,0,1-2.73-.4,9.24,9.24,0,0,1-2.4-1.34,3.09,3.09,0,0,0-1.93-.6,9.32,9.32,0,0,0-2.25.34,14.2,14.2,0,0,0-4.26,1.9A18,18,0,0,0,301,87.44c-.3.25-.58.53-.86.8a5.7,5.7,0,0,0-.65.76,12.29,12.29,0,0,0-1.69,4.15c-.19.78-.34,1.59-.48,2.4S297,97.14,297,98a54.11,54.11,0,0,0,.24,9.89,56.78,56.78,0,0,0,1.92,9.78,73.58,73.58,0,0,0,3.29,9.49,26.17,26.17,0,0,0,5.31,8.24l-1-.06,6-4.81c1.95-1.69,4-3.3,5.92-4.94a29.93,29.93,0,0,0,4.83-5.69l2.2-3.18c.72-1,1.4-2.09,2-3.17a36.68,36.68,0,0,0,1.69-3.33c.49-1.14,1-2.32,1.42-3.48a23.63,23.63,0,0,0,1-3.46,11.65,11.65,0,0,0,.17-3.39,16.13,16.13,0,0,0-.73-3.41A32.63,32.63,0,0,0,329.88,93,15.54,15.54,0,0,0,325.53,87.29Z"/><path class="cls-1" d="M318.47,84.58a34.18,34.18,0,0,1-.51,5.73q-.24,1.4-.58,2.77c-.23.92-.48,1.73-.73,2.59l-2.91,10.21c-.5,1.71-1,3.36-1.5,5.11s-1.21,3.37-1.78,5a30.67,30.67,0,0,0-1.25,5,18.07,18.07,0,0,0-.26,5.23,19.61,19.61,0,0,1-.34-5.29,31.63,31.63,0,0,1,.63-5.32c.36-1.75.83-3.45,1.1-5.14s.49-3.47.73-5.2c.49-3.5,1-7,1.35-10.46.1-.86.22-1.77.29-2.58s.11-1.64.11-2.46A28.6,28.6,0,0,0,312.5,85Z"/><path class="cls-1" d="M316.25,93.95a4.24,4.24,0,0,0,.45.54c.24.27.54.56.84.86.61.58,1.24,1.2,1.88,1.87.32.33.65.69,1,1.09a8.09,8.09,0,0,1,.5.69,4.26,4.26,0,0,1,.44.88,24,24,0,0,1,.73,2.71A38.83,38.83,0,0,1,323,113.2c-.67-1.66-1.27-3.31-1.84-5s-1.12-3.28-1.75-4.86a21.18,21.18,0,0,0-1-2.23A6.93,6.93,0,0,0,317,99.81c-.63-.52-1.33-1-2-1.62-.35-.3-.7-.58-1.07-.93a5.88,5.88,0,0,1-1.21-1.47Z"/><path class="cls-1" d="M313.16,106.19c-2.39.46-4.3.1-5.42.73a1.93,1.93,0,0,0-.73.62,5.84,5.84,0,0,0-.36.53c-.13.2-.27.4-.39.61a22.75,22.75,0,0,0-1.07,2.6,10.22,10.22,0,0,0-1,2.13c-.07.26-.17.88-.3,1.37a11.13,11.13,0,0,1-.47,1.48,24.1,24.1,0,0,1-2.88,5.07l-1-.46c.51-1.83,1.15-3.61,1.51-5.31.08-.43.15-.84.2-1.26s0-.76.12-1.42a8.79,8.79,0,0,1,1.13-3.08c.56-.85,1.4-1.43,1.87-2.22.12-.2.23-.4.33-.6s.2-.4.37-.68a5,5,0,0,1,1.23-1.39,9.63,9.63,0,0,1,3.06-1.39,7.13,7.13,0,0,0,2.29-1Z"/><path class="cls-8" d="M277.53,95.3c-1.65.31-7.91,7.12-6.23,10.66.83,1.74,5.45,1.91,10.24,1.21s9.66-2.22,10.24-2.89c.75,4.11.67,6.62,4.79,5.82,1.75-.34,4.07-2,5.92-3.83,2.51-2.54,5.77-2.39,4.15-5.51-2.31-4.44-4-1.5-9.43-2.91-3.06-.8-6.51-1.58-9.77-2.15A30.6,30.6,0,0,0,277.53,95.3Z"/><path class="cls-6" d="M277.53,95.3c-1.65.31-7.91,7.12-6.23,10.66.83,1.74,5.45,1.91,10.24,1.21s9.66-2.22,10.24-2.89c.75,4.11.67,6.62,4.79,5.82,1.75-.34,4.07-2,5.92-3.83,2.51-2.54,5.77-2.39,4.15-5.51-2.31-4.44-4-1.5-9.43-2.91-3.06-.8-6.51-1.58-9.77-2.15A30.6,30.6,0,0,0,277.53,95.3Z"/><path class="cls-7" d="M300.84,91.13c3.81-1.89,2.87-1,8.38-.22a30.41,30.41,0,0,1,8.25,1.92,26.88,26.88,0,0,1,7.68,5.5,43,43,0,0,1,6.38,7,69.6,69.6,0,0,1,4.62,8.47c-3.68,2.52-3.06-1.87-7.91-4.37-2.29-1.18-5-2.49-8-3.85-2.54-1.14-5.36-2.17-8.29-3.27-2.69-1-5.39-2.39-8.31-3.27s-5.79-1.26-8.73-1.87a80.2,80.2,0,0,0-8.76-1.71,63.86,63.86,0,0,0-9.24,0,19.67,19.67,0,0,1,9.2-5.1,23.34,23.34,0,0,1,10.31-.5,34.7,34.7,0,0,1,7.83,2.55c2.38,1.06,4.59,2.56,7.23,3.93a50.57,50.57,0,0,1,9.45,6.06"/><path class="cls-1" d="M300.4,90.25a12.72,12.72,0,0,1,2.91-1.15,4.76,4.76,0,0,1,1.78,0c.52.09,1,.21,1.44.3,1.82.42,3.65.6,5.61.91a24.73,24.73,0,0,1,5.73,1.59A21.87,21.87,0,0,1,323,95.08c1.54,1.24,2.93,2.57,4.32,3.9a43.14,43.14,0,0,1,4,4.31,56.91,56.91,0,0,1,5.8,10.1l.4.81-.73.44a4.62,4.62,0,0,1-2.38.92,2.49,2.49,0,0,1-1.5-.48,5,5,0,0,1-.9-.86,17.29,17.29,0,0,0-2.55-2.83,9.47,9.47,0,0,0-1.5-1c-.57-.29-1.19-.57-1.78-.86l-3.58-1.72-1.79-.86-.9-.43-.92-.37-3.69-1.46-3.7-1.46c-1.28-.49-2.51-1-3.73-1.55a35.61,35.61,0,0,0-7.41-2.42c-2.55-.54-5.24-1-7.85-1.59a42.81,42.81,0,0,0-7.71-1.31,70.53,70.53,0,0,0-7.88.1l-2.51.14,1.75-1.82A21.5,21.5,0,0,1,287.39,89a24.47,24.47,0,0,1,6.33-.52,26.18,26.18,0,0,1,6.23,1.18,39.14,39.14,0,0,1,5.79,2.39c1.87,1,3.56,2.09,5.29,3.11s3.54,2,5.21,3.24a32.41,32.41,0,0,1,4.67,4,82.93,82.93,0,0,0-10.69-5.77c-1.84-.93-3.59-2-5.36-2.85a38,38,0,0,0-5.53-2.11,24.08,24.08,0,0,0-5.73-1.08,23.31,23.31,0,0,0-5.8.44,19.41,19.41,0,0,0-10.21,5.13l-.76-1.67a72.35,72.35,0,0,1,8.1-.1,44.69,44.69,0,0,1,8,1.35c2.57.62,5.16,1,7.82,1.58a35.57,35.57,0,0,1,4,1.06c1.31.44,2.56,1,3.8,1.48s2.44,1.06,3.66,1.52l3.74,1.48,3.74,1.48.93.37.91.43,1.81.87,3.63,1.74c.61.3,1.2.57,1.82.88a11.45,11.45,0,0,1,1.82,1.21,18.8,18.8,0,0,1,2.8,3.08,3.17,3.17,0,0,0,.53.52c.07,0,.14.1.19.1a.27.27,0,0,0,.17,0,3,3,0,0,0,1.27-.57l-.33,1.25a55.29,55.29,0,0,0-5.58-9.75,41.22,41.22,0,0,0-3.79-4.11c-1.37-1.31-2.74-2.62-4.18-3.78a19.92,19.92,0,0,0-4.62-2.87,22.75,22.75,0,0,0-5.28-1.46c-1.82-.29-3.8-.49-5.7-.93a6.89,6.89,0,0,0-2.44-.32,11.54,11.54,0,0,0-2.39,1Z"/><path class="cls-1" d="M292.26,104.46c-1.11,4.74-1.3,4-2.64,9.36a75.74,75.74,0,0,0-1.93,9.55,30.08,30.08,0,0,0,.29,9.68c-1.56.75-2.49,0-3.28-1.5-2.11-4.14.31-4.14,1-9.38.37-2.83,1-6,1.75-9.12a44.86,44.86,0,0,1,2.76-8.88C292.85,99.95,292.81,102.12,292.26,104.46Z"/><path class="cls-7" d="M299,108a16.28,16.28,0,0,1,6.55,7.12,15,15,0,0,1,.75,9.66c-.62,2.61-2.37,5.33-4.52,8.57a54.08,54.08,0,0,1-6.05,7.52,84.43,84.43,0,0,1-6.72,7c-2.27,1.93-5,3.78-7.85,5.86a26.11,26.11,0,0,1-6-7.51,57.43,57.43,0,0,1-4-8.7,58.65,58.65,0,0,1-2.6-9.23,34.5,34.5,0,0,1-.08-9.54c.34-3.6,1.41-6.47,3.58-8.43a16.45,16.45,0,0,1,7.82-4.3c5.23-1,4.12,1.43,8.7,1.41C294.06,107.49,293.54,104.81,299,108Z"/><path class="cls-1" d="M299.63,107a18.84,18.84,0,0,1,5.92,5.19,14.42,14.42,0,0,1,2.92,7.53,18.18,18.18,0,0,1-1.28,7.87,27.83,27.83,0,0,1-3.65,6.78,52.87,52.87,0,0,1-5,5.62c-.87.88-1.68,1.72-2.6,2.61s-1.85,1.66-2.8,2.44c-3.75,3.08-7.58,6.1-11.38,9.18l-.62.5-.67-.52a26.84,26.84,0,0,1-6.33-7.73,56.52,56.52,0,0,1-4.53-8.73,55.14,55.14,0,0,1-2.91-9.45,35.59,35.59,0,0,1-.18-10.08,16.7,16.7,0,0,1,1.32-5.23,12.66,12.66,0,0,1,1.44-2.45,11.28,11.28,0,0,1,.94-1.1c.17-.17.35-.33.53-.5l.47-.41a23.67,23.67,0,0,1,4.19-3,13.64,13.64,0,0,1,2.51-1.06,10.57,10.57,0,0,1,1.39-.31c.47-.07.9-.1,1.36-.13a7.14,7.14,0,0,1,2.93.42,10.36,10.36,0,0,1,2.24,1.47,5.58,5.58,0,0,0,4,.82,8.31,8.31,0,0,0,2.17-.45,12,12,0,0,1,2.48-.75,5.94,5.94,0,0,1,2.8.37A17.45,17.45,0,0,1,299.63,107ZM298.49,109c-1.27-.81-2.63-1.61-3.82-1.55a9.57,9.57,0,0,0-2.12.57,13,13,0,0,1-2.51.57,12.26,12.26,0,0,1-2.61.1,6.69,6.69,0,0,1-2.7-.83,6.84,6.84,0,0,0-1.89-.94A4.65,4.65,0,0,0,281,107c-.33.07-.7.16-1,.26a7.49,7.49,0,0,0-.92.37,13.16,13.16,0,0,0-1.79,1.07,37.94,37.94,0,0,0-3.45,2.84l-.42.39-.34.34a8.49,8.49,0,0,0-.62.73,8.71,8.71,0,0,0-1,1.68,14.26,14.26,0,0,0-1.06,4,37.25,37.25,0,0,0-.22,9.07,56.25,56.25,0,0,0,2.27,9,48.93,48.93,0,0,0,3.86,8.52,23.38,23.38,0,0,0,5.5,7.25l-1.29,0c3.77-3,7.6-5.91,11.2-9.15.9-.8,1.77-1.6,2.6-2.43s1.63-1.75,2.44-2.63a35.42,35.42,0,0,0,4.32-5.54,25.5,25.5,0,0,0,2.62-6.29,18.15,18.15,0,0,0,.8-6.42,16.57,16.57,0,0,0-1.79-6.07A13.21,13.21,0,0,0,298.49,109Z"/><path class="cls-1" d="M290,106.94a14.66,14.66,0,0,1-.14,2.66c-.1.83-.23,1.63-.37,2.43-.29,1.6-.63,3.17-1,4.74l-2.22,9.31-2.34,9.26c-.34,1.55-.67,3.11-.94,4.67-.13.78-.26,1.57-.34,2.36a7.6,7.6,0,0,0,0,2.37,7.67,7.67,0,0,1-.16-2.38c0-.8.1-1.59.19-2.39.17-1.59.39-3.17.63-4.75l1.63-9.42,1.45-9.43c.22-1.56.42-3.13.55-4.68.07-.78.12-1.55.15-2.31a12.21,12.21,0,0,0-.07-2.1Z"/><path class="cls-1" d="M288.45,115.61a3.76,3.76,0,0,0,.62.64c.27.24.58.49.88.73.62.48,1.25,1,1.88,1.5.32.27.63.53.94.83a5.17,5.17,0,0,1,.93,1.1,14,14,0,0,1,.89,2.39,48.77,48.77,0,0,1,1.79,9.49l-1.52-4.56c-.51-1.51-1-3-1.59-4.48a13,13,0,0,0-1-2,4.08,4.08,0,0,0-.68-.67c-.28-.24-.59-.47-.9-.69l-1.95-1.38c-.33-.24-.66-.48-1-.76a5.17,5.17,0,0,1-1-1.07Z"/><path class="cls-1" d="M285.43,129c-2.25,1.57-.06,4.38,2.91,6.39,2.62,1.78,6.27,3,7.69,2.94-.3-3.75-1.76-3.74-4-6.54C290.09,129.4,287.4,127.62,285.43,129Z"/><path class="cls-9" d="M278,134.55c.3-.07-2.64-8.92-1.43-12.22a9.6,9.6,0,0,0-1.82,6.36c-2.95-3.12-2.95-5.06-2.26-8.15-2.05-1-.79,3-.75,4.47-.21,0-1.36-4-.24-8a11.34,11.34,0,0,1,4.71-6.42c.46,0-.86,1.64-.79,3.63-.26-.07,2.41-3.75,5.56-4.4-.13.12-2.09,2.67-1.31,4.48-.27,0,1.81-3.53,5.86-4.39,3.12,3-2.39,2.8-4.36,7.66a58.07,58.07,0,0,0-2.13,8.43A50.35,50.35,0,0,0,278,134.55Z"/><path class="cls-9" d="M244.57,95c.2,0,5.85-6.38,9.06-8.09a20.18,20.18,0,0,0-6.07,3.42c1.32-3.68,2.43-3.85,5.21-5.58-.44-2.32-2.42,1.64-3.58,2.59a20.56,20.56,0,0,1,6-5.2,20.11,20.11,0,0,1,7.52-2.73c.21.15-1.61,1-3.15,2.28-.07-.12,4.24-1.92,6.31-1.41-.16,0-3.61,1.11-4.65,2.47a11.14,11.14,0,0,1,6.34-1c-1.33,4.26-2.85,1.59-7.71,4.08-2.29,1.17-5.22,2.13-8,3.88C249.45,91.27,247.08,93.14,244.57,95Z"/><path class="cls-9" d="M241.21,100.42c.16,0,3.71-2.33,7.44-5a50.79,50.79,0,0,1,7.51-4.8c-4.65,1.85-7,2.39-9.41,3.9,3-4.77,4.47-4.64,8.81-6.78,0-3.48-4.08,1.85-6,3-.06-.08,2.82-1.68,6.7-3.81a56.38,56.38,0,0,1,6.89-3.52,32.82,32.82,0,0,1,7.46-2.33c.25.17-2.63,1.06-5.1,2.6-.07-.14,6.52-2,9.27-1.43-.23,0-5.2,1.32-7,3-.13-.11,6.09-2,9.66-1.33.66,4.93-3.79.38-9.9,2.65-2.58,1-5.69,2.17-9.18,3.84-2.69,1.29-5.43,3.2-8.6,5C247.13,96.94,244.19,98.48,241.21,100.42Z"/><path class="cls-9" d="M305.84,98c-.14.08-5.95-3.14-8.75-3.64a16.34,16.34,0,0,1,5.38,1c-1.87-2.43-3.23-2.2-5.72-2.82-.23-1.83,2.67.58,3.76,1,.06-.13-6.64-3.18-11.86-2.13a7,7,0,0,1,2.85.16,11.69,11.69,0,0,0-5,.92c.13,0,2.9-.36,4,.4a9.39,9.39,0,0,0-5.09.87c4.61,2.49,4.12.46,10.23,1.71A78.69,78.69,0,0,1,305.84,98Z"/><path class="cls-9" d="M345.48,87.31c-.16.08-4.74-5.91-7.46-6.89a10.84,10.84,0,0,1,4.76,2.4c-1.19-3-2.25-3.31-4.62-4.38.2-1.87,2.4,1.25,3.41,1.91.09-.15-5.82-5.1-11.4-4.53-.16.18,1.27.36,2.59,1.24.05-.12-3.46-1-5.14-.16.13,0,2.73.55,3.66,1.61a7.12,7.12,0,0,0-5.17.1c4.84,2.38,3.4-.63,10.3,2.84A67.15,67.15,0,0,1,345.48,87.31Z"/><path class="cls-9" d="M200.84,73.11c.22,0,3.14-9.17,6-11.6a17.2,17.2,0,0,0-4.91,5c.4-4,1.45-4.62,3.85-7-1-2.21-2.34,2.25-3.28,3.47a23.74,23.74,0,0,1,5-6.4,18.81,18.81,0,0,1,7-4c.25.11-1.58.79-2.82,2.41-.1-.11,3.89-3.07,6.13-3-.15.07-3.13,2.31-3.85,3.93a12.17,12.17,0,0,1,6.48-2.37c-1,4.54-3.53,1.21-8,5.06a59,59,0,0,0-6.17,6.92A65.9,65.9,0,0,0,200.84,73.11Z"/><path class="cls-9" d="M196,72.3c.16,0,2-6.76,3.55-9a13.11,13.11,0,0,0-2.79,4.12c-.43-2.93-.11-3.38,1.17-5.49-1.1-1.39-.8,1.93-1.25,3,.94-2.95,2.16-8.2,6.17-10,.2,0-.69,1.31-1.28,2.68-.09-.06,2.19-2.58,3.8-2.91-.09.08-2.24,1.76-2.46,3-.11,0,3.09-3.09,5.17-3.53-2.8,4.7-3.35,2.82-6.9,8.42A45.78,45.78,0,0,0,196,72.3Z"/><path class="cls-1" d="M287.16,116.69c2.48,4.4,4.89-2.17,9.62-1,5.27,1.26,9.35,1.66,10.19,4.33,1,3.05.33-2.93-3-7.6a10.26,10.26,0,0,0-8.52-4.45c-8.42,0-5.67-4.29-7.34-.81C286,111.68,284.75,112.4,287.16,116.69Z"/><path class="cls-6" d="M287.16,116.69c2.48,4.4,4.89-2.17,9.62-1,5.27,1.26,9.35,1.66,10.19,4.33,1,3.05.33-2.93-3-7.6a10.26,10.26,0,0,0-8.52-4.45c-8.42,0-5.67-4.29-7.34-.81C286,111.68,284.75,112.4,287.16,116.69Z"/><path class="cls-1" d="M283.18,127.65c1.75-2.66-9.58-.94-11.37,0C277.08,130.28,281.41,130.34,283.18,127.65Z"/></svg>